  0
SECTION
  2
HEADER
  9
$ACADVER
  1
AC1032
  9
$ACADMAINTVER
 90
      329
  9
$DWGCODEPAGE
  3
ANSI_1252
  9
$LASTSAVEDBY
  1
kq9p
  9
$REQUIREDVERSIONS
160
                 0
  9
$INSBASE
 10
0.0
 20
0.0
 30
0.0
  9
$EXTMIN
 10
3.803497827459068
 20
-449.0889801652047
 30
-0.0000000116415251
  9
$EXTMAX
 10
816.603495889527
 20
8.111020030503823
 30
-0.0000000116415251
  9
$LIMMIN
 10
0.0
 20
0.0
  9
$LIMMAX
 10
12.0
 20
9.0
  9
$ORTHOMODE
 70
     0
  9
$REGENMODE
 70
     1
  9
$FILLMODE
 70
     1
  9
$QTEXTMODE
 70
     0
  9
$MIRRTEXT
 70
     0
  9
$LTSCALE
 40
1.0
  9
$ATTMODE
 70
     1
  9
$TEXTSIZE
 40
0.2
  9
$TRACEWID
 40
0.05
  9
$TEXTSTYLE
  7
Standard
  9
$CLAYER
  8
0
  9
$CELTYPE
  6
ByLayer
  9
$CECOLOR
 62
   256
  9
$CELTSCALE
 40
1.0
  9
$DISPSILH
 70
     0
  9
$DIMSCALE
 40
1.0
  9
$DIMASZ
 40
0.18
  9
$DIMEXO
 40
0.0625
  9
$DIMDLI
 40
0.38
  9
$DIMRND
 40
0.0
  9
$DIMDLE
 40
0.0
  9
$DIMEXE
 40
0.18
  9
$DIMTP
 40
0.0
  9
$DIMTM
 40
0.0
  9
$DIMTXT
 40
0.18
  9
$DIMCEN
 40
0.09
  9
$DIMTSZ
 40
0.0
  9
$DIMTOL
 70
     0
  9
$DIMLIM
 70
     0
  9
$DIMTIH
 70
     1
  9
$DIMTOH
 70
     1
  9
$DIMSE1
 70
     0
  9
$DIMSE2
 70
     0
  9
$DIMTAD
 70
     0
  9
$DIMZIN
 70
     0
  9
$DIMBLK
  1

  9
$DIMASO
 70
     1
  9
$DIMSHO
 70
     1
  9
$DIMPOST
  1

  9
$DIMAPOST
  1

  9
$DIMALT
 70
     0
  9
$DIMALTD
 70
     2
  9
$DIMALTF
 40
25.4
  9
$DIMLFAC
 40
1.0
  9
$DIMTOFL
 70
     0
  9
$DIMTVP
 40
0.0
  9
$DIMTIX
 70
     0
  9
$DIMSOXD
 70
     0
  9
$DIMSAH
 70
     0
  9
$DIMBLK1
  1

  9
$DIMBLK2
  1

  9
$DIMSTYLE
  2
Standard
  9
$DIMCLRD
 70
     0
  9
$DIMCLRE
 70
     0
  9
$DIMCLRT
 70
     0
  9
$DIMTFAC
 40
1.0
  9
$DIMGAP
 40
0.09
  9
$DIMJUST
 70
     0
  9
$DIMSD1
 70
     0
  9
$DIMSD2
 70
     0
  9
$DIMTOLJ
 70
     1
  9
$DIMTZIN
 70
     0
  9
$DIMALTZ
 70
     0
  9
$DIMALTTZ
 70
     0
  9
$DIMUPT
 70
     0
  9
$DIMDEC
 70
     4
  9
$DIMTDEC
 70
     4
  9
$DIMALTU
 70
     2
  9
$DIMALTTD
 70
     2
  9
$DIMTXSTY
  7
Standard
  9
$DIMAUNIT
 70
     0
  9
$DIMADEC
 70
     0
  9
$DIMALTRND
 40
0.0
  9
$DIMAZIN
 70
     0
  9
$DIMDSEP
 70
    46
  9
$DIMATFIT
 70
     3
  9
$DIMFRAC
 70
     0
  9
$DIMLDRBLK
  1

  9
$DIMLUNIT
 70
     2
  9
$DIMLWD
 70
    -2
  9
$DIMLWE
 70
    -2
  9
$DIMTMOVE
 70
     0
  9
$DIMFXL
 40
1.0
  9
$DIMFXLON
 70
     0
  9
$DIMJOGANG
 40
0.7853981633974483
  9
$DIMTFILL
 70
     0
  9
$DIMTFILLCLR
 70
     0
  9
$DIMARCSYM
 70
     0
  9
$DIMLTYPE
  6

  9
$DIMLTEX1
  6

  9
$DIMLTEX2
  6

  9
$DIMTXTDIRECTION
 70
     0
  9
$LUNITS
 70
     2
  9
$LUPREC
 70
     4
  9
$SKETCHINC
 40
0.1
  9
$FILLETRAD
 40
0.0
  9
$AUNITS
 70
     0
  9
$AUPREC
 70
     0
  9
$MENU
  1
.
  9
$ELEVATION
 40
0.0
  9
$PELEVATION
 40
0.0
  9
$THICKNESS
 40
0.0
  9
$LIMCHECK
 70
     0
  9
$CHAMFERA
 40
0.0
  9
$CHAMFERB
 40
0.0
  9
$CHAMFERC
 40
0.0
  9
$CHAMFERD
 40
0.0
  9
$SKPOLY
 70
     0
  9
$TDCREATE
 40
2460649.634537037
  9
$TDUCREATE
 40
2460649.842870370
  9
$TDUPDATE
 40
2460669.405451389
  9
$TDUUPDATE
 40
2460669.613784722
  9
$TDINDWG
 40
0.1771064815
  9
$TDUSRTIMER
 40
0.1771064815
  9
$USRTIMER
 70
     1
  9
$ANGBASE
 50
0.0
  9
$ANGDIR
 70
     0
  9
$PDMODE
 70
     0
  9
$PDSIZE
 40
0.0
  9
$PLINEWID
 40
0.0
  9
$SPLFRAME
 70
     0
  9
$SPLINETYPE
 70
     6
  9
$SPLINESEGS
 70
     8
  9
$HANDSEED
  5
4076
  9
$SURFTAB1
 70
     6
  9
$SURFTAB2
 70
     6
  9
$SURFTYPE
 70
     6
  9
$SURFU
 70
     6
  9
$SURFV
 70
     6
  9
$UCSBASE
  2

  9
$UCSNAME
  2

  9
$UCSORG
 10
0.0
 20
0.0
 30
0.0
  9
$UCSXDIR
 10
1.0
 20
0.0
 30
0.0
  9
$UCSYDIR
 10
0.0
 20
1.0
 30
0.0
  9
$UCSORTHOREF
  2

  9
$UCSORTHOVIEW
 70
     0
  9
$UCSORGTOP
 10
0.0
 20
0.0
 30
0.0
  9
$UCSORGBOTTOM
 10
0.0
 20
0.0
 30
0.0
  9
$UCSORGLEFT
 10
0.0
 20
0.0
 30
0.0
  9
$UCSORGRIGHT
 10
0.0
 20
0.0
 30
0.0
  9
$UCSORGFRONT
 10
0.0
 20
0.0
 30
0.0
  9
$UCSORGBACK
 10
0.0
 20
0.0
 30
0.0
  9
$PUCSBASE
  2

  9
$PUCSNAME
  2

  9
$PUCSORG
 10
0.0
 20
0.0
 30
0.0
  9
$PUCSXDIR
 10
1.0
 20
0.0
 30
0.0
  9
$PUCSYDIR
 10
0.0
 20
1.0
 30
0.0
  9
$PUCSORTHOREF
  2

  9
$PUCSORTHOVIEW
 70
     0
  9
$PUCSORGTOP
 10
0.0
 20
0.0
 30
0.0
  9
$PUCSORGBOTTOM
 10
0.0
 20
0.0
 30
0.0
  9
$PUCSORGLEFT
 10
0.0
 20
0.0
 30
0.0
  9
$PUCSORGRIGHT
 10
0.0
 20
0.0
 30
0.0
  9
$PUCSORGFRONT
 10
0.0
 20
0.0
 30
0.0
  9
$PUCSORGBACK
 10
0.0
 20
0.0
 30
0.0
  9
$USERI1
 70
     0
  9
$USERI2
 70
     0
  9
$USERI3
 70
     0
  9
$USERI4
 70
     0
  9
$USERI5
 70
     0
  9
$USERR1
 40
0.0
  9
$USERR2
 40
0.0
  9
$USERR3
 40
0.0
  9
$USERR4
 40
0.0
  9
$USERR5
 40
0.0
  9
$WORLDVIEW
 70
     1
  9
$SHADEDGE
 70
     3
  9
$SHADEDIF
 70
    70
  9
$TILEMODE
 70
     1
  9
$MAXACTVP
 70
    64
  9
$PINSBASE
 10
0.0
 20
0.0
 30
0.0
  9
$PLIMCHECK
 70
     0
  9
$PEXTMIN
 10
1.066666610597625
 20
0.8166666875674033
 30
0.0
  9
$PEXTMAX
 10
9.599999495378627
 20
7.350000188106625
 30
0.0
  9
$PLIMMIN
 10
-0.1666668268639272
 20
-0.166666657905879
  9
$PLIMMAX
 10
10.83333293284018
 20
8.333333702537958
  9
$UNITMODE
 70
     0
  9
$VISRETAIN
 70
     1
  9
$PLINEGEN
 70
     0
  9
$PSLTSCALE
 70
     1
  9
$TREEDEPTH
 70
  3020
  9
$CMLSTYLE
  2
Standard
  9
$CMLJUST
 70
     0
  9
$CMLSCALE
 40
1.0
  9
$PROXYGRAPHICS
 70
     1
  9
$MEASUREMENT
 70
     0
  9
$CELWEIGHT
370
    -1
  9
$ENDCAPS
280
     0
  9
$JOINSTYLE
280
     0
  9
$LWDISPLAY
290
     0
  9
$INSUNITS
 70
     1
  9
$HYPERLINKBASE
  1

  9
$STYLESHEET
  1

  9
$XEDIT
290
     1
  9
$CEPSNTYPE
380
     0
  9
$PSTYLEMODE
290
     1
  9
$FINGERPRINTGUID
  2
{5E81B107-9690-D740-818F-F8F7C3C3F660}
  9
$VERSIONGUID
  2
{C55585DE-1274-D249-BAA5-4206A05F4EED}
  9
$EXTNAMES
290
     1
  9
$PSVPSCALE
 40
0.0
  9
$OLESTARTUP
290
     0
  9
$SORTENTS
280
   127
  9
$INDEXCTL
280
     0
  9
$HIDETEXT
280
     1
  9
$XCLIPFRAME
280
     2
  9
$HALOGAP
280
     0
  9
$OBSCOLOR
 70
   257
  9
$OBSLTYPE
280
     0
  9
$INTERSECTIONDISPLAY
280
     0
  9
$INTERSECTIONCOLOR
 70
   257
  9
$DIMASSOC
280
     2
  9
$PROJECTNAME
  1

  9
$CAMERADISPLAY
290
     0
  9
$LENSLENGTH
 40
50.0
  9
$CAMERAHEIGHT
 40
0.0
  9
$STEPSPERSEC
 40
2.0
  9
$STEPSIZE
 40
6.0
  9
$3DDWFPREC
 40
2.0
  9
$PSOLWIDTH
 40
0.25
  9
$PSOLHEIGHT
 40
4.0
  9
$LOFTANG1
 40
1.570796326794896
  9
$LOFTANG2
 40
1.570796326794896
  9
$LOFTMAG1
 40
0.0
  9
$LOFTMAG2
 40
0.0
  9
$LOFTPARAM
 70
     7
  9
$LOFTNORMALS
280
     1
  9
$LATITUDE
 40
37.795
  9
$LONGITUDE
 40
-122.394
  9
$NORTHDIRECTION
 40
0.0
  9
$TIMEZONE
 70
 -8000
  9
$LIGHTGLYPHDISPLAY
280
     1
  9
$TILEMODELIGHTSYNCH
280
     1
  9
$CMATERIAL
347
11
  9
$SOLIDHIST
280
     0
  9
$SHOWHIST
280
     1
  9
$DWFFRAME
280
     2
  9
$DGNFRAME
280
     0
  9
$REALWORLDSCALE
290
     1
  9
$INTERFERECOLOR
 62
     1
  9
$INTERFEREOBJVS
345
33
  9
$INTERFEREVPVS
346
30
  9
$CSHADOW
280
     0
  9
$SHADOWPLANELOCATION
 40
0.0
  0
ENDSEC
  0
SECTION
  2
CLASSES
  0
CLASS
  1
ACDBDICTIONARYWDFLT
  2
AcDbDictionaryWithDefault
  3
ObjectDBX Classes
 90
        0
 91
        1
280
     0
281
     0
  0
CLASS
  1
MATERIAL
  2
AcDbMaterial
  3
ObjectDBX Classes
 90
     1153
 91
        3
280
     0
281
     0
  0
CLASS
  1
VISUALSTYLE
  2
AcDbVisualStyle
  3
ObjectDBX Classes
 90
     4095
 91
       24
280
     0
281
     0
  0
CLASS
  1
SCALE
  2
AcDbScale
  3
ObjectDBX Classes
 90
     1153
 91
       17
280
     0
281
     0
  0
CLASS
  1
TABLESTYLE
  2
AcDbTableStyle
  3
ObjectDBX Classes
 90
     4095
 91
        1
280
     0
281
     0
  0
CLASS
  1
MLEADERSTYLE
  2
AcDbMLeaderStyle
  3
ACDB_MLEADERSTYLE_CLASS
 90
     4095
 91
        1
280
     0
281
     0
  0
CLASS
  1
ACDBSECTIONVIEWSTYLE
  2
AcDbSectionViewStyle
  3
ObjectDBX Classes
 90
     1025
 91
        1
280
     0
281
     0
  0
CLASS
  1
ACDBDETAILVIEWSTYLE
  2
AcDbDetailViewStyle
  3
ObjectDBX Classes
 90
     1025
 91
        1
280
     0
281
     0
  0
CLASS
  1
DICTIONARYVAR
  2
AcDbDictionaryVar
  3
ObjectDBX Classes
 90
        0
 91
        5
280
     0
281
     0
  0
CLASS
  1
CELLSTYLEMAP
  2
AcDbCellStyleMap
  3
ObjectDBX Classes
 90
     1152
 91
        3
280
     0
281
     0
  0
ENDSEC
  0
SECTION
  2
TABLES
  0
TABLE
  2
VPORT
  5
8
330
0
100
AcDbSymbolTable
 70
     1
  0
VPORT
  5
57
330
8
100
AcDbSymbolTableRecord
100
AcDbViewportTableRecord
  2
*Active
 70
     0
 10
0.0
 20
0.0
 11
1.0
 21
1.0
 12
408.3017479447636
 22
-220.0444900826024
 13
0.0
 23
0.0
 14
0.5
 24
0.5
 15
0.5
 25
0.5
 16
0.0
 26
0.0
 36
1.0
 17
0.0
 27
0.0
 37
0.0
 40
460.394797179459
 41
2.089840470193114
 42
50.0
 43
0.0
 44
0.0
 50
0.0
 51
0.0
 71
     0
 72
  1000
 73
     1
 74
     3
 75
     0
 76
     0
 77
     0
 78
     0
281
     0
 65
     1
110
0.0
120
0.0
130
0.0
111
1.0
121
0.0
131
0.0
112
0.0
122
1.0
132
0.0
 79
     0
146
0.0
348
2F
 60
     3
 61
     5
292
     1
282
     1
141
0.0
142
0.0
 63
   250
421
  3355443
1001
ACAD_NAV_VCDISPLAY
1070
     1
  0
ENDTAB
  0
TABLE
  2
LTYPE
  5
5
330
0
100
AcDbSymbolTable
 70
     3
  0
LTYPE
  5
5B
330
5
100
AcDbSymbolTableRecord
100
AcDbLinetypeTableRecord
  2
ByBlock
 70
     0
  3

 72
    65
 73
     0
 40
0.0
  0
LTYPE
  5
5C
330
5
100
AcDbSymbolTableRecord
100
AcDbLinetypeTableRecord
  2
ByLayer
 70
     0
  3

 72
    65
 73
     0
 40
0.0
  0
LTYPE
  5
5D
330
5
100
AcDbSymbolTableRecord
100
AcDbLinetypeTableRecord
  2
Continuous
 70
     0
  3
Solid line
 72
    65
 73
     0
 40
0.0
  0
ENDTAB
  0
TABLE
  2
LAYER
  5
2
102
{ACAD_XDICTIONARY
360
F39
102
}
330
0
100
AcDbSymbolTable
 70
     1
  0
LAYER
  5
54
330
2
100
AcDbSymbolTableRecord
100
AcDbLayerTableRecord
  2
0
 70
     0
 62
     7
  6
Continuous
370
    -3
390
F
347
21
348
0
  0
ENDTAB
  0
TABLE
  2
STYLE
  5
3
330
0
100
AcDbSymbolTable
 70
     2
  0
STYLE
  5
55
330
3
100
AcDbSymbolTableRecord
100
AcDbTextStyleTableRecord
  2
Standard
 70
     0
 40
0.0
 41
1.0
 50
0.0
 71
     0
 42
0.2
  3
txt
  4

  0
STYLE
  5
5A
330
3
100
AcDbSymbolTableRecord
100
AcDbTextStyleTableRecord
  2
Annotative
 70
     0
 40
0.0
 41
1.0
 50
0.0
 71
     0
 42
0.2
  3
txt
  4

1001
AcadAnnotative
1000
AnnotativeData
1002
{
1070
     1
1070
     1
1002
}
  0
ENDTAB
  0
TABLE
  2
VIEW
  5
6
330
0
100
AcDbSymbolTable
 70
     1
  0
ENDTAB
  0
TABLE
  2
UCS
  5
7
330
0
100
AcDbSymbolTable
 70
     0
  0
ENDTAB
  0
TABLE
  2
APPID
  5
9
330
0
100
AcDbSymbolTable
 70
     6
  0
APPID
  5
56
330
9
100
AcDbSymbolTableRecord
100
AcDbRegAppTableRecord
  2
ACAD
 70
     0
  0
APPID
  5
5E
330
9
100
AcDbSymbolTableRecord
100
AcDbRegAppTableRecord
  2
AcadAnnotative
 70
     0
  0
APPID
  5
7A
330
9
100
AcDbSymbolTableRecord
100
AcDbRegAppTableRecord
  2
ACAD_NAV_VCDISPLAY
 70
     0
  0
APPID
  5
7C
330
9
100
AcDbSymbolTableRecord
100
AcDbRegAppTableRecord
  2
ACAD_EXEMPT_FROM_CAD_STANDARDS
 70
     0
  0
APPID
  5
8D
330
9
100
AcDbSymbolTableRecord
100
AcDbRegAppTableRecord
  2
DCO15
 70
     0
  0
APPID
  5
F44
330
9
100
AcDbSymbolTableRecord
100
AcDbRegAppTableRecord
  2
ACAD_PSEXT
 70
     0
  0
ENDTAB
  0
TABLE
  2
DIMSTYLE
  5
A
330
0
100
AcDbSymbolTable
 70
     4
100
AcDbDimStyleTable
 71
     1
340
58
  0
DIMSTYLE
105
58
330
A
100
AcDbSymbolTableRecord
100
AcDbDimStyleTableRecord
  2
Standard
 70
     0
340
55
  0
DIMSTYLE
105
59
330
A
100
AcDbSymbolTableRecord
100
AcDbDimStyleTableRecord
  2
Annotative
 70
     0
340
55
1001
AcadAnnotative
1000
AnnotativeData
1002
{
1070
     1
1070
     1
1002
}
  0
ENDTAB
  0
TABLE
  2
BLOCK_RECORD
  5
1
330
0
100
AcDbSymbolTable
 70
     7
  0
BLOCK_RECORD
  5
70
330
1
100
AcDbSymbolTableRecord
100
AcDbBlockTableRecord
  2
*Model_Space
340
73
 70
     0
280
     1
281
     0
  0
BLOCK_RECORD
  5
74
330
1
100
AcDbSymbolTableRecord
100
AcDbBlockTableRecord
  2
*Paper_Space
340
77
 70
     0
280
     1
281
     0
  0
BLOCK_RECORD
  5
6C
330
1
100
AcDbSymbolTableRecord
100
AcDbBlockTableRecord
  2
*Paper_Space0
340
6F
 70
     0
280
     1
281
     0
  0
BLOCK_RECORD
  5
95
330
1
100
AcDbSymbolTableRecord
100
AcDbBlockTableRecord
  2
NoseconeInner
340
0
 70
     0
280
     1
281
     0
  0
ENDTAB
  0
ENDSEC
  0
SECTION
  2
BLOCKS
  0
BLOCK
  5
71
330
70
100
AcDbEntity
  8
0
100
AcDbBlockBegin
  2
*Model_Space
 70
     0
 10
0.0
 20
0.0
 30
0.0
  3
*Model_Space
  1

  0
ENDBLK
  5
72
330
70
100
AcDbEntity
  8
0
100
AcDbBlockEnd
  0
BLOCK
  5
75
330
74
100
AcDbEntity
 67
     1
  8
0
100
AcDbBlockBegin
  2
*Paper_Space
 70
     0
 10
0.0
 20
0.0
 30
0.0
  3
*Paper_Space
  1

  0
ENDBLK
  5
76
330
74
100
AcDbEntity
 67
     1
  8
0
100
AcDbBlockEnd
  0
BLOCK
  5
6D
330
6C
100
AcDbEntity
 67
     1
  8
0
100
AcDbBlockBegin
  2
*Paper_Space0
 70
     0
 10
0.0
 20
0.0
 30
0.0
  3
*Paper_Space0
  1

  0
VIEWPORT
  5
F41
102
{ACAD_XDICTIONARY
360
F42
102
}
330
6C
100
AcDbEntity
 67
     1
  8
0
348
2F
100
AcDbViewport
 10
5.333333052988124
 20
4.083333522316038
 30
0.0
 40
18.79393614540646
 41
8.993000381349578
 68
     0
 69
     1
 12
5.333333052988124
 22
4.083333522316038
 13
0.0
 23
0.0
 14
0.5
 24
0.5
 15
0.5
 25
0.5
 16
0.0
 26
0.0
 36
1.0
 17
0.0
 27
0.0
 37
0.0
 42
50.0
 43
0.0
 44
0.0
 45
8.993000381349578
 50
0.0
 51
0.0
 72
  1000
 90
   819232
  1

281
     0
 71
     1
 74
     0
110
0.0
120
0.0
130
0.0
111
1.0
121
0.0
131
0.0
112
0.0
122
1.0
132
0.0
 79
     0
146
0.0
170
     0
 61
     5
292
     1
282
     1
141
0.0
142
0.0
 63
   250
421
  3355443
  0
VIEWPORT
  5
F46
102
{ACAD_XDICTIONARY
360
F47
102
}
330
6C
100
AcDbEntity
 67
     1
  8
0
348
2F
100
AcDbViewport
 10
5.333333052988124
 20
4.083333437837015
 30
0.0
 40
8.533332884781003
 41
6.533333500539223
 68
     0
 69
     0
 12
408.9750650242227
 22
-220.4889807395925
 13
0.0
 23
0.0
 14
0.5
 24
0.5
 15
0.5
 25
0.5
 16
0.0
 26
0.0
 36
1.0
 17
0.0
 27
0.0
 37
0.0
 42
50.0
 43
0.0
 44
0.0
 45
627.4953208173151
 50
0.0
 51
0.0
 72
  1000
 90
   819296
  1

281
     0
 71
     1
 74
     0
110
0.0
120
0.0
130
0.0
111
1.0
121
0.0
131
0.0
112
0.0
122
1.0
132
0.0
 79
     0
146
0.0
170
     0
 61
     5
292
     1
282
     1
141
0.0
142
0.0
 63
   250
421
  3355443
  0
ENDBLK
  5
6E
330
6C
100
AcDbEntity
 67
     1
  8
0
100
AcDbBlockEnd
  0
BLOCK
  5
296
330
95
100
AcDbEntity
  8
0
100
AcDbBlockBegin
  2
NoseconeInner
 70
     0
 10
0.0
 20
0.0
 30
0.0
  3
NoseconeInner
  1

  0
LINE
  5
96
330
95
100
AcDbEntity
  8
0
100
AcDbLine
 10
1.14362
 20
-46.586
 30
0.0
 11
2.286559999999999
 21
-46.5439
 31
0.0
  0
LINE
  5
97
330
95
100
AcDbEntity
  8
0
100
AcDbLine
 10
2.286559999999999
 20
-46.5439
 30
0.0
 11
3.4281
 21
-46.4737
 31
0.0
  0
LINE
  5
98
330
95
100
AcDbEntity
  8
0
100
AcDbLine
 10
3.4281
 20
-46.4737
 30
0.0
 11
4.56758
 21
-46.37559999999999
 31
0.0
  0
LINE
  5
99
330
95
100
AcDbEntity
  8
0
100
AcDbLine
 10
4.56758
 20
-46.37559999999999
 30
0.0
 11
5.70433
 21
-46.2496
 31
0.0
  0
LINE
  5
9A
330
95
100
AcDbEntity
  8
0
100
AcDbLine
 10
5.70433
 20
-46.2496
 30
0.0
 11
6.837629999999997
 21
-46.0956
 31
0.0
  0
LINE
  5
9B
330
95
100
AcDbEntity
  8
0
100
AcDbLine
 10
6.837629999999997
 20
-46.0956
 30
0.0
 11
7.966829999999997
 21
-45.91389999999999
 31
0.0
  0
LINE
  5
9C
330
95
100
AcDbEntity
  8
0
100
AcDbLine
 10
7.966829999999997
 20
-45.91389999999999
 30
0.0
 11
9.0912
 21
-45.70459999999999
 31
0.0
  0
LINE
  5
9D
330
95
100
AcDbEntity
  8
0
100
AcDbLine
 10
9.0912
 20
-45.70459999999999
 30
0.0
 11
10.2101
 21
-45.4677
 31
0.0
  0
LINE
  5
9E
330
95
100
AcDbEntity
  8
0
100
AcDbLine
 10
10.2101
 20
-45.4677
 30
0.0
 11
11.3229
 21
-45.20349999999999
 31
0.0
  0
LINE
  5
9F
330
95
100
AcDbEntity
  8
0
100
AcDbLine
 10
11.3229
 20
-45.20349999999999
 30
0.0
 11
12.4288
 21
-44.912
 31
0.0
  0
LINE
  5
A0
330
95
100
AcDbEntity
  8
0
100
AcDbLine
 10
12.4288
 20
-44.912
 30
0.0
 11
13.5273
 21
-44.5934
 31
0.0
  0
LINE
  5
A1
330
95
100
AcDbEntity
  8
0
100
AcDbLine
 10
13.5273
 20
-44.5934
 30
0.0
 11
14.6176
 21
-44.248
 31
0.0
  0
LINE
  5
A2
330
95
100
AcDbEntity
  8
0
100
AcDbLine
 10
14.6176
 20
-44.248
 30
0.0
 11
15.6991
 21
-43.876
 31
0.0
  0
LINE
  5
A3
330
95
100
AcDbEntity
  8
0
100
AcDbLine
 10
15.6991
 20
-43.876
 30
0.0
 11
16.7711
 21
-43.4775
 31
0.0
  0
LINE
  5
A4
330
95
100
AcDbEntity
  8
0
100
AcDbLine
 10
16.7711
 20
-43.4775
 30
0.0
 11
17.833
 21
-43.05279999999998
 31
0.0
  0
LINE
  5
A5
330
95
100
AcDbEntity
  8
0
100
AcDbLine
 10
17.833
 20
-43.05279999999998
 30
0.0
 11
18.8842
 21
-42.6022
 31
0.0
  0
LINE
  5
A6
330
95
100
AcDbEntity
  8
0
100
AcDbLine
 10
18.8842
 20
-42.6022
 30
0.0
 11
19.9241
 21
-42.1259
 31
0.0
  0
LINE
  5
A7
330
95
100
AcDbEntity
  8
0
100
AcDbLine
 10
19.9241
 20
-42.1259
 30
0.0
 11
20.9519
 21
-41.62429999999999
 31
0.0
  0
LINE
  5
A8
330
95
100
AcDbEntity
  8
0
100
AcDbLine
 10
20.9519
 20
-41.62429999999999
 30
0.0
 11
21.9671
 21
-41.0975
 31
0.0
  0
LINE
  5
A9
330
95
100
AcDbEntity
  8
0
100
AcDbLine
 10
21.9671
 20
-41.0975
 30
0.0
 11
22.9691
 21
-40.5461
 31
0.0
  0
LINE
  5
AA
330
95
100
AcDbEntity
  8
0
100
AcDbLine
 10
22.9691
 20
-40.5461
 30
0.0
 11
23.9572
 21
-39.9702
 31
0.0
  0
LINE
  5
AB
330
95
100
AcDbEntity
  8
0
100
AcDbLine
 10
23.9572
 20
-39.9702
 30
0.0
 11
24.9309
 21
-39.3702
 31
0.0
  0
LINE
  5
AC
330
95
100
AcDbEntity
  8
0
100
AcDbLine
 10
24.9309
 20
-39.3702
 30
0.0
 11
25.8896
 21
-38.7465
 31
0.0
  0
LINE
  5
AD
330
95
100
AcDbEntity
  8
0
100
AcDbLine
 10
25.8896
 20
-38.7465
 30
0.0
 11
26.8327
 21
-38.0995
 31
0.0
  0
LINE
  5
AE
330
95
100
AcDbEntity
  8
0
100
AcDbLine
 10
26.8327
 20
-38.0995
 30
0.0
 11
27.7596
 21
-37.4295
 31
0.0
  0
LINE
  5
AF
330
95
100
AcDbEntity
  8
0
100
AcDbLine
 10
27.7596
 20
-37.4295
 30
0.0
 11
28.6698
 21
-36.7369
 31
0.0
  0
LINE
  5
B0
330
95
100
AcDbEntity
  8
0
100
AcDbLine
 10
28.6698
 20
-36.7369
 30
0.0
 11
29.5627
 21
-36.0223
 31
0.0
  0
LINE
  5
B1
330
95
100
AcDbEntity
  8
0
100
AcDbLine
 10
29.5627
 20
-36.0223
 30
0.0
 11
30.4379
 21
-35.2859
 31
0.0
  0
LINE
  5
B2
330
95
100
AcDbEntity
  8
0
100
AcDbLine
 10
30.4379
 20
-35.2859
 30
0.0
 11
31.2946
 21
-34.5283
 31
0.0
  0
LINE
  5
B3
330
95
100
AcDbEntity
  8
0
100
AcDbLine
 10
31.2946
 20
-34.5283
 30
0.0
 11
32.1326
 21
-33.7499
 31
0.0
  0
LINE
  5
B4
330
95
100
AcDbEntity
  8
0
100
AcDbLine
 10
32.1326
 20
-33.7499
 30
0.0
 11
32.9512
 21
-32.9512
 31
0.0
  0
LINE
  5
B5
330
95
100
AcDbEntity
  8
0
100
AcDbLine
 10
32.9512
 20
-32.9512
 30
0.0
 11
33.7499
 21
-32.1326
 31
0.0
  0
LINE
  5
B6
330
95
100
AcDbEntity
  8
0
100
AcDbLine
 10
33.7499
 20
-32.1326
 30
0.0
 11
34.5283
 21
-31.2946
 31
0.0
  0
LINE
  5
B7
330
95
100
AcDbEntity
  8
0
100
AcDbLine
 10
34.5283
 20
-31.2946
 30
0.0
 11
35.2859
 21
-30.4379
 31
0.0
  0
LINE
  5
B8
330
95
100
AcDbEntity
  8
0
100
AcDbLine
 10
35.2859
 20
-30.4379
 30
0.0
 11
36.0223
 21
-29.5627
 31
0.0
  0
LINE
  5
B9
330
95
100
AcDbEntity
  8
0
100
AcDbLine
 10
36.0223
 20
-29.5627
 30
0.0
 11
36.7369
 21
-28.6698
 31
0.0
  0
LINE
  5
BA
330
95
100
AcDbEntity
  8
0
100
AcDbLine
 10
36.7369
 20
-28.6698
 30
0.0
 11
37.4295
 21
-27.7596
 31
0.0
  0
LINE
  5
BB
330
95
100
AcDbEntity
  8
0
100
AcDbLine
 10
37.4295
 20
-27.7596
 30
0.0
 11
38.0995
 21
-26.8327
 31
0.0
  0
LINE
  5
BC
330
95
100
AcDbEntity
  8
0
100
AcDbLine
 10
38.0995
 20
-26.8327
 30
0.0
 11
38.7465
 21
-25.8896
 31
0.0
  0
LINE
  5
BD
330
95
100
AcDbEntity
  8
0
100
AcDbLine
 10
38.7465
 20
-25.8896
 30
0.0
 11
39.3702
 21
-24.9309
 31
0.0
  0
LINE
  5
BE
330
95
100
AcDbEntity
  8
0
100
AcDbLine
 10
39.3702
 20
-24.9309
 30
0.0
 11
39.9702
 21
-23.9572
 31
0.0
  0
LINE
  5
BF
330
95
100
AcDbEntity
  8
0
100
AcDbLine
 10
39.9702
 20
-23.9572
 30
0.0
 11
40.5461
 21
-22.9691
 31
0.0
  0
LINE
  5
C0
330
95
100
AcDbEntity
  8
0
100
AcDbLine
 10
40.5461
 20
-22.9691
 30
0.0
 11
41.0975
 21
-21.9671
 31
0.0
  0
LINE
  5
C1
330
95
100
AcDbEntity
  8
0
100
AcDbLine
 10
41.0975
 20
-21.9671
 30
0.0
 11
41.62429999999999
 21
-20.9519
 31
0.0
  0
LINE
  5
C2
330
95
100
AcDbEntity
  8
0
100
AcDbLine
 10
41.62429999999999
 20
-20.9519
 30
0.0
 11
42.1259
 21
-19.9241
 31
0.0
  0
LINE
  5
C3
330
95
100
AcDbEntity
  8
0
100
AcDbLine
 10
42.1259
 20
-19.9241
 30
0.0
 11
42.6022
 21
-18.8842
 31
0.0
  0
LINE
  5
C4
330
95
100
AcDbEntity
  8
0
100
AcDbLine
 10
42.6022
 20
-18.8842
 30
0.0
 11
43.05279999999998
 21
-17.833
 31
0.0
  0
LINE
  5
C5
330
95
100
AcDbEntity
  8
0
100
AcDbLine
 10
43.05279999999998
 20
-17.833
 30
0.0
 11
43.4775
 21
-16.7711
 31
0.0
  0
LINE
  5
C6
330
95
100
AcDbEntity
  8
0
100
AcDbLine
 10
43.4775
 20
-16.7711
 30
0.0
 11
43.876
 21
-15.6991
 31
0.0
  0
LINE
  5
C7
330
95
100
AcDbEntity
  8
0
100
AcDbLine
 10
43.876
 20
-15.6991
 30
0.0
 11
44.248
 21
-14.6176
 31
0.0
  0
LINE
  5
C8
330
95
100
AcDbEntity
  8
0
100
AcDbLine
 10
44.248
 20
-14.6176
 30
0.0
 11
44.5934
 21
-13.5273
 31
0.0
  0
LINE
  5
C9
330
95
100
AcDbEntity
  8
0
100
AcDbLine
 10
44.5934
 20
-13.5273
 30
0.0
 11
44.912
 21
-12.4288
 31
0.0
  0
LINE
  5
CA
330
95
100
AcDbEntity
  8
0
100
AcDbLine
 10
44.912
 20
-12.4288
 30
0.0
 11
45.20349999999999
 21
-11.3229
 31
0.0
  0
LINE
  5
CB
330
95
100
AcDbEntity
  8
0
100
AcDbLine
 10
45.20349999999999
 20
-11.3229
 30
0.0
 11
45.4677
 21
-10.2101
 31
0.0
  0
LINE
  5
CC
330
95
100
AcDbEntity
  8
0
100
AcDbLine
 10
45.4677
 20
-10.2101
 30
0.0
 11
45.70459999999999
 21
-9.0912
 31
0.0
  0
LINE
  5
CD
330
95
100
AcDbEntity
  8
0
100
AcDbLine
 10
45.70459999999999
 20
-9.0912
 30
0.0
 11
45.91389999999999
 21
-7.966829999999997
 31
0.0
  0
LINE
  5
CE
330
95
100
AcDbEntity
  8
0
100
AcDbLine
 10
45.91389999999999
 20
-7.966829999999997
 30
0.0
 11
46.0956
 21
-6.837629999999997
 31
0.0
  0
LINE
  5
CF
330
95
100
AcDbEntity
  8
0
100
AcDbLine
 10
46.0956
 20
-6.837629999999997
 30
0.0
 11
46.2496
 21
-5.70433
 31
0.0
  0
LINE
  5
D0
330
95
100
AcDbEntity
  8
0
100
AcDbLine
 10
46.2496
 20
-5.70433
 30
0.0
 11
46.37559999999999
 21
-4.56758
 31
0.0
  0
LINE
  5
D1
330
95
100
AcDbEntity
  8
0
100
AcDbLine
 10
46.37559999999999
 20
-4.56758
 30
0.0
 11
46.4737
 21
-3.4281
 31
0.0
  0
LINE
  5
D2
330
95
100
AcDbEntity
  8
0
100
AcDbLine
 10
46.4737
 20
-3.4281
 30
0.0
 11
46.5439
 21
-2.286559999999999
 31
0.0
  0
LINE
  5
D3
330
95
100
AcDbEntity
  8
0
100
AcDbLine
 10
46.5439
 20
-2.286559999999999
 30
0.0
 11
46.586
 21
-1.14362
 31
0.0
  0
LINE
  5
D4
330
95
100
AcDbEntity
  8
0
100
AcDbLine
 10
46.586
 20
-1.14362
 30
0.0
 11
46.6
 21
0.0
 31
0.0
  0
LINE
  5
D5
330
95
100
AcDbEntity
  8
0
100
AcDbLine
 10
46.6
 20
0.0
 30
0.0
 11
46.586
 21
1.14362
 31
0.0
  0
LINE
  5
D6
330
95
100
AcDbEntity
  8
0
100
AcDbLine
 10
46.586
 20
1.14362
 30
0.0
 11
46.5439
 21
2.286559999999999
 31
0.0
  0
LINE
  5
D7
330
95
100
AcDbEntity
  8
0
100
AcDbLine
 10
46.5439
 20
2.286559999999999
 30
0.0
 11
46.4737
 21
3.4281
 31
0.0
  0
LINE
  5
D8
330
95
100
AcDbEntity
  8
0
100
AcDbLine
 10
46.4737
 20
3.4281
 30
0.0
 11
46.37559999999999
 21
4.56758
 31
0.0
  0
LINE
  5
D9
330
95
100
AcDbEntity
  8
0
100
AcDbLine
 10
46.37559999999999
 20
4.56758
 30
0.0
 11
46.2496
 21
5.70433
 31
0.0
  0
LINE
  5
DA
330
95
100
AcDbEntity
  8
0
100
AcDbLine
 10
46.2496
 20
5.70433
 30
0.0
 11
46.0956
 21
6.837629999999997
 31
0.0
  0
LINE
  5
DB
330
95
100
AcDbEntity
  8
0
100
AcDbLine
 10
46.0956
 20
6.837629999999997
 30
0.0
 11
45.91389999999999
 21
7.966829999999997
 31
0.0
  0
LINE
  5
DC
330
95
100
AcDbEntity
  8
0
100
AcDbLine
 10
45.91389999999999
 20
7.966829999999997
 30
0.0
 11
45.70459999999999
 21
9.0912
 31
0.0
  0
LINE
  5
DD
330
95
100
AcDbEntity
  8
0
100
AcDbLine
 10
45.70459999999999
 20
9.0912
 30
0.0
 11
45.4677
 21
10.2101
 31
0.0
  0
LINE
  5
DE
330
95
100
AcDbEntity
  8
0
100
AcDbLine
 10
45.4677
 20
10.2101
 30
0.0
 11
45.20349999999999
 21
11.3229
 31
0.0
  0
LINE
  5
DF
330
95
100
AcDbEntity
  8
0
100
AcDbLine
 10
45.20349999999999
 20
11.3229
 30
0.0
 11
44.912
 21
12.4288
 31
0.0
  0
LINE
  5
E0
330
95
100
AcDbEntity
  8
0
100
AcDbLine
 10
44.912
 20
12.4288
 30
0.0
 11
44.5934
 21
13.5273
 31
0.0
  0
LINE
  5
E1
330
95
100
AcDbEntity
  8
0
100
AcDbLine
 10
44.5934
 20
13.5273
 30
0.0
 11
44.248
 21
14.6176
 31
0.0
  0
LINE
  5
E2
330
95
100
AcDbEntity
  8
0
100
AcDbLine
 10
44.248
 20
14.6176
 30
0.0
 11
43.876
 21
15.6991
 31
0.0
  0
LINE
  5
E3
330
95
100
AcDbEntity
  8
0
100
AcDbLine
 10
43.876
 20
15.6991
 30
0.0
 11
43.4775
 21
16.7711
 31
0.0
  0
LINE
  5
E4
330
95
100
AcDbEntity
  8
0
100
AcDbLine
 10
43.4775
 20
16.7711
 30
0.0
 11
43.05279999999998
 21
17.833
 31
0.0
  0
LINE
  5
E5
330
95
100
AcDbEntity
  8
0
100
AcDbLine
 10
43.05279999999998
 20
17.833
 30
0.0
 11
42.6022
 21
18.8842
 31
0.0
  0
LINE
  5
E6
330
95
100
AcDbEntity
  8
0
100
AcDbLine
 10
42.6022
 20
18.8842
 30
0.0
 11
42.1259
 21
19.9241
 31
0.0
  0
LINE
  5
E7
330
95
100
AcDbEntity
  8
0
100
AcDbLine
 10
42.1259
 20
19.9241
 30
0.0
 11
41.62429999999999
 21
20.9519
 31
0.0
  0
LINE
  5
E8
330
95
100
AcDbEntity
  8
0
100
AcDbLine
 10
41.62429999999999
 20
20.9519
 30
0.0
 11
41.0975
 21
21.9671
 31
0.0
  0
LINE
  5
E9
330
95
100
AcDbEntity
  8
0
100
AcDbLine
 10
41.0975
 20
21.9671
 30
0.0
 11
40.5461
 21
22.9691
 31
0.0
  0
LINE
  5
EA
330
95
100
AcDbEntity
  8
0
100
AcDbLine
 10
40.5461
 20
22.9691
 30
0.0
 11
39.9702
 21
23.9572
 31
0.0
  0
LINE
  5
EB
330
95
100
AcDbEntity
  8
0
100
AcDbLine
 10
39.9702
 20
23.9572
 30
0.0
 11
39.3702
 21
24.9309
 31
0.0
  0
LINE
  5
EC
330
95
100
AcDbEntity
  8
0
100
AcDbLine
 10
39.3702
 20
24.9309
 30
0.0
 11
38.7465
 21
25.8896
 31
0.0
  0
LINE
  5
ED
330
95
100
AcDbEntity
  8
0
100
AcDbLine
 10
38.7465
 20
25.8896
 30
0.0
 11
38.0995
 21
26.8327
 31
0.0
  0
LINE
  5
EE
330
95
100
AcDbEntity
  8
0
100
AcDbLine
 10
38.0995
 20
26.8327
 30
0.0
 11
37.4295
 21
27.7596
 31
0.0
  0
LINE
  5
EF
330
95
100
AcDbEntity
  8
0
100
AcDbLine
 10
37.4295
 20
27.7596
 30
0.0
 11
36.7369
 21
28.6698
 31
0.0
  0
LINE
  5
F0
330
95
100
AcDbEntity
  8
0
100
AcDbLine
 10
36.7369
 20
28.6698
 30
0.0
 11
36.0223
 21
29.5627
 31
0.0
  0
LINE
  5
F1
330
95
100
AcDbEntity
  8
0
100
AcDbLine
 10
36.0223
 20
29.5627
 30
0.0
 11
35.2859
 21
30.4379
 31
0.0
  0
LINE
  5
F2
330
95
100
AcDbEntity
  8
0
100
AcDbLine
 10
35.2859
 20
30.4379
 30
0.0
 11
34.5283
 21
31.2946
 31
0.0
  0
LINE
  5
F3
330
95
100
AcDbEntity
  8
0
100
AcDbLine
 10
34.5283
 20
31.2946
 30
0.0
 11
33.7499
 21
32.1326
 31
0.0
  0
LINE
  5
F4
330
95
100
AcDbEntity
  8
0
100
AcDbLine
 10
33.7499
 20
32.1326
 30
0.0
 11
32.9512
 21
32.9512
 31
0.0
  0
LINE
  5
F5
330
95
100
AcDbEntity
  8
0
100
AcDbLine
 10
32.9512
 20
32.9512
 30
0.0
 11
32.1326
 21
33.7499
 31
0.0
  0
LINE
  5
F6
330
95
100
AcDbEntity
  8
0
100
AcDbLine
 10
32.1326
 20
33.7499
 30
0.0
 11
31.2946
 21
34.5283
 31
0.0
  0
LINE
  5
F7
330
95
100
AcDbEntity
  8
0
100
AcDbLine
 10
31.2946
 20
34.5283
 30
0.0
 11
30.4379
 21
35.2859
 31
0.0
  0
LINE
  5
F8
330
95
100
AcDbEntity
  8
0
100
AcDbLine
 10
30.4379
 20
35.2859
 30
0.0
 11
29.5627
 21
36.0223
 31
0.0
  0
LINE
  5
F9
330
95
100
AcDbEntity
  8
0
100
AcDbLine
 10
29.5627
 20
36.0223
 30
0.0
 11
28.6698
 21
36.7369
 31
0.0
  0
LINE
  5
FA
330
95
100
AcDbEntity
  8
0
100
AcDbLine
 10
28.6698
 20
36.7369
 30
0.0
 11
27.7596
 21
37.4295
 31
0.0
  0
LINE
  5
FB
330
95
100
AcDbEntity
  8
0
100
AcDbLine
 10
27.7596
 20
37.4295
 30
0.0
 11
26.8327
 21
38.0995
 31
0.0
  0
LINE
  5
FC
330
95
100
AcDbEntity
  8
0
100
AcDbLine
 10
26.8327
 20
38.0995
 30
0.0
 11
25.8896
 21
38.7465
 31
0.0
  0
LINE
  5
FD
330
95
100
AcDbEntity
  8
0
100
AcDbLine
 10
25.8896
 20
38.7465
 30
0.0
 11
24.9309
 21
39.3702
 31
0.0
  0
LINE
  5
FE
330
95
100
AcDbEntity
  8
0
100
AcDbLine
 10
24.9309
 20
39.3702
 30
0.0
 11
23.9572
 21
39.9702
 31
0.0
  0
LINE
  5
FF
330
95
100
AcDbEntity
  8
0
100
AcDbLine
 10
23.9572
 20
39.9702
 30
0.0
 11
22.9691
 21
40.5461
 31
0.0
  0
LINE
  5
100
330
95
100
AcDbEntity
  8
0
100
AcDbLine
 10
22.9691
 20
40.5461
 30
0.0
 11
21.9671
 21
41.0975
 31
0.0
  0
LINE
  5
101
330
95
100
AcDbEntity
  8
0
100
AcDbLine
 10
21.9671
 20
41.0975
 30
0.0
 11
20.9519
 21
41.62429999999999
 31
0.0
  0
LINE
  5
102
330
95
100
AcDbEntity
  8
0
100
AcDbLine
 10
20.9519
 20
41.62429999999999
 30
0.0
 11
19.9241
 21
42.1259
 31
0.0
  0
LINE
  5
103
330
95
100
AcDbEntity
  8
0
100
AcDbLine
 10
19.9241
 20
42.1259
 30
0.0
 11
18.8842
 21
42.6022
 31
0.0
  0
LINE
  5
104
330
95
100
AcDbEntity
  8
0
100
AcDbLine
 10
18.8842
 20
42.6022
 30
0.0
 11
17.833
 21
43.05279999999998
 31
0.0
  0
LINE
  5
105
330
95
100
AcDbEntity
  8
0
100
AcDbLine
 10
17.833
 20
43.05279999999998
 30
0.0
 11
16.7711
 21
43.4775
 31
0.0
  0
LINE
  5
106
330
95
100
AcDbEntity
  8
0
100
AcDbLine
 10
16.7711
 20
43.4775
 30
0.0
 11
15.6991
 21
43.876
 31
0.0
  0
LINE
  5
107
330
95
100
AcDbEntity
  8
0
100
AcDbLine
 10
15.6991
 20
43.876
 30
0.0
 11
14.6176
 21
44.248
 31
0.0
  0
LINE
  5
108
330
95
100
AcDbEntity
  8
0
100
AcDbLine
 10
14.6176
 20
44.248
 30
0.0
 11
13.5273
 21
44.5934
 31
0.0
  0
LINE
  5
109
330
95
100
AcDbEntity
  8
0
100
AcDbLine
 10
13.5273
 20
44.5934
 30
0.0
 11
12.4288
 21
44.912
 31
0.0
  0
LINE
  5
10A
330
95
100
AcDbEntity
  8
0
100
AcDbLine
 10
12.4288
 20
44.912
 30
0.0
 11
11.3229
 21
45.20349999999999
 31
0.0
  0
LINE
  5
10B
330
95
100
AcDbEntity
  8
0
100
AcDbLine
 10
11.3229
 20
45.20349999999999
 30
0.0
 11
10.2101
 21
45.4677
 31
0.0
  0
LINE
  5
10C
330
95
100
AcDbEntity
  8
0
100
AcDbLine
 10
10.2101
 20
45.4677
 30
0.0
 11
9.0912
 21
45.70459999999999
 31
0.0
  0
LINE
  5
10D
330
95
100
AcDbEntity
  8
0
100
AcDbLine
 10
9.0912
 20
45.70459999999999
 30
0.0
 11
7.966829999999997
 21
45.91389999999999
 31
0.0
  0
LINE
  5
10E
330
95
100
AcDbEntity
  8
0
100
AcDbLine
 10
7.966829999999997
 20
45.91389999999999
 30
0.0
 11
6.837629999999997
 21
46.0956
 31
0.0
  0
LINE
  5
10F
330
95
100
AcDbEntity
  8
0
100
AcDbLine
 10
6.837629999999997
 20
46.0956
 30
0.0
 11
5.70433
 21
46.2496
 31
0.0
  0
LINE
  5
110
330
95
100
AcDbEntity
  8
0
100
AcDbLine
 10
5.70433
 20
46.2496
 30
0.0
 11
4.56758
 21
46.37559999999999
 31
0.0
  0
LINE
  5
111
330
95
100
AcDbEntity
  8
0
100
AcDbLine
 10
4.56758
 20
46.37559999999999
 30
0.0
 11
3.4281
 21
46.4737
 31
0.0
  0
LINE
  5
112
330
95
100
AcDbEntity
  8
0
100
AcDbLine
 10
3.4281
 20
46.4737
 30
0.0
 11
2.286559999999999
 21
46.5439
 31
0.0
  0
LINE
  5
113
330
95
100
AcDbEntity
  8
0
100
AcDbLine
 10
2.286559999999999
 20
46.5439
 30
0.0
 11
1.14362
 21
46.586
 31
0.0
  0
LINE
  5
114
330
95
100
AcDbEntity
  8
0
100
AcDbLine
 10
1.14362
 20
46.586
 30
0.0
 11
0.0
 21
46.6
 31
0.0
  0
LINE
  5
115
330
95
100
AcDbEntity
  8
0
100
AcDbLine
 10
0.0
 20
46.6
 30
0.0
 11
-1.14362
 21
46.586
 31
0.0
  0
LINE
  5
116
330
95
100
AcDbEntity
  8
0
100
AcDbLine
 10
-1.14362
 20
46.586
 30
0.0
 11
-2.286559999999999
 21
46.5439
 31
0.0
  0
LINE
  5
117
330
95
100
AcDbEntity
  8
0
100
AcDbLine
 10
-2.286559999999999
 20
46.5439
 30
0.0
 11
-3.4281
 21
46.4737
 31
0.0
  0
LINE
  5
118
330
95
100
AcDbEntity
  8
0
100
AcDbLine
 10
-3.4281
 20
46.4737
 30
0.0
 11
-4.56758
 21
46.37559999999999
 31
0.0
  0
LINE
  5
119
330
95
100
AcDbEntity
  8
0
100
AcDbLine
 10
-4.56758
 20
46.37559999999999
 30
0.0
 11
-5.70433
 21
46.2496
 31
0.0
  0
LINE
  5
11A
330
95
100
AcDbEntity
  8
0
100
AcDbLine
 10
-5.70433
 20
46.2496
 30
0.0
 11
-6.837629999999997
 21
46.0956
 31
0.0
  0
LINE
  5
11B
330
95
100
AcDbEntity
  8
0
100
AcDbLine
 10
-6.837629999999997
 20
46.0956
 30
0.0
 11
-7.966829999999997
 21
45.91389999999999
 31
0.0
  0
LINE
  5
11C
330
95
100
AcDbEntity
  8
0
100
AcDbLine
 10
-7.966829999999997
 20
45.91389999999999
 30
0.0
 11
-9.0912
 21
45.70459999999999
 31
0.0
  0
LINE
  5
11D
330
95
100
AcDbEntity
  8
0
100
AcDbLine
 10
-9.0912
 20
45.70459999999999
 30
0.0
 11
-10.2101
 21
45.4677
 31
0.0
  0
LINE
  5
11E
330
95
100
AcDbEntity
  8
0
100
AcDbLine
 10
-10.2101
 20
45.4677
 30
0.0
 11
-11.3229
 21
45.20349999999999
 31
0.0
  0
LINE
  5
11F
330
95
100
AcDbEntity
  8
0
100
AcDbLine
 10
-11.3229
 20
45.20349999999999
 30
0.0
 11
-12.4288
 21
44.912
 31
0.0
  0
LINE
  5
120
330
95
100
AcDbEntity
  8
0
100
AcDbLine
 10
-12.4288
 20
44.912
 30
0.0
 11
-13.5273
 21
44.5934
 31
0.0
  0
LINE
  5
121
330
95
100
AcDbEntity
  8
0
100
AcDbLine
 10
-13.5273
 20
44.5934
 30
0.0
 11
-14.6176
 21
44.248
 31
0.0
  0
LINE
  5
122
330
95
100
AcDbEntity
  8
0
100
AcDbLine
 10
-14.6176
 20
44.248
 30
0.0
 11
-15.6991
 21
43.876
 31
0.0
  0
LINE
  5
123
330
95
100
AcDbEntity
  8
0
100
AcDbLine
 10
-15.6991
 20
43.876
 30
0.0
 11
-16.7711
 21
43.4775
 31
0.0
  0
LINE
  5
124
330
95
100
AcDbEntity
  8
0
100
AcDbLine
 10
-16.7711
 20
43.4775
 30
0.0
 11
-17.833
 21
43.05279999999998
 31
0.0
  0
LINE
  5
125
330
95
100
AcDbEntity
  8
0
100
AcDbLine
 10
-17.833
 20
43.05279999999998
 30
0.0
 11
-18.8842
 21
42.6022
 31
0.0
  0
LINE
  5
126
330
95
100
AcDbEntity
  8
0
100
AcDbLine
 10
-18.8842
 20
42.6022
 30
0.0
 11
-19.9241
 21
42.1259
 31
0.0
  0
LINE
  5
127
330
95
100
AcDbEntity
  8
0
100
AcDbLine
 10
-19.9241
 20
42.1259
 30
0.0
 11
-20.9519
 21
41.62429999999999
 31
0.0
  0
LINE
  5
128
330
95
100
AcDbEntity
  8
0
100
AcDbLine
 10
-20.9519
 20
41.62429999999999
 30
0.0
 11
-21.9671
 21
41.0975
 31
0.0
  0
LINE
  5
129
330
95
100
AcDbEntity
  8
0
100
AcDbLine
 10
-21.9671
 20
41.0975
 30
0.0
 11
-22.9691
 21
40.5461
 31
0.0
  0
LINE
  5
12A
330
95
100
AcDbEntity
  8
0
100
AcDbLine
 10
-22.9691
 20
40.5461
 30
0.0
 11
-23.9572
 21
39.9702
 31
0.0
  0
LINE
  5
12B
330
95
100
AcDbEntity
  8
0
100
AcDbLine
 10
-23.9572
 20
39.9702
 30
0.0
 11
-24.9309
 21
39.3702
 31
0.0
  0
LINE
  5
12C
330
95
100
AcDbEntity
  8
0
100
AcDbLine
 10
-24.9309
 20
39.3702
 30
0.0
 11
-25.8896
 21
38.7465
 31
0.0
  0
LINE
  5
12D
330
95
100
AcDbEntity
  8
0
100
AcDbLine
 10
-25.8896
 20
38.7465
 30
0.0
 11
-26.8327
 21
38.0995
 31
0.0
  0
LINE
  5
12E
330
95
100
AcDbEntity
  8
0
100
AcDbLine
 10
-26.8327
 20
38.0995
 30
0.0
 11
-27.7596
 21
37.4295
 31
0.0
  0
LINE
  5
12F
330
95
100
AcDbEntity
  8
0
100
AcDbLine
 10
-27.7596
 20
37.4295
 30
0.0
 11
-28.6698
 21
36.7369
 31
0.0
  0
LINE
  5
130
330
95
100
AcDbEntity
  8
0
100
AcDbLine
 10
-28.6698
 20
36.7369
 30
0.0
 11
-29.5627
 21
36.0223
 31
0.0
  0
LINE
  5
131
330
95
100
AcDbEntity
  8
0
100
AcDbLine
 10
-29.5627
 20
36.0223
 30
0.0
 11
-30.4379
 21
35.2859
 31
0.0
  0
LINE
  5
132
330
95
100
AcDbEntity
  8
0
100
AcDbLine
 10
-30.4379
 20
35.2859
 30
0.0
 11
-31.2946
 21
34.5283
 31
0.0
  0
LINE
  5
133
330
95
100
AcDbEntity
  8
0
100
AcDbLine
 10
-31.2946
 20
34.5283
 30
0.0
 11
-32.1326
 21
33.7499
 31
0.0
  0
LINE
  5
134
330
95
100
AcDbEntity
  8
0
100
AcDbLine
 10
-32.1326
 20
33.7499
 30
0.0
 11
-32.9512
 21
32.9512
 31
0.0
  0
LINE
  5
135
330
95
100
AcDbEntity
  8
0
100
AcDbLine
 10
-32.9512
 20
32.9512
 30
0.0
 11
-33.7499
 21
32.1326
 31
0.0
  0
LINE
  5
136
330
95
100
AcDbEntity
  8
0
100
AcDbLine
 10
-33.7499
 20
32.1326
 30
0.0
 11
-34.5283
 21
31.2946
 31
0.0
  0
LINE
  5
137
330
95
100
AcDbEntity
  8
0
100
AcDbLine
 10
-34.5283
 20
31.2946
 30
0.0
 11
-35.2859
 21
30.4379
 31
0.0
  0
LINE
  5
138
330
95
100
AcDbEntity
  8
0
100
AcDbLine
 10
-35.2859
 20
30.4379
 30
0.0
 11
-36.0223
 21
29.5627
 31
0.0
  0
LINE
  5
139
330
95
100
AcDbEntity
  8
0
100
AcDbLine
 10
-36.0223
 20
29.5627
 30
0.0
 11
-36.7369
 21
28.6698
 31
0.0
  0
LINE
  5
13A
330
95
100
AcDbEntity
  8
0
100
AcDbLine
 10
-36.7369
 20
28.6698
 30
0.0
 11
-37.4295
 21
27.7596
 31
0.0
  0
LINE
  5
13B
330
95
100
AcDbEntity
  8
0
100
AcDbLine
 10
-37.4295
 20
27.7596
 30
0.0
 11
-38.0995
 21
26.8327
 31
0.0
  0
LINE
  5
13C
330
95
100
AcDbEntity
  8
0
100
AcDbLine
 10
-38.0995
 20
26.8327
 30
0.0
 11
-38.7465
 21
25.8896
 31
0.0
  0
LINE
  5
13D
330
95
100
AcDbEntity
  8
0
100
AcDbLine
 10
-38.7465
 20
25.8896
 30
0.0
 11
-39.3702
 21
24.9309
 31
0.0
  0
LINE
  5
13E
330
95
100
AcDbEntity
  8
0
100
AcDbLine
 10
-39.3702
 20
24.9309
 30
0.0
 11
-39.9702
 21
23.9572
 31
0.0
  0
LINE
  5
13F
330
95
100
AcDbEntity
  8
0
100
AcDbLine
 10
-39.9702
 20
23.9572
 30
0.0
 11
-40.5461
 21
22.9691
 31
0.0
  0
LINE
  5
140
330
95
100
AcDbEntity
  8
0
100
AcDbLine
 10
-40.5461
 20
22.9691
 30
0.0
 11
-41.0975
 21
21.9671
 31
0.0
  0
LINE
  5
141
330
95
100
AcDbEntity
  8
0
100
AcDbLine
 10
-41.0975
 20
21.9671
 30
0.0
 11
-41.62429999999999
 21
20.9519
 31
0.0
  0
LINE
  5
142
330
95
100
AcDbEntity
  8
0
100
AcDbLine
 10
-41.62429999999999
 20
20.9519
 30
0.0
 11
-42.1259
 21
19.9241
 31
0.0
  0
LINE
  5
143
330
95
100
AcDbEntity
  8
0
100
AcDbLine
 10
-42.1259
 20
19.9241
 30
0.0
 11
-42.6022
 21
18.8842
 31
0.0
  0
LINE
  5
144
330
95
100
AcDbEntity
  8
0
100
AcDbLine
 10
-42.6022
 20
18.8842
 30
0.0
 11
-43.05279999999998
 21
17.833
 31
0.0
  0
LINE
  5
145
330
95
100
AcDbEntity
  8
0
100
AcDbLine
 10
-43.05279999999998
 20
17.833
 30
0.0
 11
-43.4775
 21
16.7711
 31
0.0
  0
LINE
  5
146
330
95
100
AcDbEntity
  8
0
100
AcDbLine
 10
-43.4775
 20
16.7711
 30
0.0
 11
-43.876
 21
15.6991
 31
0.0
  0
LINE
  5
147
330
95
100
AcDbEntity
  8
0
100
AcDbLine
 10
-43.876
 20
15.6991
 30
0.0
 11
-44.248
 21
14.6176
 31
0.0
  0
LINE
  5
148
330
95
100
AcDbEntity
  8
0
100
AcDbLine
 10
-44.248
 20
14.6176
 30
0.0
 11
-44.5934
 21
13.5273
 31
0.0
  0
LINE
  5
149
330
95
100
AcDbEntity
  8
0
100
AcDbLine
 10
-44.5934
 20
13.5273
 30
0.0
 11
-44.912
 21
12.4288
 31
0.0
  0
LINE
  5
14A
330
95
100
AcDbEntity
  8
0
100
AcDbLine
 10
-44.912
 20
12.4288
 30
0.0
 11
-45.20349999999999
 21
11.3229
 31
0.0
  0
LINE
  5
14B
330
95
100
AcDbEntity
  8
0
100
AcDbLine
 10
-45.20349999999999
 20
11.3229
 30
0.0
 11
-45.4677
 21
10.2101
 31
0.0
  0
LINE
  5
14C
330
95
100
AcDbEntity
  8
0
100
AcDbLine
 10
-45.4677
 20
10.2101
 30
0.0
 11
-45.70459999999999
 21
9.0912
 31
0.0
  0
LINE
  5
14D
330
95
100
AcDbEntity
  8
0
100
AcDbLine
 10
-45.70459999999999
 20
9.0912
 30
0.0
 11
-45.91389999999999
 21
7.966829999999997
 31
0.0
  0
LINE
  5
14E
330
95
100
AcDbEntity
  8
0
100
AcDbLine
 10
-45.91389999999999
 20
7.966829999999997
 30
0.0
 11
-46.0956
 21
6.837629999999997
 31
0.0
  0
LINE
  5
14F
330
95
100
AcDbEntity
  8
0
100
AcDbLine
 10
-46.0956
 20
6.837629999999997
 30
0.0
 11
-46.2496
 21
5.70433
 31
0.0
  0
LINE
  5
150
330
95
100
AcDbEntity
  8
0
100
AcDbLine
 10
-46.2496
 20
5.70433
 30
0.0
 11
-46.37559999999999
 21
4.56758
 31
0.0
  0
LINE
  5
151
330
95
100
AcDbEntity
  8
0
100
AcDbLine
 10
-46.37559999999999
 20
4.56758
 30
0.0
 11
-46.4737
 21
3.4281
 31
0.0
  0
LINE
  5
152
330
95
100
AcDbEntity
  8
0
100
AcDbLine
 10
-46.4737
 20
3.4281
 30
0.0
 11
-46.5439
 21
2.286559999999999
 31
0.0
  0
LINE
  5
153
330
95
100
AcDbEntity
  8
0
100
AcDbLine
 10
-46.5439
 20
2.286559999999999
 30
0.0
 11
-46.586
 21
1.14362
 31
0.0
  0
LINE
  5
154
330
95
100
AcDbEntity
  8
0
100
AcDbLine
 10
-46.586
 20
1.14362
 30
0.0
 11
-46.6
 21
0.0
 31
0.0
  0
LINE
  5
155
330
95
100
AcDbEntity
  8
0
100
AcDbLine
 10
-46.6
 20
0.0
 30
0.0
 11
-46.586
 21
-1.14362
 31
0.0
  0
LINE
  5
156
330
95
100
AcDbEntity
  8
0
100
AcDbLine
 10
-46.586
 20
-1.14362
 30
0.0
 11
-46.5439
 21
-2.286559999999999
 31
0.0
  0
LINE
  5
157
330
95
100
AcDbEntity
  8
0
100
AcDbLine
 10
-46.5439
 20
-2.286559999999999
 30
0.0
 11
-46.4737
 21
-3.4281
 31
0.0
  0
LINE
  5
158
330
95
100
AcDbEntity
  8
0
100
AcDbLine
 10
-46.4737
 20
-3.4281
 30
0.0
 11
-46.37559999999999
 21
-4.56758
 31
0.0
  0
LINE
  5
159
330
95
100
AcDbEntity
  8
0
100
AcDbLine
 10
-46.37559999999999
 20
-4.56758
 30
0.0
 11
-46.2496
 21
-5.70433
 31
0.0
  0
LINE
  5
15A
330
95
100
AcDbEntity
  8
0
100
AcDbLine
 10
-46.2496
 20
-5.70433
 30
0.0
 11
-46.0956
 21
-6.837629999999997
 31
0.0
  0
LINE
  5
15B
330
95
100
AcDbEntity
  8
0
100
AcDbLine
 10
-46.0956
 20
-6.837629999999997
 30
0.0
 11
-45.91389999999999
 21
-7.966829999999997
 31
0.0
  0
LINE
  5
15C
330
95
100
AcDbEntity
  8
0
100
AcDbLine
 10
-45.91389999999999
 20
-7.966829999999997
 30
0.0
 11
-45.70459999999999
 21
-9.0912
 31
0.0
  0
LINE
  5
15D
330
95
100
AcDbEntity
  8
0
100
AcDbLine
 10
-45.70459999999999
 20
-9.0912
 30
0.0
 11
-45.4677
 21
-10.2101
 31
0.0
  0
LINE
  5
15E
330
95
100
AcDbEntity
  8
0
100
AcDbLine
 10
-45.4677
 20
-10.2101
 30
0.0
 11
-45.20349999999999
 21
-11.3229
 31
0.0
  0
LINE
  5
15F
330
95
100
AcDbEntity
  8
0
100
AcDbLine
 10
-45.20349999999999
 20
-11.3229
 30
0.0
 11
-44.912
 21
-12.4288
 31
0.0
  0
LINE
  5
160
330
95
100
AcDbEntity
  8
0
100
AcDbLine
 10
-44.912
 20
-12.4288
 30
0.0
 11
-44.5934
 21
-13.5273
 31
0.0
  0
LINE
  5
161
330
95
100
AcDbEntity
  8
0
100
AcDbLine
 10
-44.5934
 20
-13.5273
 30
0.0
 11
-44.248
 21
-14.6176
 31
0.0
  0
LINE
  5
162
330
95
100
AcDbEntity
  8
0
100
AcDbLine
 10
-44.248
 20
-14.6176
 30
0.0
 11
-43.876
 21
-15.6991
 31
0.0
  0
LINE
  5
163
330
95
100
AcDbEntity
  8
0
100
AcDbLine
 10
-43.876
 20
-15.6991
 30
0.0
 11
-43.4775
 21
-16.7711
 31
0.0
  0
LINE
  5
164
330
95
100
AcDbEntity
  8
0
100
AcDbLine
 10
-43.4775
 20
-16.7711
 30
0.0
 11
-43.05279999999998
 21
-17.833
 31
0.0
  0
LINE
  5
165
330
95
100
AcDbEntity
  8
0
100
AcDbLine
 10
-43.05279999999998
 20
-17.833
 30
0.0
 11
-42.6022
 21
-18.8842
 31
0.0
  0
LINE
  5
166
330
95
100
AcDbEntity
  8
0
100
AcDbLine
 10
-42.6022
 20
-18.8842
 30
0.0
 11
-42.1259
 21
-19.9241
 31
0.0
  0
LINE
  5
167
330
95
100
AcDbEntity
  8
0
100
AcDbLine
 10
-42.1259
 20
-19.9241
 30
0.0
 11
-41.62429999999999
 21
-20.9519
 31
0.0
  0
LINE
  5
168
330
95
100
AcDbEntity
  8
0
100
AcDbLine
 10
-41.62429999999999
 20
-20.9519
 30
0.0
 11
-41.0975
 21
-21.9671
 31
0.0
  0
LINE
  5
169
330
95
100
AcDbEntity
  8
0
100
AcDbLine
 10
-41.0975
 20
-21.9671
 30
0.0
 11
-40.5461
 21
-22.9691
 31
0.0
  0
LINE
  5
16A
330
95
100
AcDbEntity
  8
0
100
AcDbLine
 10
-40.5461
 20
-22.9691
 30
0.0
 11
-39.9702
 21
-23.9572
 31
0.0
  0
LINE
  5
16B
330
95
100
AcDbEntity
  8
0
100
AcDbLine
 10
-39.9702
 20
-23.9572
 30
0.0
 11
-39.3702
 21
-24.9309
 31
0.0
  0
LINE
  5
16C
330
95
100
AcDbEntity
  8
0
100
AcDbLine
 10
-39.3702
 20
-24.9309
 30
0.0
 11
-38.7465
 21
-25.8896
 31
0.0
  0
LINE
  5
16D
330
95
100
AcDbEntity
  8
0
100
AcDbLine
 10
-38.7465
 20
-25.8896
 30
0.0
 11
-38.0995
 21
-26.8327
 31
0.0
  0
LINE
  5
16E
330
95
100
AcDbEntity
  8
0
100
AcDbLine
 10
-38.0995
 20
-26.8327
 30
0.0
 11
-37.4295
 21
-27.7596
 31
0.0
  0
LINE
  5
16F
330
95
100
AcDbEntity
  8
0
100
AcDbLine
 10
-37.4295
 20
-27.7596
 30
0.0
 11
-36.7369
 21
-28.6698
 31
0.0
  0
LINE
  5
170
330
95
100
AcDbEntity
  8
0
100
AcDbLine
 10
-36.7369
 20
-28.6698
 30
0.0
 11
-36.0223
 21
-29.5627
 31
0.0
  0
LINE
  5
171
330
95
100
AcDbEntity
  8
0
100
AcDbLine
 10
-36.0223
 20
-29.5627
 30
0.0
 11
-35.2859
 21
-30.4379
 31
0.0
  0
LINE
  5
172
330
95
100
AcDbEntity
  8
0
100
AcDbLine
 10
-35.2859
 20
-30.4379
 30
0.0
 11
-34.5283
 21
-31.2946
 31
0.0
  0
LINE
  5
173
330
95
100
AcDbEntity
  8
0
100
AcDbLine
 10
-34.5283
 20
-31.2946
 30
0.0
 11
-33.7499
 21
-32.1326
 31
0.0
  0
LINE
  5
174
330
95
100
AcDbEntity
  8
0
100
AcDbLine
 10
-33.7499
 20
-32.1326
 30
0.0
 11
-32.9512
 21
-32.9512
 31
0.0
  0
LINE
  5
175
330
95
100
AcDbEntity
  8
0
100
AcDbLine
 10
-32.9512
 20
-32.9512
 30
0.0
 11
-32.1326
 21
-33.7499
 31
0.0
  0
LINE
  5
176
330
95
100
AcDbEntity
  8
0
100
AcDbLine
 10
-32.1326
 20
-33.7499
 30
0.0
 11
-31.2946
 21
-34.5283
 31
0.0
  0
LINE
  5
177
330
95
100
AcDbEntity
  8
0
100
AcDbLine
 10
-31.2946
 20
-34.5283
 30
0.0
 11
-30.4379
 21
-35.2859
 31
0.0
  0
LINE
  5
178
330
95
100
AcDbEntity
  8
0
100
AcDbLine
 10
-30.4379
 20
-35.2859
 30
0.0
 11
-29.5627
 21
-36.0223
 31
0.0
  0
LINE
  5
179
330
95
100
AcDbEntity
  8
0
100
AcDbLine
 10
-29.5627
 20
-36.0223
 30
0.0
 11
-28.6698
 21
-36.7369
 31
0.0
  0
LINE
  5
17A
330
95
100
AcDbEntity
  8
0
100
AcDbLine
 10
-28.6698
 20
-36.7369
 30
0.0
 11
-27.7596
 21
-37.4295
 31
0.0
  0
LINE
  5
17B
330
95
100
AcDbEntity
  8
0
100
AcDbLine
 10
-27.7596
 20
-37.4295
 30
0.0
 11
-26.8327
 21
-38.0995
 31
0.0
  0
LINE
  5
17C
330
95
100
AcDbEntity
  8
0
100
AcDbLine
 10
-26.8327
 20
-38.0995
 30
0.0
 11
-25.8896
 21
-38.7465
 31
0.0
  0
LINE
  5
17D
330
95
100
AcDbEntity
  8
0
100
AcDbLine
 10
-25.8896
 20
-38.7465
 30
0.0
 11
-24.9309
 21
-39.3702
 31
0.0
  0
LINE
  5
17E
330
95
100
AcDbEntity
  8
0
100
AcDbLine
 10
-24.9309
 20
-39.3702
 30
0.0
 11
-23.9572
 21
-39.9702
 31
0.0
  0
LINE
  5
17F
330
95
100
AcDbEntity
  8
0
100
AcDbLine
 10
-23.9572
 20
-39.9702
 30
0.0
 11
-22.9691
 21
-40.5461
 31
0.0
  0
LINE
  5
180
330
95
100
AcDbEntity
  8
0
100
AcDbLine
 10
-22.9691
 20
-40.5461
 30
0.0
 11
-21.9671
 21
-41.0975
 31
0.0
  0
LINE
  5
181
330
95
100
AcDbEntity
  8
0
100
AcDbLine
 10
-21.9671
 20
-41.0975
 30
0.0
 11
-20.9519
 21
-41.62429999999999
 31
0.0
  0
LINE
  5
182
330
95
100
AcDbEntity
  8
0
100
AcDbLine
 10
-20.9519
 20
-41.62429999999999
 30
0.0
 11
-19.9241
 21
-42.1259
 31
0.0
  0
LINE
  5
183
330
95
100
AcDbEntity
  8
0
100
AcDbLine
 10
-19.9241
 20
-42.1259
 30
0.0
 11
-18.8842
 21
-42.6022
 31
0.0
  0
LINE
  5
184
330
95
100
AcDbEntity
  8
0
100
AcDbLine
 10
-18.8842
 20
-42.6022
 30
0.0
 11
-17.833
 21
-43.05279999999998
 31
0.0
  0
LINE
  5
185
330
95
100
AcDbEntity
  8
0
100
AcDbLine
 10
-17.833
 20
-43.05279999999998
 30
0.0
 11
-16.7711
 21
-43.4775
 31
0.0
  0
LINE
  5
186
330
95
100
AcDbEntity
  8
0
100
AcDbLine
 10
-16.7711
 20
-43.4775
 30
0.0
 11
-15.6991
 21
-43.876
 31
0.0
  0
LINE
  5
187
330
95
100
AcDbEntity
  8
0
100
AcDbLine
 10
-15.6991
 20
-43.876
 30
0.0
 11
-14.6176
 21
-44.248
 31
0.0
  0
LINE
  5
188
330
95
100
AcDbEntity
  8
0
100
AcDbLine
 10
-14.6176
 20
-44.248
 30
0.0
 11
-13.5273
 21
-44.5934
 31
0.0
  0
LINE
  5
189
330
95
100
AcDbEntity
  8
0
100
AcDbLine
 10
-13.5273
 20
-44.5934
 30
0.0
 11
-12.4288
 21
-44.912
 31
0.0
  0
LINE
  5
18A
330
95
100
AcDbEntity
  8
0
100
AcDbLine
 10
-12.4288
 20
-44.912
 30
0.0
 11
-11.3229
 21
-45.20349999999999
 31
0.0
  0
LINE
  5
18B
330
95
100
AcDbEntity
  8
0
100
AcDbLine
 10
-11.3229
 20
-45.20349999999999
 30
0.0
 11
-10.2101
 21
-45.4677
 31
0.0
  0
LINE
  5
18C
330
95
100
AcDbEntity
  8
0
100
AcDbLine
 10
-10.2101
 20
-45.4677
 30
0.0
 11
-9.0912
 21
-45.70459999999999
 31
0.0
  0
LINE
  5
18D
330
95
100
AcDbEntity
  8
0
100
AcDbLine
 10
-9.0912
 20
-45.70459999999999
 30
0.0
 11
-7.966829999999997
 21
-45.91389999999999
 31
0.0
  0
LINE
  5
18E
330
95
100
AcDbEntity
  8
0
100
AcDbLine
 10
-7.966829999999997
 20
-45.91389999999999
 30
0.0
 11
-6.837629999999997
 21
-46.0956
 31
0.0
  0
LINE
  5
18F
330
95
100
AcDbEntity
  8
0
100
AcDbLine
 10
-6.837629999999997
 20
-46.0956
 30
0.0
 11
-5.70433
 21
-46.2496
 31
0.0
  0
LINE
  5
190
330
95
100
AcDbEntity
  8
0
100
AcDbLine
 10
-5.70433
 20
-46.2496
 30
0.0
 11
-4.56758
 21
-46.37559999999999
 31
0.0
  0
LINE
  5
191
330
95
100
AcDbEntity
  8
0
100
AcDbLine
 10
-4.56758
 20
-46.37559999999999
 30
0.0
 11
-3.4281
 21
-46.4737
 31
0.0
  0
LINE
  5
192
330
95
100
AcDbEntity
  8
0
100
AcDbLine
 10
-3.4281
 20
-46.4737
 30
0.0
 11
-2.286559999999999
 21
-46.5439
 31
0.0
  0
LINE
  5
193
330
95
100
AcDbEntity
  8
0
100
AcDbLine
 10
-2.286559999999999
 20
-46.5439
 30
0.0
 11
-1.14362
 21
-46.586
 31
0.0
  0
LINE
  5
194
330
95
100
AcDbEntity
  8
0
100
AcDbLine
 10
-1.14362
 20
-46.586
 30
0.0
 11
0.0
 21
-46.6
 31
0.0
  0
LINE
  5
195
330
95
100
AcDbEntity
  8
0
100
AcDbLine
 10
0.0
 20
-46.6
 30
0.0
 11
1.14362
 21
-46.586
 31
0.0
  0
LINE
  5
196
330
95
100
AcDbEntity
  8
0
100
AcDbLine
 10
-0.0957336
 20
-3.898819999999998
 30
0.0
 11
-0.191406
 21
-3.89529
 31
0.0
  0
LINE
  5
197
330
95
100
AcDbEntity
  8
0
100
AcDbLine
 10
-0.191406
 20
-3.89529
 30
0.0
 11
-0.287018
 21
-3.8894
 31
0.0
  0
LINE
  5
198
330
95
100
AcDbEntity
  8
0
100
AcDbLine
 10
-0.287018
 20
-3.8894
 30
0.0
 11
-0.38179
 21
-3.881259999999998
 31
0.0
  0
LINE
  5
199
330
95
100
AcDbEntity
  8
0
100
AcDbLine
 10
-0.38179
 20
-3.881259999999998
 30
0.0
 11
-0.47757
 21
-3.87064
 31
0.0
  0
LINE
  5
19A
330
95
100
AcDbEntity
  8
0
100
AcDbLine
 10
-0.47757
 20
-3.87064
 30
0.0
 11
-0.572495
 21
-3.85774
 31
0.0
  0
LINE
  5
19B
330
95
100
AcDbEntity
  8
0
100
AcDbLine
 10
-0.572495
 20
-3.85774
 30
0.0
 11
-0.666382
 21
-3.84264
 31
0.0
  0
LINE
  5
19C
330
95
100
AcDbEntity
  8
0
100
AcDbLine
 10
-0.666382
 20
-3.84264
 30
0.0
 11
-0.7606960000000002
 21
-3.825059999999998
 31
0.0
  0
LINE
  5
19D
330
95
100
AcDbEntity
  8
0
100
AcDbLine
 10
-0.7606960000000002
 20
-3.825059999999998
 30
0.0
 11
-0.8547969999999999
 21
-3.805159999999998
 31
0.0
  0
LINE
  5
19E
330
95
100
AcDbEntity
  8
0
100
AcDbLine
 10
-0.8547969999999999
 20
-3.805159999999998
 30
0.0
 11
-0.9478609999999999
 21
-3.78304
 31
0.0
  0
LINE
  5
19F
330
95
100
AcDbEntity
  8
0
100
AcDbLine
 10
-0.9478609999999999
 20
-3.78304
 30
0.0
 11
-1.0401
 21
-3.758739999999998
 31
0.0
  0
LINE
  5
1A0
330
95
100
AcDbEntity
  8
0
100
AcDbLine
 10
-1.0401
 20
-3.758739999999998
 30
0.0
 11
-1.131699999999999
 21
-3.73218
 31
0.0
  0
LINE
  5
1A1
330
95
100
AcDbEntity
  8
0
100
AcDbLine
 10
-1.131699999999999
 20
-3.73218
 30
0.0
 11
-1.2236
 21
-3.703059999999998
 31
0.0
  0
LINE
  5
1A2
330
95
100
AcDbEntity
  8
0
100
AcDbLine
 10
-1.2236
 20
-3.703059999999998
 30
0.0
 11
-1.313639999999999
 21
-3.67209
 31
0.0
  0
LINE
  5
1A3
330
95
100
AcDbEntity
  8
0
100
AcDbLine
 10
-1.313639999999999
 20
-3.67209
 30
0.0
 11
-1.40387
 21
-3.638549999999998
 31
0.0
  0
LINE
  5
1A4
330
95
100
AcDbEntity
  8
0
100
AcDbLine
 10
-1.40387
 20
-3.638549999999998
 30
0.0
 11
-1.492609999999999
 21
-3.603059999999998
 31
0.0
  0
LINE
  5
1A5
330
95
100
AcDbEntity
  8
0
100
AcDbLine
 10
-1.492609999999999
 20
-3.603059999999998
 30
0.0
 11
-1.579819999999999
 21
-3.565669999999999
 31
0.0
  0
LINE
  5
1A6
330
95
100
AcDbEntity
  8
0
100
AcDbLine
 10
-1.579819999999999
 20
-3.565669999999999
 30
0.0
 11
-1.66794
 21
-3.525309999999998
 31
0.0
  0
LINE
  5
1A7
330
95
100
AcDbEntity
  8
0
100
AcDbLine
 10
-1.66794
 20
-3.525309999999998
 30
0.0
 11
-1.753479999999995
 21
-3.483569999999998
 31
0.0
  0
LINE
  5
1A8
330
95
100
AcDbEntity
  8
0
100
AcDbLine
 10
-1.753479999999995
 20
-3.483569999999998
 30
0.0
 11
-1.838
 21
-3.439709999999998
 31
0.0
  0
LINE
  5
1A9
330
95
100
AcDbEntity
  8
0
100
AcDbLine
 10
-1.838
 20
-3.439709999999998
 30
0.0
 11
-1.922349999999999
 21
-3.393299999999998
 31
0.0
  0
LINE
  5
1AA
330
95
100
AcDbEntity
  8
0
100
AcDbLine
 10
-1.922349999999999
 20
-3.393299999999998
 30
0.0
 11
-2.004909999999999
 21
-3.345149999999998
 31
0.0
  0
LINE
  5
1AB
330
95
100
AcDbEntity
  8
0
100
AcDbLine
 10
-2.004909999999999
 20
-3.345149999999998
 30
0.0
 11
-2.08687
 21
-3.29468
 31
0.0
  0
LINE
  5
1AC
330
95
100
AcDbEntity
  8
0
100
AcDbLine
 10
-2.08687
 20
-3.29468
 30
0.0
 11
-2.166469999999999
 21
-3.242869999999998
 31
0.0
  0
LINE
  5
1AD
330
95
100
AcDbEntity
  8
0
100
AcDbLine
 10
-2.166469999999999
 20
-3.242869999999998
 30
0.0
 11
-2.24553
 21
-3.188629999999998
 31
0.0
  0
LINE
  5
1AE
330
95
100
AcDbEntity
  8
0
100
AcDbLine
 10
-2.24553
 20
-3.188629999999998
 30
0.0
 11
-2.32335
 21
-3.1324
 31
0.0
  0
LINE
  5
1AF
330
95
100
AcDbEntity
  8
0
100
AcDbLine
 10
-2.32335
 20
-3.1324
 30
0.0
 11
-2.39935
 21
-3.07457
 31
0.0
  0
LINE
  5
1B0
330
95
100
AcDbEntity
  8
0
100
AcDbLine
 10
-2.39935
 20
-3.07457
 30
0.0
 11
-2.47427
 21
-3.014619999999998
 31
0.0
  0
LINE
  5
1B1
330
95
100
AcDbEntity
  8
0
100
AcDbLine
 10
-2.47427
 20
-3.014619999999998
 30
0.0
 11
-2.547229999999998
 21
-2.953219999999998
 31
0.0
  0
LINE
  5
1B2
330
95
100
AcDbEntity
  8
0
100
AcDbLine
 10
-2.547229999999998
 20
-2.953219999999998
 30
0.0
 11
-2.619129999999999
 21
-2.88963
 31
0.0
  0
LINE
  5
1B3
330
95
100
AcDbEntity
  8
0
100
AcDbLine
 10
-2.619129999999999
 20
-2.88963
 30
0.0
 11
-2.689389999999998
 21
-2.82437
 31
0.0
  0
LINE
  5
1B4
330
95
100
AcDbEntity
  8
0
100
AcDbLine
 10
-2.689389999999998
 20
-2.82437
 30
0.0
 11
-2.757709999999998
 21
-2.757709999999998
 31
0.0
  0
LINE
  5
1B5
330
95
100
AcDbEntity
  8
0
100
AcDbLine
 10
-2.757709999999998
 20
-2.757709999999998
 30
0.0
 11
-2.82437
 21
-2.689389999999998
 31
0.0
  0
LINE
  5
1B6
330
95
100
AcDbEntity
  8
0
100
AcDbLine
 10
-2.82437
 20
-2.689389999999998
 30
0.0
 11
-2.88963
 21
-2.619129999999999
 31
0.0
  0
LINE
  5
1B7
330
95
100
AcDbEntity
  8
0
100
AcDbLine
 10
-2.88963
 20
-2.619129999999999
 30
0.0
 11
-2.953219999999998
 21
-2.547229999999998
 31
0.0
  0
LINE
  5
1B8
330
95
100
AcDbEntity
  8
0
100
AcDbLine
 10
-2.953219999999998
 20
-2.547229999999998
 30
0.0
 11
-3.014619999999998
 21
-2.47427
 31
0.0
  0
LINE
  5
1B9
330
95
100
AcDbEntity
  8
0
100
AcDbLine
 10
-3.014619999999998
 20
-2.47427
 30
0.0
 11
-3.07457
 21
-2.39935
 31
0.0
  0
LINE
  5
1BA
330
95
100
AcDbEntity
  8
0
100
AcDbLine
 10
-3.07457
 20
-2.39935
 30
0.0
 11
-3.1324
 21
-2.32335
 31
0.0
  0
LINE
  5
1BB
330
95
100
AcDbEntity
  8
0
100
AcDbLine
 10
-3.1324
 20
-2.32335
 30
0.0
 11
-3.188629999999998
 21
-2.24553
 31
0.0
  0
LINE
  5
1BC
330
95
100
AcDbEntity
  8
0
100
AcDbLine
 10
-3.188629999999998
 20
-2.24553
 30
0.0
 11
-3.242869999999998
 21
-2.166469999999999
 31
0.0
  0
LINE
  5
1BD
330
95
100
AcDbEntity
  8
0
100
AcDbLine
 10
-3.242869999999998
 20
-2.166469999999999
 30
0.0
 11
-3.29468
 21
-2.08687
 31
0.0
  0
LINE
  5
1BE
330
95
100
AcDbEntity
  8
0
100
AcDbLine
 10
-3.29468
 20
-2.08687
 30
0.0
 11
-3.345149999999998
 21
-2.004909999999999
 31
0.0
  0
LINE
  5
1BF
330
95
100
AcDbEntity
  8
0
100
AcDbLine
 10
-3.345149999999998
 20
-2.004909999999999
 30
0.0
 11
-3.393299999999998
 21
-1.922349999999999
 31
0.0
  0
LINE
  5
1C0
330
95
100
AcDbEntity
  8
0
100
AcDbLine
 10
-3.393299999999998
 20
-1.922349999999999
 30
0.0
 11
-3.439709999999998
 21
-1.838
 31
0.0
  0
LINE
  5
1C1
330
95
100
AcDbEntity
  8
0
100
AcDbLine
 10
-3.439709999999998
 20
-1.838
 30
0.0
 11
-3.483569999999998
 21
-1.753479999999995
 31
0.0
  0
LINE
  5
1C2
330
95
100
AcDbEntity
  8
0
100
AcDbLine
 10
-3.483569999999998
 20
-1.753479999999995
 30
0.0
 11
-3.525309999999998
 21
-1.66794
 31
0.0
  0
LINE
  5
1C3
330
95
100
AcDbEntity
  8
0
100
AcDbLine
 10
-3.525309999999998
 20
-1.66794
 30
0.0
 11
-3.565669999999999
 21
-1.579819999999999
 31
0.0
  0
LINE
  5
1C4
330
95
100
AcDbEntity
  8
0
100
AcDbLine
 10
-3.565669999999999
 20
-1.579819999999999
 30
0.0
 11
-3.603059999999998
 21
-1.492609999999999
 31
0.0
  0
LINE
  5
1C5
330
95
100
AcDbEntity
  8
0
100
AcDbLine
 10
-3.603059999999998
 20
-1.492609999999999
 30
0.0
 11
-3.638549999999998
 21
-1.40387
 31
0.0
  0
LINE
  5
1C6
330
95
100
AcDbEntity
  8
0
100
AcDbLine
 10
-3.638549999999998
 20
-1.40387
 30
0.0
 11
-3.67209
 21
-1.313639999999999
 31
0.0
  0
LINE
  5
1C7
330
95
100
AcDbEntity
  8
0
100
AcDbLine
 10
-3.67209
 20
-1.313639999999999
 30
0.0
 11
-3.703059999999998
 21
-1.2236
 31
0.0
  0
LINE
  5
1C8
330
95
100
AcDbEntity
  8
0
100
AcDbLine
 10
-3.703059999999998
 20
-1.2236
 30
0.0
 11
-3.73218
 21
-1.131699999999999
 31
0.0
  0
LINE
  5
1C9
330
95
100
AcDbEntity
  8
0
100
AcDbLine
 10
-3.73218
 20
-1.131699999999999
 30
0.0
 11
-3.758739999999998
 21
-1.0401
 31
0.0
  0
LINE
  5
1CA
330
95
100
AcDbEntity
  8
0
100
AcDbLine
 10
-3.758739999999998
 20
-1.0401
 30
0.0
 11
-3.78304
 21
-0.9478609999999999
 31
0.0
  0
LINE
  5
1CB
330
95
100
AcDbEntity
  8
0
100
AcDbLine
 10
-3.78304
 20
-0.9478609999999999
 30
0.0
 11
-3.805159999999998
 21
-0.8547969999999999
 31
0.0
  0
LINE
  5
1CC
330
95
100
AcDbEntity
  8
0
100
AcDbLine
 10
-3.805159999999998
 20
-0.8547969999999999
 30
0.0
 11
-3.825059999999998
 21
-0.7606960000000002
 31
0.0
  0
LINE
  5
1CD
330
95
100
AcDbEntity
  8
0
100
AcDbLine
 10
-3.825059999999998
 20
-0.7606960000000002
 30
0.0
 11
-3.84264
 21
-0.666382
 31
0.0
  0
LINE
  5
1CE
330
95
100
AcDbEntity
  8
0
100
AcDbLine
 10
-3.84264
 20
-0.666382
 30
0.0
 11
-3.85774
 21
-0.572495
 31
0.0
  0
LINE
  5
1CF
330
95
100
AcDbEntity
  8
0
100
AcDbLine
 10
-3.85774
 20
-0.572495
 30
0.0
 11
-3.87064
 21
-0.47757
 31
0.0
  0
LINE
  5
1D0
330
95
100
AcDbEntity
  8
0
100
AcDbLine
 10
-3.87064
 20
-0.47757
 30
0.0
 11
-3.881259999999998
 21
-0.38179
 31
0.0
  0
LINE
  5
1D1
330
95
100
AcDbEntity
  8
0
100
AcDbLine
 10
-3.881259999999998
 20
-0.38179
 30
0.0
 11
-3.8894
 21
-0.287018
 31
0.0
  0
LINE
  5
1D2
330
95
100
AcDbEntity
  8
0
100
AcDbLine
 10
-3.8894
 20
-0.287018
 30
0.0
 11
-3.89529
 21
-0.191406
 31
0.0
  0
LINE
  5
1D3
330
95
100
AcDbEntity
  8
0
100
AcDbLine
 10
-3.89529
 20
-0.191406
 30
0.0
 11
-3.898819999999998
 21
-0.0957336
 31
0.0
  0
LINE
  5
1D4
330
95
100
AcDbEntity
  8
0
100
AcDbLine
 10
-3.898819999999998
 20
-0.0957336
 30
0.0
 11
-3.89999
 21
0.0
 31
0.0
  0
LINE
  5
1D5
330
95
100
AcDbEntity
  8
0
100
AcDbLine
 10
-3.89999
 20
0.0
 30
0.0
 11
-3.898819999999998
 21
0.0957336
 31
0.0
  0
LINE
  5
1D6
330
95
100
AcDbEntity
  8
0
100
AcDbLine
 10
-3.898819999999998
 20
0.0957336
 30
0.0
 11
-3.89529
 21
0.191406
 31
0.0
  0
LINE
  5
1D7
330
95
100
AcDbEntity
  8
0
100
AcDbLine
 10
-3.89529
 20
0.191406
 30
0.0
 11
-3.8894
 21
0.287018
 31
0.0
  0
LINE
  5
1D8
330
95
100
AcDbEntity
  8
0
100
AcDbLine
 10
-3.8894
 20
0.287018
 30
0.0
 11
-3.881259999999998
 21
0.38179
 31
0.0
  0
LINE
  5
1D9
330
95
100
AcDbEntity
  8
0
100
AcDbLine
 10
-3.881259999999998
 20
0.38179
 30
0.0
 11
-3.87064
 21
0.47757
 31
0.0
  0
LINE
  5
1DA
330
95
100
AcDbEntity
  8
0
100
AcDbLine
 10
-3.87064
 20
0.47757
 30
0.0
 11
-3.85774
 21
0.572495
 31
0.0
  0
LINE
  5
1DB
330
95
100
AcDbEntity
  8
0
100
AcDbLine
 10
-3.85774
 20
0.572495
 30
0.0
 11
-3.84264
 21
0.666382
 31
0.0
  0
LINE
  5
1DC
330
95
100
AcDbEntity
  8
0
100
AcDbLine
 10
-3.84264
 20
0.666382
 30
0.0
 11
-3.825059999999998
 21
0.7606960000000002
 31
0.0
  0
LINE
  5
1DD
330
95
100
AcDbEntity
  8
0
100
AcDbLine
 10
-3.825059999999998
 20
0.7606960000000002
 30
0.0
 11
-3.805159999999998
 21
0.8547969999999999
 31
0.0
  0
LINE
  5
1DE
330
95
100
AcDbEntity
  8
0
100
AcDbLine
 10
-3.805159999999998
 20
0.8547969999999999
 30
0.0
 11
-3.78304
 21
0.9478609999999999
 31
0.0
  0
LINE
  5
1DF
330
95
100
AcDbEntity
  8
0
100
AcDbLine
 10
-3.78304
 20
0.9478609999999999
 30
0.0
 11
-3.758739999999998
 21
1.0401
 31
0.0
  0
LINE
  5
1E0
330
95
100
AcDbEntity
  8
0
100
AcDbLine
 10
-3.758739999999998
 20
1.0401
 30
0.0
 11
-3.73218
 21
1.131699999999999
 31
0.0
  0
LINE
  5
1E1
330
95
100
AcDbEntity
  8
0
100
AcDbLine
 10
-3.73218
 20
1.131699999999999
 30
0.0
 11
-3.703059999999998
 21
1.2236
 31
0.0
  0
LINE
  5
1E2
330
95
100
AcDbEntity
  8
0
100
AcDbLine
 10
-3.703059999999998
 20
1.2236
 30
0.0
 11
-3.67209
 21
1.313639999999999
 31
0.0
  0
LINE
  5
1E3
330
95
100
AcDbEntity
  8
0
100
AcDbLine
 10
-3.67209
 20
1.313639999999999
 30
0.0
 11
-3.638549999999998
 21
1.40387
 31
0.0
  0
LINE
  5
1E4
330
95
100
AcDbEntity
  8
0
100
AcDbLine
 10
-3.638549999999998
 20
1.40387
 30
0.0
 11
-3.603059999999998
 21
1.492609999999999
 31
0.0
  0
LINE
  5
1E5
330
95
100
AcDbEntity
  8
0
100
AcDbLine
 10
-3.603059999999998
 20
1.492609999999999
 30
0.0
 11
-3.565669999999999
 21
1.579819999999999
 31
0.0
  0
LINE
  5
1E6
330
95
100
AcDbEntity
  8
0
100
AcDbLine
 10
-3.565669999999999
 20
1.579819999999999
 30
0.0
 11
-3.525309999999998
 21
1.66794
 31
0.0
  0
LINE
  5
1E7
330
95
100
AcDbEntity
  8
0
100
AcDbLine
 10
-3.525309999999998
 20
1.66794
 30
0.0
 11
-3.483569999999998
 21
1.753479999999995
 31
0.0
  0
LINE
  5
1E8
330
95
100
AcDbEntity
  8
0
100
AcDbLine
 10
-3.483569999999998
 20
1.753479999999995
 30
0.0
 11
-3.439709999999998
 21
1.838
 31
0.0
  0
LINE
  5
1E9
330
95
100
AcDbEntity
  8
0
100
AcDbLine
 10
-3.439709999999998
 20
1.838
 30
0.0
 11
-3.393299999999998
 21
1.922349999999999
 31
0.0
  0
LINE
  5
1EA
330
95
100
AcDbEntity
  8
0
100
AcDbLine
 10
-3.393299999999998
 20
1.922349999999999
 30
0.0
 11
-3.345149999999998
 21
2.004909999999999
 31
0.0
  0
LINE
  5
1EB
330
95
100
AcDbEntity
  8
0
100
AcDbLine
 10
-3.345149999999998
 20
2.004909999999999
 30
0.0
 11
-3.29468
 21
2.08687
 31
0.0
  0
LINE
  5
1EC
330
95
100
AcDbEntity
  8
0
100
AcDbLine
 10
-3.29468
 20
2.08687
 30
0.0
 11
-3.242869999999998
 21
2.166469999999999
 31
0.0
  0
LINE
  5
1ED
330
95
100
AcDbEntity
  8
0
100
AcDbLine
 10
-3.242869999999998
 20
2.166469999999999
 30
0.0
 11
-3.188629999999998
 21
2.24553
 31
0.0
  0
LINE
  5
1EE
330
95
100
AcDbEntity
  8
0
100
AcDbLine
 10
-3.188629999999998
 20
2.24553
 30
0.0
 11
-3.1324
 21
2.32335
 31
0.0
  0
LINE
  5
1EF
330
95
100
AcDbEntity
  8
0
100
AcDbLine
 10
-3.1324
 20
2.32335
 30
0.0
 11
-3.07457
 21
2.39935
 31
0.0
  0
LINE
  5
1F0
330
95
100
AcDbEntity
  8
0
100
AcDbLine
 10
-3.07457
 20
2.39935
 30
0.0
 11
-3.014619999999998
 21
2.47427
 31
0.0
  0
LINE
  5
1F1
330
95
100
AcDbEntity
  8
0
100
AcDbLine
 10
-3.014619999999998
 20
2.47427
 30
0.0
 11
-2.953219999999998
 21
2.547229999999998
 31
0.0
  0
LINE
  5
1F2
330
95
100
AcDbEntity
  8
0
100
AcDbLine
 10
-2.953219999999998
 20
2.547229999999998
 30
0.0
 11
-2.88963
 21
2.619129999999999
 31
0.0
  0
LINE
  5
1F3
330
95
100
AcDbEntity
  8
0
100
AcDbLine
 10
-2.88963
 20
2.619129999999999
 30
0.0
 11
-2.82437
 21
2.689389999999998
 31
0.0
  0
LINE
  5
1F4
330
95
100
AcDbEntity
  8
0
100
AcDbLine
 10
-2.82437
 20
2.689389999999998
 30
0.0
 11
-2.757709999999998
 21
2.757709999999998
 31
0.0
  0
LINE
  5
1F5
330
95
100
AcDbEntity
  8
0
100
AcDbLine
 10
-2.757709999999998
 20
2.757709999999998
 30
0.0
 11
-2.689389999999998
 21
2.82437
 31
0.0
  0
LINE
  5
1F6
330
95
100
AcDbEntity
  8
0
100
AcDbLine
 10
-2.689389999999998
 20
2.82437
 30
0.0
 11
-2.619129999999999
 21
2.88963
 31
0.0
  0
LINE
  5
1F7
330
95
100
AcDbEntity
  8
0
100
AcDbLine
 10
-2.619129999999999
 20
2.88963
 30
0.0
 11
-2.547229999999998
 21
2.953219999999998
 31
0.0
  0
LINE
  5
1F8
330
95
100
AcDbEntity
  8
0
100
AcDbLine
 10
-2.547229999999998
 20
2.953219999999998
 30
0.0
 11
-2.47427
 21
3.014619999999998
 31
0.0
  0
LINE
  5
1F9
330
95
100
AcDbEntity
  8
0
100
AcDbLine
 10
-2.47427
 20
3.014619999999998
 30
0.0
 11
-2.39935
 21
3.07457
 31
0.0
  0
LINE
  5
1FA
330
95
100
AcDbEntity
  8
0
100
AcDbLine
 10
-2.39935
 20
3.07457
 30
0.0
 11
-2.32335
 21
3.1324
 31
0.0
  0
LINE
  5
1FB
330
95
100
AcDbEntity
  8
0
100
AcDbLine
 10
-2.32335
 20
3.1324
 30
0.0
 11
-2.24553
 21
3.188629999999998
 31
0.0
  0
LINE
  5
1FC
330
95
100
AcDbEntity
  8
0
100
AcDbLine
 10
-2.24553
 20
3.188629999999998
 30
0.0
 11
-2.166469999999999
 21
3.242869999999998
 31
0.0
  0
LINE
  5
1FD
330
95
100
AcDbEntity
  8
0
100
AcDbLine
 10
-2.166469999999999
 20
3.242869999999998
 30
0.0
 11
-2.08687
 21
3.29468
 31
0.0
  0
LINE
  5
1FE
330
95
100
AcDbEntity
  8
0
100
AcDbLine
 10
-2.08687
 20
3.29468
 30
0.0
 11
-2.004909999999999
 21
3.345149999999998
 31
0.0
  0
LINE
  5
1FF
330
95
100
AcDbEntity
  8
0
100
AcDbLine
 10
-2.004909999999999
 20
3.345149999999998
 30
0.0
 11
-1.922349999999999
 21
3.393299999999998
 31
0.0
  0
LINE
  5
200
330
95
100
AcDbEntity
  8
0
100
AcDbLine
 10
-1.922349999999999
 20
3.393299999999998
 30
0.0
 11
-1.838
 21
3.439709999999998
 31
0.0
  0
LINE
  5
201
330
95
100
AcDbEntity
  8
0
100
AcDbLine
 10
-1.838
 20
3.439709999999998
 30
0.0
 11
-1.753479999999995
 21
3.483569999999998
 31
0.0
  0
LINE
  5
202
330
95
100
AcDbEntity
  8
0
100
AcDbLine
 10
-1.753479999999995
 20
3.483569999999998
 30
0.0
 11
-1.66794
 21
3.525309999999998
 31
0.0
  0
LINE
  5
203
330
95
100
AcDbEntity
  8
0
100
AcDbLine
 10
-1.66794
 20
3.525309999999998
 30
0.0
 11
-1.579819999999999
 21
3.565669999999999
 31
0.0
  0
LINE
  5
204
330
95
100
AcDbEntity
  8
0
100
AcDbLine
 10
-1.579819999999999
 20
3.565669999999999
 30
0.0
 11
-1.492609999999999
 21
3.603059999999998
 31
0.0
  0
LINE
  5
205
330
95
100
AcDbEntity
  8
0
100
AcDbLine
 10
-1.492609999999999
 20
3.603059999999998
 30
0.0
 11
-1.40387
 21
3.638549999999998
 31
0.0
  0
LINE
  5
206
330
95
100
AcDbEntity
  8
0
100
AcDbLine
 10
-1.40387
 20
3.638549999999998
 30
0.0
 11
-1.313639999999999
 21
3.67209
 31
0.0
  0
LINE
  5
207
330
95
100
AcDbEntity
  8
0
100
AcDbLine
 10
-1.313639999999999
 20
3.67209
 30
0.0
 11
-1.2236
 21
3.703059999999998
 31
0.0
  0
LINE
  5
208
330
95
100
AcDbEntity
  8
0
100
AcDbLine
 10
-1.2236
 20
3.703059999999998
 30
0.0
 11
-1.131699999999999
 21
3.73218
 31
0.0
  0
LINE
  5
209
330
95
100
AcDbEntity
  8
0
100
AcDbLine
 10
-1.131699999999999
 20
3.73218
 30
0.0
 11
-1.0401
 21
3.758739999999998
 31
0.0
  0
LINE
  5
20A
330
95
100
AcDbEntity
  8
0
100
AcDbLine
 10
-1.0401
 20
3.758739999999998
 30
0.0
 11
-0.9478609999999999
 21
3.78304
 31
0.0
  0
LINE
  5
20B
330
95
100
AcDbEntity
  8
0
100
AcDbLine
 10
-0.9478609999999999
 20
3.78304
 30
0.0
 11
-0.8547969999999999
 21
3.805159999999998
 31
0.0
  0
LINE
  5
20C
330
95
100
AcDbEntity
  8
0
100
AcDbLine
 10
-0.8547969999999999
 20
3.805159999999998
 30
0.0
 11
-0.7606960000000002
 21
3.825059999999998
 31
0.0
  0
LINE
  5
20D
330
95
100
AcDbEntity
  8
0
100
AcDbLine
 10
-0.7606960000000002
 20
3.825059999999998
 30
0.0
 11
-0.666382
 21
3.84264
 31
0.0
  0
LINE
  5
20E
330
95
100
AcDbEntity
  8
0
100
AcDbLine
 10
-0.666382
 20
3.84264
 30
0.0
 11
-0.572495
 21
3.85774
 31
0.0
  0
LINE
  5
20F
330
95
100
AcDbEntity
  8
0
100
AcDbLine
 10
-0.572495
 20
3.85774
 30
0.0
 11
-0.47757
 21
3.87064
 31
0.0
  0
LINE
  5
210
330
95
100
AcDbEntity
  8
0
100
AcDbLine
 10
-0.47757
 20
3.87064
 30
0.0
 11
-0.38179
 21
3.881259999999998
 31
0.0
  0
LINE
  5
211
330
95
100
AcDbEntity
  8
0
100
AcDbLine
 10
-0.38179
 20
3.881259999999998
 30
0.0
 11
-0.287018
 21
3.8894
 31
0.0
  0
LINE
  5
212
330
95
100
AcDbEntity
  8
0
100
AcDbLine
 10
-0.287018
 20
3.8894
 30
0.0
 11
-0.191406
 21
3.89529
 31
0.0
  0
LINE
  5
213
330
95
100
AcDbEntity
  8
0
100
AcDbLine
 10
-0.191406
 20
3.89529
 30
0.0
 11
-0.0957336
 21
3.898819999999998
 31
0.0
  0
LINE
  5
214
330
95
100
AcDbEntity
  8
0
100
AcDbLine
 10
-0.0957336
 20
3.898819999999998
 30
0.0
 11
0.0
 21
3.89999
 31
0.0
  0
LINE
  5
215
330
95
100
AcDbEntity
  8
0
100
AcDbLine
 10
0.0
 20
3.89999
 30
0.0
 11
0.0957336
 21
3.898819999999998
 31
0.0
  0
LINE
  5
216
330
95
100
AcDbEntity
  8
0
100
AcDbLine
 10
0.0957336
 20
3.898819999999998
 30
0.0
 11
0.191406
 21
3.89529
 31
0.0
  0
LINE
  5
217
330
95
100
AcDbEntity
  8
0
100
AcDbLine
 10
0.191406
 20
3.89529
 30
0.0
 11
0.287018
 21
3.8894
 31
0.0
  0
LINE
  5
218
330
95
100
AcDbEntity
  8
0
100
AcDbLine
 10
0.287018
 20
3.8894
 30
0.0
 11
0.38179
 21
3.881259999999998
 31
0.0
  0
LINE
  5
219
330
95
100
AcDbEntity
  8
0
100
AcDbLine
 10
0.38179
 20
3.881259999999998
 30
0.0
 11
0.47757
 21
3.87064
 31
0.0
  0
LINE
  5
21A
330
95
100
AcDbEntity
  8
0
100
AcDbLine
 10
0.47757
 20
3.87064
 30
0.0
 11
0.572495
 21
3.85774
 31
0.0
  0
LINE
  5
21B
330
95
100
AcDbEntity
  8
0
100
AcDbLine
 10
0.572495
 20
3.85774
 30
0.0
 11
0.666382
 21
3.84264
 31
0.0
  0
LINE
  5
21C
330
95
100
AcDbEntity
  8
0
100
AcDbLine
 10
0.666382
 20
3.84264
 30
0.0
 11
0.7606960000000002
 21
3.825059999999998
 31
0.0
  0
LINE
  5
21D
330
95
100
AcDbEntity
  8
0
100
AcDbLine
 10
0.7606960000000002
 20
3.825059999999998
 30
0.0
 11
0.8547969999999999
 21
3.805159999999998
 31
0.0
  0
LINE
  5
21E
330
95
100
AcDbEntity
  8
0
100
AcDbLine
 10
0.8547969999999999
 20
3.805159999999998
 30
0.0
 11
0.9478609999999999
 21
3.78304
 31
0.0
  0
LINE
  5
21F
330
95
100
AcDbEntity
  8
0
100
AcDbLine
 10
0.9478609999999999
 20
3.78304
 30
0.0
 11
1.0401
 21
3.758739999999998
 31
0.0
  0
LINE
  5
220
330
95
100
AcDbEntity
  8
0
100
AcDbLine
 10
1.0401
 20
3.758739999999998
 30
0.0
 11
1.131699999999999
 21
3.73218
 31
0.0
  0
LINE
  5
221
330
95
100
AcDbEntity
  8
0
100
AcDbLine
 10
1.131699999999999
 20
3.73218
 30
0.0
 11
1.2236
 21
3.703059999999998
 31
0.0
  0
LINE
  5
222
330
95
100
AcDbEntity
  8
0
100
AcDbLine
 10
1.2236
 20
3.703059999999998
 30
0.0
 11
1.313639999999999
 21
3.67209
 31
0.0
  0
LINE
  5
223
330
95
100
AcDbEntity
  8
0
100
AcDbLine
 10
1.313639999999999
 20
3.67209
 30
0.0
 11
1.40387
 21
3.638549999999998
 31
0.0
  0
LINE
  5
224
330
95
100
AcDbEntity
  8
0
100
AcDbLine
 10
1.40387
 20
3.638549999999998
 30
0.0
 11
1.492609999999999
 21
3.603059999999998
 31
0.0
  0
LINE
  5
225
330
95
100
AcDbEntity
  8
0
100
AcDbLine
 10
1.492609999999999
 20
3.603059999999998
 30
0.0
 11
1.579819999999999
 21
3.565669999999999
 31
0.0
  0
LINE
  5
226
330
95
100
AcDbEntity
  8
0
100
AcDbLine
 10
1.579819999999999
 20
3.565669999999999
 30
0.0
 11
1.66794
 21
3.525309999999998
 31
0.0
  0
LINE
  5
227
330
95
100
AcDbEntity
  8
0
100
AcDbLine
 10
1.66794
 20
3.525309999999998
 30
0.0
 11
1.753479999999995
 21
3.483569999999998
 31
0.0
  0
LINE
  5
228
330
95
100
AcDbEntity
  8
0
100
AcDbLine
 10
1.753479999999995
 20
3.483569999999998
 30
0.0
 11
1.838
 21
3.439709999999998
 31
0.0
  0
LINE
  5
229
330
95
100
AcDbEntity
  8
0
100
AcDbLine
 10
1.838
 20
3.439709999999998
 30
0.0
 11
1.922349999999999
 21
3.393299999999998
 31
0.0
  0
LINE
  5
22A
330
95
100
AcDbEntity
  8
0
100
AcDbLine
 10
1.922349999999999
 20
3.393299999999998
 30
0.0
 11
2.004909999999999
 21
3.345149999999998
 31
0.0
  0
LINE
  5
22B
330
95
100
AcDbEntity
  8
0
100
AcDbLine
 10
2.004909999999999
 20
3.345149999999998
 30
0.0
 11
2.08687
 21
3.29468
 31
0.0
  0
LINE
  5
22C
330
95
100
AcDbEntity
  8
0
100
AcDbLine
 10
2.08687
 20
3.29468
 30
0.0
 11
2.166469999999999
 21
3.242869999999998
 31
0.0
  0
LINE
  5
22D
330
95
100
AcDbEntity
  8
0
100
AcDbLine
 10
2.166469999999999
 20
3.242869999999998
 30
0.0
 11
2.24553
 21
3.188629999999998
 31
0.0
  0
LINE
  5
22E
330
95
100
AcDbEntity
  8
0
100
AcDbLine
 10
2.24553
 20
3.188629999999998
 30
0.0
 11
2.32335
 21
3.1324
 31
0.0
  0
LINE
  5
22F
330
95
100
AcDbEntity
  8
0
100
AcDbLine
 10
2.32335
 20
3.1324
 30
0.0
 11
2.39935
 21
3.07457
 31
0.0
  0
LINE
  5
230
330
95
100
AcDbEntity
  8
0
100
AcDbLine
 10
2.39935
 20
3.07457
 30
0.0
 11
2.47427
 21
3.014619999999998
 31
0.0
  0
LINE
  5
231
330
95
100
AcDbEntity
  8
0
100
AcDbLine
 10
2.47427
 20
3.014619999999998
 30
0.0
 11
2.547229999999998
 21
2.953219999999998
 31
0.0
  0
LINE
  5
232
330
95
100
AcDbEntity
  8
0
100
AcDbLine
 10
2.547229999999998
 20
2.953219999999998
 30
0.0
 11
2.619129999999999
 21
2.88963
 31
0.0
  0
LINE
  5
233
330
95
100
AcDbEntity
  8
0
100
AcDbLine
 10
2.619129999999999
 20
2.88963
 30
0.0
 11
2.689389999999998
 21
2.82437
 31
0.0
  0
LINE
  5
234
330
95
100
AcDbEntity
  8
0
100
AcDbLine
 10
2.689389999999998
 20
2.82437
 30
0.0
 11
2.757709999999998
 21
2.757709999999998
 31
0.0
  0
LINE
  5
235
330
95
100
AcDbEntity
  8
0
100
AcDbLine
 10
2.757709999999998
 20
2.757709999999998
 30
0.0
 11
2.82437
 21
2.689389999999998
 31
0.0
  0
LINE
  5
236
330
95
100
AcDbEntity
  8
0
100
AcDbLine
 10
2.82437
 20
2.689389999999998
 30
0.0
 11
2.88963
 21
2.619129999999999
 31
0.0
  0
LINE
  5
237
330
95
100
AcDbEntity
  8
0
100
AcDbLine
 10
2.88963
 20
2.619129999999999
 30
0.0
 11
2.953219999999998
 21
2.547229999999998
 31
0.0
  0
LINE
  5
238
330
95
100
AcDbEntity
  8
0
100
AcDbLine
 10
2.953219999999998
 20
2.547229999999998
 30
0.0
 11
3.014619999999998
 21
2.47427
 31
0.0
  0
LINE
  5
239
330
95
100
AcDbEntity
  8
0
100
AcDbLine
 10
3.014619999999998
 20
2.47427
 30
0.0
 11
3.07457
 21
2.39935
 31
0.0
  0
LINE
  5
23A
330
95
100
AcDbEntity
  8
0
100
AcDbLine
 10
3.07457
 20
2.39935
 30
0.0
 11
3.1324
 21
2.32335
 31
0.0
  0
LINE
  5
23B
330
95
100
AcDbEntity
  8
0
100
AcDbLine
 10
3.1324
 20
2.32335
 30
0.0
 11
3.188629999999998
 21
2.24553
 31
0.0
  0
LINE
  5
23C
330
95
100
AcDbEntity
  8
0
100
AcDbLine
 10
3.188629999999998
 20
2.24553
 30
0.0
 11
3.242869999999998
 21
2.166469999999999
 31
0.0
  0
LINE
  5
23D
330
95
100
AcDbEntity
  8
0
100
AcDbLine
 10
3.242869999999998
 20
2.166469999999999
 30
0.0
 11
3.29468
 21
2.08687
 31
0.0
  0
LINE
  5
23E
330
95
100
AcDbEntity
  8
0
100
AcDbLine
 10
3.29468
 20
2.08687
 30
0.0
 11
3.345149999999998
 21
2.004909999999999
 31
0.0
  0
LINE
  5
23F
330
95
100
AcDbEntity
  8
0
100
AcDbLine
 10
3.345149999999998
 20
2.004909999999999
 30
0.0
 11
3.393299999999998
 21
1.922349999999999
 31
0.0
  0
LINE
  5
240
330
95
100
AcDbEntity
  8
0
100
AcDbLine
 10
3.393299999999998
 20
1.922349999999999
 30
0.0
 11
3.439709999999998
 21
1.838
 31
0.0
  0
LINE
  5
241
330
95
100
AcDbEntity
  8
0
100
AcDbLine
 10
3.439709999999998
 20
1.838
 30
0.0
 11
3.483569999999998
 21
1.753479999999995
 31
0.0
  0
LINE
  5
242
330
95
100
AcDbEntity
  8
0
100
AcDbLine
 10
3.483569999999998
 20
1.753479999999995
 30
0.0
 11
3.525309999999998
 21
1.66794
 31
0.0
  0
LINE
  5
243
330
95
100
AcDbEntity
  8
0
100
AcDbLine
 10
3.525309999999998
 20
1.66794
 30
0.0
 11
3.565669999999999
 21
1.579819999999999
 31
0.0
  0
LINE
  5
244
330
95
100
AcDbEntity
  8
0
100
AcDbLine
 10
3.565669999999999
 20
1.579819999999999
 30
0.0
 11
3.603059999999998
 21
1.492609999999999
 31
0.0
  0
LINE
  5
245
330
95
100
AcDbEntity
  8
0
100
AcDbLine
 10
3.603059999999998
 20
1.492609999999999
 30
0.0
 11
3.638549999999998
 21
1.40387
 31
0.0
  0
LINE
  5
246
330
95
100
AcDbEntity
  8
0
100
AcDbLine
 10
3.638549999999998
 20
1.40387
 30
0.0
 11
3.67209
 21
1.313639999999999
 31
0.0
  0
LINE
  5
247
330
95
100
AcDbEntity
  8
0
100
AcDbLine
 10
3.67209
 20
1.313639999999999
 30
0.0
 11
3.703059999999998
 21
1.2236
 31
0.0
  0
LINE
  5
248
330
95
100
AcDbEntity
  8
0
100
AcDbLine
 10
3.703059999999998
 20
1.2236
 30
0.0
 11
3.73218
 21
1.131699999999999
 31
0.0
  0
LINE
  5
249
330
95
100
AcDbEntity
  8
0
100
AcDbLine
 10
3.73218
 20
1.131699999999999
 30
0.0
 11
3.758739999999998
 21
1.0401
 31
0.0
  0
LINE
  5
24A
330
95
100
AcDbEntity
  8
0
100
AcDbLine
 10
3.758739999999998
 20
1.0401
 30
0.0
 11
3.78304
 21
0.9478609999999999
 31
0.0
  0
LINE
  5
24B
330
95
100
AcDbEntity
  8
0
100
AcDbLine
 10
3.78304
 20
0.9478609999999999
 30
0.0
 11
3.805159999999998
 21
0.8547969999999999
 31
0.0
  0
LINE
  5
24C
330
95
100
AcDbEntity
  8
0
100
AcDbLine
 10
3.805159999999998
 20
0.8547969999999999
 30
0.0
 11
3.825059999999998
 21
0.7606960000000002
 31
0.0
  0
LINE
  5
24D
330
95
100
AcDbEntity
  8
0
100
AcDbLine
 10
3.825059999999998
 20
0.7606960000000002
 30
0.0
 11
3.84264
 21
0.666382
 31
0.0
  0
LINE
  5
24E
330
95
100
AcDbEntity
  8
0
100
AcDbLine
 10
3.84264
 20
0.666382
 30
0.0
 11
3.85774
 21
0.572495
 31
0.0
  0
LINE
  5
24F
330
95
100
AcDbEntity
  8
0
100
AcDbLine
 10
3.85774
 20
0.572495
 30
0.0
 11
3.87064
 21
0.47757
 31
0.0
  0
LINE
  5
250
330
95
100
AcDbEntity
  8
0
100
AcDbLine
 10
3.87064
 20
0.47757
 30
0.0
 11
3.881259999999998
 21
0.38179
 31
0.0
  0
LINE
  5
251
330
95
100
AcDbEntity
  8
0
100
AcDbLine
 10
3.881259999999998
 20
0.38179
 30
0.0
 11
3.8894
 21
0.287018
 31
0.0
  0
LINE
  5
252
330
95
100
AcDbEntity
  8
0
100
AcDbLine
 10
3.8894
 20
0.287018
 30
0.0
 11
3.89529
 21
0.191406
 31
0.0
  0
LINE
  5
253
330
95
100
AcDbEntity
  8
0
100
AcDbLine
 10
3.89529
 20
0.191406
 30
0.0
 11
3.898819999999998
 21
0.0957336
 31
0.0
  0
LINE
  5
254
330
95
100
AcDbEntity
  8
0
100
AcDbLine
 10
3.898819999999998
 20
0.0957336
 30
0.0
 11
3.89999
 21
0.0
 31
0.0
  0
LINE
  5
255
330
95
100
AcDbEntity
  8
0
100
AcDbLine
 10
3.89999
 20
0.0
 30
0.0
 11
3.898819999999998
 21
-0.0957336
 31
0.0
  0
LINE
  5
256
330
95
100
AcDbEntity
  8
0
100
AcDbLine
 10
3.898819999999998
 20
-0.0957336
 30
0.0
 11
3.89529
 21
-0.191406
 31
0.0
  0
LINE
  5
257
330
95
100
AcDbEntity
  8
0
100
AcDbLine
 10
3.89529
 20
-0.191406
 30
0.0
 11
3.8894
 21
-0.287018
 31
0.0
  0
LINE
  5
258
330
95
100
AcDbEntity
  8
0
100
AcDbLine
 10
3.8894
 20
-0.287018
 30
0.0
 11
3.881259999999998
 21
-0.38179
 31
0.0
  0
LINE
  5
259
330
95
100
AcDbEntity
  8
0
100
AcDbLine
 10
3.881259999999998
 20
-0.38179
 30
0.0
 11
3.87064
 21
-0.47757
 31
0.0
  0
LINE
  5
25A
330
95
100
AcDbEntity
  8
0
100
AcDbLine
 10
3.87064
 20
-0.47757
 30
0.0
 11
3.85774
 21
-0.572495
 31
0.0
  0
LINE
  5
25B
330
95
100
AcDbEntity
  8
0
100
AcDbLine
 10
3.85774
 20
-0.572495
 30
0.0
 11
3.84264
 21
-0.666382
 31
0.0
  0
LINE
  5
25C
330
95
100
AcDbEntity
  8
0
100
AcDbLine
 10
3.84264
 20
-0.666382
 30
0.0
 11
3.825059999999998
 21
-0.7606960000000002
 31
0.0
  0
LINE
  5
25D
330
95
100
AcDbEntity
  8
0
100
AcDbLine
 10
3.825059999999998
 20
-0.7606960000000002
 30
0.0
 11
3.805159999999998
 21
-0.8547969999999999
 31
0.0
  0
LINE
  5
25E
330
95
100
AcDbEntity
  8
0
100
AcDbLine
 10
3.805159999999998
 20
-0.8547969999999999
 30
0.0
 11
3.78304
 21
-0.9478609999999999
 31
0.0
  0
LINE
  5
25F
330
95
100
AcDbEntity
  8
0
100
AcDbLine
 10
3.78304
 20
-0.9478609999999999
 30
0.0
 11
3.758739999999998
 21
-1.0401
 31
0.0
  0
LINE
  5
260
330
95
100
AcDbEntity
  8
0
100
AcDbLine
 10
3.758739999999998
 20
-1.0401
 30
0.0
 11
3.73218
 21
-1.131699999999999
 31
0.0
  0
LINE
  5
261
330
95
100
AcDbEntity
  8
0
100
AcDbLine
 10
3.73218
 20
-1.131699999999999
 30
0.0
 11
3.703059999999998
 21
-1.2236
 31
0.0
  0
LINE
  5
262
330
95
100
AcDbEntity
  8
0
100
AcDbLine
 10
3.703059999999998
 20
-1.2236
 30
0.0
 11
3.67209
 21
-1.313639999999999
 31
0.0
  0
LINE
  5
263
330
95
100
AcDbEntity
  8
0
100
AcDbLine
 10
3.67209
 20
-1.313639999999999
 30
0.0
 11
3.638549999999998
 21
-1.40387
 31
0.0
  0
LINE
  5
264
330
95
100
AcDbEntity
  8
0
100
AcDbLine
 10
3.638549999999998
 20
-1.40387
 30
0.0
 11
3.603059999999998
 21
-1.492609999999999
 31
0.0
  0
LINE
  5
265
330
95
100
AcDbEntity
  8
0
100
AcDbLine
 10
3.603059999999998
 20
-1.492609999999999
 30
0.0
 11
3.565669999999999
 21
-1.579819999999999
 31
0.0
  0
LINE
  5
266
330
95
100
AcDbEntity
  8
0
100
AcDbLine
 10
3.565669999999999
 20
-1.579819999999999
 30
0.0
 11
3.525309999999998
 21
-1.66794
 31
0.0
  0
LINE
  5
267
330
95
100
AcDbEntity
  8
0
100
AcDbLine
 10
3.525309999999998
 20
-1.66794
 30
0.0
 11
3.483569999999998
 21
-1.753479999999995
 31
0.0
  0
LINE
  5
268
330
95
100
AcDbEntity
  8
0
100
AcDbLine
 10
3.483569999999998
 20
-1.753479999999995
 30
0.0
 11
3.439709999999998
 21
-1.838
 31
0.0
  0
LINE
  5
269
330
95
100
AcDbEntity
  8
0
100
AcDbLine
 10
3.439709999999998
 20
-1.838
 30
0.0
 11
3.393299999999998
 21
-1.922349999999999
 31
0.0
  0
LINE
  5
26A
330
95
100
AcDbEntity
  8
0
100
AcDbLine
 10
3.393299999999998
 20
-1.922349999999999
 30
0.0
 11
3.345149999999998
 21
-2.004909999999999
 31
0.0
  0
LINE
  5
26B
330
95
100
AcDbEntity
  8
0
100
AcDbLine
 10
3.345149999999998
 20
-2.004909999999999
 30
0.0
 11
3.29468
 21
-2.08687
 31
0.0
  0
LINE
  5
26C
330
95
100
AcDbEntity
  8
0
100
AcDbLine
 10
3.29468
 20
-2.08687
 30
0.0
 11
3.242869999999998
 21
-2.166469999999999
 31
0.0
  0
LINE
  5
26D
330
95
100
AcDbEntity
  8
0
100
AcDbLine
 10
3.242869999999998
 20
-2.166469999999999
 30
0.0
 11
3.188629999999998
 21
-2.24553
 31
0.0
  0
LINE
  5
26E
330
95
100
AcDbEntity
  8
0
100
AcDbLine
 10
3.188629999999998
 20
-2.24553
 30
0.0
 11
3.1324
 21
-2.32335
 31
0.0
  0
LINE
  5
26F
330
95
100
AcDbEntity
  8
0
100
AcDbLine
 10
3.1324
 20
-2.32335
 30
0.0
 11
3.07457
 21
-2.39935
 31
0.0
  0
LINE
  5
270
330
95
100
AcDbEntity
  8
0
100
AcDbLine
 10
3.07457
 20
-2.39935
 30
0.0
 11
3.014619999999998
 21
-2.47427
 31
0.0
  0
LINE
  5
271
330
95
100
AcDbEntity
  8
0
100
AcDbLine
 10
3.014619999999998
 20
-2.47427
 30
0.0
 11
2.953219999999998
 21
-2.547229999999998
 31
0.0
  0
LINE
  5
272
330
95
100
AcDbEntity
  8
0
100
AcDbLine
 10
2.953219999999998
 20
-2.547229999999998
 30
0.0
 11
2.88963
 21
-2.619129999999999
 31
0.0
  0
LINE
  5
273
330
95
100
AcDbEntity
  8
0
100
AcDbLine
 10
2.88963
 20
-2.619129999999999
 30
0.0
 11
2.82437
 21
-2.689389999999998
 31
0.0
  0
LINE
  5
274
330
95
100
AcDbEntity
  8
0
100
AcDbLine
 10
2.82437
 20
-2.689389999999998
 30
0.0
 11
2.757709999999998
 21
-2.757709999999998
 31
0.0
  0
LINE
  5
275
330
95
100
AcDbEntity
  8
0
100
AcDbLine
 10
2.757709999999998
 20
-2.757709999999998
 30
0.0
 11
2.689389999999998
 21
-2.82437
 31
0.0
  0
LINE
  5
276
330
95
100
AcDbEntity
  8
0
100
AcDbLine
 10
2.689389999999998
 20
-2.82437
 30
0.0
 11
2.619129999999999
 21
-2.88963
 31
0.0
  0
LINE
  5
277
330
95
100
AcDbEntity
  8
0
100
AcDbLine
 10
2.619129999999999
 20
-2.88963
 30
0.0
 11
2.547229999999998
 21
-2.953219999999998
 31
0.0
  0
LINE
  5
278
330
95
100
AcDbEntity
  8
0
100
AcDbLine
 10
2.547229999999998
 20
-2.953219999999998
 30
0.0
 11
2.47427
 21
-3.014619999999998
 31
0.0
  0
LINE
  5
279
330
95
100
AcDbEntity
  8
0
100
AcDbLine
 10
2.47427
 20
-3.014619999999998
 30
0.0
 11
2.39935
 21
-3.07457
 31
0.0
  0
LINE
  5
27A
330
95
100
AcDbEntity
  8
0
100
AcDbLine
 10
2.39935
 20
-3.07457
 30
0.0
 11
2.32335
 21
-3.1324
 31
0.0
  0
LINE
  5
27B
330
95
100
AcDbEntity
  8
0
100
AcDbLine
 10
2.32335
 20
-3.1324
 30
0.0
 11
2.24553
 21
-3.188629999999998
 31
0.0
  0
LINE
  5
27C
330
95
100
AcDbEntity
  8
0
100
AcDbLine
 10
2.24553
 20
-3.188629999999998
 30
0.0
 11
2.166469999999999
 21
-3.242869999999998
 31
0.0
  0
LINE
  5
27D
330
95
100
AcDbEntity
  8
0
100
AcDbLine
 10
2.166469999999999
 20
-3.242869999999998
 30
0.0
 11
2.08687
 21
-3.29468
 31
0.0
  0
LINE
  5
27E
330
95
100
AcDbEntity
  8
0
100
AcDbLine
 10
2.08687
 20
-3.29468
 30
0.0
 11
2.004909999999999
 21
-3.345149999999998
 31
0.0
  0
LINE
  5
27F
330
95
100
AcDbEntity
  8
0
100
AcDbLine
 10
2.004909999999999
 20
-3.345149999999998
 30
0.0
 11
1.922349999999999
 21
-3.393299999999998
 31
0.0
  0
LINE
  5
280
330
95
100
AcDbEntity
  8
0
100
AcDbLine
 10
1.922349999999999
 20
-3.393299999999998
 30
0.0
 11
1.838
 21
-3.439709999999998
 31
0.0
  0
LINE
  5
281
330
95
100
AcDbEntity
  8
0
100
AcDbLine
 10
1.838
 20
-3.439709999999998
 30
0.0
 11
1.753479999999995
 21
-3.483569999999998
 31
0.0
  0
LINE
  5
282
330
95
100
AcDbEntity
  8
0
100
AcDbLine
 10
1.753479999999995
 20
-3.483569999999998
 30
0.0
 11
1.66794
 21
-3.525309999999998
 31
0.0
  0
LINE
  5
283
330
95
100
AcDbEntity
  8
0
100
AcDbLine
 10
1.66794
 20
-3.525309999999998
 30
0.0
 11
1.579819999999999
 21
-3.565669999999999
 31
0.0
  0
LINE
  5
284
330
95
100
AcDbEntity
  8
0
100
AcDbLine
 10
1.579819999999999
 20
-3.565669999999999
 30
0.0
 11
1.492609999999999
 21
-3.603059999999998
 31
0.0
  0
LINE
  5
285
330
95
100
AcDbEntity
  8
0
100
AcDbLine
 10
1.492609999999999
 20
-3.603059999999998
 30
0.0
 11
1.40387
 21
-3.638549999999998
 31
0.0
  0
LINE
  5
286
330
95
100
AcDbEntity
  8
0
100
AcDbLine
 10
1.40387
 20
-3.638549999999998
 30
0.0
 11
1.313639999999999
 21
-3.67209
 31
0.0
  0
LINE
  5
287
330
95
100
AcDbEntity
  8
0
100
AcDbLine
 10
1.313639999999999
 20
-3.67209
 30
0.0
 11
1.2236
 21
-3.703059999999998
 31
0.0
  0
LINE
  5
288
330
95
100
AcDbEntity
  8
0
100
AcDbLine
 10
1.2236
 20
-3.703059999999998
 30
0.0
 11
1.131699999999999
 21
-3.73218
 31
0.0
  0
LINE
  5
289
330
95
100
AcDbEntity
  8
0
100
AcDbLine
 10
1.131699999999999
 20
-3.73218
 30
0.0
 11
1.0401
 21
-3.758739999999998
 31
0.0
  0
LINE
  5
28A
330
95
100
AcDbEntity
  8
0
100
AcDbLine
 10
1.0401
 20
-3.758739999999998
 30
0.0
 11
0.9478609999999999
 21
-3.78304
 31
0.0
  0
LINE
  5
28B
330
95
100
AcDbEntity
  8
0
100
AcDbLine
 10
0.9478609999999999
 20
-3.78304
 30
0.0
 11
0.8547969999999999
 21
-3.805159999999998
 31
0.0
  0
LINE
  5
28C
330
95
100
AcDbEntity
  8
0
100
AcDbLine
 10
0.8547969999999999
 20
-3.805159999999998
 30
0.0
 11
0.7606960000000002
 21
-3.825059999999998
 31
0.0
  0
LINE
  5
28D
330
95
100
AcDbEntity
  8
0
100
AcDbLine
 10
0.7606960000000002
 20
-3.825059999999998
 30
0.0
 11
0.666382
 21
-3.84264
 31
0.0
  0
LINE
  5
28E
330
95
100
AcDbEntity
  8
0
100
AcDbLine
 10
0.666382
 20
-3.84264
 30
0.0
 11
0.572495
 21
-3.85774
 31
0.0
  0
LINE
  5
28F
330
95
100
AcDbEntity
  8
0
100
AcDbLine
 10
0.572495
 20
-3.85774
 30
0.0
 11
0.47757
 21
-3.87064
 31
0.0
  0
LINE
  5
290
330
95
100
AcDbEntity
  8
0
100
AcDbLine
 10
0.47757
 20
-3.87064
 30
0.0
 11
0.38179
 21
-3.881259999999998
 31
0.0
  0
LINE
  5
291
330
95
100
AcDbEntity
  8
0
100
AcDbLine
 10
0.38179
 20
-3.881259999999998
 30
0.0
 11
0.287018
 21
-3.8894
 31
0.0
  0
LINE
  5
292
330
95
100
AcDbEntity
  8
0
100
AcDbLine
 10
0.287018
 20
-3.8894
 30
0.0
 11
0.191406
 21
-3.89529
 31
0.0
  0
LINE
  5
293
330
95
100
AcDbEntity
  8
0
100
AcDbLine
 10
0.191406
 20
-3.89529
 30
0.0
 11
0.0957336
 21
-3.898819999999998
 31
0.0
  0
LINE
  5
294
330
95
100
AcDbEntity
  8
0
100
AcDbLine
 10
0.0957336
 20
-3.898819999999998
 30
0.0
 11
0.0
 21
-3.89999
 31
0.0
  0
LINE
  5
295
330
95
100
AcDbEntity
  8
0
100
AcDbLine
 10
0.0
 20
-3.89999
 30
0.0
 11
-0.0957336
 21
-3.898819999999998
 31
0.0
  0
ENDBLK
  5
297
330
95
100
AcDbEntity
  8
0
100
AcDbBlockEnd
  0
ENDSEC
  0
SECTION
  2
ENTITIES
  0
LWPOLYLINE
  5
89
330
70
100
AcDbEntity
  8
0
100
AcDbPolyline
 90
        4
 70
     1
 43
0.0
 10
3.803497941490171
 20
8.11102041775457
 10
816.6034979414899
 20
8.111020417754557
 10
816.6034979414899
 20
-449.0889795822454
 10
3.803497941490171
 20
-449.0889795822454
  0
LINE
  5
4019
330
70
100
AcDbEntity
  8
0
100
AcDbLine
 10
303.977624039559
 20
-136.0358287767026
 30
0.0
 11
315.576624039559
 21
-136.0358287767026
 31
0.0
  0
LINE
  5
401A
330
70
100
AcDbEntity
  8
0
100
AcDbLine
 10
315.576624039559
 20
-136.0358287767026
 30
0.0
 11
315.576624039559
 21
-125.6276683767026
 31
0.0
  0
LINE
  5
401B
330
70
100
AcDbEntity
  8
0
100
AcDbLine
 10
315.576624039559
 20
-125.6276683767026
 30
0.0
 11
252.043624039559
 21
1.438671223297376
 31
0.0
  0
LINE
  5
401C
330
70
100
AcDbEntity
  8
0
100
AcDbLine
 10
252.043624039559
 20
1.438671223297376
 30
0.0
 11
99.54402403955903
 21
1.438671223297376
 31
0.0
  0
LINE
  5
401D
330
70
100
AcDbEntity
  8
0
100
AcDbLine
 10
99.54402403955903
 20
1.438671223297376
 30
0.0
 11
10.60213013955901
 21
-125.6207408767026
 31
0.0
  0
LINE
  5
401E
330
70
100
AcDbEntity
  8
0
100
AcDbLine
 10
10.60213013955901
 20
-125.6207408767026
 30
0.0
 11
10.60213013955901
 21
-136.0358287767026
 31
0.0
  0
LINE
  5
401F
330
70
100
AcDbEntity
  8
0
100
AcDbLine
 10
10.60213013955901
 20
-136.0358287767026
 30
0.0
 11
22.20212403955902
 21
-136.0358287767026
 31
0.0
  0
LINE
  5
4020
330
70
100
AcDbEntity
  8
0
100
AcDbLine
 10
22.20212403955902
 20
-136.0358287767026
 30
0.0
 11
22.20212403955902
 21
-146.3358287767026
 31
0.0
  0
LINE
  5
4021
330
70
100
AcDbEntity
  8
0
100
AcDbLine
 10
22.20212403955902
 20
-146.3358287767026
 30
0.0
 11
303.977624039559
 21
-146.3358287767026
 31
0.0
  0
LINE
  5
4022
330
70
100
AcDbEntity
  8
0
100
AcDbLine
 10
303.977624039559
 20
-146.3358287767026
 30
0.0
 11
303.977624039559
 21
-136.0358287767026
 31
0.0
  0
LINE
  5
4031
330
70
100
AcDbEntity
  8
0
100
AcDbLine
 10
617.1002833727079
 20
-135.355665045725
 30
0.0
 11
628.6992833727079
 21
-135.355665045725
 31
0.0
  0
LINE
  5
4032
330
70
100
AcDbEntity
  8
0
100
AcDbLine
 10
628.6992833727079
 20
-135.355665045725
 30
0.0
 11
628.6992833727079
 21
-124.9475046457251
 31
0.0
  0
LINE
  5
4033
330
70
100
AcDbEntity
  8
0
100
AcDbLine
 10
628.6992833727079
 20
-124.9475046457251
 30
0.0
 11
565.166283372708
 21
2.118834954274916
 31
0.0
  0
LINE
  5
4034
330
70
100
AcDbEntity
  8
0
100
AcDbLine
 10
565.166283372708
 20
2.118834954274916
 30
0.0
 11
412.6666833727078
 21
2.118834954274916
 31
0.0
  0
LINE
  5
4035
330
70
100
AcDbEntity
  8
0
100
AcDbLine
 10
412.6666833727078
 20
2.118834954274916
 30
0.0
 11
323.7247894727079
 21
-124.9405771457251
 31
0.0
  0
LINE
  5
4036
330
70
100
AcDbEntity
  8
0
100
AcDbLine
 10
323.7247894727079
 20
-124.9405771457251
 30
0.0
 11
323.7247894727079
 21
-135.355665045725
 31
0.0
  0
LINE
  5
4037
330
70
100
AcDbEntity
  8
0
100
AcDbLine
 10
323.7247894727079
 20
-135.355665045725
 30
0.0
 11
335.3247833727079
 21
-135.355665045725
 31
0.0
  0
LINE
  5
4038
330
70
100
AcDbEntity
  8
0
100
AcDbLine
 10
335.3247833727079
 20
-135.355665045725
 30
0.0
 11
335.3247833727079
 21
-145.655665045725
 31
0.0
  0
LINE
  5
4039
330
70
100
AcDbEntity
  8
0
100
AcDbLine
 10
335.3247833727079
 20
-145.655665045725
 30
0.0
 11
617.1002833727079
 21
-145.655665045725
 31
0.0
  0
LINE
  5
403A
330
70
100
AcDbEntity
  8
0
100
AcDbLine
 10
617.1002833727079
 20
-145.655665045725
 30
0.0
 11
617.1002833727079
 21
-135.355665045725
 31
0.0
  0
LINE
  5
4049
330
70
100
AcDbEntity
  8
0
100
AcDbLine
 10
304.5956858228233
 20
-289.9022180547519
 30
0.0
 11
316.1946858228233
 21
-289.9022180547519
 31
0.0
  0
LINE
  5
404A
330
70
100
AcDbEntity
  8
0
100
AcDbLine
 10
316.1946858228233
 20
-289.9022180547519
 30
0.0
 11
316.1946858228233
 21
-279.4940576547519
 31
0.0
  0
LINE
  5
404B
330
70
100
AcDbEntity
  8
0
100
AcDbLine
 10
316.1946858228233
 20
-279.4940576547519
 30
0.0
 11
252.6616858228233
 21
-152.4277180547519
 31
0.0
  0
LINE
  5
404C
330
70
100
AcDbEntity
  8
0
100
AcDbLine
 10
252.6616858228233
 20
-152.4277180547519
 30
0.0
 11
100.1620858228232
 21
-152.4277180547519
 31
0.0
  0
LINE
  5
404D
330
70
100
AcDbEntity
  8
0
100
AcDbLine
 10
100.1620858228232
 20
-152.4277180547519
 30
0.0
 11
11.22019192282325
 21
-279.4871301547519
 31
0.0
  0
LINE
  5
404E
330
70
100
AcDbEntity
  8
0
100
AcDbLine
 10
11.22019192282325
 20
-279.4871301547519
 30
0.0
 11
11.22019192282325
 21
-289.9022180547519
 31
0.0
  0
LINE
  5
404F
330
70
100
AcDbEntity
  8
0
100
AcDbLine
 10
11.22019192282325
 20
-289.9022180547519
 30
0.0
 11
22.82018582282326
 21
-289.9022180547519
 31
0.0
  0
LINE
  5
4050
330
70
100
AcDbEntity
  8
0
100
AcDbLine
 10
22.82018582282326
 20
-289.9022180547519
 30
0.0
 11
22.82018582282326
 21
-300.2022180547519
 31
0.0
  0
LINE
  5
4051
330
70
100
AcDbEntity
  8
0
100
AcDbLine
 10
22.82018582282326
 20
-300.2022180547519
 30
0.0
 11
304.5956858228233
 21
-300.2022180547519
 31
0.0
  0
LINE
  5
4052
330
70
100
AcDbEntity
  8
0
100
AcDbLine
 10
304.5956858228233
 20
-300.2022180547519
 30
0.0
 11
304.5956858228233
 21
-289.9022180547519
 31
0.0
  0
LINE
  5
4061
330
70
100
AcDbEntity
  8
0
100
AcDbLine
 10
618.9544568680412
 20
-289.1847289886943
 30
0.0
 11
630.5534568680411
 21
-289.1847289886943
 31
0.0
  0
LINE
  5
4062
330
70
100
AcDbEntity
  8
0
100
AcDbLine
 10
630.5534568680411
 20
-289.1847289886943
 30
0.0
 11
630.5534568680411
 21
-278.7765685886943
 31
0.0
  0
LINE
  5
4063
330
70
100
AcDbEntity
  8
0
100
AcDbLine
 10
630.5534568680411
 20
-278.7765685886943
 30
0.0
 11
567.0204568680413
 21
-151.7102289886943
 31
0.0
  0
LINE
  5
4064
330
70
100
AcDbEntity
  8
0
100
AcDbLine
 10
567.0204568680413
 20
-151.7102289886943
 30
0.0
 11
414.5208568680411
 21
-151.7102289886943
 31
0.0
  0
LINE
  5
4065
330
70
100
AcDbEntity
  8
0
100
AcDbLine
 10
414.5208568680411
 20
-151.7102289886943
 30
0.0
 11
325.5789629680412
 21
-278.7696410886943
 31
0.0
  0
LINE
  5
4066
330
70
100
AcDbEntity
  8
0
100
AcDbLine
 10
325.5789629680412
 20
-278.7696410886943
 30
0.0
 11
325.5789629680412
 21
-289.1847289886943
 31
0.0
  0
LINE
  5
4067
330
70
100
AcDbEntity
  8
0
100
AcDbLine
 10
325.5789629680412
 20
-289.1847289886943
 30
0.0
 11
337.1789568680412
 21
-289.1847289886943
 31
0.0
  0
LINE
  5
4068
330
70
100
AcDbEntity
  8
0
100
AcDbLine
 10
337.1789568680412
 20
-289.1847289886943
 30
0.0
 11
337.1789568680412
 21
-299.4847289886943
 31
0.0
  0
LINE
  5
4069
330
70
100
AcDbEntity
  8
0
100
AcDbLine
 10
337.1789568680412
 20
-299.4847289886943
 30
0.0
 11
618.9544568680412
 21
-299.4847289886943
 31
0.0
  0
LINE
  5
406A
330
70
100
AcDbEntity
  8
0
100
AcDbLine
 10
618.9544568680412
 20
-299.4847289886943
 30
0.0
 11
618.9544568680412
 21
-289.1847289886943
 31
0.0
  0
VIEWPORT
  5
F53
102
{ACAD_XDICTIONARY
360
F54
102
}
330
74
100
AcDbEntity
 67
     1
  8
0
348
2F
100
AcDbViewport
 10
5.333333052988124
 20
4.083333522316038
 30
0.0
 40
18.79393614540646
 41
8.993000381349578
 68
     1
 69
     1
 12
5.333333052988124
 22
4.083333522316038
 13
0.0
 23
0.0
 14
0.5
 24
0.5
 15
0.5
 25
0.5
 16
0.0
 26
0.0
 36
1.0
 17
0.0
 27
0.0
 37
0.0
 42
50.0
 43
0.0
 44
0.0
 45
8.993000381349578
 50
0.0
 51
0.0
 72
  1000
 90
   819232
  1

281
     0
 71
     1
 74
     0
110
0.0
120
0.0
130
0.0
111
1.0
121
0.0
131
0.0
112
0.0
122
1.0
132
0.0
 79
     0
146
0.0
170
     0
 61
     5
292
     1
282
     1
141
0.0
142
0.0
 63
   250
421
  3355443
  0
VIEWPORT
  5
F57
102
{ACAD_XDICTIONARY
360
F58
102
}
330
74
100
AcDbEntity
 67
     1
  8
0
348
2F
100
AcDbViewport
 10
5.333333052988124
 20
4.083333437837015
 30
0.0
 40
8.533332884781003
 41
6.533333500539223
 68
     2
 69
     2
 12
410.20349794149
 22
-220.4889795822454
 13
0.0
 23
0.0
 14
0.5
 24
0.5
 15
0.5
 25
0.5
 16
0.0
 26
0.0
 36
1.0
 17
0.0
 27
0.0
 37
0.0
 42
50.0
 43
0.0
 44
0.0
 45
625.6042966832548
 50
0.0
 51
0.0
 72
  1000
 90
   819296
  1

281
     0
 71
     1
 74
     0
110
0.0
120
0.0
130
0.0
111
1.0
121
0.0
131
0.0
112
0.0
122
1.0
132
0.0
 79
     0
146
0.0
170
     0
 61
     5
292
     1
282
     1
141
0.0
142
0.0
 63
   250
421
  3355443
  0
ENDSEC
  0
SECTION
  2
OBJECTS
  0
DICTIONARY
  5
C
330
0
100
AcDbDictionary
281
     1
  3
ACAD_CIP_PREVIOUS_PRODUCT_INFO
350
7B
  3
ACAD_COLOR
350
63
  3
ACAD_DETAILVIEWSTYLE
350
6A
  3
ACAD_GROUP
350
D
  3
ACAD_LAST_SAVED_VERSION_INFO
350
8A
  3
ACAD_LAYOUT
350
62
  3
ACAD_MATERIAL
350
10
  3
ACAD_MLEADERSTYLE
350
66
  3
ACAD_MLINESTYLE
350
5F
  3
ACAD_PLOTSETTINGS
350
61
  3
ACAD_PLOTSTYLENAME
350
E
  3
ACAD_SCALELIST
350
42
  3
ACAD_SECTIONVIEWSTYLE
350
68
  3
ACAD_TABLESTYLE
350
64
  3
ACAD_VISUALSTYLE
350
29
  3
ACDB_RECOMPOSE_DATA
350
4075
  3
AcDbVariableDictionary
350
298
  3
ASE_INDEX_DICTIONARY
350
8C
  0
DICTIONARY
  5
F39
330
2
100
AcDbDictionary
280
     1
281
     1
  3
ACAD_LAYERSTATES
360
F3A
  0
DICTIONARY
  5
F42
330
F41
100
AcDbDictionary
280
     1
281
     1
  3
ASDK_XREC_ANNOTATION_SCALE_INFO
360
F43
  0
DICTIONARY
  5
F47
330
F46
100
AcDbDictionary
280
     1
281
     1
  3
ASDK_XREC_ANNOTATION_SCALE_INFO
360
F48
  0
DICTIONARY
  5
F54
330
F53
100
AcDbDictionary
280
     1
281
     1
  3
ASDK_XREC_ANNOTATION_SCALE_INFO
360
F55
  0
DICTIONARY
  5
F58
330
F57
100
AcDbDictionary
280
     1
281
     1
  3
ASDK_XREC_ANNOTATION_SCALE_INFO
360
F59
  0
XRECORD
  5
7B
102
{ACAD_REACTORS
330
C
102
}
330
C
100
AcDbXrecord
280
     1
300
ACD
300
2025
300

  0
DICTIONARY
  5
63
102
{ACAD_REACTORS
330
C
102
}
330
C
100
AcDbDictionary
281
     1
  0
DICTIONARY
  5
6A
102
{ACAD_REACTORS
330
C
102
}
330
C
100
AcDbDictionary
281
     1
  3
Imperial24
350
6B
  0
DICTIONARY
  5
D
102
{ACAD_REACTORS
330
C
102
}
330
C
100
AcDbDictionary
281
     1
  0
XRECORD
  5
8A
102
{ACAD_REACTORS
330
C
102
}
330
C
100
AcDbXrecord
280
     1
300
{C55585DE-1274-D249-BAA5-4206A05F4EED}
301
{92641811-DD66-F44A-BD64-929B19A1D160}
302
{C55585DE-1274-D249-BAA5-4206A05F4EED}
303

  0
DICTIONARY
  5
62
102
{ACAD_REACTORS
330
C
102
}
330
C
100
AcDbDictionary
281
     1
  3
Layout1
350
6F
  3
Layout2
350
77
  3
Model
350
73
  0
DICTIONARY
  5
10
102
{ACAD_REACTORS
330
C
102
}
330
C
100
AcDbDictionary
281
     1
  3
ByBlock
350
19
  3
ByLayer
350
11
  3
Global
350
21
  0
DICTIONARY
  5
66
102
{ACAD_REACTORS
330
C
102
}
330
C
100
AcDbDictionary
281
     1
  3
Standard
350
67
  0
DICTIONARY
  5
5F
102
{ACAD_REACTORS
330
C
102
}
330
C
100
AcDbDictionary
281
     1
  3
Standard
350
60
  0
DICTIONARY
  5
61
102
{ACAD_REACTORS
330
C
102
}
330
C
100
AcDbDictionary
281
     1
  0
ACDBDICTIONARYWDFLT
  5
E
102
{ACAD_REACTORS
330
C
102
}
330
C
100
AcDbDictionary
281
     1
  3
Normal
350
F
100
AcDbDictionaryWithDefault
340
F
  0
DICTIONARY
  5
42
102
{ACAD_REACTORS
330
C
102
}
330
C
100
AcDbDictionary
281
     1
  3
A0
350
43
  3
A1
350
44
  3
A2
350
45
  3
A3
350
46
  3
A4
350
47
  3
A5
350
48
  3
A6
350
49
  3
A7
350
4A
  3
A8
350
4B
  3
A9
350
4C
  3
B0
350
4D
  3
B1
350
4E
  3
B2
350
4F
  3
B3
350
50
  3
B4
350
51
  3
B5
350
52
  3
B6
350
53
  0
DICTIONARY
  5
68
102
{ACAD_REACTORS
330
C
102
}
330
C
100
AcDbDictionary
281
     1
  3
Imperial24
350
69
  0
DICTIONARY
  5
64
102
{ACAD_REACTORS
330
C
102
}
330
C
100
AcDbDictionary
281
     1
  3
Standard
350
65
  0
DICTIONARY
  5
29
102
{ACAD_REACTORS
330
C
102
}
330
C
100
AcDbDictionary
281
     1
  3
2dWireframe
350
2F
  3
Basic
350
2E
  3
Brighten
350
35
  3
ColorChange
350
39
  3
Conceptual
350
32
  3
Dim
350
34
  3
EdgeColorOff
350
41
  3
Facepattern
350
38
  3
Flat
350
2A
  3
FlatWithEdges
350
2B
  3
Gouraud
350
2C
  3
GouraudWithEdges
350
2D
  3
Hidden
350
31
  3
JitterOff
350
3F
  3
Linepattern
350
37
  3
OverhangOff
350
40
  3
Realistic
350
33
  3
Shaded
350
3E
  3
Shaded with edges
350
3D
  3
Shades of Gray
350
3A
  3
Sketchy
350
3B
  3
Thicken
350
36
  3
Wireframe
350
30
  3
X-Ray
350
3C
  0
XRECORD
  5
4075
102
{ACAD_REACTORS
330
C
102
}
330
C
100
AcDbXrecord
280
     1
 90
        1
330
65
  0
DICTIONARY
  5
298
102
{ACAD_REACTORS
330
C
102
}
330
C
100
AcDbDictionary
281
     1
  3
CANNOSCALE
350
29D
  3
CMLEADERSTYLE
350
29A
  3
CTABLESTYLE
350
299
  3
CVIEWDETAILSTYLE
350
29B
  3
CVIEWSECTIONSTYLE
350
29C
  0
DICTIONARY
  5
8C
102
{ACAD_REACTORS
330
C
102
}
330
C
100
AcDbDictionary
281
     1
  3
ASEBlockHierarchyIndexRecord
350
8E
1001
DCO15
1040
2146731407.0
  0
DICTIONARY
  5
F3A
102
{ACAD_REACTORS
330
F39
102
}
330
F39
100
AcDbDictionary
281
     1
  0
XRECORD
  5
F43
102
{ACAD_REACTORS
330
F42
102
}
330
F42
100
AcDbXrecord
280
     1
 90
        1
340
43
  0
XRECORD
  5
F48
102
{ACAD_REACTORS
330
F47
102
}
330
F47
100
AcDbXrecord
280
     1
 90
        1
340
43
  0
XRECORD
  5
F55
102
{ACAD_REACTORS
330
F54
102
}
330
F54
100
AcDbXrecord
280
     1
 90
        1
340
43
  0
XRECORD
  5
F59
102
{ACAD_REACTORS
330
F58
102
}
330
F58
100
AcDbXrecord
280
     1
 90
        1
340
43
  0
ACDBDETAILVIEWSTYLE
  5
6B
102
{ACAD_REACTORS
330
6A
102
}
330
6A
100
AcDbModelDocViewStyle
 70
     0
  3
Imperial24
290
     0
300
Imperial24
 90
        0
100
AcDbDetailViewStyle
 70
     0
 71
     0
 90
        3
 71
     1
340
55
 62
   256
 40
0.24
340
0
 62
   256
 40
0.24
300

 40
0.36
280
     3
 71
     2
340
5D
 90
       25
 62
   256
 71
     3
340
55
 62
   256
 40
0.24
 90
        1
 40
0.75
 90
        1
300
%<\AcVar ViewType \f "%tc1">% %<\AcVar ViewDetailId>%\PSCALE %<\AcVar ViewScale \f "%sn">%
 71
     4
340
5D
 90
       25
 62
   256
340
5D
 90
       25
 62
   256
280
     0
  0
LAYOUT
  5
6F
102
{ACAD_REACTORS
330
62
102
}
330
62
100
AcDbPlotSettings
  1

  2
Brother HL-L2370DW series
  4
Letter
  6

 40
4.233333110809326
 41
4.23333740234375
 42
4.23333740234375
 43
4.23333740234375
 44
215.9000091552734
 45
279.3999938964844
 46
0.0
 47
0.0
 48
0.0
 49
0.0
140
0.0
141
0.0
142
1.0
143
1.0
 70
   688
 72
     0
 73
     1
 74
     5
  7

 75
    16
147
1.0
 76
     0
 77
     2
 78
   300
148
0.0
149
0.0
100
AcDbLayout
  1
Layout1
 70
     1
 71
     1
 10
-0.1666668268639272
 20
-0.166666657905879
 11
10.83333293284018
 21
8.333333702537958
 12
0.0
 22
0.0
 32
0.0
 14
1.066666610597625
 24
0.8166666875674033
 34
0.0
 15
9.599999495378627
 25
7.350000188106625
 35
0.0
146
0.0
 13
0.0
 23
0.0
 33
0.0
 16
1.0
 26
0.0
 36
0.0
 17
0.0
 27
1.0
 37
0.0
 76
     0
330
6C
331
F41
1001
ACAD_PSEXT
1000
Brother HL-L2370DW series
1000
Brother HL-L2370DW series
1000
IP_192.168.100.230
1000

1070
     0
  0
LAYOUT
  5
77
102
{ACAD_REACTORS
330
62
102
}
330
62
100
AcDbPlotSettings
  1

  2
Brother HL-L2370DW series
  4
Letter
  6

 40
4.233333110809326
 41
4.23333740234375
 42
4.23333740234375
 43
4.23333740234375
 44
215.9000091552734
 45
279.3999938964844
 46
0.0
 47
0.0
 48
0.0
 49
0.0
140
0.0
141
0.0
142
1.0
143
1.0
 70
   688
 72
     0
 73
     1
 74
     5
  7

 75
    16
147
1.0
 76
     0
 77
     2
 78
   300
148
0.0
149
0.0
100
AcDbLayout
  1
Layout2
 70
     1
 71
     2
 10
-0.1666668268639272
 20
-0.166666657905879
 11
10.83333293284018
 21
8.333333702537958
 12
0.0
 22
0.0
 32
0.0
 14
1.066666610597625
 24
0.8166666875674033
 34
0.0
 15
9.599999495378627
 25
7.350000188106625
 35
0.0
146
0.0
 13
0.0
 23
0.0
 33
0.0
 16
1.0
 26
0.0
 36
0.0
 17
0.0
 27
1.0
 37
0.0
 76
     0
330
74
331
F53
1001
ACAD_PSEXT
1000
Brother HL-L2370DW series
1000
Brother HL-L2370DW series
1000
IP_192.168.100.230
1000

1070
     0
  0
LAYOUT
  5
73
102
{ACAD_REACTORS
330
62
102
}
330
62
100
AcDbPlotSettings
  1

  2
Brother HL-L2370DW series
  4

  6

 40
0.0
 41
0.0
 42
0.0
 43
0.0
 44
0.0
 45
0.0
 46
0.0
 47
0.0
 48
0.0
 49
0.0
140
0.0
141
0.0
142
1.0
143
1.0
 70
  1712
 72
     0
 73
     0
 74
     0
  7

 75
     0
147
1.0
 76
     0
 77
     2
 78
   300
148
0.0
149
0.0
100
AcDbLayout
  1
Model
 70
     1
 71
     0
 10
0.0
 20
0.0
 11
12.0
 21
9.0
 12
0.0
 22
0.0
 32
0.0
 14
0.0
 24
0.0
 34
0.0
 15
0.0
 25
0.0
 35
0.0
146
0.0
 13
0.0
 23
0.0
 33
0.0
 16
1.0
 26
0.0
 36
0.0
 17
0.0
 27
1.0
 37
0.0
 76
     0
330
70
331
57
  0
MATERIAL
  5
19
102
{ACAD_XDICTIONARY
360
1A
102
}
102
{ACAD_REACTORS
330
10
102
}
330
10
100
AcDbMaterial
  1
ByBlock
 72
     0
 43
0.0208333333333333
 43
0.0
 43
0.0
 43
0.0
 43
0.0
 43
0.0208333333333333
 43
0.0
 43
0.0
 43
0.0
 43
0.0
 43
1.0
 43
0.0
 43
0.0
 43
0.0
 43
0.0
 43
1.0
 77
     0
 47
0.0208333333333333
 47
0.0
 47
0.0
 47
0.0
 47
0.0
 47
0.0208333333333333
 47
0.0
 47
0.0
 47
0.0
 47
0.0
 47
1.0
 47
0.0
 47
0.0
 47
0.0
 47
0.0
 47
1.0
171
     0
 49
0.0208333333333333
 49
0.0
 49
0.0
 49
0.0
 49
0.0
 49
0.0208333333333333
 49
0.0
 49
0.0
 49
0.0
 49
0.0
 49
1.0
 49
0.0
 49
0.0
 49
0.0
 49
0.0
 49
1.0
175
     0
142
0.0208333333333333
142
0.0
142
0.0
142
0.0
142
0.0
142
0.0208333333333333
142
0.0
142
0.0
142
0.0
142
0.0
142
1.0
142
0.0
142
0.0
142
0.0
142
0.0
142
1.0
179
     0
144
0.0208333333333333
144
0.0
144
0.0
144
0.0
144
0.0
144
0.0208333333333333
144
0.0
144
0.0
144
0.0
144
0.0
144
1.0
144
0.0
144
0.0
144
0.0
144
0.0
144
1.0
147
0.0208333333333333
147
0.0
147
0.0
147
0.0
147
0.0
147
0.0208333333333333
147
0.0
147
0.0
147
0.0
147
0.0
147
1.0
147
0.0
147
0.0
147
0.0
147
0.0
147
1.0
  0
MATERIAL
  5
11
102
{ACAD_XDICTIONARY
360
12
102
}
102
{ACAD_REACTORS
330
10
102
}
330
10
100
AcDbMaterial
  1
ByLayer
 72
     0
 43
0.0208333333333333
 43
0.0
 43
0.0
 43
0.0
 43
0.0
 43
0.0208333333333333
 43
0.0
 43
0.0
 43
0.0
 43
0.0
 43
1.0
 43
0.0
 43
0.0
 43
0.0
 43
0.0
 43
1.0
 77
     0
 47
0.0208333333333333
 47
0.0
 47
0.0
 47
0.0
 47
0.0
 47
0.0208333333333333
 47
0.0
 47
0.0
 47
0.0
 47
0.0
 47
1.0
 47
0.0
 47
0.0
 47
0.0
 47
0.0
 47
1.0
171
     0
 49
0.0208333333333333
 49
0.0
 49
0.0
 49
0.0
 49
0.0
 49
0.0208333333333333
 49
0.0
 49
0.0
 49
0.0
 49
0.0
 49
1.0
 49
0.0
 49
0.0
 49
0.0
 49
0.0
 49
1.0
175
     0
142
0.0208333333333333
142
0.0
142
0.0
142
0.0
142
0.0
142
0.0208333333333333
142
0.0
142
0.0
142
0.0
142
0.0
142
1.0
142
0.0
142
0.0
142
0.0
142
0.0
142
1.0
179
     0
144
0.0208333333333333
144
0.0
144
0.0
144
0.0
144
0.0
144
0.0208333333333333
144
0.0
144
0.0
144
0.0
144
0.0
144
1.0
144
0.0
144
0.0
144
0.0
144
0.0
144
1.0
147
0.0208333333333333
147
0.0
147
0.0
147
0.0
147
0.0
147
0.0208333333333333
147
0.0
147
0.0
147
0.0
147
0.0
147
1.0
147
0.0
147
0.0
147
0.0
147
0.0
147
1.0
  0
MATERIAL
  5
21
102
{ACAD_XDICTIONARY
360
22
102
}
102
{ACAD_REACTORS
330
10
102
}
330
10
100
AcDbMaterial
  1
Global
 72
     0
 43
0.0208333333333333
 43
0.0
 43
0.0
 43
0.0
 43
0.0
 43
0.0208333333333333
 43
0.0
 43
0.0
 43
0.0
 43
0.0
 43
1.0
 43
0.0
 43
0.0
 43
0.0
 43
0.0
 43
1.0
 77
     0
 47
0.0208333333333333
 47
0.0
 47
0.0
 47
0.0
 47
0.0
 47
0.0208333333333333
 47
0.0
 47
0.0
 47
0.0
 47
0.0
 47
1.0
 47
0.0
 47
0.0
 47
0.0
 47
0.0
 47
1.0
171
     0
 49
0.0208333333333333
 49
0.0
 49
0.0
 49
0.0
 49
0.0
 49
0.0208333333333333
 49
0.0
 49
0.0
 49
0.0
 49
0.0
 49
1.0
 49
0.0
 49
0.0
 49
0.0
 49
0.0
 49
1.0
175
     0
142
0.0208333333333333
142
0.0
142
0.0
142
0.0
142
0.0
142
0.0208333333333333
142
0.0
142
0.0
142
0.0
142
0.0
142
1.0
142
0.0
142
0.0
142
0.0
142
0.0
142
1.0
179
     0
144
0.0208333333333333
144
0.0
144
0.0
144
0.0
144
0.0
144
0.0208333333333333
144
0.0
144
0.0
144
0.0
144
0.0
144
1.0
144
0.0
144
0.0
144
0.0
144
0.0
144
1.0
147
0.0208333333333333
147
0.0
147
0.0
147
0.0
147
0.0
147
0.0208333333333333
147
0.0
147
0.0
147
0.0
147
0.0
147
1.0
147
0.0
147
0.0
147
0.0
147
0.0
147
1.0
  0
MLEADERSTYLE
  5
67
102
{ACAD_REACTORS
330
66
102
}
330
66
100
AcDbMLeaderStyle
179
     2
170
     2
171
     1
172
     0
 90
        2
 40
0.0
 41
0.0
173
     1
 91
-1056964608
340
5B
 92
       -2
290
     1
 42
0.09
291
     1
 43
0.36
  3
Standard
 44
0.18
300

342
55
174
     1
178
     6
175
     1
176
     0
 93
-1056964608
 45
0.18
292
     0
297
     0
 46
0.18
 94
-1056964608
 47
1.0
 49
1.0
140
1.0
293
     1
141
0.0
294
     1
177
     0
142
1.0
295
     0
296
     0
143
0.125
271
     0
272
     9
273
     9
298
     1
  0
MLINESTYLE
  5
60
102
{ACAD_REACTORS
330
5F
102
}
330
5F
100
AcDbMlineStyle
  2
STANDARD
 70
     0
  3

 62
   256
 51
90.0
 52
90.0
 71
     2
 49
0.5
 62
   256
  6
BYLAYER
 49
-0.5
 62
   256
  6
BYLAYER
  0
ACDBPLACEHOLDER
  5
F
102
{ACAD_REACTORS
330
E
102
}
330
E
  0
SCALE
  5
43
102
{ACAD_REACTORS
330
42
102
}
330
42
100
AcDbScale
 70
     0
300
1:1
140
1.0
141
1.0
290
     1
  0
SCALE
  5
44
102
{ACAD_REACTORS
330
42
102
}
330
42
100
AcDbScale
 70
     0
300
1/128" = 1'-0"
140
0.0078125
141
12.0
290
     0
  0
SCALE
  5
45
102
{ACAD_REACTORS
330
42
102
}
330
42
100
AcDbScale
 70
     0
300
1/64" = 1'-0"
140
0.015625
141
12.0
290
     0
  0
SCALE
  5
46
102
{ACAD_REACTORS
330
42
102
}
330
42
100
AcDbScale
 70
     0
300
1/32" = 1'-0"
140
0.03125
141
12.0
290
     0
  0
SCALE
  5
47
102
{ACAD_REACTORS
330
42
102
}
330
42
100
AcDbScale
 70
     0
300
1/16" = 1'-0"
140
0.0625
141
12.0
290
     0
  0
SCALE
  5
48
102
{ACAD_REACTORS
330
42
102
}
330
42
100
AcDbScale
 70
     0
300
3/32" = 1'-0"
140
0.09375
141
12.0
290
     0
  0
SCALE
  5
49
102
{ACAD_REACTORS
330
42
102
}
330
42
100
AcDbScale
 70
     0
300
1/8" = 1'-0"
140
0.125
141
12.0
290
     0
  0
SCALE
  5
4A
102
{ACAD_REACTORS
330
42
102
}
330
42
100
AcDbScale
 70
     0
300
3/16" = 1'-0"
140
0.1875
141
12.0
290
     0
  0
SCALE
  5
4B
102
{ACAD_REACTORS
330
42
102
}
330
42
100
AcDbScale
 70
     0
300
1/4" = 1'-0"
140
0.25
141
12.0
290
     0
  0
SCALE
  5
4C
102
{ACAD_REACTORS
330
42
102
}
330
42
100
AcDbScale
 70
     0
300
3/8" = 1'-0"
140
0.375
141
12.0
290
     0
  0
SCALE
  5
4D
102
{ACAD_REACTORS
330
42
102
}
330
42
100
AcDbScale
 70
     0
300
1/2" = 1'-0"
140
0.5
141
12.0
290
     0
  0
SCALE
  5
4E
102
{ACAD_REACTORS
330
42
102
}
330
42
100
AcDbScale
 70
     0
300
3/4" = 1'-0"
140
0.75
141
12.0
290
     0
  0
SCALE
  5
4F
102
{ACAD_REACTORS
330
42
102
}
330
42
100
AcDbScale
 70
     0
300
1" = 1'-0"
140
1.0
141
12.0
290
     0
  0
SCALE
  5
50
102
{ACAD_REACTORS
330
42
102
}
330
42
100
AcDbScale
 70
     0
300
1-1/2" = 1'-0"
140
1.5
141
12.0
290
     0
  0
SCALE
  5
51
102
{ACAD_REACTORS
330
42
102
}
330
42
100
AcDbScale
 70
     0
300
3" = 1'-0"
140
3.0
141
12.0
290
     0
  0
SCALE
  5
52
102
{ACAD_REACTORS
330
42
102
}
330
42
100
AcDbScale
 70
     0
300
6" = 1'-0"
140
6.0
141
12.0
290
     0
  0
SCALE
  5
53
102
{ACAD_REACTORS
330
42
102
}
330
42
100
AcDbScale
 70
     0
300
1'-0" = 1'-0"
140
12.0
141
12.0
290
     0
  0
ACDBSECTIONVIEWSTYLE
  5
69
102
{ACAD_REACTORS
330
68
102
}
330
68
100
AcDbModelDocViewStyle
 70
     0
  3
Imperial24
290
     0
300
Imperial24
 90
        0
100
AcDbSectionViewStyle
 70
     0
 71
     0
 90
       78
 71
     1
340
55
 62
   256
 40
0.24
340
0
340
0
 62
   256
 40
0.24
300
I, O, Q, S, X, Z
 40
0.48
 90
        3
 40
0.18
 90
        1
 71
     2
340
5D
 90
       25
 62
   256
340
5D
 90
       50
 62
   256
 40
0.24
 40
0.0
 40
0.24
 71
     3
340
55
 62
   256
 40
0.24
 90
        1
 40
0.75
 90
        1
300
%<\AcVar ViewType \f "%tc1">% %<\AcVar ViewSectionStartId>%-%<\AcVar ViewSectionEndId>%\PSCALE %<\AcVar ViewScale \f "%sn">%
 71
     4
 62
   256
 62
   257
300
ANSI31
 40
1.0
 90
        0
290
     0
290
     0
 90
        6
 40
0.0
 40
1.570796326794896
 40
0.2617993877991494
 40
1.308996938995747
 40
-0.2617993877991494
 40
1.832595714594044
  0
TABLESTYLE
  5
65
102
{ACAD_XDICTIONARY
360
29E
102
}
102
{ACAD_REACTORS
330
64
102
}
330
64
100
AcDbTableStyle
280
     0
  3
Standard
 70
     0
 71
     0
 40
0.06
 41
0.06
280
     0
281
     0
  7
Standard
140
0.18
170
     2
 62
     0
 63
     7
283
     0
 90
      512
 91
        0
  1

274
    -2
284
     1
 64
     0
275
    -2
285
     1
 65
     0
276
    -2
286
     1
 66
     0
277
    -2
287
     1
 67
     0
278
    -2
288
     1
 68
     0
279
    -2
289
     1
 69
     0
  7
Standard
140
0.25
170
     5
 62
     0
 63
     7
283
     0
 90
      512
 91
        0
  1

274
    -2
284
     1
 64
     0
275
    -2
285
     1
 65
     0
276
    -2
286
     1
 66
     0
277
    -2
287
     1
 67
     0
278
    -2
288
     1
 68
     0
279
    -2
289
     1
 69
     0
  7
Standard
140
0.18
170
     5
 62
     0
 63
     7
283
     0
 90
      512
 91
        0
  1

274
    -2
284
     1
 64
     0
275
    -2
285
     1
 65
     0
276
    -2
286
     1
 66
     0
277
    -2
287
     1
 67
     0
278
    -2
288
     1
 68
     0
279
    -2
289
     1
 69
     0
  0
VISUALSTYLE
  5
2F
102
{ACAD_REACTORS
330
29
102
}
330
29
100
AcDbVisualStyle
  2
2dWireframe
 70
     4
177
     3
291
     0
 70
    58
 90
        0
176
     1
 90
        2
176
     1
 90
        0
176
     1
 90
        0
176
     1
 40
0.6
176
     1
 40
30.0
176
     1
 62
     7
420
 16777215
176
     1
 90
        1
176
     1
 90
        4
176
     1
 62
     7
176
     1
 62
   257
176
     1
 90
        1
176
     1
 90
        1
176
     1
 40
1.0
176
     1
 90
        0
176
     1
 62
   257
176
     1
 40
1.0
176
     1
 90
        1
176
     1
 90
        6
176
     1
 90
        2
176
     1
 62
     7
176
     1
 90
        5
176
     1
 90
        0
176
     1
 90
        0
176
     1
290
     0
176
     1
 90
        1
176
     1
 40
0.0
176
     1
 90
        0
176
     1
290
     1
176
     1
290
     1
176
     1
290
     0
176
     1
290
     0
176
     1
290
     0
176
     1
290
     0
176
     1
290
     0
176
     1
290
     0
176
     1
290
     0
176
     1
 90
       50
176
     1
 40
0.0
176
     1
 40
1.0
176
     1
 90
        0
176
     1
 62
    18
176
     1
 90
       50
176
     1
 90
        3
176
     1
 62
     5
420
      255
176
     1
290
     0
176
     1
 90
       50
176
     1
 90
       50
176
     1
 90
       50
176
     1
290
     0
176
     1
 90
       50
176
     1
 62
   256
176
     0
 40
1.0
176
     0
 90
        2
176
     1
  1
strokes_ogs.tif
176
     1
290
     0
176
     1
 40
1.0
176
     1
 40
1.0
176
     1
  0
VISUALSTYLE
  5
2E
102
{ACAD_REACTORS
330
29
102
}
330
29
100
AcDbVisualStyle
  2
Basic
 70
     7
177
     3
291
     1
 70
    58
 90
        1
176
     1
 90
        0
176
     1
 90
        1
176
     1
 90
        0
176
     1
 40
0.6
176
     1
 40
30.0
176
     1
 62
     7
420
 16777215
176
     1
 90
        0
176
     1
 90
        4
176
     1
 62
     7
176
     1
 62
   257
176
     1
 90
        1
176
     1
 90
        1
176
     1
 40
1.0
176
     1
 90
        8
176
     1
 62
     7
176
     1
 40
1.0
176
     1
 90
        1
176
     1
 90
        6
176
     1
 90
        2
176
     1
 62
     7
176
     1
 90
        5
176
     1
 90
        0
176
     1
 90
        0
176
     1
290
     0
176
     1
 90
        1
176
     1
 40
0.0
176
     1
 90
        0
176
     1
290
     0
176
     1
290
     1
176
     1
290
     1
176
     1
290
     0
176
     1
290
     0
176
     1
290
     0
176
     1
290
     0
176
     1
290
     0
176
     1
290
     0
176
     1
 90
       50
176
     1
 40
0.0
176
     1
 40
1.0
176
     1
 90
        0
176
     1
 62
    18
176
     1
 90
       50
176
     1
 90
        3
176
     1
 62
     5
420
      255
176
     1
290
     0
176
     1
 90
       50
176
     1
 90
       50
176
     1
 90
       50
176
     1
290
     0
176
     1
 90
       50
176
     1
 62
   256
176
     0
 40
1.0
176
     0
 90
        2
176
     1
  1
strokes_ogs.tif
176
     1
290
     0
176
     1
 40
1.0
176
     1
 40
1.0
176
     1
  0
VISUALSTYLE
  5
35
102
{ACAD_REACTORS
330
29
102
}
330
29
100
AcDbVisualStyle
  2
Brighten
 70
    12
177
     3
291
     1
 70
    58
 90
        2
176
     1
 90
        2
176
     1
 90
        0
176
     1
 90
        0
176
     1
 40
0.6
176
     1
 40
30.0
176
     1
 62
     7
420
 16777215
176
     1
 90
        1
176
     1
 90
        4
176
     1
 62
     7
176
     1
 62
   257
176
     1
 90
        1
176
     1
 90
        1
176
     1
 40
1.0
176
     1
 90
        8
176
     1
 62
     7
176
     1
 40
1.0
176
     1
 90
        1
176
     1
 90
        6
176
     1
 90
        2
176
     1
 62
     7
176
     1
 90
        5
176
     1
 90
        0
176
     1
 90
        0
176
     1
290
     0
176
     1
 90
        1
176
     1
 40
50.0
176
     1
 90
        0
176
     1
290
     0
176
     1
290
     1
176
     1
290
     1
176
     1
290
     0
176
     1
290
     0
176
     1
290
     0
176
     1
290
     0
176
     1
290
     0
176
     1
290
     0
176
     1
 90
       50
176
     1
 40
0.0
176
     1
 40
1.0
176
     1
 90
        0
176
     1
 62
    18
176
     1
 90
       50
176
     1
 90
        3
176
     1
 62
     5
420
      255
176
     1
290
     0
176
     1
 90
       50
176
     1
 90
       50
176
     1
 90
       50
176
     1
290
     0
176
     1
 90
       50
176
     1
 62
   256
176
     0
 40
1.0
176
     0
 90
        2
176
     1
  1
strokes_ogs.tif
176
     1
290
     0
176
     1
 40
1.0
176
     1
 40
1.0
176
     1
  0
VISUALSTYLE
  5
39
102
{ACAD_REACTORS
330
29
102
}
330
29
100
AcDbVisualStyle
  2
ColorChange
 70
    16
177
     3
291
     1
 70
    58
 90
        2
176
     1
 90
        2
176
     1
 90
        3
176
     1
 90
        0
176
     1
 40
0.6
176
     1
 40
30.0
176
     1
 62
     8
420
  8421504
176
     1
 90
        1
176
     1
 90
        4
176
     1
 62
     7
176
     1
 62
   257
176
     1
 90
        1
176
     1
 90
        1
176
     1
 40
1.0
176
     1
 90
        8
176
     1
 62
     8
420
  8421504
176
     1
 40
1.0
176
     1
 90
        1
176
     1
 90
        6
176
     1
 90
        2
176
     1
 62
     7
176
     1
 90
        5
176
     1
 90
        0
176
     1
 90
        0
176
     1
290
     0
176
     1
 90
        1
176
     1
 40
0.0
176
     1
 90
        0
176
     1
290
     0
176
     1
290
     1
176
     1
290
     1
176
     1
290
     0
176
     1
290
     0
176
     1
290
     0
176
     1
290
     0
176
     1
290
     0
176
     1
290
     0
176
     1
 90
       50
176
     1
 40
0.0
176
     1
 40
1.0
176
     1
 90
        0
176
     1
 62
    18
176
     1
 90
       50
176
     1
 90
        3
176
     1
 62
     5
420
      255
176
     1
290
     0
176
     1
 90
       50
176
     1
 90
       50
176
     1
 90
       50
176
     1
290
     0
176
     1
 90
       50
176
     1
 62
   256
176
     0
 40
1.0
176
     0
 90
        2
176
     1
  1
strokes_ogs.tif
176
     1
290
     0
176
     1
 40
1.0
176
     1
 40
1.0
176
     1
  0
VISUALSTYLE
  5
32
102
{ACAD_REACTORS
330
29
102
}
330
29
100
AcDbVisualStyle
  2
Conceptual
 70
     9
177
     3
291
     0
 70
    58
 90
        3
176
     1
 90
        2
176
     1
 90
        0
176
     1
 90
        0
176
     1
 40
0.6
176
     1
 40
30.0
176
     1
 62
     7
420
 16777215
176
     1
 90
        2
176
     1
 90
        2
176
     1
 62
     7
176
     1
 62
   257
176
     1
 90
        1
176
     1
 90
        1
176
     1
 40
179.0
176
     1
 90
        8
176
     1
 62
     7
176
     1
 40
1.0
176
     1
 90
        1
176
     1
 90
        6
176
     1
 90
        2
176
     1
 62
     7
176
     1
 90
        3
176
     1
 90
        0
176
     1
 90
        0
176
     1
290
     0
176
     1
 90
        1
176
     1
 40
0.0
176
     1
 90
        0
176
     1
290
     0
176
     1
290
     1
176
     1
290
     1
176
     1
290
     0
176
     1
290
     0
176
     1
290
     0
176
     1
290
     0
176
     1
290
     0
176
     1
290
     0
176
     1
 90
       50
176
     1
 40
0.0
176
     1
 40
1.0
176
     1
 90
        0
176
     1
 62
    18
176
     1
 90
       50
176
     1
 90
        3
176
     1
 62
     5
420
      255
176
     1
290
     0
176
     1
 90
       50
176
     1
 90
       50
176
     1
 90
       50
176
     1
290
     0
176
     1
 90
       50
176
     1
 62
   256
176
     0
 40
1.0
176
     0
 90
        2
176
     1
  1
strokes_ogs.tif
176
     1
290
     0
176
     1
 40
1.0
176
     1
 40
1.0
176
     1
  0
VISUALSTYLE
  5
34
102
{ACAD_REACTORS
330
29
102
}
330
29
100
AcDbVisualStyle
  2
Dim
 70
    11
177
     3
291
     1
 70
    58
 90
        2
176
     1
 90
        2
176
     1
 90
        0
176
     1
 90
        0
176
     1
 40
0.6
176
     1
 40
30.0
176
     1
 62
     7
420
 16777215
176
     1
 90
        1
176
     1
 90
        4
176
     1
 62
     7
176
     1
 62
   257
176
     1
 90
        1
176
     1
 90
        1
176
     1
 40
1.0
176
     1
 90
        8
176
     1
 62
     7
176
     1
 40
1.0
176
     1
 90
        1
176
     1
 90
        6
176
     1
 90
        2
176
     1
 62
     7
176
     1
 90
        5
176
     1
 90
        0
176
     1
 90
        0
176
     1
290
     0
176
     1
 90
        1
176
     1
 40
-50.0
176
     1
 90
        0
176
     1
290
     0
176
     1
290
     1
176
     1
290
     1
176
     1
290
     0
176
     1
290
     0
176
     1
290
     0
176
     1
290
     0
176
     1
290
     0
176
     1
290
     0
176
     1
 90
       50
176
     1
 40
0.0
176
     1
 40
1.0
176
     1
 90
        0
176
     1
 62
    18
176
     1
 90
       50
176
     1
 90
        3
176
     1
 62
     5
420
      255
176
     1
290
     0
176
     1
 90
       50
176
     1
 90
       50
176
     1
 90
       50
176
     1
290
     0
176
     1
 90
       50
176
     1
 62
   256
176
     0
 40
1.0
176
     0
 90
        2
176
     1
  1
strokes_ogs.tif
176
     1
290
     0
176
     1
 40
1.0
176
     1
 40
1.0
176
     1
  0
VISUALSTYLE
  5
41
102
{ACAD_REACTORS
330
29
102
}
330
29
100
AcDbVisualStyle
  2
EdgeColorOff
 70
    22
177
     3
291
     1
 70
    58
 90
        2
176
     0
 90
        2
176
     0
 90
        0
176
     0
 90
        0
176
     0
 40
0.6
176
     0
 40
30.0
176
     0
 62
     7
420
 16777215
176
     0
 90
        1
176
     0
 90
        4
176
     0
 62
     7
176
     0
 62
   257
176
     0
 90
        1
176
     0
 90
        1
176
     0
 40
1.0
176
     0
 90
        8
176
     2
 62
     7
176
     0
 40
1.0
176
     0
 90
        1
176
     0
 90
        6
176
     0
 90
        2
176
     0
 62
     7
176
     0
 90
        5
176
     0
 90
        0
176
     0
 90
        0
176
     0
290
     0
176
     0
 90
        1
176
     0
 40
0.0
176
     0
 90
        0
176
     0
290
     0
176
     0
290
     1
176
     0
290
     1
176
     0
290
     0
176
     0
290
     0
176
     0
290
     0
176
     0
290
     0
176
     0
290
     0
176
     0
290
     0
176
     0
 90
       50
176
     0
 40
0.0
176
     0
 40
1.0
176
     0
 90
        0
176
     0
 62
    18
176
     0
 90
       50
176
     0
 90
        3
176
     0
 62
     5
420
      255
176
     0
290
     0
176
     0
 90
       50
176
     0
 90
       50
176
     0
 90
       50
176
     0
290
     0
176
     0
 90
       50
176
     0
 62
   256
176
     0
 40
1.0
176
     0
 90
        2
176
     0
  1
strokes_ogs.tif
176
     0
290
     0
176
     0
 40
1.0
176
     0
 40
1.0
176
     0
  0
VISUALSTYLE
  5
38
102
{ACAD_REACTORS
330
29
102
}
330
29
100
AcDbVisualStyle
  2
Facepattern
 70
    15
177
     3
291
     1
 70
    58
 90
        2
176
     1
 90
        2
176
     1
 90
        0
176
     1
 90
        0
176
     1
 40
0.6
176
     1
 40
30.0
176
     1
 62
     7
420
 16777215
176
     1
 90
        1
176
     1
 90
        4
176
     1
 62
     7
176
     1
 62
   257
176
     1
 90
        1
176
     1
 90
        1
176
     1
 40
1.0
176
     1
 90
        8
176
     1
 62
     7
176
     1
 40
1.0
176
     1
 90
        1
176
     1
 90
        6
176
     1
 90
        2
176
     1
 62
     7
176
     1
 90
        5
176
     1
 90
        0
176
     1
 90
        0
176
     1
290
     0
176
     1
 90
        1
176
     1
 40
0.0
176
     1
 90
        0
176
     1
290
     0
176
     1
290
     1
176
     1
290
     1
176
     1
290
     0
176
     1
290
     0
176
     1
290
     0
176
     1
290
     0
176
     1
290
     0
176
     1
290
     0
176
     1
 90
       50
176
     1
 40
0.0
176
     1
 40
1.0
176
     1
 90
        0
176
     1
 62
    18
176
     1
 90
       50
176
     1
 90
        3
176
     1
 62
     5
420
      255
176
     1
290
     0
176
     1
 90
       50
176
     1
 90
       50
176
     1
 90
       50
176
     1
290
     0
176
     1
 90
       50
176
     1
 62
   256
176
     0
 40
1.0
176
     0
 90
        2
176
     1
  1
strokes_ogs.tif
176
     1
290
     0
176
     1
 40
1.0
176
     1
 40
1.0
176
     1
  0
VISUALSTYLE
  5
2A
102
{ACAD_REACTORS
330
29
102
}
330
29
100
AcDbVisualStyle
  2
Flat
 70
     0
177
     3
291
     1
 70
    58
 90
        2
176
     1
 90
        1
176
     1
 90
        1
176
     1
 90
        2
176
     1
 40
0.6
176
     1
 40
30.0
176
     1
 62
     7
420
 16777215
176
     1
 90
        0
176
     1
 90
        0
176
     1
 62
     7
176
     1
 62
   257
176
     1
 90
        1
176
     1
 90
        1
176
     1
 40
1.0
176
     1
 90
        8
176
     1
 62
     7
176
     1
 40
1.0
176
     1
 90
        1
176
     1
 90
        6
176
     1
 90
        2
176
     1
 62
     7
176
     1
 90
        5
176
     1
 90
        0
176
     1
 90
        0
176
     1
290
     0
176
     1
 90
       13
176
     1
 40
0.0
176
     1
 90
        0
176
     1
290
     0
176
     1
290
     1
176
     1
290
     1
176
     1
290
     0
176
     1
290
     0
176
     1
290
     0
176
     1
290
     0
176
     1
290
     0
176
     1
290
     0
176
     1
 90
       50
176
     1
 40
0.0
176
     1
 40
1.0
176
     1
 90
        0
176
     1
 62
    18
176
     1
 90
       50
176
     1
 90
        3
176
     1
 62
     5
420
      255
176
     1
290
     0
176
     1
 90
       50
176
     1
 90
       50
176
     1
 90
       50
176
     1
290
     0
176
     1
 90
       50
176
     1
 62
   256
176
     0
 40
1.0
176
     0
 90
        2
176
     1
  1
strokes_ogs.tif
176
     1
290
     0
176
     1
 40
1.0
176
     1
 40
1.0
176
     1
  0
VISUALSTYLE
  5
2B
102
{ACAD_REACTORS
330
29
102
}
330
29
100
AcDbVisualStyle
  2
FlatWithEdges
 70
     1
177
     3
291
     1
 70
    58
 90
        2
176
     1
 90
        1
176
     1
 90
        1
176
     1
 90
        2
176
     1
 40
0.6
176
     1
 40
30.0
176
     1
 62
     7
420
 16777215
176
     1
 90
        1
176
     1
 90
        0
176
     1
 62
     7
176
     1
 62
   257
176
     1
 90
        1
176
     1
 90
        1
176
     1
 40
1.0
176
     1
 90
        0
176
     1
 62
   257
176
     1
 40
1.0
176
     1
 90
        1
176
     1
 90
        6
176
     1
 90
        2
176
     1
 62
     7
176
     1
 90
        5
176
     1
 90
        0
176
     1
 90
        0
176
     1
290
     0
176
     1
 90
       13
176
     1
 40
0.0
176
     1
 90
        0
176
     1
290
     0
176
     1
290
     1
176
     1
290
     1
176
     1
290
     0
176
     1
290
     0
176
     1
290
     0
176
     1
290
     0
176
     1
290
     0
176
     1
290
     0
176
     1
 90
       50
176
     1
 40
0.0
176
     1
 40
1.0
176
     1
 90
        0
176
     1
 62
    18
176
     1
 90
       50
176
     1
 90
        3
176
     1
 62
     5
420
      255
176
     1
290
     0
176
     1
 90
       50
176
     1
 90
       50
176
     1
 90
       50
176
     1
290
     0
176
     1
 90
       50
176
     1
 62
   256
176
     0
 40
1.0
176
     0
 90
        2
176
     1
  1
strokes_ogs.tif
176
     1
290
     0
176
     1
 40
1.0
176
     1
 40
1.0
176
     1
  0
VISUALSTYLE
  5
2C
102
{ACAD_REACTORS
330
29
102
}
330
29
100
AcDbVisualStyle
  2
Gouraud
 70
     2
177
     3
291
     1
 70
    58
 90
        2
176
     1
 90
        2
176
     1
 90
        1
176
     1
 90
        2
176
     1
 40
0.6
176
     1
 40
30.0
176
     1
 62
     7
420
 16777215
176
     1
 90
        0
176
     1
 90
        0
176
     1
 62
     7
176
     1
 62
   257
176
     1
 90
        1
176
     1
 90
        1
176
     1
 40
1.0
176
     1
 90
        0
176
     1
 62
     7
176
     1
 40
1.0
176
     1
 90
        1
176
     1
 90
        6
176
     1
 90
        2
176
     1
 62
     7
176
     1
 90
        5
176
     1
 90
        0
176
     1
 90
        0
176
     1
290
     0
176
     1
 90
       13
176
     1
 40
0.0
176
     1
 90
        0
176
     1
290
     0
176
     1
290
     1
176
     1
290
     1
176
     1
290
     0
176
     1
290
     0
176
     1
290
     0
176
     1
290
     0
176
     1
290
     0
176
     1
290
     0
176
     1
 90
       50
176
     1
 40
0.0
176
     1
 40
1.0
176
     1
 90
        0
176
     1
 62
    18
176
     1
 90
       50
176
     1
 90
        3
176
     1
 62
     5
420
      255
176
     1
290
     0
176
     1
 90
       50
176
     1
 90
       50
176
     1
 90
       50
176
     1
290
     0
176
     1
 90
       50
176
     1
 62
   256
176
     0
 40
1.0
176
     0
 90
        2
176
     1
  1
strokes_ogs.tif
176
     1
290
     0
176
     1
 40
1.0
176
     1
 40
1.0
176
     1
  0
VISUALSTYLE
  5
2D
102
{ACAD_REACTORS
330
29
102
}
330
29
100
AcDbVisualStyle
  2
GouraudWithEdges
 70
     3
177
     3
291
     1
 70
    58
 90
        2
176
     1
 90
        2
176
     1
 90
        1
176
     1
 90
        2
176
     1
 40
0.6
176
     1
 40
30.0
176
     1
 62
     7
420
 16777215
176
     1
 90
        1
176
     1
 90
        0
176
     1
 62
     7
176
     1
 62
   257
176
     1
 90
        1
176
     1
 90
        1
176
     1
 40
1.0
176
     1
 90
        0
176
     1
 62
   257
176
     1
 40
1.0
176
     1
 90
        1
176
     1
 90
        6
176
     1
 90
        2
176
     1
 62
     7
176
     1
 90
        5
176
     1
 90
        0
176
     1
 90
        0
176
     1
290
     0
176
     1
 90
       13
176
     1
 40
0.0
176
     1
 90
        0
176
     1
290
     0
176
     1
290
     1
176
     1
290
     1
176
     1
290
     0
176
     1
290
     0
176
     1
290
     0
176
     1
290
     0
176
     1
290
     0
176
     1
290
     0
176
     1
 90
       50
176
     1
 40
0.0
176
     1
 40
1.0
176
     1
 90
        0
176
     1
 62
    18
176
     1
 90
       50
176
     1
 90
        3
176
     1
 62
     5
420
      255
176
     1
290
     0
176
     1
 90
       50
176
     1
 90
       50
176
     1
 90
       50
176
     1
290
     0
176
     1
 90
       50
176
     1
 62
   256
176
     0
 40
1.0
176
     0
 90
        2
176
     1
  1
strokes_ogs.tif
176
     1
290
     0
176
     1
 40
1.0
176
     1
 40
1.0
176
     1
  0
VISUALSTYLE
  5
31
102
{ACAD_REACTORS
330
29
102
}
330
29
100
AcDbVisualStyle
  2
Hidden
 70
     6
177
     3
291
     0
 70
    58
 90
        1
176
     1
 90
        2
176
     1
 90
        2
176
     1
 90
        0
176
     1
 40
0.6
176
     1
 40
30.0
176
     1
 62
     7
420
 16777215
176
     1
 90
        2
176
     1
 90
        2
176
     1
 62
     7
176
     1
 62
   257
176
     1
 90
        2
176
     1
 90
        1
176
     1
 40
40.0
176
     1
 90
        0
176
     1
 62
   257
176
     1
 40
1.0
176
     1
 90
        1
176
     1
 90
        6
176
     1
 90
        2
176
     1
 62
     7
176
     1
 90
        3
176
     1
 90
        0
176
     1
 90
        0
176
     1
290
     0
176
     1
 90
        1
176
     1
 40
0.0
176
     1
 90
        0
176
     1
290
     0
176
     1
290
     1
176
     1
290
     1
176
     1
290
     0
176
     1
290
     0
176
     1
290
     0
176
     1
290
     0
176
     1
290
     0
176
     1
290
     0
176
     1
 90
       50
176
     1
 40
0.0
176
     1
 40
1.0
176
     1
 90
        0
176
     1
 62
    18
176
     1
 90
       50
176
     1
 90
        3
176
     1
 62
     5
420
      255
176
     1
290
     0
176
     1
 90
       50
176
     1
 90
       50
176
     1
 90
       50
176
     1
290
     0
176
     1
 90
       50
176
     1
 62
   256
176
     0
 40
1.0
176
     0
 90
        2
176
     1
  1
strokes_ogs.tif
176
     1
290
     0
176
     1
 40
1.0
176
     1
 40
1.0
176
     1
  0
VISUALSTYLE
  5
3F
102
{ACAD_REACTORS
330
29
102
}
330
29
100
AcDbVisualStyle
  2
JitterOff
 70
    20
177
     3
291
     1
 70
    58
 90
        2
176
     0
 90
        2
176
     0
 90
        0
176
     0
 90
        0
176
     0
 40
0.6
176
     0
 40
30.0
176
     0
 62
     7
420
 16777215
176
     0
 90
        1
176
     0
 90
        4
176
     0
 62
     7
176
     0
 62
   257
176
     0
 90
        1
176
     0
 90
        1
176
     0
 40
1.0
176
     0
 90
       10
176
     2
 62
     7
176
     0
 40
1.0
176
     0
 90
        1
176
     0
 90
        6
176
     0
 90
        2
176
     0
 62
     7
176
     0
 90
        5
176
     0
 90
        0
176
     0
 90
        0
176
     0
290
     0
176
     0
 90
        1
176
     0
 40
0.0
176
     0
 90
        0
176
     0
290
     0
176
     0
290
     1
176
     0
290
     1
176
     0
290
     0
176
     0
290
     0
176
     0
290
     0
176
     0
290
     0
176
     0
290
     0
176
     0
290
     0
176
     0
 90
       50
176
     0
 40
0.0
176
     0
 40
1.0
176
     0
 90
        0
176
     0
 62
    18
176
     0
 90
       50
176
     0
 90
        3
176
     0
 62
     5
420
      255
176
     0
290
     0
176
     0
 90
       50
176
     0
 90
       50
176
     0
 90
       50
176
     0
290
     0
176
     0
 90
       50
176
     0
 62
   256
176
     0
 40
1.0
176
     0
 90
        2
176
     0
  1
strokes_ogs.tif
176
     0
290
     0
176
     0
 40
1.0
176
     0
 40
1.0
176
     0
  0
VISUALSTYLE
  5
37
102
{ACAD_REACTORS
330
29
102
}
330
29
100
AcDbVisualStyle
  2
Linepattern
 70
    14
177
     3
291
     1
 70
    58
 90
        2
176
     1
 90
        2
176
     1
 90
        0
176
     1
 90
        0
176
     1
 40
0.6
176
     1
 40
30.0
176
     1
 62
     7
420
 16777215
176
     1
 90
        1
176
     1
 90
        4
176
     1
 62
     7
176
     1
 62
   257
176
     1
 90
        7
176
     1
 90
        7
176
     1
 40
1.0
176
     1
 90
        8
176
     1
 62
     7
176
     1
 40
1.0
176
     1
 90
        1
176
     1
 90
        6
176
     1
 90
        2
176
     1
 62
     7
176
     1
 90
        5
176
     1
 90
        0
176
     1
 90
        0
176
     1
290
     0
176
     1
 90
        1
176
     1
 40
0.0
176
     1
 90
        0
176
     1
290
     0
176
     1
290
     1
176
     1
290
     1
176
     1
290
     0
176
     1
290
     0
176
     1
290
     0
176
     1
290
     0
176
     1
290
     0
176
     1
290
     0
176
     1
 90
       50
176
     1
 40
0.0
176
     1
 40
1.0
176
     1
 90
        0
176
     1
 62
    18
176
     1
 90
       50
176
     1
 90
        3
176
     1
 62
     5
420
      255
176
     1
290
     0
176
     1
 90
       50
176
     1
 90
       50
176
     1
 90
       50
176
     1
290
     0
176
     1
 90
       50
176
     1
 62
   256
176
     0
 40
1.0
176
     0
 90
        2
176
     1
  1
strokes_ogs.tif
176
     1
290
     0
176
     1
 40
1.0
176
     1
 40
1.0
176
     1
  0
VISUALSTYLE
  5
40
102
{ACAD_REACTORS
330
29
102
}
330
29
100
AcDbVisualStyle
  2
OverhangOff
 70
    21
177
     3
291
     1
 70
    58
 90
        2
176
     0
 90
        2
176
     0
 90
        0
176
     0
 90
        0
176
     0
 40
0.6
176
     0
 40
30.0
176
     0
 62
     7
420
 16777215
176
     0
 90
        1
176
     0
 90
        4
176
     0
 62
     7
176
     0
 62
   257
176
     0
 90
        1
176
     0
 90
        1
176
     0
 40
1.0
176
     0
 90
        9
176
     2
 62
     7
176
     0
 40
1.0
176
     0
 90
        1
176
     0
 90
        6
176
     0
 90
        2
176
     0
 62
     7
176
     0
 90
        5
176
     0
 90
        0
176
     0
 90
        0
176
     0
290
     0
176
     0
 90
        1
176
     0
 40
0.0
176
     0
 90
        0
176
     0
290
     0
176
     0
290
     1
176
     0
290
     1
176
     0
290
     0
176
     0
290
     0
176
     0
290
     0
176
     0
290
     0
176
     0
290
     0
176
     0
290
     0
176
     0
 90
       50
176
     0
 40
0.0
176
     0
 40
1.0
176
     0
 90
        0
176
     0
 62
    18
176
     0
 90
       50
176
     0
 90
        3
176
     0
 62
     5
420
      255
176
     0
290
     0
176
     0
 90
       50
176
     0
 90
       50
176
     0
 90
       50
176
     0
290
     0
176
     0
 90
       50
176
     0
 62
   256
176
     0
 40
1.0
176
     0
 90
        2
176
     0
  1
strokes_ogs.tif
176
     0
290
     0
176
     0
 40
1.0
176
     0
 40
1.0
176
     0
  0
VISUALSTYLE
  5
33
102
{ACAD_REACTORS
330
29
102
}
330
29
100
AcDbVisualStyle
  2
Realistic
 70
     8
177
     3
291
     0
 70
    58
 90
        2
176
     1
 90
        3
176
     1
 90
        0
176
     1
 90
        2
176
     1
 40
0.6
176
     1
 40
30.0
176
     1
 62
     7
420
 16777215
176
     1
 90
        0
176
     1
 90
        0
176
     1
 62
     7
176
     1
 62
   257
176
     1
 90
        1
176
     1
 90
        1
176
     1
 40
1.0
176
     1
 90
        8
176
     1
 62
   257
176
     1
 40
1.0
176
     1
 90
        1
176
     1
 90
        6
176
     1
 90
        2
176
     1
 62
     7
176
     1
 90
        3
176
     1
 90
        0
176
     1
 90
        0
176
     1
290
     0
176
     1
 90
       13
176
     1
 40
0.0
176
     1
 90
        0
176
     1
290
     0
176
     1
290
     1
176
     1
290
     1
176
     1
290
     0
176
     1
290
     0
176
     1
290
     0
176
     1
290
     0
176
     1
290
     0
176
     1
290
     0
176
     1
 90
       50
176
     1
 40
0.0
176
     1
 40
1.0
176
     1
 90
        0
176
     1
 62
    18
176
     1
 90
       50
176
     1
 90
        3
176
     1
 62
     5
420
      255
176
     1
290
     0
176
     1
 90
       50
176
     1
 90
       50
176
     1
 90
       50
176
     1
290
     0
176
     1
 90
       50
176
     1
 62
   256
176
     0
 40
1.0
176
     0
 90
        2
176
     1
  1
strokes_ogs.tif
176
     1
290
     0
176
     1
 40
1.0
176
     1
 40
1.0
176
     1
  0
VISUALSTYLE
  5
3E
102
{ACAD_REACTORS
330
29
102
}
330
29
100
AcDbVisualStyle
  2
Shaded
 70
    27
177
     3
291
     0
 70
    58
 90
        2
176
     1
 90
        2
176
     1
 90
        1
176
     1
 90
        2
176
     1
 40
0.6
176
     1
 40
30.0
176
     1
 62
     7
420
 16777215
176
     1
 90
        0
176
     1
 90
        4
176
     1
 62
     7
176
     1
 62
   257
176
     1
 90
        1
176
     1
 90
        1
176
     1
 40
1.0
176
     1
 90
        8
176
     1
 62
   257
176
     1
 40
1.0
176
     1
 90
        1
176
     1
 90
        6
176
     1
 90
        2
176
     1
 62
     8
420
  7895160
176
     1
 90
        3
176
     1
 90
        0
176
     1
 90
        0
176
     1
290
     0
176
     1
 90
        5
176
     1
 40
0.0
176
     1
 90
        0
176
     1
290
     0
176
     1
290
     1
176
     1
290
     1
176
     1
290
     0
176
     1
290
     0
176
     1
290
     0
176
     1
290
     0
176
     1
290
     0
176
     1
290
     0
176
     1
 90
       50
176
     1
 40
0.0
176
     1
 40
1.0
176
     1
 90
        0
176
     1
 62
    18
176
     1
 90
       50
176
     1
 90
        3
176
     1
 62
     5
420
      255
176
     1
290
     0
176
     1
 90
       50
176
     1
 90
       50
176
     1
 90
       50
176
     1
290
     0
176
     1
 90
       50
176
     1
 62
   256
176
     0
 40
1.0
176
     0
 90
        2
176
     1
  1
strokes_ogs.tif
176
     1
290
     0
176
     1
 40
1.0
176
     1
 40
1.0
176
     1
  0
VISUALSTYLE
  5
3D
102
{ACAD_REACTORS
330
29
102
}
330
29
100
AcDbVisualStyle
  2
Shaded with edges
 70
    26
177
     3
291
     0
 70
    58
 90
        2
176
     1
 90
        2
176
     1
 90
        1
176
     1
 90
        2
176
     1
 40
0.6
176
     1
 40
30.0
176
     1
 62
     7
420
 16777215
176
     1
 90
        1
176
     1
 90
        2
176
     1
 62
     7
176
     1
 62
   257
176
     1
 90
        2
176
     1
 90
        1
176
     1
 40
1.0
176
     1
 90
        8
176
     1
 62
   257
176
     1
 40
1.0
176
     1
 90
        1
176
     1
 90
        6
176
     1
 90
        2
176
     1
 62
     7
176
     1
 90
        3
176
     1
 90
        0
176
     1
 90
        0
176
     1
290
     0
176
     1
 90
        5
176
     1
 40
0.0
176
     1
 90
        0
176
     1
290
     0
176
     1
290
     1
176
     1
290
     1
176
     1
290
     0
176
     1
290
     0
176
     1
290
     0
176
     1
290
     0
176
     1
290
     0
176
     1
290
     0
176
     1
 90
       50
176
     1
 40
0.0
176
     1
 40
1.0
176
     1
 90
        0
176
     1
 62
    18
176
     1
 90
       50
176
     1
 90
        3
176
     1
 62
     5
420
      255
176
     1
290
     0
176
     1
 90
       50
176
     1
 90
       50
176
     1
 90
       50
176
     1
290
     0
176
     1
 90
       50
176
     1
 62
   256
176
     0
 40
1.0
176
     0
 90
        2
176
     1
  1
strokes_ogs.tif
176
     1
290
     0
176
     1
 40
1.0
176
     1
 40
1.0
176
     1
  0
VISUALSTYLE
  5
3A
102
{ACAD_REACTORS
330
29
102
}
330
29
100
AcDbVisualStyle
  2
Shades of Gray
 70
    23
177
     3
291
     0
 70
    58
 90
        2
176
     1
 90
        2
176
     1
 90
        3
176
     1
 90
        0
176
     1
 40
0.6
176
     1
 40
30.0
176
     1
 62
     7
420
 16777215
176
     1
 90
        2
176
     1
 90
        2
176
     1
 62
     7
176
     1
 62
     7
176
     1
 90
        1
176
     1
 90
        1
176
     1
 40
40.0
176
     1
 90
        8
176
     1
 62
     7
176
     1
 40
1.0
176
     1
 90
        1
176
     1
 90
        6
176
     1
 90
        2
176
     1
 62
     7
176
     1
 90
        3
176
     1
 90
        0
176
     1
 90
        0
176
     1
290
     0
176
     1
 90
        1
176
     1
 40
0.0
176
     1
 90
        0
176
     1
290
     0
176
     1
290
     1
176
     1
290
     1
176
     1
290
     0
176
     1
290
     0
176
     1
290
     0
176
     1
290
     0
176
     1
290
     0
176
     1
290
     0
176
     1
 90
       50
176
     1
 40
0.0
176
     1
 40
1.0
176
     1
 90
        0
176
     1
 62
    18
176
     1
 90
       50
176
     1
 90
        3
176
     1
 62
     5
420
      255
176
     1
290
     0
176
     1
 90
       50
176
     1
 90
       50
176
     1
 90
       50
176
     1
290
     0
176
     1
 90
       50
176
     1
 62
   256
176
     0
 40
1.0
176
     0
 90
        2
176
     1
  1
strokes_ogs.tif
176
     1
290
     0
176
     1
 40
1.0
176
     1
 40
1.0
176
     1
  0
VISUALSTYLE
  5
3B
102
{ACAD_REACTORS
330
29
102
}
330
29
100
AcDbVisualStyle
  2
Sketchy
 70
    24
177
     3
291
     0
 70
    58
 90
        1
176
     1
 90
        2
176
     1
 90
        2
176
     1
 90
        0
176
     1
 40
0.6
176
     1
 40
30.0
176
     1
 62
     7
420
 16777215
176
     1
 90
        2
176
     1
 90
        2
176
     1
 62
     7
176
     1
 62
     7
176
     1
 90
        1
176
     1
 90
        1
176
     1
 40
40.0
176
     1
 90
       11
176
     1
 62
     7
176
     1
 40
1.0
176
     1
 90
        1
176
     1
 90
        6
176
     1
 90
        2
176
     1
 62
     7
176
     1
 90
        6
176
     1
 90
        0
176
     1
 90
        0
176
     1
290
     0
176
     1
 90
        1
176
     1
 40
0.0
176
     1
 90
        0
176
     1
290
     0
176
     1
290
     1
176
     1
290
     1
176
     1
290
     0
176
     1
290
     0
176
     1
290
     0
176
     1
290
     0
176
     1
290
     0
176
     1
290
     0
176
     1
 90
       50
176
     1
 40
0.0
176
     1
 40
1.0
176
     1
 90
        0
176
     1
 62
    18
176
     1
 90
       50
176
     1
 90
        3
176
     1
 62
     5
420
      255
176
     1
290
     0
176
     1
 90
       50
176
     1
 90
       50
176
     1
 90
       50
176
     1
290
     0
176
     1
 90
       50
176
     1
 62
   256
176
     0
 40
1.0
176
     0
 90
        2
176
     1
  1
strokes_ogs.tif
176
     1
290
     0
176
     1
 40
1.0
176
     1
 40
1.0
176
     1
  0
VISUALSTYLE
  5
36
102
{ACAD_REACTORS
330
29
102
}
330
29
100
AcDbVisualStyle
  2
Thicken
 70
    13
177
     3
291
     1
 70
    58
 90
        2
176
     1
 90
        2
176
     1
 90
        0
176
     1
 90
        0
176
     1
 40
0.6
176
     1
 40
30.0
176
     1
 62
     7
420
 16777215
176
     1
 90
        1
176
     1
 90
        4
176
     1
 62
     7
176
     1
 62
   257
176
     1
 90
        1
176
     1
 90
        1
176
     1
 40
1.0
176
     1
 90
       12
176
     1
 62
     7
176
     1
 40
1.0
176
     1
 90
        1
176
     1
 90
        6
176
     1
 90
        2
176
     1
 62
     7
176
     1
 90
        5
176
     1
 90
        0
176
     1
 90
        0
176
     1
290
     0
176
     1
 90
        1
176
     1
 40
0.0
176
     1
 90
        0
176
     1
290
     0
176
     1
290
     1
176
     1
290
     1
176
     1
290
     0
176
     1
290
     0
176
     1
290
     0
176
     1
290
     0
176
     1
290
     0
176
     1
290
     0
176
     1
 90
       50
176
     1
 40
0.0
176
     1
 40
1.0
176
     1
 90
        0
176
     1
 62
    18
176
     1
 90
       50
176
     1
 90
        3
176
     1
 62
     5
420
      255
176
     1
290
     0
176
     1
 90
       50
176
     1
 90
       50
176
     1
 90
       50
176
     1
290
     0
176
     1
 90
       50
176
     1
 62
   256
176
     0
 40
1.0
176
     0
 90
        2
176
     1
  1
strokes_ogs.tif
176
     1
290
     0
176
     1
 40
1.0
176
     1
 40
1.0
176
     1
  0
VISUALSTYLE
  5
30
102
{ACAD_REACTORS
330
29
102
}
330
29
100
AcDbVisualStyle
  2
Wireframe
 70
     5
177
     3
291
     0
 70
    58
 90
        0
176
     1
 90
        2
176
     1
 90
        0
176
     1
 90
        0
176
     1
 40
0.6
176
     1
 40
30.0
176
     1
 62
     7
420
 16777215
176
     1
 90
        1
176
     1
 90
        4
176
     1
 62
     7
176
     1
 62
   257
176
     1
 90
        1
176
     1
 90
        1
176
     1
 40
1.0
176
     1
 90
        0
176
     1
 62
   257
176
     1
 40
1.0
176
     1
 90
        1
176
     1
 90
        6
176
     1
 90
        2
176
     1
 62
     7
176
     1
 90
        3
176
     1
 90
        0
176
     1
 90
        0
176
     1
290
     0
176
     1
 90
        1
176
     1
 40
0.0
176
     1
 90
        0
176
     1
290
     0
176
     1
290
     1
176
     1
290
     1
176
     1
290
     0
176
     1
290
     0
176
     1
290
     0
176
     1
290
     0
176
     1
290
     0
176
     1
290
     0
176
     1
 90
       50
176
     1
 40
0.0
176
     1
 40
1.0
176
     1
 90
        0
176
     1
 62
    18
176
     1
 90
       50
176
     1
 90
        3
176
     1
 62
     5
420
      255
176
     1
290
     0
176
     1
 90
       50
176
     1
 90
       50
176
     1
 90
       50
176
     1
290
     0
176
     1
 90
       50
176
     1
 62
   256
176
     0
 40
1.0
176
     0
 90
        2
176
     1
  1
strokes_ogs.tif
176
     1
290
     0
176
     1
 40
1.0
176
     1
 40
1.0
176
     1
  0
VISUALSTYLE
  5
3C
102
{ACAD_REACTORS
330
29
102
}
330
29
100
AcDbVisualStyle
  2
X-Ray
 70
    25
177
     3
291
     0
 70
    58
 90
        2
176
     1
 90
        2
176
     1
 90
        1
176
     1
 90
        1
176
     1
 40
0.5
176
     1
 40
30.0
176
     1
 62
     7
420
 16777215
176
     1
 90
        1
176
     1
 90
        0
176
     1
 62
     7
176
     1
 62
   257
176
     1
 90
        1
176
     1
 90
        1
176
     1
 40
1.0
176
     1
 90
        8
176
     1
 62
     7
176
     1
 40
1.0
176
     1
 90
        1
176
     1
 90
        6
176
     1
 90
        2
176
     1
 62
     7
176
     1
 90
        3
176
     1
 90
        0
176
     1
 90
        0
176
     1
290
     0
176
     1
 90
       13
176
     1
 40
0.0
176
     1
 90
        0
176
     1
290
     0
176
     1
290
     1
176
     1
290
     1
176
     1
290
     0
176
     1
290
     0
176
     1
290
     0
176
     1
290
     0
176
     1
290
     0
176
     1
290
     0
176
     1
 90
       50
176
     1
 40
0.0
176
     1
 40
1.0
176
     1
 90
        0
176
     1
 62
    18
176
     1
 90
       50
176
     1
 90
        3
176
     1
 62
     5
420
      255
176
     1
290
     0
176
     1
 90
       50
176
     1
 90
       50
176
     1
 90
       50
176
     1
290
     0
176
     1
 90
       50
176
     1
 62
   256
176
     0
 40
1.0
176
     0
 90
        2
176
     1
  1
strokes_ogs.tif
176
     1
290
     0
176
     1
 40
1.0
176
     1
 40
1.0
176
     1
  0
DICTIONARYVAR
  5
29D
102
{ACAD_REACTORS
330
298
102
}
330
298
100
DictionaryVariables
280
     0
  1
1:1
  0
DICTIONARYVAR
  5
29A
102
{ACAD_REACTORS
330
298
102
}
330
298
100
DictionaryVariables
280
     0
  1
STANDARD
  0
DICTIONARYVAR
  5
299
102
{ACAD_REACTORS
330
298
102
}
330
298
100
DictionaryVariables
280
     0
  1
STANDARD
  0
DICTIONARYVAR
  5
29B
102
{ACAD_REACTORS
330
298
102
}
330
298
100
DictionaryVariables
280
     0
  1
Imperial24
  0
DICTIONARYVAR
  5
29C
102
{ACAD_REACTORS
330
298
102
}
330
298
100
DictionaryVariables
280
     0
  1
Imperial24
  0
XRECORD
  5
8E
102
{ACAD_REACTORS
330
8C
102
}
330
8C
100
AcDbXrecord
280
     1
  0
DICTIONARY
  5
1A
330
19
100
AcDbDictionary
280
     1
281
     1
  3
BUMPTILE
360
1C
  3
DIFFUSETILE
360
1B
  3
OPACITYTILE
360
1F
  3
REFLECTIONTILE
360
1E
  3
REFRACTIONTILE
360
20
  3
SPECULARTILE
360
1D
  0
DICTIONARY
  5
12
330
11
100
AcDbDictionary
280
     1
281
     1
  3
BUMPTILE
360
14
  3
DIFFUSETILE
360
13
  3
OPACITYTILE
360
17
  3
REFLECTIONTILE
360
16
  3
REFRACTIONTILE
360
18
  3
SPECULARTILE
360
15
  0
DICTIONARY
  5
22
330
21
100
AcDbDictionary
280
     1
281
     1
  3
BUMPTILE
360
24
  3
DIFFUSETILE
360
23
  3
OPACITYTILE
360
27
  3
REFLECTIONTILE
360
26
  3
REFRACTIONTILE
360
28
  3
SPECULARTILE
360
25
  0
DICTIONARY
  5
29E
330
65
100
AcDbDictionary
280
     1
281
     1
  3
ACAD_ROUNDTRIP_2008_TABLESTYLE_CELLSTYLEMAP
360
4074
  0
XRECORD
  5
1C
102
{ACAD_REACTORS
330
1A
102
}
330
1A
100
AcDbXrecord
280
     1
270
     1
271
     1
  0
XRECORD
  5
1B
102
{ACAD_REACTORS
330
1A
102
}
330
1A
100
AcDbXrecord
280
     1
270
     1
271
     1
  0
XRECORD
  5
1F
102
{ACAD_REACTORS
330
1A
102
}
330
1A
100
AcDbXrecord
280
     1
270
     1
271
     1
  0
XRECORD
  5
1E
102
{ACAD_REACTORS
330
1A
102
}
330
1A
100
AcDbXrecord
280
     1
270
     1
271
     1
  0
XRECORD
  5
20
102
{ACAD_REACTORS
330
1A
102
}
330
1A
100
AcDbXrecord
280
     1
270
     1
271
     1
  0
XRECORD
  5
1D
102
{ACAD_REACTORS
330
1A
102
}
330
1A
100
AcDbXrecord
280
     1
270
     1
271
     1
  0
XRECORD
  5
14
102
{ACAD_REACTORS
330
12
102
}
330
12
100
AcDbXrecord
280
     1
270
     1
271
     1
  0
XRECORD
  5
13
102
{ACAD_REACTORS
330
12
102
}
330
12
100
AcDbXrecord
280
     1
270
     1
271
     1
  0
XRECORD
  5
17
102
{ACAD_REACTORS
330
12
102
}
330
12
100
AcDbXrecord
280
     1
270
     1
271
     1
  0
XRECORD
  5
16
102
{ACAD_REACTORS
330
12
102
}
330
12
100
AcDbXrecord
280
     1
270
     1
271
     1
  0
XRECORD
  5
18
102
{ACAD_REACTORS
330
12
102
}
330
12
100
AcDbXrecord
280
     1
270
     1
271
     1
  0
XRECORD
  5
15
102
{ACAD_REACTORS
330
12
102
}
330
12
100
AcDbXrecord
280
     1
270
     1
271
     1
  0
XRECORD
  5
24
102
{ACAD_REACTORS
330
22
102
}
330
22
100
AcDbXrecord
280
     1
270
     1
271
     1
  0
XRECORD
  5
23
102
{ACAD_REACTORS
330
22
102
}
330
22
100
AcDbXrecord
280
     1
270
     1
271
     1
  0
XRECORD
  5
27
102
{ACAD_REACTORS
330
22
102
}
330
22
100
AcDbXrecord
280
     1
270
     1
271
     1
  0
XRECORD
  5
26
102
{ACAD_REACTORS
330
22
102
}
330
22
100
AcDbXrecord
280
     1
270
     1
271
     1
  0
XRECORD
  5
28
102
{ACAD_REACTORS
330
22
102
}
330
22
100
AcDbXrecord
280
     1
270
     1
271
     1
  0
XRECORD
  5
25
102
{ACAD_REACTORS
330
22
102
}
330
22
100
AcDbXrecord
280
     1
270
     1
271
     1
  0
CELLSTYLEMAP
  5
4074
102
{ACAD_REACTORS
330
29E
102
}
330
29E
100
AcDbCellStyleMap
 90
        3
300
CELLSTYLE
  1
TABLEFORMAT_BEGIN
 90
        5
170
     1
 91
        0
 92
    32768
 62
   257
 93
        1
300
CONTENTFORMAT
  1
CONTENTFORMAT_BEGIN
 90
        0
 91
        0
 92
      512
 93
        0
300

 40
0.0
140
1.0
 94
        5
 62
     0
340
55
144
0.25
309
CONTENTFORMAT_END
171
     1
301
MARGIN
  1
CELLMARGIN_BEGIN
 40
0.06
 40
0.06
 40
0.06
 40
0.06
 40
0.18
 40
0.18
309
CELLMARGIN_END
 94
        6
 95
        1
302
GRIDFORMAT
  1
GRIDFORMAT_BEGIN
 90
        0
 91
        1
 62
     0
 92
       -2
340
0
 93
        0
 40
0.045
309
GRIDFORMAT_END
 95
        2
302
GRIDFORMAT
  1
GRIDFORMAT_BEGIN
 90
        0
 91
        1
 62
     0
 92
       -2
340
0
 93
        0
 40
0.045
309
GRIDFORMAT_END
 95
        4
302
GRIDFORMAT
  1
GRIDFORMAT_BEGIN
 90
        0
 91
        1
 62
     0
 92
       -2
340
0
 93
        0
 40
0.045
309
GRIDFORMAT_END
 95
        8
302
GRIDFORMAT
  1
GRIDFORMAT_BEGIN
 90
        0
 91
        1
 62
     0
 92
       -2
340
0
 93
        0
 40
0.045
309
GRIDFORMAT_END
 95
       16
302
GRIDFORMAT
  1
GRIDFORMAT_BEGIN
 90
        0
 91
        1
 62
     0
 92
       -2
340
0
 93
        0
 40
0.045
309
GRIDFORMAT_END
 95
       32
302
GRIDFORMAT
  1
GRIDFORMAT_BEGIN
 90
        0
 91
        1
 62
     0
 92
       -2
340
0
 93
        0
 40
0.045
309
GRIDFORMAT_END
309
TABLEFORMAT_END
  1
CELLSTYLE_BEGIN
 90
        1
 91
        1
300
_TITLE
309
CELLSTYLE_END
300
CELLSTYLE
  1
TABLEFORMAT_BEGIN
 90
        5
170
     1
 91
        0
 92
        0
 62
   257
 93
        1
300
CONTENTFORMAT
  1
CONTENTFORMAT_BEGIN
 90
        0
 91
        0
 92
      512
 93
        0
300

 40
0.0
140
1.0
 94
        5
 62
     0
340
55
144
0.18
309
CONTENTFORMAT_END
171
     1
301
MARGIN
  1
CELLMARGIN_BEGIN
 40
0.06
 40
0.06
 40
0.06
 40
0.06
 40
0.18
 40
0.18
309
CELLMARGIN_END
 94
        6
 95
        1
302
GRIDFORMAT
  1
GRIDFORMAT_BEGIN
 90
        0
 91
        1
 62
     0
 92
       -2
340
0
 93
        0
 40
0.045
309
GRIDFORMAT_END
 95
        2
302
GRIDFORMAT
  1
GRIDFORMAT_BEGIN
 90
        0
 91
        1
 62
     0
 92
       -2
340
0
 93
        0
 40
0.045
309
GRIDFORMAT_END
 95
        4
302
GRIDFORMAT
  1
GRIDFORMAT_BEGIN
 90
        0
 91
        1
 62
     0
 92
       -2
340
0
 93
        0
 40
0.045
309
GRIDFORMAT_END
 95
        8
302
GRIDFORMAT
  1
GRIDFORMAT_BEGIN
 90
        0
 91
        1
 62
     0
 92
       -2
340
0
 93
        0
 40
0.045
309
GRIDFORMAT_END
 95
       16
302
GRIDFORMAT
  1
GRIDFORMAT_BEGIN
 90
        0
 91
        1
 62
     0
 92
       -2
340
0
 93
        0
 40
0.045
309
GRIDFORMAT_END
 95
       32
302
GRIDFORMAT
  1
GRIDFORMAT_BEGIN
 90
        0
 91
        1
 62
     0
 92
       -2
340
0
 93
        0
 40
0.045
309
GRIDFORMAT_END
309
TABLEFORMAT_END
  1
CELLSTYLE_BEGIN
 90
        2
 91
        1
300
_HEADER
309
CELLSTYLE_END
300
CELLSTYLE
  1
TABLEFORMAT_BEGIN
 90
        5
170
     1
 91
        0
 92
        0
 62
   257
 93
        1
300
CONTENTFORMAT
  1
CONTENTFORMAT_BEGIN
 90
        0
 91
        0
 92
      512
 93
        0
300

 40
0.0
140
1.0
 94
        2
 62
     0
340
55
144
0.18
309
CONTENTFORMAT_END
171
     1
301
MARGIN
  1
CELLMARGIN_BEGIN
 40
0.06
 40
0.06
 40
0.06
 40
0.06
 40
0.18
 40
0.18
309
CELLMARGIN_END
 94
        6
 95
        1
302
GRIDFORMAT
  1
GRIDFORMAT_BEGIN
 90
        0
 91
        1
 62
     0
 92
       -2
340
0
 93
        0
 40
0.045
309
GRIDFORMAT_END
 95
        2
302
GRIDFORMAT
  1
GRIDFORMAT_BEGIN
 90
        0
 91
        1
 62
     0
 92
       -2
340
0
 93
        0
 40
0.045
309
GRIDFORMAT_END
 95
        4
302
GRIDFORMAT
  1
GRIDFORMAT_BEGIN
 90
        0
 91
        1
 62
     0
 92
       -2
340
0
 93
        0
 40
0.045
309
GRIDFORMAT_END
 95
        8
302
GRIDFORMAT
  1
GRIDFORMAT_BEGIN
 90
        0
 91
        1
 62
     0
 92
       -2
340
0
 93
        0
 40
0.045
309
GRIDFORMAT_END
 95
       16
302
GRIDFORMAT
  1
GRIDFORMAT_BEGIN
 90
        0
 91
        1
 62
     0
 92
       -2
340
0
 93
        0
 40
0.045
309
GRIDFORMAT_END
 95
       32
302
GRIDFORMAT
  1
GRIDFORMAT_BEGIN
 90
        0
 91
        1
 62
     0
 92
       -2
340
0
 93
        0
 40
0.045
309
GRIDFORMAT_END
309
TABLEFORMAT_END
  1
CELLSTYLE_BEGIN
 90
        3
 91
        2
300
_DATA
309
CELLSTYLE_END
  0
ENDSEC
  0
SECTION
  2
ACDSDATA
 70
     2
 71
     8
  0
ACDSSCHEMA
 90
        0
  1
AcDb_Thumbnail_Schema
  2
AcDbDs::ID
280
    10
 91
        8
  2
Thumbnail_Data
280
    15
 91
        0
101
ACDSRECORD
 95
        0
 90
        1
  2
AcDbDs::TreatedAsObjectData
280
     1
291
     1
101
ACDSRECORD
 95
        0
 90
        2
  2
AcDbDs::Legacy
280
     1
291
     1
101
ACDSRECORD
  1
AcDbDs::ID
 90
        3
  2
AcDs:Indexable
280
     1
291
     1
101
ACDSRECORD
  1
AcDbDs::ID
 90
        4
  2
AcDbDs::HandleAttribute
280
     7
282
     1
  0
ACDSSCHEMA
 90
        1
  1
AcDbDs::TreatedAsObjectDataSchema
  2
AcDbDs::TreatedAsObjectData
280
     1
 91
        0
  0
ACDSSCHEMA
 90
        2
  1
AcDbDs::LegacySchema
  2
AcDbDs::Legacy
280
     1
 91
        0
  0
ACDSSCHEMA
 90
        3
  1
AcDbDs::IndexedPropertySchema
  2
AcDs:Indexable
280
     1
 91
        0
  0
ACDSSCHEMA
 90
        4
  1
AcDbDs::HandleAttributeSchema
  2
AcDbDs::HandleAttribute
280
     7
 91
        1
284
     1
  0
ACDSRECORD
 90
        0
  2
AcDbDs::ID
280
    10
320
6F
  2
Thumbnail_Data
280
    15
 94
     1832
310
89504E470D0A1A0A0000000D4948445200000100000000C608030000000A6AAE4900000300504C5445FFFFFFFFFFFFFFFFFF0000000000000000000000000000000000000000000000000000330000660000990000CC0000FF0033000033330033660033990033CC0033FF0066000066330066660066990066CC0066FF0099
310
000099330099660099990099CC0099FF00CC0000CC3300CC6600CC9900CCCC00CCFF00FF0000FF3300FF6600FF9900FFCC00FFFF3300003300333300663300993300CC3300FF3333003333333333663333993333CC3333FF3366003366333366663366993366CC3366FF3399003399333399663399993399CC3399FF33CC00
310
33CC3333CC6633CC9933CCCC33CCFF33FF0033FF3333FF6633FF9933FFCC33FFFF6600006600336600666600996600CC6600FF6633006633336633666633996633CC6633FF6666006666336666666666996666CC6666FF6699006699336699666699996699CC6699FF66CC0066CC3366CC6666CC9966CCCC66CCFF66FF0066
310
FF3366FF6666FF9966FFCC66FFFF9900009900339900669900999900CC9900FF9933009933339933669933999933CC9933FF9966009966339966669966999966CC9966FF9999009999339999669999999999CC9999FF99CC0099CC3399CC6699CC9999CCCC99CCFF99FF0099FF3399FF6699FF9999FFCC99FFFFCC0000CC00
310
33CC0066CC0099CC00CCCC00FFCC3300CC3333CC3366CC3399CC33CCCC33FFCC6600CC6633CC6666CC6699CC66CCCC66FFCC9900CC9933CC9966CC9999CC99CCCC99FFCCCC00CCCC33CCCC66CCCC99CCCCCCCCCCFFCCFF00CCFF33CCFF66CCFF99CCFFCCCCFFFFFF0000FF0033FF0066FF0099FF00CCFF00FFFF3300FF3333
310
FF3366FF3399FF33CCFF33FFFF6600FF6633FF6666FF6699FF66CCFF66FFFF9900FF9933FF9966FF9999FF99CCFF99FFFFCC00FFCC33FFCC66FFCC99FFCCCCFFCCFFFFFF00FFFF33FFFF66FFFF99FFFFCCFFFFFF0000000D0D0D1A1A1A2828283535354343435050505D5D5D6B6B6B787878868686939393A1A1A1AEAEAEBB
310
BBBBC9C9C9D6D6D6E4E4E4F1F1F1FFFFFF000000000000000000000000000000000000000000000000000000000000AD4AB4E4000003E34944415478DAED9D4172AB30104475FF43CD6158E710FFDB49C5766C9060BAB1619E16CE2242919E51378CBA2AEDAB786BB51B000070FD31FD6F053FABDF013700130000505B04CB
310
03282F82B8000000800BE002B8001A000000E002B8002EF0D8E5142DA101D359BE680000609B0B5401D0AA6F818606000000B8002E800BA0010000002E800BE002680000EEBA94AF09DE7E139756CF05A6DBEA6F3F165A8CB4A169876CA8940B4C3F93B99BD7E2ACC7D626EA33D82DE502D3F39A97101C15C0E216785AF03C
310
81518D08D5FA873AA6010CFF51DDACC7D5D60F205EE95372D6BDAE6BDC26B603685B01B4D3015810C197DF764472D62D54EB1FE89D7381E12F5B37EB958F5BE1D58051006B1F124306A0DB5F05E0FEB9CB0960F5F3F6470058FF9610AAF5772FC9B9C0D81610CEFA2D00B222B8E92D3154EBEF5DB4830BE866BDED853B8C1A
310
30F220B4B14C10AAF577AEB303D85C2689630008D30D20F192912BB315A1DEEB70A24EA622990690298864EA843A004BD7A62B428F8F40C2F5FFB93ADADB00248AA23A00C992735801B4B9B278B6501E070310A15D7F0BC750621778D8F98F08040725211B2A03A023828FC21F6100A038730A970B3CDDF7BA6FED77903703
310
58DE02CF0F6CBA49FF8C221C4A0F60AE2EAE3A290DD9501E00B315E0CF0330338EE15CE042457754AE3B75DF0C60A9203257113901804445E86C00A62D0044F316264FC20C20FEE42474DEF5C92E3003E0AADD9AD66423AD05D0560370EC5B7F739C0BB423E5C5922EB0F6FC4297EE528D65288B2F0010869B546339004425
310
0061B801863AAAC6929F0B28D6AF4CCA794F875FDDEF82F5F7FBEAC6529C0B6805E0F300F48AA231161656A6BB846349CAE2DF7EBB6CBBCA7497722CD1B940EBBEFF29D35DCAB114E70242D71EBA409A14139C0B58D62F7293FE257917383F00C11650A6BBC449B15D0028D35DEAA4D81E0094E12679506A0F17383A80AC08
310
2AD35DFAA498DF0594E92E4352CCAF01CA749721296607A04C773992626E00CA70932528E576813300C888A032DDE5498A795D4099EE3225C5AC1AA00C37B9825200300250A6BB6C4931A30B28CFF57D1901A30B28D35DBEA498CF0594D91E634EC8A70100280F4098EE3226C57001A30B08D35DBEA4D84EE7029FDBF63917
310
0000008E07A00100110400220800441000882000104100E002B8002E8006000000B8002E800BA0010000002E800BE00268000000800B7C0338F37F9B1B718156630B9407C07F9C044049000D008820001041002082004004018008020017C0057081975D4E5D131CD0807337005407D000D015C12A5BA0A1010000002E800B
310
E00268000000800BE002B840490DB8D68DEA7D56BF031A00007001F055BC9507F00F0475EBA70E0337470000000049454E44AE426082
  0
ACDSRECORD
 90
        0
  2
AcDbDs::ID
280
    10
320
77
  2
Thumbnail_Data
280
    15
 94
     1839
310
89504E470D0A1A0A0000000D4948445200000100000000C608030000000A6AAE4900000300504C5445FFFFFFFFFFFFFFFFFF0000000000000000000000000000000000000000000000000000330000660000990000CC0000FF0033000033330033660033990033CC0033FF0066000066330066660066990066CC0066FF0099
310
000099330099660099990099CC0099FF00CC0000CC3300CC6600CC9900CCCC00CCFF00FF0000FF3300FF6600FF9900FFCC00FFFF3300003300333300663300993300CC3300FF3333003333333333663333993333CC3333FF3366003366333366663366993366CC3366FF3399003399333399663399993399CC3399FF33CC00
310
33CC3333CC6633CC9933CCCC33CCFF33FF0033FF3333FF6633FF9933FFCC33FFFF6600006600336600666600996600CC6600FF6633006633336633666633996633CC6633FF6666006666336666666666996666CC6666FF6699006699336699666699996699CC6699FF66CC0066CC3366CC6666CC9966CCCC66CCFF66FF0066
310
FF3366FF6666FF9966FFCC66FFFF9900009900339900669900999900CC9900FF9933009933339933669933999933CC9933FF9966009966339966669966999966CC9966FF9999009999339999669999999999CC9999FF99CC0099CC3399CC6699CC9999CCCC99CCFF99FF0099FF3399FF6699FF9999FFCC99FFFFCC0000CC00
310
33CC0066CC0099CC00CCCC00FFCC3300CC3333CC3366CC3399CC33CCCC33FFCC6600CC6633CC6666CC6699CC66CCCC66FFCC9900CC9933CC9966CC9999CC99CCCC99FFCCCC00CCCC33CCCC66CCCC99CCCCCCCCCCFFCCFF00CCFF33CCFF66CCFF99CCFFCCCCFFFFFF0000FF0033FF0066FF0099FF00CCFF00FFFF3300FF3333
310
FF3366FF3399FF33CCFF33FFFF6600FF6633FF6666FF6699FF66CCFF66FFFF9900FF9933FF9966FF9999FF99CCFF99FFFFCC00FFCC33FFCC66FFCC99FFCCCCFFCCFFFFFF00FFFF33FFFF66FFFF99FFFFCCFFFFFF0000000D0D0D1A1A1A2828283535354343435050505D5D5D6B6B6B787878868686939393A1A1A1AEAEAEBB
310
BBBBC9C9C9D6D6D6E4E4E4F1F1F1FFFFFF000000000000000000000000000000000000000000000000000000000000AD4AB4E4000003EA4944415478DAED9D5B52EB30100567FF8B9AC5F0CD22EE25458A24F8215B3D26B65A1F5005B2ACE938E7489A09C4E7E02DC66E0210C0EDDBC7FF36E0D7D19F801F001F0210C0D822
310
383C80E145501710800074015D401750030420005D4017D0059EBB5CA27568C0C7555E680108609F0B8C0220467F0B841A200001E802BA802EA006084000BA802EA00BA8010278E8E299E0BDE5AD8DEA02F7D8571164536B9A363754BF0B3CDE67F19E8D4F48427D1ABBF5BAC04BC84B044E0B60B14B36DFB45922928ABFA9
310
632780DFAFF8DC33D02E9189C55F0F602ADAEC9CF46A5F70A86E17C8E69B9E19400000B6AD11928ABFA177970B4CBFDF277EBA718D9458FC0880F92E332B806E000BFD372F37F31800B908009CF52901ECD8242415FFEA255D2ED068F9DCACF7ECB7FA016C164160D6FD5EDA7A55DF5EA0659AE0ACFF08C0C685D0EBF668E7
310
3E3DA9F857AE2B5F0A73B3DE7DE05208607D33B4FF982831008B57F69E086555FC8C96220096AF7D8E38139B756028172FEECF0BE4CC72889D75DF896B9669C03DEEFC391BC566FD743938140F2026A34767DD7BE45E0D60FA1CBA3B5190D848F323307981490DE0660DA45C7A00B48BE0B32206366D7028DE057E3DF78903
310
40726E59A401B34B41265398D84873C3E04BE1EF3B71B3A672AE4500E6B683DCB4B1A47316B84056BF6C0126DD770388CD00F20A00F69F08B1CFED1B00D87C28FA05801241AEF2246B01BC9E8B83DEF5C636B804006A810E45BBC0CC2238CE542E559017B808800E1758902DB0500C1A8BCF0B00A9CDC43A15274723737000
310
1BAB41C8EA2E6AACCE13A1A96A90FE4239B252AE343B3C152E11FF7A5F6E2CFA4428332E0760FD50747A3DD8B538482CFEDAE4E8C38E65C575C9EA2E722CEA13236B4B0EB4B829C1B18EFAD41809008579D0A7C6C8EA2EB652EC984F8DA1D55D8703E87F0BA0C54D1924CDF301A02BC58E00405677E1956207B8005ADDF517
310
00E2AF0090A57275D9E1C2F8C94AB9B2EC7065FC68A95C5172B436FEC84298A7004096CA956487ABE37F0F001D2288567765440181521740ABBB8A4AE54A3580ACEEAAAA14AB048056779D10009AD6CE881A02752E805677D5D508D4B9005ADD55572B57E602686D4F61A95C99060860780064755761A558E15E8054EE33BA
310
005ADD555729E65F93AB3E111280004E0A2004A0080A401114802228004550008AA00074015D401750030420005D4017D005D40001084017D005740135400002D0056EBFB8F47F9BD30504A0080A40171080222800455000BA802EA00BA8010210802EA00BE802BFBA5CFA4CB04103AEDD04303A8010C0AA088EF216083540
310
0002D00574015D400D10800074015D40171852036EE746E37D1DFD09080108E00BC0E7E06D7800FF005913909F42B3D2590000000049454E44AE426082
  0
ACDSRECORD
 90
        0
  2
AcDbDs::ID
280
    10
320
73
  2
Thumbnail_Data
280
    15
 94
     1354
310
89504E470D0A1A0A0000000D49484452000001000000007A080300000067627D4700000300504C5445212830FFFFFF2128300000000000000000000000000000000000000000000000000000330000660000990000CC0000FF0033000033330033660033990033CC0033FF0066000066330066660066990066CC0066FF0099
310
000099330099660099990099CC0099FF00CC0000CC3300CC6600CC9900CCCC00CCFF00FF0000FF3300FF6600FF9900FFCC00FFFF3300003300333300663300993300CC3300FF3333003333333333663333993333CC3333FF3366003366333366663366993366CC3366FF3399003399333399663399993399CC3399FF33CC00
310
33CC3333CC6633CC9933CCCC33CCFF33FF0033FF3333FF6633FF9933FFCC33FFFF6600006600336600666600996600CC6600FF6633006633336633666633996633CC6633FF6666006666336666666666996666CC6666FF6699006699336699666699996699CC6699FF66CC0066CC3366CC6666CC9966CCCC66CCFF66FF0066
310
FF3366FF6666FF9966FFCC66FFFF9900009900339900669900999900CC9900FF9933009933339933669933999933CC9933FF9966009966339966669966999966CC9966FF9999009999339999669999999999CC9999FF99CC0099CC3399CC6699CC9999CCCC99CCFF99FF0099FF3399FF6699FF9999FFCC99FFFFCC0000CC00
310
33CC0066CC0099CC00CCCC00FFCC3300CC3333CC3366CC3399CC33CCCC33FFCC6600CC6633CC6666CC6699CC66CCCC66FFCC9900CC9933CC9966CC9999CC99CCCC99FFCCCC00CCCC33CCCC66CCCC99CCCCCCCCCCFFCCFF00CCFF33CCFF66CCFF99CCFFCCCCFFFFFF0000FF0033FF0066FF0099FF00CCFF00FFFF3300FF3333
310
FF3366FF3399FF33CCFF33FFFF6600FF6633FF6666FF6699FF66CCFF66FFFF9900FF9933FF9966FF9999FF99CCFF99FFFFCC00FFCC33FFCC66FFCC99FFCCCCFFCCFFFFFF00FFFF33FFFF66FFFF99FFFFCCFFFFFF0000000D0D0D1A1A1A2828283535354343435050505D5D5D6B6B6B787878868686939393A1A1A1AEAEAEBB
310
BBBBC9C9C9D6D6D6E4E4E4F1F1F1FFFFFF0000000000000000000000000000000000000000000000000000000000002E4550F1000002054944415478DAEDDDB17603210C4451FDFFFF4E9F93264D8A64CD8C40CBDBDA46E2C6062F9E1C5771FDBEF4D6EBDF00EB34016DC31F76F9816AACB5F04800524DC95F4C89FE5300F2
310
17530D0290BF9A4213002001207F39C566100090BF9CEADD007F3E45D52CB002207F3DD52000F90B2A3B0700AC00F257547A124E00F92BAA0601C85F520DB300C0051058777A9632134060EB6DDACD8F00707DAAEC5D4095BD036BBBA9730004CEA11A8FB6D6010247B19DA7BB47001837D5D5319E03389A756EAADD009666
310
BD6B6ACF9D1400D666DD6BCAE7033D04B0356B5E530602B8DF539F0EF50CC0D8ACFD3DD501E06C36409A3D5396BBD900E93080D090390077B399210108025832393FE37D8F161872CC3678C8C700001E02F8F3793B227F8B0722EFBA860725C909DE0EB03F274850D25F4C9909640012A1BEDB01949A410280A0A4BDDCED39
310
4182926D374106007282A700ECC9091294F4576C483AF90012252701245E742D2FE41300084A068292F37382A3001287107D071B270010940C008CCE091294ACDA2670424E701480EB1BB24050726A4E90A064D54E81ED39C15100D6AFC80341C98139C1EB8392FB93927B6372D707250198051048355AC79C19949CF51F23
310
11804939C1DDA9C6C045501200000000000000000000000000000000000000000000000000000000000000000000000000000000000000000080BAEB7787BF0001ED7B4EE5BEDD6F0000000049454E44AE426082
  0
ENDSEC
  0
EOF
