  0
SECTION
  2
BLOCKS
  0
ENDSEC
  0
SECTION
  2
ENTITIES
  0
LINE
  8
0
 10
3.56818
 20
-47.614
 11
5.93709
 21
-47.377
  0
LINE
  8
0
 10
5.93709
 20
-47.377
 11
8.29126
 21
-47.0221
  0
LINE
  8
0
 10
8.29126
 20
-47.0221
 11
10.6248
 21
-46.5504
  0
LINE
  8
0
 10
10.6248
 20
-46.5504
 11
12.932
 21
-45.9629
  0
LINE
  8
0
 10
12.932
 20
-45.9629
 11
15.2069
 21
-45.2612
  0
LINE
  8
0
 10
15.2069
 20
-45.2612
 11
17.4441
 21
-44.4469
  0
LINE
  8
0
 10
17.4441
 20
-44.4469
 11
19.6379
 21
-43.5222
  0
LINE
  8
0
 10
19.6379
 20
-43.5222
 11
21.7829
 21
-42.4892
  0
LINE
  8
0
 10
21.7829
 20
-42.4892
 11
23.8737
 21
-41.3506
  0
LINE
  8
0
 10
23.8737
 20
-41.3506
 11
25.9052
 21
-40.1092
  0
LINE
  8
0
 10
25.9052
 20
-40.1092
 11
27.8723
 21
-38.768
  0
LINE
  8
0
 10
27.8723
 20
-38.768
 11
29.7701
 21
-37.3305
  0
LINE
  8
0
 10
29.7701
 20
-37.3305
 11
31.5939
 21
-35.8002
  0
LINE
  8
0
 10
31.5939
 20
-35.8002
 11
33.3391
 21
-34.1809
  0
LINE
  8
0
 10
33.3391
 20
-34.1809
 11
35.0014
 21
-32.4766
  0
LINE
  8
0
 10
35.0014
 20
-32.4766
 11
36.5767
 21
-30.6915
  0
LINE
  8
0
 10
36.5767
 20
-30.6915
 11
38.0611
 21
-28.8302
  0
LINE
  8
0
 10
38.0611
 20
-28.8302
 11
39.4509
 21
-26.8971
  0
LINE
  8
0
 10
39.4509
 20
-26.8971
 11
40.7425
 21
-24.8972
  0
LINE
  8
0
 10
40.7425
 20
-24.8972
 11
41.9329
 21
-22.8354
  0
LINE
  8
0
 10
41.9329
 20
-22.8354
 11
43.019
 21
-20.7169
  0
LINE
  8
0
 10
43.019
 20
-20.7169
 11
43.9982
 21
-18.5468
  0
LINE
  8
0
 10
43.9982
 20
-18.5468
 11
44.868
 21
-16.3306
  0
LINE
  8
0
 10
44.868
 20
-16.3306
 11
45.6262
 21
-14.0738
  0
LINE
  8
0
 10
45.6262
 20
-14.0738
 11
46.271
 21
-11.782
  0
LINE
  8
0
 10
46.271
 20
-11.782
 11
46.8008
 21
-9.46098
  0
LINE
  8
0
 10
46.8008
 20
-9.46098
 11
47.2142
 21
-7.11639
  0
LINE
  8
0
 10
47.2142
 20
-7.11639
 11
47.5103
 21
-4.7541
  0
LINE
  8
0
 10
47.5103
 20
-4.7541
 11
47.6882
 21
-2.38
  0
LINE
  8
0
 10
47.6882
 20
-2.38
 11
47.7475
 21
0
  0
LINE
  8
0
 10
47.7475
 20
0
 11
47.6882
 21
2.38
  0
LINE
  8
0
 10
47.6882
 20
2.38
 11
47.5103
 21
4.7541
  0
LINE
  8
0
 10
47.5103
 20
4.7541
 11
47.2142
 21
7.11639
  0
LINE
  8
0
 10
47.2142
 20
7.11639
 11
46.8008
 21
9.46098
  0
LINE
  8
0
 10
46.8008
 20
9.46098
 11
46.271
 21
11.782
  0
LINE
  8
0
 10
46.271
 20
11.782
 11
45.6262
 21
14.0738
  0
LINE
  8
0
 10
45.6262
 20
14.0738
 11
44.868
 21
16.3306
  0
LINE
  8
0
 10
44.868
 20
16.3306
 11
43.9982
 21
18.5468
  0
LINE
  8
0
 10
43.9982
 20
18.5468
 11
43.019
 21
20.7169
  0
LINE
  8
0
 10
43.019
 20
20.7169
 11
41.9329
 21
22.8354
  0
LINE
  8
0
 10
41.9329
 20
22.8354
 11
40.7425
 21
24.8972
  0
LINE
  8
0
 10
40.7425
 20
24.8972
 11
39.4509
 21
26.8971
  0
LINE
  8
0
 10
39.4509
 20
26.8971
 11
38.0611
 21
28.8302
  0
LINE
  8
0
 10
38.0611
 20
28.8302
 11
36.5767
 21
30.6915
  0
LINE
  8
0
 10
36.5767
 20
30.6915
 11
35.0014
 21
32.4766
  0
LINE
  8
0
 10
35.0014
 20
32.4766
 11
33.3391
 21
34.1809
  0
LINE
  8
0
 10
33.3391
 20
34.1809
 11
31.5939
 21
35.8002
  0
LINE
  8
0
 10
31.5939
 20
35.8002
 11
29.7701
 21
37.3305
  0
LINE
  8
0
 10
29.7701
 20
37.3305
 11
27.8723
 21
38.768
  0
LINE
  8
0
 10
27.8723
 20
38.768
 11
25.9052
 21
40.1092
  0
LINE
  8
0
 10
25.9052
 20
40.1092
 11
23.8737
 21
41.3506
  0
LINE
  8
0
 10
23.8737
 20
41.3506
 11
21.7829
 21
42.4892
  0
LINE
  8
0
 10
21.7829
 20
42.4892
 11
19.6379
 21
43.5222
  0
LINE
  8
0
 10
19.6379
 20
43.5222
 11
17.4441
 21
44.4469
  0
LINE
  8
0
 10
17.4441
 20
44.4469
 11
15.2069
 21
45.2612
  0
LINE
  8
0
 10
15.2069
 20
45.2612
 11
12.932
 21
45.9629
  0
LINE
  8
0
 10
12.932
 20
45.9629
 11
10.6248
 21
46.5504
  0
LINE
  8
0
 10
10.6248
 20
46.5504
 11
8.29126
 21
47.0221
  0
LINE
  8
0
 10
8.29126
 20
47.0221
 11
5.93709
 21
47.377
  0
LINE
  8
0
 10
5.93709
 20
47.377
 11
3.56818
 21
47.614
  0
LINE
  8
0
 10
3.56818
 20
47.614
 11
1.19037
 21
47.7327
  0
LINE
  8
0
 10
1.19037
 20
47.7327
 11
-1.19037
 21
47.7327
  0
LINE
  8
0
 10
-1.19037
 20
47.7327
 11
-3.56818
 21
47.614
  0
LINE
  8
0
 10
-3.56818
 20
47.614
 11
-5.93709
 21
47.377
  0
LINE
  8
0
 10
-5.93709
 20
47.377
 11
-8.29126
 21
47.0221
  0
LINE
  8
0
 10
-8.29126
 20
47.0221
 11
-10.6248
 21
46.5504
  0
LINE
  8
0
 10
-10.6248
 20
46.5504
 11
-12.932
 21
45.9629
  0
LINE
  8
0
 10
-12.932
 20
45.9629
 11
-15.2069
 21
45.2612
  0
LINE
  8
0
 10
-15.2069
 20
45.2612
 11
-17.4441
 21
44.4469
  0
LINE
  8
0
 10
-17.4441
 20
44.4469
 11
-19.6379
 21
43.5222
  0
LINE
  8
0
 10
-19.6379
 20
43.5222
 11
-21.7829
 21
42.4892
  0
LINE
  8
0
 10
-21.7829
 20
42.4892
 11
-23.8737
 21
41.3506
  0
LINE
  8
0
 10
-23.8737
 20
41.3506
 11
-25.9052
 21
40.1092
  0
LINE
  8
0
 10
-25.9052
 20
40.1092
 11
-27.8723
 21
38.768
  0
LINE
  8
0
 10
-27.8723
 20
38.768
 11
-29.7701
 21
37.3305
  0
LINE
  8
0
 10
-29.7701
 20
37.3305
 11
-31.5939
 21
35.8002
  0
LINE
  8
0
 10
-31.5939
 20
35.8002
 11
-33.3391
 21
34.1809
  0
LINE
  8
0
 10
-33.3391
 20
34.1809
 11
-35.0014
 21
32.4766
  0
LINE
  8
0
 10
-35.0014
 20
32.4766
 11
-36.5767
 21
30.6915
  0
LINE
  8
0
 10
-36.5767
 20
30.6915
 11
-38.0611
 21
28.8302
  0
LINE
  8
0
 10
-38.0611
 20
28.8302
 11
-39.4509
 21
26.8971
  0
LINE
  8
0
 10
-39.4509
 20
26.8971
 11
-40.7425
 21
24.8972
  0
LINE
  8
0
 10
-40.7425
 20
24.8972
 11
-41.9329
 21
22.8354
  0
LINE
  8
0
 10
-41.9329
 20
22.8354
 11
-43.019
 21
20.7169
  0
LINE
  8
0
 10
-43.019
 20
20.7169
 11
-43.9982
 21
18.5468
  0
LINE
  8
0
 10
-43.9982
 20
18.5468
 11
-44.868
 21
16.3306
  0
LINE
  8
0
 10
-44.868
 20
16.3306
 11
-45.6262
 21
14.0738
  0
LINE
  8
0
 10
-45.6262
 20
14.0738
 11
-46.271
 21
11.782
  0
LINE
  8
0
 10
-46.271
 20
11.782
 11
-46.8008
 21
9.46098
  0
LINE
  8
0
 10
-46.8008
 20
9.46098
 11
-47.2142
 21
7.11639
  0
LINE
  8
0
 10
-47.2142
 20
7.11639
 11
-47.5103
 21
4.7541
  0
LINE
  8
0
 10
-47.5103
 20
4.7541
 11
-47.6882
 21
2.38
  0
LINE
  8
0
 10
-47.6882
 20
2.38
 11
-47.7475
 21
0
  0
LINE
  8
0
 10
-47.7475
 20
0
 11
-47.6882
 21
-2.38
  0
LINE
  8
0
 10
-47.6882
 20
-2.38
 11
-47.5103
 21
-4.7541
  0
LINE
  8
0
 10
-47.5103
 20
-4.7541
 11
-47.2142
 21
-7.11639
  0
LINE
  8
0
 10
-47.2142
 20
-7.11639
 11
-46.8008
 21
-9.46098
  0
LINE
  8
0
 10
-46.8008
 20
-9.46098
 11
-46.271
 21
-11.782
  0
LINE
  8
0
 10
-46.271
 20
-11.782
 11
-45.6262
 21
-14.0738
  0
LINE
  8
0
 10
-45.6262
 20
-14.0738
 11
-44.868
 21
-16.3306
  0
LINE
  8
0
 10
-44.868
 20
-16.3306
 11
-43.9982
 21
-18.5468
  0
LINE
  8
0
 10
-43.9982
 20
-18.5468
 11
-43.019
 21
-20.7169
  0
LINE
  8
0
 10
-43.019
 20
-20.7169
 11
-41.9329
 21
-22.8354
  0
LINE
  8
0
 10
-41.9329
 20
-22.8354
 11
-40.7425
 21
-24.8972
  0
LINE
  8
0
 10
-40.7425
 20
-24.8972
 11
-39.4509
 21
-26.8971
  0
LINE
  8
0
 10
-39.4509
 20
-26.8971
 11
-38.0611
 21
-28.8302
  0
LINE
  8
0
 10
-38.0611
 20
-28.8302
 11
-36.5767
 21
-30.6915
  0
LINE
  8
0
 10
-36.5767
 20
-30.6915
 11
-35.0014
 21
-32.4766
  0
LINE
  8
0
 10
-35.0014
 20
-32.4766
 11
-33.3391
 21
-34.1809
  0
LINE
  8
0
 10
-33.3391
 20
-34.1809
 11
-31.5939
 21
-35.8002
  0
LINE
  8
0
 10
-31.5939
 20
-35.8002
 11
-29.7701
 21
-37.3305
  0
LINE
  8
0
 10
-29.7701
 20
-37.3305
 11
-27.8723
 21
-38.768
  0
LINE
  8
0
 10
-27.8723
 20
-38.768
 11
-25.9052
 21
-40.1092
  0
LINE
  8
0
 10
-25.9052
 20
-40.1092
 11
-23.8737
 21
-41.3506
  0
LINE
  8
0
 10
-23.8737
 20
-41.3506
 11
-21.7829
 21
-42.4892
  0
LINE
  8
0
 10
-21.7829
 20
-42.4892
 11
-19.6379
 21
-43.5222
  0
LINE
  8
0
 10
-19.6379
 20
-43.5222
 11
-17.4441
 21
-44.4469
  0
LINE
  8
0
 10
-17.4441
 20
-44.4469
 11
-15.2069
 21
-45.2612
  0
LINE
  8
0
 10
-15.2069
 20
-45.2612
 11
-12.932
 21
-45.9629
  0
LINE
  8
0
 10
-12.932
 20
-45.9629
 11
-10.6248
 21
-46.5504
  0
LINE
  8
0
 10
-10.6248
 20
-46.5504
 11
-8.29126
 21
-47.0221
  0
LINE
  8
0
 10
-8.29126
 20
-47.0221
 11
-5.93709
 21
-47.377
  0
LINE
  8
0
 10
-5.93709
 20
-47.377
 11
-3.56818
 21
-47.614
  0
LINE
  8
0
 10
-3.56818
 20
-47.614
 11
-1.19037
 21
-47.7327
  0
LINE
  8
0
 10
-1.19037
 20
-47.7327
 11
1.19037
 21
-47.7327
  0
LINE
  8
0
 10
1.19037
 20
-47.7327
 11
3.56818
 21
-47.614
  0
LINE
  8
0
 10
-0.0912476
 20
28.0887
 11
-0.273575
 21
28.0978
  0
LINE
  8
0
 10
-0.273575
 20
28.0978
 11
-0.455521
 21
28.116
  0
LINE
  8
0
 10
-0.455521
 20
28.116
 11
-0.635803
 21
28.1431
  0
LINE
  8
0
 10
-0.635803
 20
28.1431
 11
-0.815063
 21
28.1794
  0
LINE
  8
0
 10
-0.815063
 20
28.1794
 11
-0.991837
 21
28.2244
  0
LINE
  8
0
 10
-0.991837
 20
28.2244
 11
-1.16643
 21
28.2782
  0
LINE
  8
0
 10
-1.16643
 20
28.2782
 11
-1.3381
 21
28.3407
  0
LINE
  8
0
 10
-1.3381
 20
28.3407
 11
-1.50623
 21
28.4116
  0
LINE
  8
0
 10
-1.50623
 20
28.4116
 11
-1.67105
 21
28.491
  0
LINE
  8
0
 10
-1.67105
 20
28.491
 11
-1.83121
 21
28.5782
  0
LINE
  8
0
 10
-1.83121
 20
28.5782
 11
-1.98706
 21
28.6734
  0
LINE
  8
0
 10
-1.98706
 20
28.6734
 11
-2.13799
 21
28.7763
  0
LINE
  8
0
 10
-2.13799
 20
28.7763
 11
-2.28339
 21
28.8865
  0
LINE
  8
0
 10
-2.28339
 20
28.8865
 11
-2.42342
 21
29.004
  0
LINE
  8
0
 10
-2.42342
 20
29.004
 11
-2.55728
 21
29.1282
  0
LINE
  8
0
 10
-2.55728
 20
29.1282
 11
-2.68477
 21
29.2589
  0
LINE
  8
0
 10
-2.68477
 20
29.2589
 11
-2.80571
 21
29.3959
  0
LINE
  8
0
 10
-2.80571
 20
29.3959
 11
-2.91943
 21
29.5385
  0
LINE
  8
0
 10
-2.91943
 20
29.5385
 11
-3.02606
 21
29.6868
  0
LINE
  8
0
 10
-3.02606
 20
29.6868
 11
-3.12515
 21
29.8403
  0
LINE
  8
0
 10
-3.12515
 20
29.8403
 11
-3.21642
 21
29.9983
  0
LINE
  8
0
 10
-3.21642
 20
29.9983
 11
-3.2998
 21
30.161
  0
LINE
  8
0
 10
-3.2998
 20
30.161
 11
-3.37486
 21
30.3273
  0
LINE
  8
0
 10
-3.37486
 20
30.3273
 11
-3.44157
 21
30.4973
  0
LINE
  8
0
 10
-3.44157
 20
30.4973
 11
-3.49977
 21
30.6705
  0
LINE
  8
0
 10
-3.49977
 20
30.6705
 11
-3.54918
 21
30.8461
  0
LINE
  8
0
 10
-3.54918
 20
30.8461
 11
-3.58989
 21
31.0245
  0
LINE
  8
0
 10
-3.58989
 20
31.0245
 11
-3.62155
 21
31.204
  0
LINE
  8
0
 10
-3.62155
 20
31.204
 11
-3.64427
 21
31.3855
  0
LINE
  8
0
 10
-3.64427
 20
31.3855
 11
-3.6579
 21
31.5672
  0
LINE
  8
0
 10
-3.6579
 20
31.5672
 11
-3.66246
 21
31.75
  0
LINE
  8
0
 10
-3.66246
 20
31.75
 11
-3.6579
 21
31.9328
  0
LINE
  8
0
 10
-3.6579
 20
31.9328
 11
-3.64427
 21
32.1145
  0
LINE
  8
0
 10
-3.64427
 20
32.1145
 11
-3.62155
 21
32.296
  0
LINE
  8
0
 10
-3.62155
 20
32.296
 11
-3.58989
 21
32.4755
  0
LINE
  8
0
 10
-3.58989
 20
32.4755
 11
-3.54918
 21
32.6539
  0
LINE
  8
0
 10
-3.54918
 20
32.6539
 11
-3.4998
 21
32.8294
  0
LINE
  8
0
 10
-3.4998
 20
32.8294
 11
-3.44154
 21
33.0027
  0
LINE
  8
0
 10
-3.44154
 20
33.0027
 11
-3.37486
 21
33.1727
  0
LINE
  8
0
 10
-3.37486
 20
33.1727
 11
-3.2998
 21
33.339
  0
LINE
  8
0
 10
-3.2998
 20
33.339
 11
-3.21642
 21
33.5017
  0
LINE
  8
0
 10
-3.21642
 20
33.5017
 11
-3.12515
 21
33.6597
  0
LINE
  8
0
 10
-3.12515
 20
33.6597
 11
-3.02606
 21
33.8132
  0
LINE
  8
0
 10
-3.02606
 20
33.8132
 11
-2.91943
 21
33.9615
  0
LINE
  8
0
 10
-2.91943
 20
33.9615
 11
-2.80571
 21
34.1041
  0
LINE
  8
0
 10
-2.80571
 20
34.1041
 11
-2.68477
 21
34.2411
  0
LINE
  8
0
 10
-2.68477
 20
34.2411
 11
-2.55728
 21
34.3718
  0
LINE
  8
0
 10
-2.55728
 20
34.3718
 11
-2.42342
 21
34.496
  0
LINE
  8
0
 10
-2.42342
 20
34.496
 11
-2.28339
 21
34.6135
  0
LINE
  8
0
 10
-2.28339
 20
34.6135
 11
-2.13799
 21
34.7237
  0
LINE
  8
0
 10
-2.13799
 20
34.7237
 11
-1.98706
 21
34.8266
  0
LINE
  8
0
 10
-1.98706
 20
34.8266
 11
-1.83133
 21
34.9217
  0
LINE
  8
0
 10
-1.83133
 20
34.9217
 11
-1.67091
 21
35.0091
  0
LINE
  8
0
 10
-1.67091
 20
35.0091
 11
-1.50623
 21
35.0884
  0
LINE
  8
0
 10
-1.50623
 20
35.0884
 11
-1.3381
 21
35.1593
  0
LINE
  8
0
 10
-1.3381
 20
35.1593
 11
-1.16643
 21
35.2217
  0
LINE
  8
0
 10
-1.16643
 20
35.2217
 11
-0.991837
 21
35.2756
  0
LINE
  8
0
 10
-0.991837
 20
35.2756
 11
-0.815063
 21
35.3206
  0
LINE
  8
0
 10
-0.815063
 20
35.3206
 11
-0.635803
 21
35.3569
  0
LINE
  8
0
 10
-0.635803
 20
35.3569
 11
-0.455521
 21
35.384
  0
LINE
  8
0
 10
-0.455521
 20
35.384
 11
-0.273575
 21
35.4022
  0
LINE
  8
0
 10
-0.273575
 20
35.4022
 11
-0.0912476
 21
35.4113
  0
LINE
  8
0
 10
-0.0912476
 20
35.4113
 11
0.0912476
 21
35.4113
  0
LINE
  8
0
 10
0.0912476
 20
35.4113
 11
0.273575
 21
35.4022
  0
LINE
  8
0
 10
0.273575
 20
35.4022
 11
0.455521
 21
35.384
  0
LINE
  8
0
 10
0.455521
 20
35.384
 11
0.635803
 21
35.3569
  0
LINE
  8
0
 10
0.635803
 20
35.3569
 11
0.815063
 21
35.3206
  0
LINE
  8
0
 10
0.815063
 20
35.3206
 11
0.991837
 21
35.2756
  0
LINE
  8
0
 10
0.991837
 20
35.2756
 11
1.16643
 21
35.2217
  0
LINE
  8
0
 10
1.16643
 20
35.2217
 11
1.3381
 21
35.1593
  0
LINE
  8
0
 10
1.3381
 20
35.1593
 11
1.50623
 21
35.0884
  0
LINE
  8
0
 10
1.50623
 20
35.0884
 11
1.67091
 21
35.0091
  0
LINE
  8
0
 10
1.67091
 20
35.0091
 11
1.83133
 21
34.9217
  0
LINE
  8
0
 10
1.83133
 20
34.9217
 11
1.98706
 21
34.8266
  0
LINE
  8
0
 10
1.98706
 20
34.8266
 11
2.13799
 21
34.7237
  0
LINE
  8
0
 10
2.13799
 20
34.7237
 11
2.28339
 21
34.6135
  0
LINE
  8
0
 10
2.28339
 20
34.6135
 11
2.42342
 21
34.496
  0
LINE
  8
0
 10
2.42342
 20
34.496
 11
2.55728
 21
34.3718
  0
LINE
  8
0
 10
2.55728
 20
34.3718
 11
2.68477
 21
34.2411
  0
LINE
  8
0
 10
2.68477
 20
34.2411
 11
2.80571
 21
34.1041
  0
LINE
  8
0
 10
2.80571
 20
34.1041
 11
2.91943
 21
33.9615
  0
LINE
  8
0
 10
2.91943
 20
33.9615
 11
3.02606
 21
33.8132
  0
LINE
  8
0
 10
3.02606
 20
33.8132
 11
3.12515
 21
33.6597
  0
LINE
  8
0
 10
3.12515
 20
33.6597
 11
3.21642
 21
33.5017
  0
LINE
  8
0
 10
3.21642
 20
33.5017
 11
3.2998
 21
33.339
  0
LINE
  8
0
 10
3.2998
 20
33.339
 11
3.37486
 21
33.1727
  0
LINE
  8
0
 10
3.37486
 20
33.1727
 11
3.44154
 21
33.0027
  0
LINE
  8
0
 10
3.44154
 20
33.0027
 11
3.4998
 21
32.8294
  0
LINE
  8
0
 10
3.4998
 20
32.8294
 11
3.54918
 21
32.6539
  0
LINE
  8
0
 10
3.54918
 20
32.6539
 11
3.58989
 21
32.4755
  0
LINE
  8
0
 10
3.58989
 20
32.4755
 11
3.62155
 21
32.296
  0
LINE
  8
0
 10
3.62155
 20
32.296
 11
3.64427
 21
32.1145
  0
LINE
  8
0
 10
3.64427
 20
32.1145
 11
3.6579
 21
31.9328
  0
LINE
  8
0
 10
3.6579
 20
31.9328
 11
3.66246
 21
31.75
  0
LINE
  8
0
 10
3.66246
 20
31.75
 11
3.6579
 21
31.5672
  0
LINE
  8
0
 10
3.6579
 20
31.5672
 11
3.64427
 21
31.3855
  0
LINE
  8
0
 10
3.64427
 20
31.3855
 11
3.62155
 21
31.204
  0
LINE
  8
0
 10
3.62155
 20
31.204
 11
3.58989
 21
31.0245
  0
LINE
  8
0
 10
3.58989
 20
31.0245
 11
3.54918
 21
30.8461
  0
LINE
  8
0
 10
3.54918
 20
30.8461
 11
3.49977
 21
30.6705
  0
LINE
  8
0
 10
3.49977
 20
30.6705
 11
3.44157
 21
30.4973
  0
LINE
  8
0
 10
3.44157
 20
30.4973
 11
3.37486
 21
30.3273
  0
LINE
  8
0
 10
3.37486
 20
30.3273
 11
3.2998
 21
30.161
  0
LINE
  8
0
 10
3.2998
 20
30.161
 11
3.21642
 21
29.9983
  0
LINE
  8
0
 10
3.21642
 20
29.9983
 11
3.12515
 21
29.8403
  0
LINE
  8
0
 10
3.12515
 20
29.8403
 11
3.02606
 21
29.6868
  0
LINE
  8
0
 10
3.02606
 20
29.6868
 11
2.91943
 21
29.5385
  0
LINE
  8
0
 10
2.91943
 20
29.5385
 11
2.80571
 21
29.3959
  0
LINE
  8
0
 10
2.80571
 20
29.3959
 11
2.68477
 21
29.2589
  0
LINE
  8
0
 10
2.68477
 20
29.2589
 11
2.55728
 21
29.1282
  0
LINE
  8
0
 10
2.55728
 20
29.1282
 11
2.42342
 21
29.004
  0
LINE
  8
0
 10
2.42342
 20
29.004
 11
2.28339
 21
28.8865
  0
LINE
  8
0
 10
2.28339
 20
28.8865
 11
2.13799
 21
28.7763
  0
LINE
  8
0
 10
2.13799
 20
28.7763
 11
1.98706
 21
28.6734
  0
LINE
  8
0
 10
1.98706
 20
28.6734
 11
1.83121
 21
28.5782
  0
LINE
  8
0
 10
1.83121
 20
28.5782
 11
1.67105
 21
28.491
  0
LINE
  8
0
 10
1.67105
 20
28.491
 11
1.50623
 21
28.4116
  0
LINE
  8
0
 10
1.50623
 20
28.4116
 11
1.3381
 21
28.3407
  0
LINE
  8
0
 10
1.3381
 20
28.3407
 11
1.16643
 21
28.2782
  0
LINE
  8
0
 10
1.16643
 20
28.2782
 11
0.991837
 21
28.2244
  0
LINE
  8
0
 10
0.991837
 20
28.2244
 11
0.815063
 21
28.1794
  0
LINE
  8
0
 10
0.815063
 20
28.1794
 11
0.635803
 21
28.1431
  0
LINE
  8
0
 10
0.635803
 20
28.1431
 11
0.455521
 21
28.116
  0
LINE
  8
0
 10
0.455521
 20
28.116
 11
0.273575
 21
28.0978
  0
LINE
  8
0
 10
0.273575
 20
28.0978
 11
0.0912476
 21
28.0887
  0
LINE
  8
0
 10
0.0912476
 20
28.0887
 11
-0.0912476
 21
28.0887
  0
LINE
  8
0
 10
23.0637
 20
21.6868
 11
22.9934
 21
21.6903
  0
LINE
  8
0
 10
22.9934
 20
21.6903
 11
22.923
 21
21.6973
  0
LINE
  8
0
 10
22.923
 20
21.6973
 11
22.8538
 21
21.7077
  0
LINE
  8
0
 10
22.8538
 20
21.7077
 11
22.7843
 21
21.7218
  0
LINE
  8
0
 10
22.7843
 20
21.7218
 11
22.7164
 21
21.7391
  0
LINE
  8
0
 10
22.7164
 20
21.7391
 11
22.649
 21
21.7599
  0
LINE
  8
0
 10
22.649
 20
21.7599
 11
22.5827
 21
21.784
  0
LINE
  8
0
 10
22.5827
 20
21.784
 11
22.5177
 21
21.8114
  0
LINE
  8
0
 10
22.5177
 20
21.8114
 11
22.4545
 21
21.8419
  0
LINE
  8
0
 10
22.4545
 20
21.8419
 11
22.3926
 21
21.8755
  0
LINE
  8
0
 10
22.3926
 20
21.8755
 11
22.3326
 21
21.9122
  0
LINE
  8
0
 10
22.3326
 20
21.9122
 11
22.2741
 21
21.9521
  0
LINE
  8
0
 10
22.2741
 20
21.9521
 11
22.2183
 21
21.9944
  0
LINE
  8
0
 10
22.2183
 20
21.9944
 11
22.1642
 21
22.0398
  0
LINE
  8
0
 10
22.1642
 20
22.0398
 11
22.1125
 21
22.0877
  0
LINE
  8
0
 10
22.1125
 20
22.0877
 11
22.0634
 21
22.1381
  0
LINE
  8
0
 10
22.0634
 20
22.1381
 11
22.0168
 21
22.1908
  0
LINE
  8
0
 10
22.0168
 20
22.1908
 11
21.9727
 21
22.2462
  0
LINE
  8
0
 10
21.9727
 20
22.2462
 11
21.9318
 21
22.3031
  0
LINE
  8
0
 10
21.9318
 20
22.3031
 11
21.8936
 21
22.3623
  0
LINE
  8
0
 10
21.8936
 20
22.3623
 11
21.8584
 21
22.4232
  0
LINE
  8
0
 10
21.8584
 20
22.4232
 11
21.8262
 21
22.486
  0
LINE
  8
0
 10
21.8262
 20
22.486
 11
21.7973
 21
22.5501
  0
LINE
  8
0
 10
21.7973
 20
22.5501
 11
21.7715
 21
22.6157
  0
LINE
  8
0
 10
21.7715
 20
22.6157
 11
21.7491
 21
22.6826
  0
LINE
  8
0
 10
21.7491
 20
22.6826
 11
21.7301
 21
22.75
  0
LINE
  8
0
 10
21.7301
 20
22.75
 11
21.7143
 21
22.8192
  0
LINE
  8
0
 10
21.7143
 20
22.8192
 11
21.7021
 21
22.8882
  0
LINE
  8
0
 10
21.7021
 20
22.8882
 11
21.6933
 21
22.9584
  0
LINE
  8
0
 10
21.6933
 20
22.9584
 11
21.6881
 21
23.0282
  0
LINE
  8
0
 10
21.6881
 20
23.0282
 11
21.6864
 21
23.0988
  0
LINE
  8
0
 10
21.6864
 20
23.0988
 11
21.6881
 21
23.1695
  0
LINE
  8
0
 10
21.6881
 20
23.1695
 11
21.6933
 21
23.2393
  0
LINE
  8
0
 10
21.6933
 20
23.2393
 11
21.7021
 21
23.3095
  0
LINE
  8
0
 10
21.7021
 20
23.3095
 11
21.7143
 21
23.3785
  0
LINE
  8
0
 10
21.7143
 20
23.3785
 11
21.7301
 21
23.4476
  0
LINE
  8
0
 10
21.7301
 20
23.4476
 11
21.7491
 21
23.515
  0
LINE
  8
0
 10
21.7491
 20
23.515
 11
21.7715
 21
23.5819
  0
LINE
  8
0
 10
21.7715
 20
23.5819
 11
21.7972
 21
23.6474
  0
LINE
  8
0
 10
21.7972
 20
23.6474
 11
21.8262
 21
23.7117
  0
LINE
  8
0
 10
21.8262
 20
23.7117
 11
21.8584
 21
23.7744
  0
LINE
  8
0
 10
21.8584
 20
23.7744
 11
21.8936
 21
23.8353
  0
LINE
  8
0
 10
21.8936
 20
23.8353
 11
21.9318
 21
23.8946
  0
LINE
  8
0
 10
21.9318
 20
23.8946
 11
21.9727
 21
23.9515
  0
LINE
  8
0
 10
21.9727
 20
23.9515
 11
22.0168
 21
24.0068
  0
LINE
  8
0
 10
22.0168
 20
24.0068
 11
22.0634
 21
24.0596
  0
LINE
  8
0
 10
22.0634
 20
24.0596
 11
22.1125
 21
24.1099
  0
LINE
  8
0
 10
22.1125
 20
24.1099
 11
22.1642
 21
24.1579
  0
LINE
  8
0
 10
22.1642
 20
24.1579
 11
22.2182
 21
24.2032
  0
LINE
  8
0
 10
22.2182
 20
24.2032
 11
22.2741
 21
24.2455
  0
LINE
  8
0
 10
22.2741
 20
24.2455
 11
22.3326
 21
24.2854
  0
LINE
  8
0
 10
22.3326
 20
24.2854
 11
22.3926
 21
24.3221
  0
LINE
  8
0
 10
22.3926
 20
24.3221
 11
22.4545
 21
24.3558
  0
LINE
  8
0
 10
22.4545
 20
24.3558
 11
22.5177
 21
24.3862
  0
LINE
  8
0
 10
22.5177
 20
24.3862
 11
22.5827
 21
24.4136
  0
LINE
  8
0
 10
22.5827
 20
24.4136
 11
22.649
 21
24.4377
  0
LINE
  8
0
 10
22.649
 20
24.4377
 11
22.7164
 21
24.4585
  0
LINE
  8
0
 10
22.7164
 20
24.4585
 11
22.7843
 21
24.4758
  0
LINE
  8
0
 10
22.7843
 20
24.4758
 11
22.8537
 21
24.4899
  0
LINE
  8
0
 10
22.8537
 20
24.4899
 11
22.9231
 21
24.5003
  0
LINE
  8
0
 10
22.9231
 20
24.5003
 11
22.9934
 21
24.5074
  0
LINE
  8
0
 10
22.9934
 20
24.5074
 11
23.0636
 21
24.5108
  0
LINE
  8
0
 10
23.0636
 20
24.5108
 11
23.134
 21
24.5108
  0
LINE
  8
0
 10
23.134
 20
24.5108
 11
23.2042
 21
24.5074
  0
LINE
  8
0
 10
23.2042
 20
24.5074
 11
23.2746
 21
24.5003
  0
LINE
  8
0
 10
23.2746
 20
24.5003
 11
23.3439
 21
24.4899
  0
LINE
  8
0
 10
23.3439
 20
24.4899
 11
23.4133
 21
24.4758
  0
LINE
  8
0
 10
23.4133
 20
24.4758
 11
23.4814
 21
24.4585
  0
LINE
  8
0
 10
23.4814
 20
24.4585
 11
23.5485
 21
24.4378
  0
LINE
  8
0
 10
23.5485
 20
24.4378
 11
23.615
 21
24.4136
  0
LINE
  8
0
 10
23.615
 20
24.4136
 11
23.6798
 21
24.3863
  0
LINE
  8
0
 10
23.6798
 20
24.3863
 11
23.7431
 21
24.3558
  0
LINE
  8
0
 10
23.7431
 20
24.3558
 11
23.805
 21
24.3221
  0
LINE
  8
0
 10
23.805
 20
24.3221
 11
23.8651
 21
24.2853
  0
LINE
  8
0
 10
23.8651
 20
24.2853
 11
23.9232
 21
24.2457
  0
LINE
  8
0
 10
23.9232
 20
24.2457
 11
23.9795
 21
24.2031
  0
LINE
  8
0
 10
23.9795
 20
24.2031
 11
24.0334
 21
24.1578
  0
LINE
  8
0
 10
24.0334
 20
24.1578
 11
24.0851
 21
24.11
  0
LINE
  8
0
 10
24.0851
 20
24.11
 11
24.1342
 21
24.0596
  0
LINE
  8
0
 10
24.1342
 20
24.0596
 11
24.1808
 21
24.0068
  0
LINE
  8
0
 10
24.1808
 20
24.0068
 11
24.2249
 21
23.9515
  0
LINE
  8
0
 10
24.2249
 20
23.9515
 11
24.2658
 21
23.8946
  0
LINE
  8
0
 10
24.2658
 20
23.8946
 11
24.3041
 21
23.8353
  0
LINE
  8
0
 10
24.3041
 20
23.8353
 11
24.3392
 21
23.7744
  0
LINE
  8
0
 10
24.3392
 20
23.7744
 11
24.3714
 21
23.7117
  0
LINE
  8
0
 10
24.3714
 20
23.7117
 11
24.4005
 21
23.6473
  0
LINE
  8
0
 10
24.4005
 20
23.6473
 11
24.4261
 21
23.5819
  0
LINE
  8
0
 10
24.4261
 20
23.5819
 11
24.4485
 21
23.5152
  0
LINE
  8
0
 10
24.4485
 20
23.5152
 11
24.4676
 21
23.4476
  0
LINE
  8
0
 10
24.4676
 20
23.4476
 11
24.4833
 21
23.3785
  0
LINE
  8
0
 10
24.4833
 20
23.3785
 11
24.4955
 21
23.3094
  0
LINE
  8
0
 10
24.4955
 20
23.3094
 11
24.5043
 21
23.2393
  0
LINE
  8
0
 10
24.5043
 20
23.2393
 11
24.5095
 21
23.1694
  0
LINE
  8
0
 10
24.5095
 20
23.1694
 11
24.5113
 21
23.0988
  0
LINE
  8
0
 10
24.5113
 20
23.0988
 11
24.5095
 21
23.0282
  0
LINE
  8
0
 10
24.5095
 20
23.0282
 11
24.5043
 21
22.9583
  0
LINE
  8
0
 10
24.5043
 20
22.9583
 11
24.4955
 21
22.8882
  0
LINE
  8
0
 10
24.4955
 20
22.8882
 11
24.4833
 21
22.8192
  0
LINE
  8
0
 10
24.4833
 20
22.8192
 11
24.4675
 21
22.75
  0
LINE
  8
0
 10
24.4675
 20
22.75
 11
24.4485
 21
22.6824
  0
LINE
  8
0
 10
24.4485
 20
22.6824
 11
24.4261
 21
22.6158
  0
LINE
  8
0
 10
24.4261
 20
22.6158
 11
24.4004
 21
22.5502
  0
LINE
  8
0
 10
24.4004
 20
22.5502
 11
24.3714
 21
22.486
  0
LINE
  8
0
 10
24.3714
 20
22.486
 11
24.3392
 21
22.4232
  0
LINE
  8
0
 10
24.3392
 20
22.4232
 11
24.3041
 21
22.3623
  0
LINE
  8
0
 10
24.3041
 20
22.3623
 11
24.2658
 21
22.3031
  0
LINE
  8
0
 10
24.2658
 20
22.3031
 11
24.2249
 21
22.2462
  0
LINE
  8
0
 10
24.2249
 20
22.2462
 11
24.1808
 21
22.1908
  0
LINE
  8
0
 10
24.1808
 20
22.1908
 11
24.1342
 21
22.1381
  0
LINE
  8
0
 10
24.1342
 20
22.1381
 11
24.0851
 21
22.0877
  0
LINE
  8
0
 10
24.0851
 20
22.0877
 11
24.0333
 21
22.0397
  0
LINE
  8
0
 10
24.0333
 20
22.0397
 11
23.9797
 21
21.9946
  0
LINE
  8
0
 10
23.9797
 20
21.9946
 11
23.9232
 21
21.9519
  0
LINE
  8
0
 10
23.9232
 20
21.9519
 11
23.8651
 21
21.9123
  0
LINE
  8
0
 10
23.8651
 20
21.9123
 11
23.805
 21
21.8755
  0
LINE
  8
0
 10
23.805
 20
21.8755
 11
23.7431
 21
21.8419
  0
LINE
  8
0
 10
23.7431
 20
21.8419
 11
23.6798
 21
21.8114
  0
LINE
  8
0
 10
23.6798
 20
21.8114
 11
23.615
 21
21.784
  0
LINE
  8
0
 10
23.615
 20
21.784
 11
23.5485
 21
21.7598
  0
LINE
  8
0
 10
23.5485
 20
21.7598
 11
23.4814
 21
21.7391
  0
LINE
  8
0
 10
23.4814
 20
21.7391
 11
23.4133
 21
21.7218
  0
LINE
  8
0
 10
23.4133
 20
21.7218
 11
23.3438
 21
21.7077
  0
LINE
  8
0
 10
23.3438
 20
21.7077
 11
23.2746
 21
21.6973
  0
LINE
  8
0
 10
23.2746
 20
21.6973
 11
23.2043
 21
21.6903
  0
LINE
  8
0
 10
23.2043
 20
21.6903
 11
23.134
 21
21.6868
  0
LINE
  8
0
 10
23.134
 20
21.6868
 11
23.0637
 21
21.6868
  0
LINE
  8
0
 10
30.6552
 20
9.51068
 11
30.5725
 21
9.51483
  0
LINE
  8
0
 10
30.5725
 20
9.51483
 11
30.4897
 21
9.5231
  0
LINE
  8
0
 10
30.4897
 20
9.5231
 11
30.4081
 21
9.5354
  0
LINE
  8
0
 10
30.4081
 20
9.5354
 11
30.3266
 21
9.55188
  0
LINE
  8
0
 10
30.3266
 20
9.55188
 11
30.2463
 21
9.57233
  0
LINE
  8
0
 10
30.2463
 20
9.57233
 11
30.1673
 21
9.59668
  0
LINE
  8
0
 10
30.1673
 20
9.59668
 11
30.0891
 21
9.62517
  0
LINE
  8
0
 10
30.0891
 20
9.62517
 11
30.0131
 21
9.65721
  0
LINE
  8
0
 10
30.0131
 20
9.65721
 11
29.9381
 21
9.6933
  0
LINE
  8
0
 10
29.9381
 20
9.6933
 11
29.8653
 21
9.73296
  0
LINE
  8
0
 10
29.8653
 20
9.73296
 11
29.7946
 21
9.77614
  0
LINE
  8
0
 10
29.7946
 20
9.77614
 11
29.7263
 21
9.82275
  0
LINE
  8
0
 10
29.7263
 20
9.82275
 11
29.6601
 21
9.87289
  0
LINE
  8
0
 10
29.6601
 20
9.87289
 11
29.5965
 21
9.92619
  0
LINE
  8
0
 10
29.5965
 20
9.92619
 11
29.5358
 21
9.98254
  0
LINE
  8
0
 10
29.5358
 20
9.98254
 11
29.478
 21
10.0419
  0
LINE
  8
0
 10
29.478
 20
10.0419
 11
29.4231
 21
10.104
  0
LINE
  8
0
 10
29.4231
 20
10.104
 11
29.3713
 21
10.1689
  0
LINE
  8
0
 10
29.3713
 20
10.1689
 11
29.3231
 21
10.236
  0
LINE
  8
0
 10
29.3231
 20
10.236
 11
29.2779
 21
10.3059
  0
LINE
  8
0
 10
29.2779
 20
10.3059
 11
29.2366
 21
10.3775
  0
LINE
  8
0
 10
29.2366
 20
10.3775
 11
29.1988
 21
10.4513
  0
LINE
  8
0
 10
29.1988
 20
10.4513
 11
29.1647
 21
10.527
  0
LINE
  8
0
 10
29.1647
 20
10.527
 11
29.1344
 21
10.604
  0
LINE
  8
0
 10
29.1344
 20
10.604
 11
29.108
 21
10.6827
  0
LINE
  8
0
 10
29.108
 20
10.6827
 11
29.0856
 21
10.7623
  0
LINE
  8
0
 10
29.0856
 20
10.7623
 11
29.0671
 21
10.8434
  0
LINE
  8
0
 10
29.0671
 20
10.8434
 11
29.0527
 21
10.9248
  0
LINE
  8
0
 10
29.0527
 20
10.9248
 11
29.0424
 21
11.0073
  0
LINE
  8
0
 10
29.0424
 20
11.0073
 11
29.0362
 21
11.0896
  0
LINE
  8
0
 10
29.0362
 20
11.0896
 11
29.0342
 21
11.1727
  0
LINE
  8
0
 10
29.0342
 20
11.1727
 11
29.0362
 21
11.2557
  0
LINE
  8
0
 10
29.0362
 20
11.2557
 11
29.0424
 21
11.338
  0
LINE
  8
0
 10
29.0424
 20
11.338
 11
29.0527
 21
11.4205
  0
LINE
  8
0
 10
29.0527
 20
11.4205
 11
29.0671
 21
11.5019
  0
LINE
  8
0
 10
29.0671
 20
11.5019
 11
29.0856
 21
11.583
  0
LINE
  8
0
 10
29.0856
 20
11.583
 11
29.108
 21
11.6626
  0
LINE
  8
0
 10
29.108
 20
11.6626
 11
29.1344
 21
11.7413
  0
LINE
  8
0
 10
29.1344
 20
11.7413
 11
29.1647
 21
11.8183
  0
LINE
  8
0
 10
29.1647
 20
11.8183
 11
29.1988
 21
11.894
  0
LINE
  8
0
 10
29.1988
 20
11.894
 11
29.2366
 21
11.9678
  0
LINE
  8
0
 10
29.2366
 20
11.9678
 11
29.278
 21
12.0395
  0
LINE
  8
0
 10
29.278
 20
12.0395
 11
29.323
 21
12.1092
  0
LINE
  8
0
 10
29.323
 20
12.1092
 11
29.3713
 21
12.1764
  0
LINE
  8
0
 10
29.3713
 20
12.1764
 11
29.4231
 21
12.2413
  0
LINE
  8
0
 10
29.4231
 20
12.2413
 11
29.478
 21
12.3034
  0
LINE
  8
0
 10
29.478
 20
12.3034
 11
29.5358
 21
12.3628
  0
LINE
  8
0
 10
29.5358
 20
12.3628
 11
29.5965
 21
12.4191
  0
LINE
  8
0
 10
29.5965
 20
12.4191
 11
29.6602
 21
12.4725
  0
LINE
  8
0
 10
29.6602
 20
12.4725
 11
29.726
 21
12.5223
  0
LINE
  8
0
 10
29.726
 20
12.5223
 11
29.7948
 21
12.5693
  0
LINE
  8
0
 10
29.7948
 20
12.5693
 11
29.8654
 21
12.6124
  0
LINE
  8
0
 10
29.8654
 20
12.6124
 11
29.9381
 21
12.652
  0
LINE
  8
0
 10
29.9381
 20
12.652
 11
30.0129
 21
12.688
  0
LINE
  8
0
 10
30.0129
 20
12.688
 11
30.0891
 21
12.7201
  0
LINE
  8
0
 10
30.0891
 20
12.7201
 11
30.1671
 21
12.7486
  0
LINE
  8
0
 10
30.1671
 20
12.7486
 11
30.2464
 21
12.773
  0
LINE
  8
0
 10
30.2464
 20
12.773
 11
30.3266
 21
12.7934
  0
LINE
  8
0
 10
30.3266
 20
12.7934
 11
30.4081
 21
12.8099
  0
LINE
  8
0
 10
30.4081
 20
12.8099
 11
30.4898
 21
12.8222
  0
LINE
  8
0
 10
30.4898
 20
12.8222
 11
30.5725
 21
12.8305
  0
LINE
  8
0
 10
30.5725
 20
12.8305
 11
30.6552
 21
12.8346
  0
LINE
  8
0
 10
30.6552
 20
12.8346
 11
30.738
 21
12.8346
  0
LINE
  8
0
 10
30.738
 20
12.8346
 11
30.8207
 21
12.8305
  0
LINE
  8
0
 10
30.8207
 20
12.8305
 11
30.9034
 21
12.8222
  0
LINE
  8
0
 10
30.9034
 20
12.8222
 11
30.9851
 21
12.8099
  0
LINE
  8
0
 10
30.9851
 20
12.8099
 11
31.0667
 21
12.7934
  0
LINE
  8
0
 10
31.0667
 20
12.7934
 11
31.1468
 21
12.773
  0
LINE
  8
0
 10
31.1468
 20
12.773
 11
31.2261
 21
12.7486
  0
LINE
  8
0
 10
31.2261
 20
12.7486
 11
31.3042
 21
12.7201
  0
LINE
  8
0
 10
31.3042
 20
12.7201
 11
31.3804
 21
12.688
  0
LINE
  8
0
 10
31.3804
 20
12.688
 11
31.455
 21
12.6521
  0
LINE
  8
0
 10
31.455
 20
12.6521
 11
31.5278
 21
12.6124
  0
LINE
  8
0
 10
31.5278
 20
12.6124
 11
31.5984
 21
12.5693
  0
LINE
  8
0
 10
31.5984
 20
12.5693
 11
31.6673
 21
12.5223
  0
LINE
  8
0
 10
31.6673
 20
12.5223
 11
31.733
 21
12.4725
  0
LINE
  8
0
 10
31.733
 20
12.4725
 11
31.7967
 21
12.4191
  0
LINE
  8
0
 10
31.7967
 20
12.4191
 11
31.8574
 21
12.3628
  0
LINE
  8
0
 10
31.8574
 20
12.3628
 11
31.9153
 21
12.3034
  0
LINE
  8
0
 10
31.9153
 20
12.3034
 11
31.9701
 21
12.2413
  0
LINE
  8
0
 10
31.9701
 20
12.2413
 11
32.0219
 21
12.1763
  0
LINE
  8
0
 10
32.0219
 20
12.1763
 11
32.0702
 21
12.1092
  0
LINE
  8
0
 10
32.0702
 20
12.1092
 11
32.1152
 21
12.0395
  0
LINE
  8
0
 10
32.1152
 20
12.0395
 11
32.1566
 21
11.9678
  0
LINE
  8
0
 10
32.1566
 20
11.9678
 11
32.1944
 21
11.894
  0
LINE
  8
0
 10
32.1944
 20
11.894
 11
32.2286
 21
11.8183
  0
LINE
  8
0
 10
32.2286
 20
11.8183
 11
32.2588
 21
11.7413
  0
LINE
  8
0
 10
32.2588
 20
11.7413
 11
32.2852
 21
11.6626
  0
LINE
  8
0
 10
32.2852
 20
11.6626
 11
32.3076
 21
11.5831
  0
LINE
  8
0
 10
32.3076
 20
11.5831
 11
32.3262
 21
11.5018
  0
LINE
  8
0
 10
32.3262
 20
11.5018
 11
32.3405
 21
11.4205
  0
LINE
  8
0
 10
32.3405
 20
11.4205
 11
32.3508
 21
11.338
  0
LINE
  8
0
 10
32.3508
 20
11.338
 11
32.357
 21
11.2558
  0
LINE
  8
0
 10
32.357
 20
11.2558
 11
32.3591
 21
11.1727
  0
LINE
  8
0
 10
32.3591
 20
11.1727
 11
32.357
 21
11.0895
  0
LINE
  8
0
 10
32.357
 20
11.0895
 11
32.3508
 21
11.0073
  0
LINE
  8
0
 10
32.3508
 20
11.0073
 11
32.3405
 21
10.9248
  0
LINE
  8
0
 10
32.3405
 20
10.9248
 11
32.3262
 21
10.8435
  0
LINE
  8
0
 10
32.3262
 20
10.8435
 11
32.3076
 21
10.7622
  0
LINE
  8
0
 10
32.3076
 20
10.7622
 11
32.2852
 21
10.6827
  0
LINE
  8
0
 10
32.2852
 20
10.6827
 11
32.2588
 21
10.604
  0
LINE
  8
0
 10
32.2588
 20
10.604
 11
32.2286
 21
10.527
  0
LINE
  8
0
 10
32.2286
 20
10.527
 11
32.1944
 21
10.4513
  0
LINE
  8
0
 10
32.1944
 20
10.4513
 11
32.1566
 21
10.3775
  0
LINE
  8
0
 10
32.1566
 20
10.3775
 11
32.1153
 21
10.3059
  0
LINE
  8
0
 10
32.1153
 20
10.3059
 11
32.0701
 21
10.236
  0
LINE
  8
0
 10
32.0701
 20
10.236
 11
32.0219
 21
10.169
  0
LINE
  8
0
 10
32.0219
 20
10.169
 11
31.9701
 21
10.104
  0
LINE
  8
0
 10
31.9701
 20
10.104
 11
31.9153
 21
10.0419
  0
LINE
  8
0
 10
31.9153
 20
10.0419
 11
31.8574
 21
9.98254
  0
LINE
  8
0
 10
31.8574
 20
9.98254
 11
31.7967
 21
9.92619
  0
LINE
  8
0
 10
31.7967
 20
9.92619
 11
31.7332
 21
9.87289
  0
LINE
  8
0
 10
31.7332
 20
9.87289
 11
31.667
 21
9.82275
  0
LINE
  8
0
 10
31.667
 20
9.82275
 11
31.5986
 21
9.77612
  0
LINE
  8
0
 10
31.5986
 20
9.77612
 11
31.5279
 21
9.73296
  0
LINE
  8
0
 10
31.5279
 20
9.73296
 11
31.4551
 21
9.6933
  0
LINE
  8
0
 10
31.4551
 20
9.6933
 11
31.3802
 21
9.65721
  0
LINE
  8
0
 10
31.3802
 20
9.65721
 11
31.3042
 21
9.62517
  0
LINE
  8
0
 10
31.3042
 20
9.62517
 11
31.2259
 21
9.59668
  0
LINE
  8
0
 10
31.2259
 20
9.59668
 11
31.147
 21
9.57233
  0
LINE
  8
0
 10
31.147
 20
9.57233
 11
31.0667
 21
9.55188
  0
LINE
  8
0
 10
31.0667
 20
9.55188
 11
30.9851
 21
9.5354
  0
LINE
  8
0
 10
30.9851
 20
9.5354
 11
30.9035
 21
9.5231
  0
LINE
  8
0
 10
30.9035
 20
9.5231
 11
30.8208
 21
9.51483
  0
LINE
  8
0
 10
30.8208
 20
9.51483
 11
30.738
 21
9.51068
  0
LINE
  8
0
 10
30.738
 20
9.51068
 11
30.6552
 21
9.51068
  0
LINE
  8
0
 10
17.4087
 20
-3.66133
 11
17.2264
 21
-3.65222
  0
LINE
  8
0
 10
17.2264
 20
-3.65222
 11
17.0445
 21
-3.63402
  0
LINE
  8
0
 10
17.0445
 20
-3.63402
 11
16.8642
 21
-3.60686
  0
LINE
  8
0
 10
16.8642
 20
-3.60686
 11
16.6849
 21
-3.57062
  0
LINE
  8
0
 10
16.6849
 20
-3.57062
 11
16.5081
 21
-3.5256
  0
LINE
  8
0
 10
16.5081
 20
-3.5256
 11
16.3336
 21
-3.47174
  0
LINE
  8
0
 10
16.3336
 20
-3.47174
 11
16.1619
 21
-3.40927
  0
LINE
  8
0
 10
16.1619
 20
-3.40927
 11
15.9938
 21
-3.33839
  0
LINE
  8
0
 10
15.9938
 20
-3.33839
 11
15.8289
 21
-3.25902
  0
LINE
  8
0
 10
15.8289
 20
-3.25902
 11
15.6688
 21
-3.17181
  0
LINE
  8
0
 10
15.6688
 20
-3.17181
 11
15.5129
 21
-3.07657
  0
LINE
  8
0
 10
15.5129
 20
-3.07657
 11
15.362
 21
-2.97366
  0
LINE
  8
0
 10
15.362
 20
-2.97366
 11
15.2166
 21
-2.86351
  0
LINE
  8
0
 10
15.2166
 20
-2.86351
 11
15.0766
 21
-2.74602
  0
LINE
  8
0
 10
15.0766
 20
-2.74602
 11
14.9427
 21
-2.62183
  0
LINE
  8
0
 10
14.9427
 20
-2.62183
 11
14.8152
 21
-2.49112
  0
LINE
  8
0
 10
14.8152
 20
-2.49112
 11
14.6943
 21
-2.35408
  0
LINE
  8
0
 10
14.6943
 20
-2.35408
 11
14.5806
 21
-2.21147
  0
LINE
  8
0
 10
14.5806
 20
-2.21147
 11
14.4739
 21
-2.06316
  0
LINE
  8
0
 10
14.4739
 20
-2.06316
 11
14.3748
 21
-1.90971
  0
LINE
  8
0
 10
14.3748
 20
-1.90971
 11
14.2836
 21
-1.75165
  0
LINE
  8
0
 10
14.2836
 20
-1.75165
 11
14.2002
 21
-1.58904
  0
LINE
  8
0
 10
14.2002
 20
-1.58904
 11
14.1251
 21
-1.42267
  0
LINE
  8
0
 10
14.1251
 20
-1.42267
 11
14.0584
 21
-1.25275
  0
LINE
  8
0
 10
14.0584
 20
-1.25275
 11
14.0002
 21
-1.07938
  0
LINE
  8
0
 10
14.0002
 20
-1.07938
 11
13.9508
 21
-0.90387
  0
LINE
  8
0
 10
13.9508
 20
-0.90387
 11
13.9101
 21
-0.725525
  0
LINE
  8
0
 10
13.9101
 20
-0.725525
 11
13.8784
 21
-0.545959
  0
LINE
  8
0
 10
13.8784
 20
-0.545959
 11
13.8557
 21
-0.364517
  0
LINE
  8
0
 10
13.8557
 20
-0.364517
 11
13.8421
 21
-0.18277
  0
LINE
  8
0
 10
13.8421
 20
-0.18277
 11
13.8375
 21
0
  0
LINE
  8
0
 10
13.8375
 20
0
 11
13.8421
 21
0.18277
  0
LINE
  8
0
 10
13.8421
 20
0.18277
 11
13.8557
 21
0.364517
  0
LINE
  8
0
 10
13.8557
 20
0.364517
 11
13.8784
 21
0.545959
  0
LINE
  8
0
 10
13.8784
 20
0.545959
 11
13.9101
 21
0.725525
  0
LINE
  8
0
 10
13.9101
 20
0.725525
 11
13.9508
 21
0.90387
  0
LINE
  8
0
 10
13.9508
 20
0.90387
 11
14.0002
 21
1.07938
  0
LINE
  8
0
 10
14.0002
 20
1.07938
 11
14.0584
 21
1.25275
  0
LINE
  8
0
 10
14.0584
 20
1.25275
 11
14.1251
 21
1.42267
  0
LINE
  8
0
 10
14.1251
 20
1.42267
 11
14.2002
 21
1.58904
  0
LINE
  8
0
 10
14.2002
 20
1.58904
 11
14.2836
 21
1.75165
  0
LINE
  8
0
 10
14.2836
 20
1.75165
 11
14.3748
 21
1.90971
  0
LINE
  8
0
 10
14.3748
 20
1.90971
 11
14.4739
 21
2.06316
  0
LINE
  8
0
 10
14.4739
 20
2.06316
 11
14.5806
 21
2.21147
  0
LINE
  8
0
 10
14.5806
 20
2.21147
 11
14.6943
 21
2.35408
  0
LINE
  8
0
 10
14.6943
 20
2.35408
 11
14.8152
 21
2.49112
  0
LINE
  8
0
 10
14.8152
 20
2.49112
 11
14.9427
 21
2.62183
  0
LINE
  8
0
 10
14.9427
 20
2.62183
 11
15.0766
 21
2.74602
  0
LINE
  8
0
 10
15.0766
 20
2.74602
 11
15.2166
 21
2.86351
  0
LINE
  8
0
 10
15.2166
 20
2.86351
 11
15.362
 21
2.97366
  0
LINE
  8
0
 10
15.362
 20
2.97366
 11
15.5129
 21
3.07657
  0
LINE
  8
0
 10
15.5129
 20
3.07657
 11
15.6688
 21
3.17181
  0
LINE
  8
0
 10
15.6688
 20
3.17181
 11
15.8289
 21
3.25902
  0
LINE
  8
0
 10
15.8289
 20
3.25902
 11
15.9938
 21
3.33839
  0
LINE
  8
0
 10
15.9938
 20
3.33839
 11
16.1619
 21
3.40927
  0
LINE
  8
0
 10
16.1619
 20
3.40927
 11
16.3336
 21
3.47174
  0
LINE
  8
0
 10
16.3336
 20
3.47174
 11
16.5081
 21
3.5256
  0
LINE
  8
0
 10
16.5081
 20
3.5256
 11
16.6849
 21
3.57062
  0
LINE
  8
0
 10
16.6849
 20
3.57062
 11
16.8642
 21
3.60686
  0
LINE
  8
0
 10
16.8642
 20
3.60686
 11
17.0445
 21
3.63402
  0
LINE
  8
0
 10
17.0445
 20
3.63402
 11
17.2264
 21
3.65222
  0
LINE
  8
0
 10
17.2264
 20
3.65222
 11
17.4087
 21
3.66133
  0
LINE
  8
0
 10
17.4087
 20
3.66133
 11
17.5913
 21
3.66133
  0
LINE
  8
0
 10
17.5913
 20
3.66133
 11
17.7736
 21
3.65222
  0
LINE
  8
0
 10
17.7736
 20
3.65222
 11
17.9555
 21
3.63402
  0
LINE
  8
0
 10
17.9555
 20
3.63402
 11
18.1358
 21
3.60686
  0
LINE
  8
0
 10
18.1358
 20
3.60686
 11
18.3151
 21
3.57062
  0
LINE
  8
0
 10
18.3151
 20
3.57062
 11
18.4918
 21
3.5256
  0
LINE
  8
0
 10
18.4918
 20
3.5256
 11
18.6664
 21
3.47174
  0
LINE
  8
0
 10
18.6664
 20
3.47174
 11
18.8381
 21
3.40927
  0
LINE
  8
0
 10
18.8381
 20
3.40927
 11
19.0062
 21
3.33839
  0
LINE
  8
0
 10
19.0062
 20
3.33839
 11
19.1711
 21
3.25902
  0
LINE
  8
0
 10
19.1711
 20
3.25902
 11
19.3312
 21
3.17181
  0
LINE
  8
0
 10
19.3312
 20
3.17181
 11
19.4871
 21
3.07657
  0
LINE
  8
0
 10
19.4871
 20
3.07657
 11
19.638
 21
2.97366
  0
LINE
  8
0
 10
19.638
 20
2.97366
 11
19.7834
 21
2.86351
  0
LINE
  8
0
 10
19.7834
 20
2.86351
 11
19.9234
 21
2.74602
  0
LINE
  8
0
 10
19.9234
 20
2.74602
 11
20.0573
 21
2.62183
  0
LINE
  8
0
 10
20.0573
 20
2.62183
 11
20.1848
 21
2.49112
  0
LINE
  8
0
 10
20.1848
 20
2.49112
 11
20.3057
 21
2.35408
  0
LINE
  8
0
 10
20.3057
 20
2.35408
 11
20.4194
 21
2.21147
  0
LINE
  8
0
 10
20.4194
 20
2.21147
 11
20.5261
 21
2.06316
  0
LINE
  8
0
 10
20.5261
 20
2.06316
 11
20.6252
 21
1.90971
  0
LINE
  8
0
 10
20.6252
 20
1.90971
 11
20.7164
 21
1.75165
  0
LINE
  8
0
 10
20.7164
 20
1.75165
 11
20.7998
 21
1.58902
  0
LINE
  8
0
 10
20.7998
 20
1.58902
 11
20.8749
 21
1.42267
  0
LINE
  8
0
 10
20.8749
 20
1.42267
 11
20.9415
 21
1.25275
  0
LINE
  8
0
 10
20.9415
 20
1.25275
 11
20.9998
 21
1.07938
  0
LINE
  8
0
 10
20.9998
 20
1.07938
 11
21.0492
 21
0.90387
  0
LINE
  8
0
 10
21.0492
 20
0.90387
 11
21.0899
 21
0.725525
  0
LINE
  8
0
 10
21.0899
 20
0.725525
 11
21.1216
 21
0.545959
  0
LINE
  8
0
 10
21.1216
 20
0.545959
 11
21.1443
 21
0.364517
  0
LINE
  8
0
 10
21.1443
 20
0.364517
 11
21.1579
 21
0.18277
  0
LINE
  8
0
 10
21.1579
 20
0.18277
 11
21.1625
 21
0
  0
LINE
  8
0
 10
21.1625
 20
0
 11
21.1579
 21
-0.18277
  0
LINE
  8
0
 10
21.1579
 20
-0.18277
 11
21.1443
 21
-0.364517
  0
LINE
  8
0
 10
21.1443
 20
-0.364517
 11
21.1216
 21
-0.545959
  0
LINE
  8
0
 10
21.1216
 20
-0.545959
 11
21.0899
 21
-0.725525
  0
LINE
  8
0
 10
21.0899
 20
-0.725525
 11
21.0492
 21
-0.90387
  0
LINE
  8
0
 10
21.0492
 20
-0.90387
 11
20.9998
 21
-1.07938
  0
LINE
  8
0
 10
20.9998
 20
-1.07938
 11
20.9415
 21
-1.25275
  0
LINE
  8
0
 10
20.9415
 20
-1.25275
 11
20.8749
 21
-1.42267
  0
LINE
  8
0
 10
20.8749
 20
-1.42267
 11
20.7998
 21
-1.58902
  0
LINE
  8
0
 10
20.7998
 20
-1.58902
 11
20.7164
 21
-1.75165
  0
LINE
  8
0
 10
20.7164
 20
-1.75165
 11
20.6252
 21
-1.90971
  0
LINE
  8
0
 10
20.6252
 20
-1.90971
 11
20.5261
 21
-2.06316
  0
LINE
  8
0
 10
20.5261
 20
-2.06316
 11
20.4194
 21
-2.21147
  0
LINE
  8
0
 10
20.4194
 20
-2.21147
 11
20.3057
 21
-2.35408
  0
LINE
  8
0
 10
20.3057
 20
-2.35408
 11
20.1848
 21
-2.49112
  0
LINE
  8
0
 10
20.1848
 20
-2.49112
 11
20.0573
 21
-2.62183
  0
LINE
  8
0
 10
20.0573
 20
-2.62183
 11
19.9234
 21
-2.74602
  0
LINE
  8
0
 10
19.9234
 20
-2.74602
 11
19.7834
 21
-2.86351
  0
LINE
  8
0
 10
19.7834
 20
-2.86351
 11
19.638
 21
-2.97366
  0
LINE
  8
0
 10
19.638
 20
-2.97366
 11
19.4871
 21
-3.07657
  0
LINE
  8
0
 10
19.4871
 20
-3.07657
 11
19.3312
 21
-3.17181
  0
LINE
  8
0
 10
19.3312
 20
-3.17181
 11
19.1711
 21
-3.25902
  0
LINE
  8
0
 10
19.1711
 20
-3.25902
 11
19.0062
 21
-3.33839
  0
LINE
  8
0
 10
19.0062
 20
-3.33839
 11
18.8381
 21
-3.40927
  0
LINE
  8
0
 10
18.8381
 20
-3.40927
 11
18.6664
 21
-3.47174
  0
LINE
  8
0
 10
18.6664
 20
-3.47174
 11
18.4918
 21
-3.5256
  0
LINE
  8
0
 10
18.4918
 20
-3.5256
 11
18.3151
 21
-3.57062
  0
LINE
  8
0
 10
18.3151
 20
-3.57062
 11
18.1358
 21
-3.60686
  0
LINE
  8
0
 10
18.1358
 20
-3.60686
 11
17.9555
 21
-3.63402
  0
LINE
  8
0
 10
17.9555
 20
-3.63402
 11
17.7736
 21
-3.65222
  0
LINE
  8
0
 10
17.7736
 20
-3.65222
 11
17.5913
 21
-3.66133
  0
LINE
  8
0
 10
17.5913
 20
-3.66133
 11
17.4087
 21
-3.66133
  0
LINE
  8
0
 10
-17.5913
 20
-3.66133
 11
-17.7736
 21
-3.65222
  0
LINE
  8
0
 10
-17.7736
 20
-3.65222
 11
-17.9555
 21
-3.63402
  0
LINE
  8
0
 10
-17.9555
 20
-3.63402
 11
-18.1358
 21
-3.60686
  0
LINE
  8
0
 10
-18.1358
 20
-3.60686
 11
-18.3151
 21
-3.57062
  0
LINE
  8
0
 10
-18.3151
 20
-3.57062
 11
-18.4918
 21
-3.5256
  0
LINE
  8
0
 10
-18.4918
 20
-3.5256
 11
-18.6664
 21
-3.47174
  0
LINE
  8
0
 10
-18.6664
 20
-3.47174
 11
-18.8381
 21
-3.40927
  0
LINE
  8
0
 10
-18.8381
 20
-3.40927
 11
-19.0062
 21
-3.33839
  0
LINE
  8
0
 10
-19.0062
 20
-3.33839
 11
-19.1711
 21
-3.25902
  0
LINE
  8
0
 10
-19.1711
 20
-3.25902
 11
-19.3312
 21
-3.17181
  0
LINE
  8
0
 10
-19.3312
 20
-3.17181
 11
-19.4871
 21
-3.07657
  0
LINE
  8
0
 10
-19.4871
 20
-3.07657
 11
-19.638
 21
-2.97366
  0
LINE
  8
0
 10
-19.638
 20
-2.97366
 11
-19.7834
 21
-2.86351
  0
LINE
  8
0
 10
-19.7834
 20
-2.86351
 11
-19.9234
 21
-2.74602
  0
LINE
  8
0
 10
-19.9234
 20
-2.74602
 11
-20.0573
 21
-2.62183
  0
LINE
  8
0
 10
-20.0573
 20
-2.62183
 11
-20.1848
 21
-2.49112
  0
LINE
  8
0
 10
-20.1848
 20
-2.49112
 11
-20.3057
 21
-2.35408
  0
LINE
  8
0
 10
-20.3057
 20
-2.35408
 11
-20.4194
 21
-2.21147
  0
LINE
  8
0
 10
-20.4194
 20
-2.21147
 11
-20.5261
 21
-2.06316
  0
LINE
  8
0
 10
-20.5261
 20
-2.06316
 11
-20.6252
 21
-1.90971
  0
LINE
  8
0
 10
-20.6252
 20
-1.90971
 11
-20.7164
 21
-1.75165
  0
LINE
  8
0
 10
-20.7164
 20
-1.75165
 11
-20.7998
 21
-1.58902
  0
LINE
  8
0
 10
-20.7998
 20
-1.58902
 11
-20.8749
 21
-1.42267
  0
LINE
  8
0
 10
-20.8749
 20
-1.42267
 11
-20.9415
 21
-1.25275
  0
LINE
  8
0
 10
-20.9415
 20
-1.25275
 11
-20.9998
 21
-1.07938
  0
LINE
  8
0
 10
-20.9998
 20
-1.07938
 11
-21.0492
 21
-0.90387
  0
LINE
  8
0
 10
-21.0492
 20
-0.90387
 11
-21.0899
 21
-0.725525
  0
LINE
  8
0
 10
-21.0899
 20
-0.725525
 11
-21.1216
 21
-0.545959
  0
LINE
  8
0
 10
-21.1216
 20
-0.545959
 11
-21.1443
 21
-0.364517
  0
LINE
  8
0
 10
-21.1443
 20
-0.364517
 11
-21.1579
 21
-0.18277
  0
LINE
  8
0
 10
-21.1579
 20
-0.18277
 11
-21.1625
 21
0
  0
LINE
  8
0
 10
-21.1625
 20
0
 11
-21.1579
 21
0.18277
  0
LINE
  8
0
 10
-21.1579
 20
0.18277
 11
-21.1443
 21
0.364517
  0
LINE
  8
0
 10
-21.1443
 20
0.364517
 11
-21.1216
 21
0.545959
  0
LINE
  8
0
 10
-21.1216
 20
0.545959
 11
-21.0899
 21
0.725525
  0
LINE
  8
0
 10
-21.0899
 20
0.725525
 11
-21.0492
 21
0.90387
  0
LINE
  8
0
 10
-21.0492
 20
0.90387
 11
-20.9998
 21
1.07938
  0
LINE
  8
0
 10
-20.9998
 20
1.07938
 11
-20.9415
 21
1.25275
  0
LINE
  8
0
 10
-20.9415
 20
1.25275
 11
-20.8749
 21
1.42267
  0
LINE
  8
0
 10
-20.8749
 20
1.42267
 11
-20.7998
 21
1.58902
  0
LINE
  8
0
 10
-20.7998
 20
1.58902
 11
-20.7164
 21
1.75165
  0
LINE
  8
0
 10
-20.7164
 20
1.75165
 11
-20.6252
 21
1.90971
  0
LINE
  8
0
 10
-20.6252
 20
1.90971
 11
-20.5261
 21
2.06316
  0
LINE
  8
0
 10
-20.5261
 20
2.06316
 11
-20.4194
 21
2.21147
  0
LINE
  8
0
 10
-20.4194
 20
2.21147
 11
-20.3057
 21
2.35408
  0
LINE
  8
0
 10
-20.3057
 20
2.35408
 11
-20.1848
 21
2.49112
  0
LINE
  8
0
 10
-20.1848
 20
2.49112
 11
-20.0573
 21
2.62183
  0
LINE
  8
0
 10
-20.0573
 20
2.62183
 11
-19.9234
 21
2.74602
  0
LINE
  8
0
 10
-19.9234
 20
2.74602
 11
-19.7834
 21
2.86351
  0
LINE
  8
0
 10
-19.7834
 20
2.86351
 11
-19.638
 21
2.97366
  0
LINE
  8
0
 10
-19.638
 20
2.97366
 11
-19.4871
 21
3.07657
  0
LINE
  8
0
 10
-19.4871
 20
3.07657
 11
-19.3312
 21
3.17181
  0
LINE
  8
0
 10
-19.3312
 20
3.17181
 11
-19.1711
 21
3.25902
  0
LINE
  8
0
 10
-19.1711
 20
3.25902
 11
-19.0062
 21
3.33839
  0
LINE
  8
0
 10
-19.0062
 20
3.33839
 11
-18.8381
 21
3.40927
  0
LINE
  8
0
 10
-18.8381
 20
3.40927
 11
-18.6664
 21
3.47174
  0
LINE
  8
0
 10
-18.6664
 20
3.47174
 11
-18.4918
 21
3.5256
  0
LINE
  8
0
 10
-18.4918
 20
3.5256
 11
-18.3151
 21
3.57062
  0
LINE
  8
0
 10
-18.3151
 20
3.57062
 11
-18.1358
 21
3.60686
  0
LINE
  8
0
 10
-18.1358
 20
3.60686
 11
-17.9555
 21
3.63402
  0
LINE
  8
0
 10
-17.9555
 20
3.63402
 11
-17.7736
 21
3.65222
  0
LINE
  8
0
 10
-17.7736
 20
3.65222
 11
-17.5913
 21
3.66133
  0
LINE
  8
0
 10
-17.5913
 20
3.66133
 11
-17.4087
 21
3.66133
  0
LINE
  8
0
 10
-17.4087
 20
3.66133
 11
-17.2264
 21
3.65222
  0
LINE
  8
0
 10
-17.2264
 20
3.65222
 11
-17.0445
 21
3.63402
  0
LINE
  8
0
 10
-17.0445
 20
3.63402
 11
-16.8642
 21
3.60686
  0
LINE
  8
0
 10
-16.8642
 20
3.60686
 11
-16.6849
 21
3.57062
  0
LINE
  8
0
 10
-16.6849
 20
3.57062
 11
-16.5081
 21
3.5256
  0
LINE
  8
0
 10
-16.5081
 20
3.5256
 11
-16.3336
 21
3.47174
  0
LINE
  8
0
 10
-16.3336
 20
3.47174
 11
-16.1619
 21
3.40927
  0
LINE
  8
0
 10
-16.1619
 20
3.40927
 11
-15.9938
 21
3.33839
  0
LINE
  8
0
 10
-15.9938
 20
3.33839
 11
-15.8289
 21
3.25902
  0
LINE
  8
0
 10
-15.8289
 20
3.25902
 11
-15.6688
 21
3.17181
  0
LINE
  8
0
 10
-15.6688
 20
3.17181
 11
-15.5129
 21
3.07657
  0
LINE
  8
0
 10
-15.5129
 20
3.07657
 11
-15.362
 21
2.97366
  0
LINE
  8
0
 10
-15.362
 20
2.97366
 11
-15.2166
 21
2.86351
  0
LINE
  8
0
 10
-15.2166
 20
2.86351
 11
-15.0766
 21
2.74602
  0
LINE
  8
0
 10
-15.0766
 20
2.74602
 11
-14.9427
 21
2.62183
  0
LINE
  8
0
 10
-14.9427
 20
2.62183
 11
-14.8152
 21
2.49112
  0
LINE
  8
0
 10
-14.8152
 20
2.49112
 11
-14.6943
 21
2.35408
  0
LINE
  8
0
 10
-14.6943
 20
2.35408
 11
-14.5806
 21
2.21147
  0
LINE
  8
0
 10
-14.5806
 20
2.21147
 11
-14.4739
 21
2.06316
  0
LINE
  8
0
 10
-14.4739
 20
2.06316
 11
-14.3748
 21
1.90971
  0
LINE
  8
0
 10
-14.3748
 20
1.90971
 11
-14.2836
 21
1.75165
  0
LINE
  8
0
 10
-14.2836
 20
1.75165
 11
-14.2002
 21
1.58904
  0
LINE
  8
0
 10
-14.2002
 20
1.58904
 11
-14.1251
 21
1.42267
  0
LINE
  8
0
 10
-14.1251
 20
1.42267
 11
-14.0584
 21
1.25275
  0
LINE
  8
0
 10
-14.0584
 20
1.25275
 11
-14.0002
 21
1.07938
  0
LINE
  8
0
 10
-14.0002
 20
1.07938
 11
-13.9508
 21
0.90387
  0
LINE
  8
0
 10
-13.9508
 20
0.90387
 11
-13.9101
 21
0.725525
  0
LINE
  8
0
 10
-13.9101
 20
0.725525
 11
-13.8784
 21
0.545959
  0
LINE
  8
0
 10
-13.8784
 20
0.545959
 11
-13.8557
 21
0.364517
  0
LINE
  8
0
 10
-13.8557
 20
0.364517
 11
-13.8421
 21
0.18277
  0
LINE
  8
0
 10
-13.8421
 20
0.18277
 11
-13.8375
 21
0
  0
LINE
  8
0
 10
-13.8375
 20
0
 11
-13.8421
 21
-0.18277
  0
LINE
  8
0
 10
-13.8421
 20
-0.18277
 11
-13.8557
 21
-0.364517
  0
LINE
  8
0
 10
-13.8557
 20
-0.364517
 11
-13.8784
 21
-0.545959
  0
LINE
  8
0
 10
-13.8784
 20
-0.545959
 11
-13.9101
 21
-0.725525
  0
LINE
  8
0
 10
-13.9101
 20
-0.725525
 11
-13.9508
 21
-0.90387
  0
LINE
  8
0
 10
-13.9508
 20
-0.90387
 11
-14.0002
 21
-1.07938
  0
LINE
  8
0
 10
-14.0002
 20
-1.07938
 11
-14.0584
 21
-1.25275
  0
LINE
  8
0
 10
-14.0584
 20
-1.25275
 11
-14.1251
 21
-1.42267
  0
LINE
  8
0
 10
-14.1251
 20
-1.42267
 11
-14.2002
 21
-1.58904
  0
LINE
  8
0
 10
-14.2002
 20
-1.58904
 11
-14.2836
 21
-1.75165
  0
LINE
  8
0
 10
-14.2836
 20
-1.75165
 11
-14.3748
 21
-1.90971
  0
LINE
  8
0
 10
-14.3748
 20
-1.90971
 11
-14.4739
 21
-2.06316
  0
LINE
  8
0
 10
-14.4739
 20
-2.06316
 11
-14.5806
 21
-2.21147
  0
LINE
  8
0
 10
-14.5806
 20
-2.21147
 11
-14.6943
 21
-2.35408
  0
LINE
  8
0
 10
-14.6943
 20
-2.35408
 11
-14.8152
 21
-2.49112
  0
LINE
  8
0
 10
-14.8152
 20
-2.49112
 11
-14.9427
 21
-2.62183
  0
LINE
  8
0
 10
-14.9427
 20
-2.62183
 11
-15.0766
 21
-2.74602
  0
LINE
  8
0
 10
-15.0766
 20
-2.74602
 11
-15.2166
 21
-2.86351
  0
LINE
  8
0
 10
-15.2166
 20
-2.86351
 11
-15.362
 21
-2.97366
  0
LINE
  8
0
 10
-15.362
 20
-2.97366
 11
-15.5129
 21
-3.07657
  0
LINE
  8
0
 10
-15.5129
 20
-3.07657
 11
-15.6688
 21
-3.17181
  0
LINE
  8
0
 10
-15.6688
 20
-3.17181
 11
-15.8289
 21
-3.25902
  0
LINE
  8
0
 10
-15.8289
 20
-3.25902
 11
-15.9938
 21
-3.33839
  0
LINE
  8
0
 10
-15.9938
 20
-3.33839
 11
-16.1619
 21
-3.40927
  0
LINE
  8
0
 10
-16.1619
 20
-3.40927
 11
-16.3336
 21
-3.47174
  0
LINE
  8
0
 10
-16.3336
 20
-3.47174
 11
-16.5081
 21
-3.5256
  0
LINE
  8
0
 10
-16.5081
 20
-3.5256
 11
-16.6849
 21
-3.57062
  0
LINE
  8
0
 10
-16.6849
 20
-3.57062
 11
-16.8642
 21
-3.60686
  0
LINE
  8
0
 10
-16.8642
 20
-3.60686
 11
-17.0445
 21
-3.63402
  0
LINE
  8
0
 10
-17.0445
 20
-3.63402
 11
-17.2264
 21
-3.65222
  0
LINE
  8
0
 10
-17.2264
 20
-3.65222
 11
-17.4087
 21
-3.66133
  0
LINE
  8
0
 10
-17.4087
 20
-3.66133
 11
-17.5913
 21
-3.66133
  0
LINE
  8
0
 10
30.6552
 20
-12.8346
 11
30.5725
 21
-12.8305
  0
LINE
  8
0
 10
30.5725
 20
-12.8305
 11
30.4898
 21
-12.8222
  0
LINE
  8
0
 10
30.4898
 20
-12.8222
 11
30.4081
 21
-12.8099
  0
LINE
  8
0
 10
30.4081
 20
-12.8099
 11
30.3266
 21
-12.7934
  0
LINE
  8
0
 10
30.3266
 20
-12.7934
 11
30.2464
 21
-12.773
  0
LINE
  8
0
 10
30.2464
 20
-12.773
 11
30.1671
 21
-12.7486
  0
LINE
  8
0
 10
30.1671
 20
-12.7486
 11
30.0891
 21
-12.7201
  0
LINE
  8
0
 10
30.0891
 20
-12.7201
 11
30.0129
 21
-12.688
  0
LINE
  8
0
 10
30.0129
 20
-12.688
 11
29.9381
 21
-12.652
  0
LINE
  8
0
 10
29.9381
 20
-12.652
 11
29.8654
 21
-12.6124
  0
LINE
  8
0
 10
29.8654
 20
-12.6124
 11
29.7948
 21
-12.5693
  0
LINE
  8
0
 10
29.7948
 20
-12.5693
 11
29.726
 21
-12.5223
  0
LINE
  8
0
 10
29.726
 20
-12.5223
 11
29.6602
 21
-12.4725
  0
LINE
  8
0
 10
29.6602
 20
-12.4725
 11
29.5965
 21
-12.4191
  0
LINE
  8
0
 10
29.5965
 20
-12.4191
 11
29.5358
 21
-12.3628
  0
LINE
  8
0
 10
29.5358
 20
-12.3628
 11
29.478
 21
-12.3034
  0
LINE
  8
0
 10
29.478
 20
-12.3034
 11
29.4231
 21
-12.2413
  0
LINE
  8
0
 10
29.4231
 20
-12.2413
 11
29.3713
 21
-12.1764
  0
LINE
  8
0
 10
29.3713
 20
-12.1764
 11
29.323
 21
-12.1092
  0
LINE
  8
0
 10
29.323
 20
-12.1092
 11
29.278
 21
-12.0395
  0
LINE
  8
0
 10
29.278
 20
-12.0395
 11
29.2366
 21
-11.9678
  0
LINE
  8
0
 10
29.2366
 20
-11.9678
 11
29.1988
 21
-11.894
  0
LINE
  8
0
 10
29.1988
 20
-11.894
 11
29.1647
 21
-11.8183
  0
LINE
  8
0
 10
29.1647
 20
-11.8183
 11
29.1344
 21
-11.7413
  0
LINE
  8
0
 10
29.1344
 20
-11.7413
 11
29.108
 21
-11.6626
  0
LINE
  8
0
 10
29.108
 20
-11.6626
 11
29.0856
 21
-11.583
  0
LINE
  8
0
 10
29.0856
 20
-11.583
 11
29.0671
 21
-11.5019
  0
LINE
  8
0
 10
29.0671
 20
-11.5019
 11
29.0527
 21
-11.4205
  0
LINE
  8
0
 10
29.0527
 20
-11.4205
 11
29.0424
 21
-11.338
  0
LINE
  8
0
 10
29.0424
 20
-11.338
 11
29.0362
 21
-11.2557
  0
LINE
  8
0
 10
29.0362
 20
-11.2557
 11
29.0342
 21
-11.1727
  0
LINE
  8
0
 10
29.0342
 20
-11.1727
 11
29.0362
 21
-11.0896
  0
LINE
  8
0
 10
29.0362
 20
-11.0896
 11
29.0424
 21
-11.0073
  0
LINE
  8
0
 10
29.0424
 20
-11.0073
 11
29.0527
 21
-10.9248
  0
LINE
  8
0
 10
29.0527
 20
-10.9248
 11
29.0671
 21
-10.8434
  0
LINE
  8
0
 10
29.0671
 20
-10.8434
 11
29.0856
 21
-10.7623
  0
LINE
  8
0
 10
29.0856
 20
-10.7623
 11
29.108
 21
-10.6827
  0
LINE
  8
0
 10
29.108
 20
-10.6827
 11
29.1344
 21
-10.604
  0
LINE
  8
0
 10
29.1344
 20
-10.604
 11
29.1647
 21
-10.527
  0
LINE
  8
0
 10
29.1647
 20
-10.527
 11
29.1988
 21
-10.4513
  0
LINE
  8
0
 10
29.1988
 20
-10.4513
 11
29.2366
 21
-10.3775
  0
LINE
  8
0
 10
29.2366
 20
-10.3775
 11
29.2779
 21
-10.3059
  0
LINE
  8
0
 10
29.2779
 20
-10.3059
 11
29.3231
 21
-10.236
  0
LINE
  8
0
 10
29.3231
 20
-10.236
 11
29.3713
 21
-10.1689
  0
LINE
  8
0
 10
29.3713
 20
-10.1689
 11
29.4231
 21
-10.104
  0
LINE
  8
0
 10
29.4231
 20
-10.104
 11
29.478
 21
-10.0419
  0
LINE
  8
0
 10
29.478
 20
-10.0419
 11
29.5358
 21
-9.98254
  0
LINE
  8
0
 10
29.5358
 20
-9.98254
 11
29.5965
 21
-9.92619
  0
LINE
  8
0
 10
29.5965
 20
-9.92619
 11
29.6601
 21
-9.87289
  0
LINE
  8
0
 10
29.6601
 20
-9.87289
 11
29.7263
 21
-9.82275
  0
LINE
  8
0
 10
29.7263
 20
-9.82275
 11
29.7946
 21
-9.77614
  0
LINE
  8
0
 10
29.7946
 20
-9.77614
 11
29.8653
 21
-9.73296
  0
LINE
  8
0
 10
29.8653
 20
-9.73296
 11
29.9381
 21
-9.6933
  0
LINE
  8
0
 10
29.9381
 20
-9.6933
 11
30.0131
 21
-9.65721
  0
LINE
  8
0
 10
30.0131
 20
-9.65721
 11
30.0891
 21
-9.62517
  0
LINE
  8
0
 10
30.0891
 20
-9.62517
 11
30.1673
 21
-9.59668
  0
LINE
  8
0
 10
30.1673
 20
-9.59668
 11
30.2463
 21
-9.57233
  0
LINE
  8
0
 10
30.2463
 20
-9.57233
 11
30.3266
 21
-9.55188
  0
LINE
  8
0
 10
30.3266
 20
-9.55188
 11
30.4081
 21
-9.5354
  0
LINE
  8
0
 10
30.4081
 20
-9.5354
 11
30.4897
 21
-9.5231
  0
LINE
  8
0
 10
30.4897
 20
-9.5231
 11
30.5725
 21
-9.51483
  0
LINE
  8
0
 10
30.5725
 20
-9.51483
 11
30.6552
 21
-9.51068
  0
LINE
  8
0
 10
30.6552
 20
-9.51068
 11
30.738
 21
-9.51068
  0
LINE
  8
0
 10
30.738
 20
-9.51068
 11
30.8208
 21
-9.51483
  0
LINE
  8
0
 10
30.8208
 20
-9.51483
 11
30.9035
 21
-9.5231
  0
LINE
  8
0
 10
30.9035
 20
-9.5231
 11
30.9851
 21
-9.5354
  0
LINE
  8
0
 10
30.9851
 20
-9.5354
 11
31.0667
 21
-9.55188
  0
LINE
  8
0
 10
31.0667
 20
-9.55188
 11
31.147
 21
-9.57233
  0
LINE
  8
0
 10
31.147
 20
-9.57233
 11
31.2259
 21
-9.59668
  0
LINE
  8
0
 10
31.2259
 20
-9.59668
 11
31.3042
 21
-9.62517
  0
LINE
  8
0
 10
31.3042
 20
-9.62517
 11
31.3802
 21
-9.65721
  0
LINE
  8
0
 10
31.3802
 20
-9.65721
 11
31.4551
 21
-9.6933
  0
LINE
  8
0
 10
31.4551
 20
-9.6933
 11
31.5279
 21
-9.73296
  0
LINE
  8
0
 10
31.5279
 20
-9.73296
 11
31.5986
 21
-9.77612
  0
LINE
  8
0
 10
31.5986
 20
-9.77612
 11
31.667
 21
-9.82275
  0
LINE
  8
0
 10
31.667
 20
-9.82275
 11
31.7332
 21
-9.87289
  0
LINE
  8
0
 10
31.7332
 20
-9.87289
 11
31.7967
 21
-9.92619
  0
LINE
  8
0
 10
31.7967
 20
-9.92619
 11
31.8574
 21
-9.98254
  0
LINE
  8
0
 10
31.8574
 20
-9.98254
 11
31.9153
 21
-10.0419
  0
LINE
  8
0
 10
31.9153
 20
-10.0419
 11
31.9701
 21
-10.104
  0
LINE
  8
0
 10
31.9701
 20
-10.104
 11
32.0219
 21
-10.169
  0
LINE
  8
0
 10
32.0219
 20
-10.169
 11
32.0701
 21
-10.236
  0
LINE
  8
0
 10
32.0701
 20
-10.236
 11
32.1153
 21
-10.3059
  0
LINE
  8
0
 10
32.1153
 20
-10.3059
 11
32.1566
 21
-10.3775
  0
LINE
  8
0
 10
32.1566
 20
-10.3775
 11
32.1944
 21
-10.4513
  0
LINE
  8
0
 10
32.1944
 20
-10.4513
 11
32.2286
 21
-10.527
  0
LINE
  8
0
 10
32.2286
 20
-10.527
 11
32.2588
 21
-10.604
  0
LINE
  8
0
 10
32.2588
 20
-10.604
 11
32.2852
 21
-10.6827
  0
LINE
  8
0
 10
32.2852
 20
-10.6827
 11
32.3076
 21
-10.7622
  0
LINE
  8
0
 10
32.3076
 20
-10.7622
 11
32.3262
 21
-10.8435
  0
LINE
  8
0
 10
32.3262
 20
-10.8435
 11
32.3405
 21
-10.9248
  0
LINE
  8
0
 10
32.3405
 20
-10.9248
 11
32.3508
 21
-11.0073
  0
LINE
  8
0
 10
32.3508
 20
-11.0073
 11
32.357
 21
-11.0895
  0
LINE
  8
0
 10
32.357
 20
-11.0895
 11
32.3591
 21
-11.1727
  0
LINE
  8
0
 10
32.3591
 20
-11.1727
 11
32.357
 21
-11.2558
  0
LINE
  8
0
 10
32.357
 20
-11.2558
 11
32.3508
 21
-11.338
  0
LINE
  8
0
 10
32.3508
 20
-11.338
 11
32.3405
 21
-11.4205
  0
LINE
  8
0
 10
32.3405
 20
-11.4205
 11
32.3262
 21
-11.5018
  0
LINE
  8
0
 10
32.3262
 20
-11.5018
 11
32.3076
 21
-11.5831
  0
LINE
  8
0
 10
32.3076
 20
-11.5831
 11
32.2852
 21
-11.6626
  0
LINE
  8
0
 10
32.2852
 20
-11.6626
 11
32.2588
 21
-11.7413
  0
LINE
  8
0
 10
32.2588
 20
-11.7413
 11
32.2286
 21
-11.8183
  0
LINE
  8
0
 10
32.2286
 20
-11.8183
 11
32.1944
 21
-11.894
  0
LINE
  8
0
 10
32.1944
 20
-11.894
 11
32.1566
 21
-11.9678
  0
LINE
  8
0
 10
32.1566
 20
-11.9678
 11
32.1152
 21
-12.0395
  0
LINE
  8
0
 10
32.1152
 20
-12.0395
 11
32.0702
 21
-12.1092
  0
LINE
  8
0
 10
32.0702
 20
-12.1092
 11
32.0219
 21
-12.1763
  0
LINE
  8
0
 10
32.0219
 20
-12.1763
 11
31.9701
 21
-12.2413
  0
LINE
  8
0
 10
31.9701
 20
-12.2413
 11
31.9153
 21
-12.3034
  0
LINE
  8
0
 10
31.9153
 20
-12.3034
 11
31.8574
 21
-12.3628
  0
LINE
  8
0
 10
31.8574
 20
-12.3628
 11
31.7967
 21
-12.4191
  0
LINE
  8
0
 10
31.7967
 20
-12.4191
 11
31.733
 21
-12.4725
  0
LINE
  8
0
 10
31.733
 20
-12.4725
 11
31.6673
 21
-12.5223
  0
LINE
  8
0
 10
31.6673
 20
-12.5223
 11
31.5984
 21
-12.5693
  0
LINE
  8
0
 10
31.5984
 20
-12.5693
 11
31.5278
 21
-12.6124
  0
LINE
  8
0
 10
31.5278
 20
-12.6124
 11
31.455
 21
-12.6521
  0
LINE
  8
0
 10
31.455
 20
-12.6521
 11
31.3804
 21
-12.688
  0
LINE
  8
0
 10
31.3804
 20
-12.688
 11
31.3042
 21
-12.7201
  0
LINE
  8
0
 10
31.3042
 20
-12.7201
 11
31.2261
 21
-12.7486
  0
LINE
  8
0
 10
31.2261
 20
-12.7486
 11
31.1468
 21
-12.773
  0
LINE
  8
0
 10
31.1468
 20
-12.773
 11
31.0667
 21
-12.7934
  0
LINE
  8
0
 10
31.0667
 20
-12.7934
 11
30.9851
 21
-12.8099
  0
LINE
  8
0
 10
30.9851
 20
-12.8099
 11
30.9034
 21
-12.8222
  0
LINE
  8
0
 10
30.9034
 20
-12.8222
 11
30.8207
 21
-12.8305
  0
LINE
  8
0
 10
30.8207
 20
-12.8305
 11
30.738
 21
-12.8346
  0
LINE
  8
0
 10
30.738
 20
-12.8346
 11
30.6552
 21
-12.8346
  0
LINE
  8
0
 10
23.0636
 20
-24.5108
 11
22.9934
 21
-24.5074
  0
LINE
  8
0
 10
22.9934
 20
-24.5074
 11
22.9231
 21
-24.5003
  0
LINE
  8
0
 10
22.9231
 20
-24.5003
 11
22.8537
 21
-24.4899
  0
LINE
  8
0
 10
22.8537
 20
-24.4899
 11
22.7843
 21
-24.4758
  0
LINE
  8
0
 10
22.7843
 20
-24.4758
 11
22.7164
 21
-24.4585
  0
LINE
  8
0
 10
22.7164
 20
-24.4585
 11
22.649
 21
-24.4377
  0
LINE
  8
0
 10
22.649
 20
-24.4377
 11
22.5827
 21
-24.4136
  0
LINE
  8
0
 10
22.5827
 20
-24.4136
 11
22.5177
 21
-24.3862
  0
LINE
  8
0
 10
22.5177
 20
-24.3862
 11
22.4545
 21
-24.3558
  0
LINE
  8
0
 10
22.4545
 20
-24.3558
 11
22.3926
 21
-24.3221
  0
LINE
  8
0
 10
22.3926
 20
-24.3221
 11
22.3326
 21
-24.2854
  0
LINE
  8
0
 10
22.3326
 20
-24.2854
 11
22.2741
 21
-24.2455
  0
LINE
  8
0
 10
22.2741
 20
-24.2455
 11
22.2182
 21
-24.2032
  0
LINE
  8
0
 10
22.2182
 20
-24.2032
 11
22.1642
 21
-24.1579
  0
LINE
  8
0
 10
22.1642
 20
-24.1579
 11
22.1125
 21
-24.1099
  0
LINE
  8
0
 10
22.1125
 20
-24.1099
 11
22.0634
 21
-24.0596
  0
LINE
  8
0
 10
22.0634
 20
-24.0596
 11
22.0168
 21
-24.0068
  0
LINE
  8
0
 10
22.0168
 20
-24.0068
 11
21.9727
 21
-23.9515
  0
LINE
  8
0
 10
21.9727
 20
-23.9515
 11
21.9318
 21
-23.8946
  0
LINE
  8
0
 10
21.9318
 20
-23.8946
 11
21.8936
 21
-23.8353
  0
LINE
  8
0
 10
21.8936
 20
-23.8353
 11
21.8584
 21
-23.7744
  0
LINE
  8
0
 10
21.8584
 20
-23.7744
 11
21.8262
 21
-23.7117
  0
LINE
  8
0
 10
21.8262
 20
-23.7117
 11
21.7972
 21
-23.6474
  0
LINE
  8
0
 10
21.7972
 20
-23.6474
 11
21.7715
 21
-23.5819
  0
LINE
  8
0
 10
21.7715
 20
-23.5819
 11
21.7491
 21
-23.515
  0
LINE
  8
0
 10
21.7491
 20
-23.515
 11
21.7301
 21
-23.4476
  0
LINE
  8
0
 10
21.7301
 20
-23.4476
 11
21.7143
 21
-23.3785
  0
LINE
  8
0
 10
21.7143
 20
-23.3785
 11
21.7021
 21
-23.3095
  0
LINE
  8
0
 10
21.7021
 20
-23.3095
 11
21.6933
 21
-23.2393
  0
LINE
  8
0
 10
21.6933
 20
-23.2393
 11
21.6881
 21
-23.1695
  0
LINE
  8
0
 10
21.6881
 20
-23.1695
 11
21.6864
 21
-23.0988
  0
LINE
  8
0
 10
21.6864
 20
-23.0988
 11
21.6881
 21
-23.0282
  0
LINE
  8
0
 10
21.6881
 20
-23.0282
 11
21.6933
 21
-22.9584
  0
LINE
  8
0
 10
21.6933
 20
-22.9584
 11
21.7021
 21
-22.8882
  0
LINE
  8
0
 10
21.7021
 20
-22.8882
 11
21.7143
 21
-22.8192
  0
LINE
  8
0
 10
21.7143
 20
-22.8192
 11
21.7301
 21
-22.75
  0
LINE
  8
0
 10
21.7301
 20
-22.75
 11
21.7491
 21
-22.6826
  0
LINE
  8
0
 10
21.7491
 20
-22.6826
 11
21.7715
 21
-22.6157
  0
LINE
  8
0
 10
21.7715
 20
-22.6157
 11
21.7973
 21
-22.5501
  0
LINE
  8
0
 10
21.7973
 20
-22.5501
 11
21.8262
 21
-22.486
  0
LINE
  8
0
 10
21.8262
 20
-22.486
 11
21.8584
 21
-22.4232
  0
LINE
  8
0
 10
21.8584
 20
-22.4232
 11
21.8936
 21
-22.3623
  0
LINE
  8
0
 10
21.8936
 20
-22.3623
 11
21.9318
 21
-22.3031
  0
LINE
  8
0
 10
21.9318
 20
-22.3031
 11
21.9727
 21
-22.2462
  0
LINE
  8
0
 10
21.9727
 20
-22.2462
 11
22.0168
 21
-22.1908
  0
LINE
  8
0
 10
22.0168
 20
-22.1908
 11
22.0634
 21
-22.1381
  0
LINE
  8
0
 10
22.0634
 20
-22.1381
 11
22.1125
 21
-22.0877
  0
LINE
  8
0
 10
22.1125
 20
-22.0877
 11
22.1642
 21
-22.0398
  0
LINE
  8
0
 10
22.1642
 20
-22.0398
 11
22.2183
 21
-21.9944
  0
LINE
  8
0
 10
22.2183
 20
-21.9944
 11
22.2741
 21
-21.9521
  0
LINE
  8
0
 10
22.2741
 20
-21.9521
 11
22.3326
 21
-21.9122
  0
LINE
  8
0
 10
22.3326
 20
-21.9122
 11
22.3926
 21
-21.8755
  0
LINE
  8
0
 10
22.3926
 20
-21.8755
 11
22.4545
 21
-21.8419
  0
LINE
  8
0
 10
22.4545
 20
-21.8419
 11
22.5177
 21
-21.8114
  0
LINE
  8
0
 10
22.5177
 20
-21.8114
 11
22.5827
 21
-21.784
  0
LINE
  8
0
 10
22.5827
 20
-21.784
 11
22.649
 21
-21.7599
  0
LINE
  8
0
 10
22.649
 20
-21.7599
 11
22.7164
 21
-21.7391
  0
LINE
  8
0
 10
22.7164
 20
-21.7391
 11
22.7843
 21
-21.7218
  0
LINE
  8
0
 10
22.7843
 20
-21.7218
 11
22.8538
 21
-21.7077
  0
LINE
  8
0
 10
22.8538
 20
-21.7077
 11
22.923
 21
-21.6973
  0
LINE
  8
0
 10
22.923
 20
-21.6973
 11
22.9934
 21
-21.6903
  0
LINE
  8
0
 10
22.9934
 20
-21.6903
 11
23.0637
 21
-21.6868
  0
LINE
  8
0
 10
23.0637
 20
-21.6868
 11
23.134
 21
-21.6868
  0
LINE
  8
0
 10
23.134
 20
-21.6868
 11
23.2043
 21
-21.6903
  0
LINE
  8
0
 10
23.2043
 20
-21.6903
 11
23.2746
 21
-21.6973
  0
LINE
  8
0
 10
23.2746
 20
-21.6973
 11
23.3438
 21
-21.7077
  0
LINE
  8
0
 10
23.3438
 20
-21.7077
 11
23.4133
 21
-21.7218
  0
LINE
  8
0
 10
23.4133
 20
-21.7218
 11
23.4814
 21
-21.7391
  0
LINE
  8
0
 10
23.4814
 20
-21.7391
 11
23.5485
 21
-21.7598
  0
LINE
  8
0
 10
23.5485
 20
-21.7598
 11
23.615
 21
-21.784
  0
LINE
  8
0
 10
23.615
 20
-21.784
 11
23.6798
 21
-21.8114
  0
LINE
  8
0
 10
23.6798
 20
-21.8114
 11
23.7431
 21
-21.8419
  0
LINE
  8
0
 10
23.7431
 20
-21.8419
 11
23.805
 21
-21.8755
  0
LINE
  8
0
 10
23.805
 20
-21.8755
 11
23.8651
 21
-21.9123
  0
LINE
  8
0
 10
23.8651
 20
-21.9123
 11
23.9232
 21
-21.9519
  0
LINE
  8
0
 10
23.9232
 20
-21.9519
 11
23.9797
 21
-21.9946
  0
LINE
  8
0
 10
23.9797
 20
-21.9946
 11
24.0333
 21
-22.0397
  0
LINE
  8
0
 10
24.0333
 20
-22.0397
 11
24.0851
 21
-22.0877
  0
LINE
  8
0
 10
24.0851
 20
-22.0877
 11
24.1342
 21
-22.1381
  0
LINE
  8
0
 10
24.1342
 20
-22.1381
 11
24.1808
 21
-22.1908
  0
LINE
  8
0
 10
24.1808
 20
-22.1908
 11
24.2249
 21
-22.2462
  0
LINE
  8
0
 10
24.2249
 20
-22.2462
 11
24.2658
 21
-22.3031
  0
LINE
  8
0
 10
24.2658
 20
-22.3031
 11
24.3041
 21
-22.3623
  0
LINE
  8
0
 10
24.3041
 20
-22.3623
 11
24.3392
 21
-22.4232
  0
LINE
  8
0
 10
24.3392
 20
-22.4232
 11
24.3714
 21
-22.486
  0
LINE
  8
0
 10
24.3714
 20
-22.486
 11
24.4004
 21
-22.5502
  0
LINE
  8
0
 10
24.4004
 20
-22.5502
 11
24.4261
 21
-22.6158
  0
LINE
  8
0
 10
24.4261
 20
-22.6158
 11
24.4485
 21
-22.6824
  0
LINE
  8
0
 10
24.4485
 20
-22.6824
 11
24.4675
 21
-22.75
  0
LINE
  8
0
 10
24.4675
 20
-22.75
 11
24.4833
 21
-22.8192
  0
LINE
  8
0
 10
24.4833
 20
-22.8192
 11
24.4955
 21
-22.8882
  0
LINE
  8
0
 10
24.4955
 20
-22.8882
 11
24.5043
 21
-22.9583
  0
LINE
  8
0
 10
24.5043
 20
-22.9583
 11
24.5095
 21
-23.0282
  0
LINE
  8
0
 10
24.5095
 20
-23.0282
 11
24.5113
 21
-23.0988
  0
LINE
  8
0
 10
24.5113
 20
-23.0988
 11
24.5095
 21
-23.1694
  0
LINE
  8
0
 10
24.5095
 20
-23.1694
 11
24.5043
 21
-23.2393
  0
LINE
  8
0
 10
24.5043
 20
-23.2393
 11
24.4955
 21
-23.3094
  0
LINE
  8
0
 10
24.4955
 20
-23.3094
 11
24.4833
 21
-23.3785
  0
LINE
  8
0
 10
24.4833
 20
-23.3785
 11
24.4676
 21
-23.4476
  0
LINE
  8
0
 10
24.4676
 20
-23.4476
 11
24.4485
 21
-23.5152
  0
LINE
  8
0
 10
24.4485
 20
-23.5152
 11
24.4261
 21
-23.5819
  0
LINE
  8
0
 10
24.4261
 20
-23.5819
 11
24.4005
 21
-23.6473
  0
LINE
  8
0
 10
24.4005
 20
-23.6473
 11
24.3714
 21
-23.7117
  0
LINE
  8
0
 10
24.3714
 20
-23.7117
 11
24.3392
 21
-23.7744
  0
LINE
  8
0
 10
24.3392
 20
-23.7744
 11
24.3041
 21
-23.8353
  0
LINE
  8
0
 10
24.3041
 20
-23.8353
 11
24.2658
 21
-23.8946
  0
LINE
  8
0
 10
24.2658
 20
-23.8946
 11
24.2249
 21
-23.9515
  0
LINE
  8
0
 10
24.2249
 20
-23.9515
 11
24.1808
 21
-24.0068
  0
LINE
  8
0
 10
24.1808
 20
-24.0068
 11
24.1342
 21
-24.0596
  0
LINE
  8
0
 10
24.1342
 20
-24.0596
 11
24.0851
 21
-24.11
  0
LINE
  8
0
 10
24.0851
 20
-24.11
 11
24.0334
 21
-24.1578
  0
LINE
  8
0
 10
24.0334
 20
-24.1578
 11
23.9795
 21
-24.2031
  0
LINE
  8
0
 10
23.9795
 20
-24.2031
 11
23.9232
 21
-24.2457
  0
LINE
  8
0
 10
23.9232
 20
-24.2457
 11
23.8651
 21
-24.2853
  0
LINE
  8
0
 10
23.8651
 20
-24.2853
 11
23.805
 21
-24.3221
  0
LINE
  8
0
 10
23.805
 20
-24.3221
 11
23.7431
 21
-24.3558
  0
LINE
  8
0
 10
23.7431
 20
-24.3558
 11
23.6798
 21
-24.3863
  0
LINE
  8
0
 10
23.6798
 20
-24.3863
 11
23.615
 21
-24.4136
  0
LINE
  8
0
 10
23.615
 20
-24.4136
 11
23.5485
 21
-24.4378
  0
LINE
  8
0
 10
23.5485
 20
-24.4378
 11
23.4814
 21
-24.4585
  0
LINE
  8
0
 10
23.4814
 20
-24.4585
 11
23.4133
 21
-24.4758
  0
LINE
  8
0
 10
23.4133
 20
-24.4758
 11
23.3439
 21
-24.4899
  0
LINE
  8
0
 10
23.3439
 20
-24.4899
 11
23.2746
 21
-24.5003
  0
LINE
  8
0
 10
23.2746
 20
-24.5003
 11
23.2042
 21
-24.5074
  0
LINE
  8
0
 10
23.2042
 20
-24.5074
 11
23.134
 21
-24.5108
  0
LINE
  8
0
 10
23.134
 20
-24.5108
 11
23.0636
 21
-24.5108
  0
LINE
  8
0
 10
-0.0912476
 20
-35.4113
 11
-0.273575
 21
-35.4022
  0
LINE
  8
0
 10
-0.273575
 20
-35.4022
 11
-0.455521
 21
-35.384
  0
LINE
  8
0
 10
-0.455521
 20
-35.384
 11
-0.635803
 21
-35.3569
  0
LINE
  8
0
 10
-0.635803
 20
-35.3569
 11
-0.815063
 21
-35.3206
  0
LINE
  8
0
 10
-0.815063
 20
-35.3206
 11
-0.991837
 21
-35.2756
  0
LINE
  8
0
 10
-0.991837
 20
-35.2756
 11
-1.16643
 21
-35.2217
  0
LINE
  8
0
 10
-1.16643
 20
-35.2217
 11
-1.3381
 21
-35.1593
  0
LINE
  8
0
 10
-1.3381
 20
-35.1593
 11
-1.50623
 21
-35.0884
  0
LINE
  8
0
 10
-1.50623
 20
-35.0884
 11
-1.67091
 21
-35.0091
  0
LINE
  8
0
 10
-1.67091
 20
-35.0091
 11
-1.83133
 21
-34.9217
  0
LINE
  8
0
 10
-1.83133
 20
-34.9217
 11
-1.98706
 21
-34.8266
  0
LINE
  8
0
 10
-1.98706
 20
-34.8266
 11
-2.13799
 21
-34.7237
  0
LINE
  8
0
 10
-2.13799
 20
-34.7237
 11
-2.28339
 21
-34.6135
  0
LINE
  8
0
 10
-2.28339
 20
-34.6135
 11
-2.42342
 21
-34.496
  0
LINE
  8
0
 10
-2.42342
 20
-34.496
 11
-2.55728
 21
-34.3718
  0
LINE
  8
0
 10
-2.55728
 20
-34.3718
 11
-2.68477
 21
-34.2411
  0
LINE
  8
0
 10
-2.68477
 20
-34.2411
 11
-2.80571
 21
-34.1041
  0
LINE
  8
0
 10
-2.80571
 20
-34.1041
 11
-2.91943
 21
-33.9615
  0
LINE
  8
0
 10
-2.91943
 20
-33.9615
 11
-3.02606
 21
-33.8132
  0
LINE
  8
0
 10
-3.02606
 20
-33.8132
 11
-3.12515
 21
-33.6597
  0
LINE
  8
0
 10
-3.12515
 20
-33.6597
 11
-3.21642
 21
-33.5017
  0
LINE
  8
0
 10
-3.21642
 20
-33.5017
 11
-3.2998
 21
-33.339
  0
LINE
  8
0
 10
-3.2998
 20
-33.339
 11
-3.37486
 21
-33.1727
  0
LINE
  8
0
 10
-3.37486
 20
-33.1727
 11
-3.44154
 21
-33.0027
  0
LINE
  8
0
 10
-3.44154
 20
-33.0027
 11
-3.4998
 21
-32.8294
  0
LINE
  8
0
 10
-3.4998
 20
-32.8294
 11
-3.54918
 21
-32.6539
  0
LINE
  8
0
 10
-3.54918
 20
-32.6539
 11
-3.58989
 21
-32.4755
  0
LINE
  8
0
 10
-3.58989
 20
-32.4755
 11
-3.62155
 21
-32.296
  0
LINE
  8
0
 10
-3.62155
 20
-32.296
 11
-3.64427
 21
-32.1145
  0
LINE
  8
0
 10
-3.64427
 20
-32.1145
 11
-3.6579
 21
-31.9328
  0
LINE
  8
0
 10
-3.6579
 20
-31.9328
 11
-3.66246
 21
-31.75
  0
LINE
  8
0
 10
-3.66246
 20
-31.75
 11
-3.6579
 21
-31.5672
  0
LINE
  8
0
 10
-3.6579
 20
-31.5672
 11
-3.64427
 21
-31.3855
  0
LINE
  8
0
 10
-3.64427
 20
-31.3855
 11
-3.62155
 21
-31.204
  0
LINE
  8
0
 10
-3.62155
 20
-31.204
 11
-3.58989
 21
-31.0245
  0
LINE
  8
0
 10
-3.58989
 20
-31.0245
 11
-3.54918
 21
-30.8461
  0
LINE
  8
0
 10
-3.54918
 20
-30.8461
 11
-3.49977
 21
-30.6705
  0
LINE
  8
0
 10
-3.49977
 20
-30.6705
 11
-3.44157
 21
-30.4973
  0
LINE
  8
0
 10
-3.44157
 20
-30.4973
 11
-3.37486
 21
-30.3273
  0
LINE
  8
0
 10
-3.37486
 20
-30.3273
 11
-3.2998
 21
-30.161
  0
LINE
  8
0
 10
-3.2998
 20
-30.161
 11
-3.21642
 21
-29.9983
  0
LINE
  8
0
 10
-3.21642
 20
-29.9983
 11
-3.12515
 21
-29.8403
  0
LINE
  8
0
 10
-3.12515
 20
-29.8403
 11
-3.02606
 21
-29.6868
  0
LINE
  8
0
 10
-3.02606
 20
-29.6868
 11
-2.91943
 21
-29.5385
  0
LINE
  8
0
 10
-2.91943
 20
-29.5385
 11
-2.80571
 21
-29.3959
  0
LINE
  8
0
 10
-2.80571
 20
-29.3959
 11
-2.68477
 21
-29.2589
  0
LINE
  8
0
 10
-2.68477
 20
-29.2589
 11
-2.55728
 21
-29.1282
  0
LINE
  8
0
 10
-2.55728
 20
-29.1282
 11
-2.42342
 21
-29.004
  0
LINE
  8
0
 10
-2.42342
 20
-29.004
 11
-2.28339
 21
-28.8865
  0
LINE
  8
0
 10
-2.28339
 20
-28.8865
 11
-2.13799
 21
-28.7763
  0
LINE
  8
0
 10
-2.13799
 20
-28.7763
 11
-1.98706
 21
-28.6734
  0
LINE
  8
0
 10
-1.98706
 20
-28.6734
 11
-1.83121
 21
-28.5782
  0
LINE
  8
0
 10
-1.83121
 20
-28.5782
 11
-1.67105
 21
-28.491
  0
LINE
  8
0
 10
-1.67105
 20
-28.491
 11
-1.50623
 21
-28.4116
  0
LINE
  8
0
 10
-1.50623
 20
-28.4116
 11
-1.3381
 21
-28.3407
  0
LINE
  8
0
 10
-1.3381
 20
-28.3407
 11
-1.16643
 21
-28.2782
  0
LINE
  8
0
 10
-1.16643
 20
-28.2782
 11
-0.991837
 21
-28.2244
  0
LINE
  8
0
 10
-0.991837
 20
-28.2244
 11
-0.815063
 21
-28.1794
  0
LINE
  8
0
 10
-0.815063
 20
-28.1794
 11
-0.635803
 21
-28.1431
  0
LINE
  8
0
 10
-0.635803
 20
-28.1431
 11
-0.455521
 21
-28.116
  0
LINE
  8
0
 10
-0.455521
 20
-28.116
 11
-0.273575
 21
-28.0978
  0
LINE
  8
0
 10
-0.273575
 20
-28.0978
 11
-0.0912476
 21
-28.0887
  0
LINE
  8
0
 10
-0.0912476
 20
-28.0887
 11
0.0912476
 21
-28.0887
  0
LINE
  8
0
 10
0.0912476
 20
-28.0887
 11
0.273575
 21
-28.0978
  0
LINE
  8
0
 10
0.273575
 20
-28.0978
 11
0.455521
 21
-28.116
  0
LINE
  8
0
 10
0.455521
 20
-28.116
 11
0.635803
 21
-28.1431
  0
LINE
  8
0
 10
0.635803
 20
-28.1431
 11
0.815063
 21
-28.1794
  0
LINE
  8
0
 10
0.815063
 20
-28.1794
 11
0.991837
 21
-28.2244
  0
LINE
  8
0
 10
0.991837
 20
-28.2244
 11
1.16643
 21
-28.2782
  0
LINE
  8
0
 10
1.16643
 20
-28.2782
 11
1.3381
 21
-28.3407
  0
LINE
  8
0
 10
1.3381
 20
-28.3407
 11
1.50623
 21
-28.4116
  0
LINE
  8
0
 10
1.50623
 20
-28.4116
 11
1.67105
 21
-28.491
  0
LINE
  8
0
 10
1.67105
 20
-28.491
 11
1.83121
 21
-28.5782
  0
LINE
  8
0
 10
1.83121
 20
-28.5782
 11
1.98706
 21
-28.6734
  0
LINE
  8
0
 10
1.98706
 20
-28.6734
 11
2.13799
 21
-28.7763
  0
LINE
  8
0
 10
2.13799
 20
-28.7763
 11
2.28339
 21
-28.8865
  0
LINE
  8
0
 10
2.28339
 20
-28.8865
 11
2.42342
 21
-29.004
  0
LINE
  8
0
 10
2.42342
 20
-29.004
 11
2.55728
 21
-29.1282
  0
LINE
  8
0
 10
2.55728
 20
-29.1282
 11
2.68477
 21
-29.2589
  0
LINE
  8
0
 10
2.68477
 20
-29.2589
 11
2.80571
 21
-29.3959
  0
LINE
  8
0
 10
2.80571
 20
-29.3959
 11
2.91943
 21
-29.5385
  0
LINE
  8
0
 10
2.91943
 20
-29.5385
 11
3.02606
 21
-29.6868
  0
LINE
  8
0
 10
3.02606
 20
-29.6868
 11
3.12515
 21
-29.8403
  0
LINE
  8
0
 10
3.12515
 20
-29.8403
 11
3.21642
 21
-29.9983
  0
LINE
  8
0
 10
3.21642
 20
-29.9983
 11
3.2998
 21
-30.161
  0
LINE
  8
0
 10
3.2998
 20
-30.161
 11
3.37486
 21
-30.3273
  0
LINE
  8
0
 10
3.37486
 20
-30.3273
 11
3.44157
 21
-30.4973
  0
LINE
  8
0
 10
3.44157
 20
-30.4973
 11
3.49977
 21
-30.6705
  0
LINE
  8
0
 10
3.49977
 20
-30.6705
 11
3.54918
 21
-30.8461
  0
LINE
  8
0
 10
3.54918
 20
-30.8461
 11
3.58989
 21
-31.0245
  0
LINE
  8
0
 10
3.58989
 20
-31.0245
 11
3.62155
 21
-31.204
  0
LINE
  8
0
 10
3.62155
 20
-31.204
 11
3.64427
 21
-31.3855
  0
LINE
  8
0
 10
3.64427
 20
-31.3855
 11
3.6579
 21
-31.5672
  0
LINE
  8
0
 10
3.6579
 20
-31.5672
 11
3.66246
 21
-31.75
  0
LINE
  8
0
 10
3.66246
 20
-31.75
 11
3.6579
 21
-31.9328
  0
LINE
  8
0
 10
3.6579
 20
-31.9328
 11
3.64427
 21
-32.1145
  0
LINE
  8
0
 10
3.64427
 20
-32.1145
 11
3.62155
 21
-32.296
  0
LINE
  8
0
 10
3.62155
 20
-32.296
 11
3.58989
 21
-32.4755
  0
LINE
  8
0
 10
3.58989
 20
-32.4755
 11
3.54918
 21
-32.6539
  0
LINE
  8
0
 10
3.54918
 20
-32.6539
 11
3.4998
 21
-32.8294
  0
LINE
  8
0
 10
3.4998
 20
-32.8294
 11
3.44154
 21
-33.0027
  0
LINE
  8
0
 10
3.44154
 20
-33.0027
 11
3.37486
 21
-33.1727
  0
LINE
  8
0
 10
3.37486
 20
-33.1727
 11
3.2998
 21
-33.339
  0
LINE
  8
0
 10
3.2998
 20
-33.339
 11
3.21642
 21
-33.5017
  0
LINE
  8
0
 10
3.21642
 20
-33.5017
 11
3.12515
 21
-33.6597
  0
LINE
  8
0
 10
3.12515
 20
-33.6597
 11
3.02606
 21
-33.8132
  0
LINE
  8
0
 10
3.02606
 20
-33.8132
 11
2.91943
 21
-33.9615
  0
LINE
  8
0
 10
2.91943
 20
-33.9615
 11
2.80571
 21
-34.1041
  0
LINE
  8
0
 10
2.80571
 20
-34.1041
 11
2.68477
 21
-34.2411
  0
LINE
  8
0
 10
2.68477
 20
-34.2411
 11
2.55728
 21
-34.3718
  0
LINE
  8
0
 10
2.55728
 20
-34.3718
 11
2.42342
 21
-34.496
  0
LINE
  8
0
 10
2.42342
 20
-34.496
 11
2.28339
 21
-34.6135
  0
LINE
  8
0
 10
2.28339
 20
-34.6135
 11
2.13799
 21
-34.7237
  0
LINE
  8
0
 10
2.13799
 20
-34.7237
 11
1.98706
 21
-34.8266
  0
LINE
  8
0
 10
1.98706
 20
-34.8266
 11
1.83133
 21
-34.9217
  0
LINE
  8
0
 10
1.83133
 20
-34.9217
 11
1.67091
 21
-35.0091
  0
LINE
  8
0
 10
1.67091
 20
-35.0091
 11
1.50623
 21
-35.0884
  0
LINE
  8
0
 10
1.50623
 20
-35.0884
 11
1.3381
 21
-35.1593
  0
LINE
  8
0
 10
1.3381
 20
-35.1593
 11
1.16643
 21
-35.2217
  0
LINE
  8
0
 10
1.16643
 20
-35.2217
 11
0.991837
 21
-35.2756
  0
LINE
  8
0
 10
0.991837
 20
-35.2756
 11
0.815063
 21
-35.3206
  0
LINE
  8
0
 10
0.815063
 20
-35.3206
 11
0.635803
 21
-35.3569
  0
LINE
  8
0
 10
0.635803
 20
-35.3569
 11
0.455521
 21
-35.384
  0
LINE
  8
0
 10
0.455521
 20
-35.384
 11
0.273575
 21
-35.4022
  0
LINE
  8
0
 10
0.273575
 20
-35.4022
 11
0.0912476
 21
-35.4113
  0
LINE
  8
0
 10
0.0912476
 20
-35.4113
 11
-0.0912476
 21
-35.4113
  0
ENDSEC
  0
SECTION
  2
OBJECTS
  0
DICTIONARY
  0
ENDSEC
  0
EOF
