  0
SECTION
  2
BLOCKS
  0
ENDSEC
  0
SECTION
  2
ENTITIES
  0
LINE
  8
0
 10
2.85541
 20
-49.2548
 11
5.20345
 21
-49.0624
  0
LINE
  8
0
 10
5.20345
 20
-49.0624
 11
7.53961
 21
-48.758
  0
LINE
  8
0
 10
7.53961
 20
-48.758
 11
9.85857
 21
-48.3425
  0
LINE
  8
0
 10
9.85857
 20
-48.3425
 11
12.1551
 21
-47.8168
  0
LINE
  8
0
 10
12.1551
 20
-47.8168
 11
14.4238
 21
-47.182
  0
LINE
  8
0
 10
14.4238
 20
-47.182
 11
16.6597
 21
-46.4397
  0
LINE
  8
0
 10
16.6597
 20
-46.4397
 11
18.8576
 21
-45.5915
  0
LINE
  8
0
 10
18.8576
 20
-45.5915
 11
21.0125
 21
-44.6393
  0
LINE
  8
0
 10
21.0125
 20
-44.6393
 11
23.1195
 21
-43.5853
  0
LINE
  8
0
 10
23.1195
 20
-43.5853
 11
25.1738
 21
-42.4319
  0
LINE
  8
0
 10
25.1738
 20
-42.4319
 11
27.1707
 21
-41.1819
  0
LINE
  8
0
 10
27.1707
 20
-41.1819
 11
29.1056
 21
-39.8379
  0
LINE
  8
0
 10
29.1056
 20
-39.8379
 11
30.9742
 21
-38.403
  0
LINE
  8
0
 10
30.9742
 20
-38.403
 11
32.8431
 21
-36.8205
  0
LINE
  8
0
 10
32.8431
 20
-36.8205
 11
25.7158
 21
-29.6932
  0
LINE
  8
0
 10
25.7158
 20
-29.6932
 11
29.6932
 21
-25.7158
  0
LINE
  8
0
 10
29.6932
 20
-25.7158
 11
36.8205
 21
-32.8431
  0
LINE
  8
0
 10
36.8205
 20
-32.8431
 11
38.403
 21
-30.9742
  0
LINE
  8
0
 10
38.403
 20
-30.9742
 11
39.8379
 21
-29.1056
  0
LINE
  8
0
 10
39.8379
 20
-29.1056
 11
41.1819
 21
-27.1707
  0
LINE
  8
0
 10
41.1819
 20
-27.1707
 11
42.4319
 21
-25.1738
  0
LINE
  8
0
 10
42.4319
 20
-25.1738
 11
43.5853
 21
-23.1195
  0
LINE
  8
0
 10
43.5853
 20
-23.1195
 11
44.6393
 21
-21.0125
  0
LINE
  8
0
 10
44.6393
 20
-21.0125
 11
45.5915
 21
-18.8576
  0
LINE
  8
0
 10
45.5915
 20
-18.8576
 11
46.4397
 21
-16.6597
  0
LINE
  8
0
 10
46.4397
 20
-16.6597
 11
47.182
 21
-14.4238
  0
LINE
  8
0
 10
47.182
 20
-14.4238
 11
47.8168
 21
-12.1551
  0
LINE
  8
0
 10
47.8168
 20
-12.1551
 11
48.3425
 21
-9.85857
  0
LINE
  8
0
 10
48.3425
 20
-9.85857
 11
48.758
 21
-7.53961
  0
LINE
  8
0
 10
48.758
 20
-7.53961
 11
49.0624
 21
-5.20345
  0
LINE
  8
0
 10
49.0624
 20
-5.20345
 11
49.2548
 21
-2.85541
  0
LINE
  8
0
 10
49.2548
 20
-2.85541
 11
49.3379
 21
-0.415161
  0
LINE
  8
0
 10
49.3379
 20
-0.415161
 11
49.2272
 21
-0.411835
  0
LINE
  8
0
 10
49.2272
 20
-0.411835
 11
49.2072
 21
-0.410248
  0
LINE
  8
0
 10
49.2072
 20
-0.410248
 11
49.1866
 21
-0.407562
  0
LINE
  8
0
 10
49.1866
 20
-0.407562
 11
49.1665
 21
-0.403931
  0
LINE
  8
0
 10
49.1665
 20
-0.403931
 11
49.1463
 21
-0.399231
  0
LINE
  8
0
 10
49.1463
 20
-0.399231
 11
49.1268
 21
-0.393646
  0
LINE
  8
0
 10
49.1268
 20
-0.393646
 11
49.1075
 21
-0.38707
  0
LINE
  8
0
 10
49.1075
 20
-0.38707
 11
49.0884
 21
-0.379471
  0
LINE
  8
0
 10
49.0884
 20
-0.379471
 11
49.0695
 21
-0.370895
  0
LINE
  8
0
 10
49.0695
 20
-0.370895
 11
49.0515
 21
-0.361572
  0
LINE
  8
0
 10
49.0515
 20
-0.361572
 11
49.0338
 21
-0.351273
  0
LINE
  8
0
 10
49.0338
 20
-0.351273
 11
49.0165
 21
-0.340012
  0
LINE
  8
0
 10
49.0165
 20
-0.340012
 11
49.0001
 21
-0.328156
  0
LINE
  8
0
 10
49.0001
 20
-0.328156
 11
48.9838
 21
-0.315094
  0
LINE
  8
0
 10
48.9838
 20
-0.315094
 11
48.9686
 21
-0.30162
  0
LINE
  8
0
 10
48.9686
 20
-0.30162
 11
48.9542
 21
-0.28743
  0
LINE
  8
0
 10
48.9542
 20
-0.28743
 11
48.94
 21
-0.272034
  0
LINE
  8
0
 10
48.94
 20
-0.272034
 11
48.927
 21
-0.2565
  0
LINE
  8
0
 10
48.927
 20
-0.2565
 11
48.9145
 21
-0.23996
  0
LINE
  8
0
 10
48.9145
 20
-0.23996
 11
48.9032
 21
-0.223343
  0
LINE
  8
0
 10
48.9032
 20
-0.223343
 11
48.8923
 21
-0.205383
  0
LINE
  8
0
 10
48.8923
 20
-0.205383
 11
48.8828
 21
-0.187897
  0
LINE
  8
0
 10
48.8828
 20
-0.187897
 11
48.8737
 21
-0.169022
  0
LINE
  8
0
 10
48.8737
 20
-0.169022
 11
48.8658
 21
-0.150116
  0
LINE
  8
0
 10
48.8658
 20
-0.150116
 11
48.8589
 21
-0.131073
  0
LINE
  8
0
 10
48.8589
 20
-0.131073
 11
48.8528
 21
-0.111359
  0
LINE
  8
0
 10
48.8528
 20
-0.111359
 11
48.8478
 21
-0.0913239
  0
LINE
  8
0
 10
48.8478
 20
-0.0913239
 11
48.8438
 21
-0.0715485
  0
LINE
  8
0
 10
48.8438
 20
-0.0715485
 11
48.8407
 21
-0.0509644
  0
LINE
  8
0
 10
48.8407
 20
-0.0509644
 11
48.8387
 21
-0.0307159
  0
LINE
  8
0
 10
48.8387
 20
-0.0307159
 11
48.8376
 21
-0.0102234
  0
LINE
  8
0
 10
48.8376
 20
-0.0102234
 11
48.8376
 21
0.0102234
  0
LINE
  8
0
 10
48.8376
 20
0.0102234
 11
48.8387
 21
0.0307159
  0
LINE
  8
0
 10
48.8387
 20
0.0307159
 11
48.8407
 21
0.0509644
  0
LINE
  8
0
 10
48.8407
 20
0.0509644
 11
48.8438
 21
0.0715485
  0
LINE
  8
0
 10
48.8438
 20
0.0715485
 11
48.8478
 21
0.0913239
  0
LINE
  8
0
 10
48.8478
 20
0.0913239
 11
48.8528
 21
0.111359
  0
LINE
  8
0
 10
48.8528
 20
0.111359
 11
48.8589
 21
0.131073
  0
LINE
  8
0
 10
48.8589
 20
0.131073
 11
48.8658
 21
0.150116
  0
LINE
  8
0
 10
48.8658
 20
0.150116
 11
48.8737
 21
0.169022
  0
LINE
  8
0
 10
48.8737
 20
0.169022
 11
48.8828
 21
0.187897
  0
LINE
  8
0
 10
48.8828
 20
0.187897
 11
48.8923
 21
0.205383
  0
LINE
  8
0
 10
48.8923
 20
0.205383
 11
48.9032
 21
0.223343
  0
LINE
  8
0
 10
48.9032
 20
0.223343
 11
48.9145
 21
0.23996
  0
LINE
  8
0
 10
48.9145
 20
0.23996
 11
48.927
 21
0.2565
  0
LINE
  8
0
 10
48.927
 20
0.2565
 11
48.94
 21
0.272034
  0
LINE
  8
0
 10
48.94
 20
0.272034
 11
48.9542
 21
0.28743
  0
LINE
  8
0
 10
48.9542
 20
0.28743
 11
48.9686
 21
0.30162
  0
LINE
  8
0
 10
48.9686
 20
0.30162
 11
48.9838
 21
0.315094
  0
LINE
  8
0
 10
48.9838
 20
0.315094
 11
49.0001
 21
0.328156
  0
LINE
  8
0
 10
49.0001
 20
0.328156
 11
49.0165
 21
0.340012
  0
LINE
  8
0
 10
49.0165
 20
0.340012
 11
49.0338
 21
0.351273
  0
LINE
  8
0
 10
49.0338
 20
0.351273
 11
49.0515
 21
0.361572
  0
LINE
  8
0
 10
49.0515
 20
0.361572
 11
49.0695
 21
0.370895
  0
LINE
  8
0
 10
49.0695
 20
0.370895
 11
49.0884
 21
0.379471
  0
LINE
  8
0
 10
49.0884
 20
0.379471
 11
49.1075
 21
0.38707
  0
LINE
  8
0
 10
49.1075
 20
0.38707
 11
49.1268
 21
0.393631
  0
LINE
  8
0
 10
49.1268
 20
0.393631
 11
49.1463
 21
0.399231
  0
LINE
  8
0
 10
49.1463
 20
0.399231
 11
49.1665
 21
0.403931
  0
LINE
  8
0
 10
49.1665
 20
0.403931
 11
49.1866
 21
0.407562
  0
LINE
  8
0
 10
49.1866
 20
0.407562
 11
49.2072
 21
0.410248
  0
LINE
  8
0
 10
49.2072
 20
0.410248
 11
49.2272
 21
0.411835
  0
LINE
  8
0
 10
49.2272
 20
0.411835
 11
49.3379
 21
0.415161
  0
LINE
  8
0
 10
49.3379
 20
0.415161
 11
49.2548
 21
2.85541
  0
LINE
  8
0
 10
49.2548
 20
2.85541
 11
49.0624
 21
5.20345
  0
LINE
  8
0
 10
49.0624
 20
5.20345
 11
48.758
 21
7.53961
  0
LINE
  8
0
 10
48.758
 20
7.53961
 11
48.3425
 21
9.85857
  0
LINE
  8
0
 10
48.3425
 20
9.85857
 11
47.8168
 21
12.1551
  0
LINE
  8
0
 10
47.8168
 20
12.1551
 11
47.182
 21
14.4238
  0
LINE
  8
0
 10
47.182
 20
14.4238
 11
46.4397
 21
16.6597
  0
LINE
  8
0
 10
46.4397
 20
16.6597
 11
45.5915
 21
18.8576
  0
LINE
  8
0
 10
45.5915
 20
18.8576
 11
44.6393
 21
21.0125
  0
LINE
  8
0
 10
44.6393
 20
21.0125
 11
43.5853
 21
23.1195
  0
LINE
  8
0
 10
43.5853
 20
23.1195
 11
42.4319
 21
25.1738
  0
LINE
  8
0
 10
42.4319
 20
25.1738
 11
41.1819
 21
27.1707
  0
LINE
  8
0
 10
41.1819
 20
27.1707
 11
39.8379
 21
29.1056
  0
LINE
  8
0
 10
39.8379
 20
29.1056
 11
38.403
 21
30.9742
  0
LINE
  8
0
 10
38.403
 20
30.9742
 11
36.8205
 21
32.8431
  0
LINE
  8
0
 10
36.8205
 20
32.8431
 11
29.6932
 21
25.7158
  0
LINE
  8
0
 10
29.6932
 20
25.7158
 11
25.7158
 21
29.6932
  0
LINE
  8
0
 10
25.7158
 20
29.6932
 11
32.8431
 21
36.8205
  0
LINE
  8
0
 10
32.8431
 20
36.8205
 11
30.9742
 21
38.403
  0
LINE
  8
0
 10
30.9742
 20
38.403
 11
29.1056
 21
39.8379
  0
LINE
  8
0
 10
29.1056
 20
39.8379
 11
27.1707
 21
41.1819
  0
LINE
  8
0
 10
27.1707
 20
41.1819
 11
25.1738
 21
42.4319
  0
LINE
  8
0
 10
25.1738
 20
42.4319
 11
23.1195
 21
43.5853
  0
LINE
  8
0
 10
23.1195
 20
43.5853
 11
21.0125
 21
44.6393
  0
LINE
  8
0
 10
21.0125
 20
44.6393
 11
18.8576
 21
45.5915
  0
LINE
  8
0
 10
18.8576
 20
45.5915
 11
16.6597
 21
46.4397
  0
LINE
  8
0
 10
16.6597
 20
46.4397
 11
14.4238
 21
47.182
  0
LINE
  8
0
 10
14.4238
 20
47.182
 11
12.1551
 21
47.8168
  0
LINE
  8
0
 10
12.1551
 20
47.8168
 11
9.85857
 21
48.3425
  0
LINE
  8
0
 10
9.85857
 20
48.3425
 11
7.53961
 21
48.758
  0
LINE
  8
0
 10
7.53961
 20
48.758
 11
5.20345
 21
49.0624
  0
LINE
  8
0
 10
5.20345
 20
49.0624
 11
2.85541
 21
49.2548
  0
LINE
  8
0
 10
2.85541
 20
49.2548
 11
0.415161
 21
49.3379
  0
LINE
  8
0
 10
0.415161
 20
49.3379
 11
0.411835
 21
49.2272
  0
LINE
  8
0
 10
0.411835
 20
49.2272
 11
0.410248
 21
49.2072
  0
LINE
  8
0
 10
0.410248
 20
49.2072
 11
0.407562
 21
49.1866
  0
LINE
  8
0
 10
0.407562
 20
49.1866
 11
0.403931
 21
49.1665
  0
LINE
  8
0
 10
0.403931
 20
49.1665
 11
0.399231
 21
49.1463
  0
LINE
  8
0
 10
0.399231
 20
49.1463
 11
0.393646
 21
49.1268
  0
LINE
  8
0
 10
0.393646
 20
49.1268
 11
0.38707
 21
49.1075
  0
LINE
  8
0
 10
0.38707
 20
49.1075
 11
0.379471
 21
49.0884
  0
LINE
  8
0
 10
0.379471
 20
49.0884
 11
0.370895
 21
49.0695
  0
LINE
  8
0
 10
0.370895
 20
49.0695
 11
0.361572
 21
49.0515
  0
LINE
  8
0
 10
0.361572
 20
49.0515
 11
0.351273
 21
49.0338
  0
LINE
  8
0
 10
0.351273
 20
49.0338
 11
0.340012
 21
49.0165
  0
LINE
  8
0
 10
0.340012
 20
49.0165
 11
0.328156
 21
49.0001
  0
LINE
  8
0
 10
0.328156
 20
49.0001
 11
0.315094
 21
48.9838
  0
LINE
  8
0
 10
0.315094
 20
48.9838
 11
0.30162
 21
48.9686
  0
LINE
  8
0
 10
0.30162
 20
48.9686
 11
0.28743
 21
48.9542
  0
LINE
  8
0
 10
0.28743
 20
48.9542
 11
0.272034
 21
48.94
  0
LINE
  8
0
 10
0.272034
 20
48.94
 11
0.2565
 21
48.927
  0
LINE
  8
0
 10
0.2565
 20
48.927
 11
0.23996
 21
48.9145
  0
LINE
  8
0
 10
0.23996
 20
48.9145
 11
0.223343
 21
48.9032
  0
LINE
  8
0
 10
0.223343
 20
48.9032
 11
0.205383
 21
48.8923
  0
LINE
  8
0
 10
0.205383
 20
48.8923
 11
0.187897
 21
48.8828
  0
LINE
  8
0
 10
0.187897
 20
48.8828
 11
0.169022
 21
48.8737
  0
LINE
  8
0
 10
0.169022
 20
48.8737
 11
0.150116
 21
48.8658
  0
LINE
  8
0
 10
0.150116
 20
48.8658
 11
0.131073
 21
48.8589
  0
LINE
  8
0
 10
0.131073
 20
48.8589
 11
0.111359
 21
48.8528
  0
LINE
  8
0
 10
0.111359
 20
48.8528
 11
0.0913239
 21
48.8478
  0
LINE
  8
0
 10
0.0913239
 20
48.8478
 11
0.0715485
 21
48.8438
  0
LINE
  8
0
 10
0.0715485
 20
48.8438
 11
0.0509644
 21
48.8407
  0
LINE
  8
0
 10
0.0509644
 20
48.8407
 11
0.0307159
 21
48.8387
  0
LINE
  8
0
 10
0.0307159
 20
48.8387
 11
0.0102234
 21
48.8376
  0
LINE
  8
0
 10
0.0102234
 20
48.8376
 11
-0.0102234
 21
48.8376
  0
LINE
  8
0
 10
-0.0102234
 20
48.8376
 11
-0.0307159
 21
48.8387
  0
LINE
  8
0
 10
-0.0307159
 20
48.8387
 11
-0.0509644
 21
48.8407
  0
LINE
  8
0
 10
-0.0509644
 20
48.8407
 11
-0.0715485
 21
48.8438
  0
LINE
  8
0
 10
-0.0715485
 20
48.8438
 11
-0.0913239
 21
48.8478
  0
LINE
  8
0
 10
-0.0913239
 20
48.8478
 11
-0.111359
 21
48.8528
  0
LINE
  8
0
 10
-0.111359
 20
48.8528
 11
-0.131073
 21
48.8589
  0
LINE
  8
0
 10
-0.131073
 20
48.8589
 11
-0.150116
 21
48.8658
  0
LINE
  8
0
 10
-0.150116
 20
48.8658
 11
-0.169022
 21
48.8737
  0
LINE
  8
0
 10
-0.169022
 20
48.8737
 11
-0.187897
 21
48.8828
  0
LINE
  8
0
 10
-0.187897
 20
48.8828
 11
-0.205383
 21
48.8923
  0
LINE
  8
0
 10
-0.205383
 20
48.8923
 11
-0.223343
 21
48.9032
  0
LINE
  8
0
 10
-0.223343
 20
48.9032
 11
-0.23996
 21
48.9145
  0
LINE
  8
0
 10
-0.23996
 20
48.9145
 11
-0.2565
 21
48.927
  0
LINE
  8
0
 10
-0.2565
 20
48.927
 11
-0.272034
 21
48.94
  0
LINE
  8
0
 10
-0.272034
 20
48.94
 11
-0.28743
 21
48.9542
  0
LINE
  8
0
 10
-0.28743
 20
48.9542
 11
-0.30162
 21
48.9686
  0
LINE
  8
0
 10
-0.30162
 20
48.9686
 11
-0.315094
 21
48.9838
  0
LINE
  8
0
 10
-0.315094
 20
48.9838
 11
-0.328156
 21
49.0001
  0
LINE
  8
0
 10
-0.328156
 20
49.0001
 11
-0.340012
 21
49.0165
  0
LINE
  8
0
 10
-0.340012
 20
49.0165
 11
-0.351273
 21
49.0338
  0
LINE
  8
0
 10
-0.351273
 20
49.0338
 11
-0.361572
 21
49.0515
  0
LINE
  8
0
 10
-0.361572
 20
49.0515
 11
-0.370895
 21
49.0695
  0
LINE
  8
0
 10
-0.370895
 20
49.0695
 11
-0.379471
 21
49.0884
  0
LINE
  8
0
 10
-0.379471
 20
49.0884
 11
-0.38707
 21
49.1075
  0
LINE
  8
0
 10
-0.38707
 20
49.1075
 11
-0.393646
 21
49.1268
  0
LINE
  8
0
 10
-0.393646
 20
49.1268
 11
-0.399231
 21
49.1463
  0
LINE
  8
0
 10
-0.399231
 20
49.1463
 11
-0.403931
 21
49.1665
  0
LINE
  8
0
 10
-0.403931
 20
49.1665
 11
-0.407562
 21
49.1866
  0
LINE
  8
0
 10
-0.407562
 20
49.1866
 11
-0.410248
 21
49.2072
  0
LINE
  8
0
 10
-0.410248
 20
49.2072
 11
-0.411835
 21
49.2272
  0
LINE
  8
0
 10
-0.411835
 20
49.2272
 11
-0.415161
 21
49.3379
  0
LINE
  8
0
 10
-0.415161
 20
49.3379
 11
-2.85541
 21
49.2548
  0
LINE
  8
0
 10
-2.85541
 20
49.2548
 11
-5.20345
 21
49.0624
  0
LINE
  8
0
 10
-5.20345
 20
49.0624
 11
-7.53961
 21
48.758
  0
LINE
  8
0
 10
-7.53961
 20
48.758
 11
-9.85857
 21
48.3425
  0
LINE
  8
0
 10
-9.85857
 20
48.3425
 11
-12.1551
 21
47.8168
  0
LINE
  8
0
 10
-12.1551
 20
47.8168
 11
-14.4238
 21
47.182
  0
LINE
  8
0
 10
-14.4238
 20
47.182
 11
-16.6597
 21
46.4397
  0
LINE
  8
0
 10
-16.6597
 20
46.4397
 11
-18.8576
 21
45.5915
  0
LINE
  8
0
 10
-18.8576
 20
45.5915
 11
-21.0125
 21
44.6393
  0
LINE
  8
0
 10
-21.0125
 20
44.6393
 11
-23.1195
 21
43.5853
  0
LINE
  8
0
 10
-23.1195
 20
43.5853
 11
-25.1738
 21
42.4319
  0
LINE
  8
0
 10
-25.1738
 20
42.4319
 11
-27.1707
 21
41.1819
  0
LINE
  8
0
 10
-27.1707
 20
41.1819
 11
-29.1056
 21
39.8379
  0
LINE
  8
0
 10
-29.1056
 20
39.8379
 11
-30.9742
 21
38.403
  0
LINE
  8
0
 10
-30.9742
 20
38.403
 11
-32.8431
 21
36.8205
  0
LINE
  8
0
 10
-32.8431
 20
36.8205
 11
-25.7158
 21
29.6932
  0
LINE
  8
0
 10
-25.7158
 20
29.6932
 11
-29.6932
 21
25.7158
  0
LINE
  8
0
 10
-29.6932
 20
25.7158
 11
-36.8205
 21
32.8431
  0
LINE
  8
0
 10
-36.8205
 20
32.8431
 11
-38.403
 21
30.9742
  0
LINE
  8
0
 10
-38.403
 20
30.9742
 11
-39.8379
 21
29.1056
  0
LINE
  8
0
 10
-39.8379
 20
29.1056
 11
-41.1819
 21
27.1707
  0
LINE
  8
0
 10
-41.1819
 20
27.1707
 11
-42.4319
 21
25.1738
  0
LINE
  8
0
 10
-42.4319
 20
25.1738
 11
-43.5853
 21
23.1195
  0
LINE
  8
0
 10
-43.5853
 20
23.1195
 11
-44.6393
 21
21.0125
  0
LINE
  8
0
 10
-44.6393
 20
21.0125
 11
-45.5915
 21
18.8576
  0
LINE
  8
0
 10
-45.5915
 20
18.8576
 11
-46.4397
 21
16.6597
  0
LINE
  8
0
 10
-46.4397
 20
16.6597
 11
-47.182
 21
14.4238
  0
LINE
  8
0
 10
-47.182
 20
14.4238
 11
-47.8168
 21
12.1551
  0
LINE
  8
0
 10
-47.8168
 20
12.1551
 11
-48.3425
 21
9.85857
  0
LINE
  8
0
 10
-48.3425
 20
9.85857
 11
-48.758
 21
7.53961
  0
LINE
  8
0
 10
-48.758
 20
7.53961
 11
-49.0624
 21
5.20345
  0
LINE
  8
0
 10
-49.0624
 20
5.20345
 11
-49.2548
 21
2.85541
  0
LINE
  8
0
 10
-49.2548
 20
2.85541
 11
-49.3379
 21
0.4151
  0
LINE
  8
0
 10
-49.3379
 20
0.4151
 11
-49.2278
 21
0.411865
  0
LINE
  8
0
 10
-49.2278
 20
0.411865
 11
-49.2076
 21
0.410278
  0
LINE
  8
0
 10
-49.2076
 20
0.410278
 11
-49.1876
 21
0.407715
  0
LINE
  8
0
 10
-49.1876
 20
0.407715
 11
-49.1675
 21
0.404129
  0
LINE
  8
0
 10
-49.1675
 20
0.404129
 11
-49.1481
 21
0.399689
  0
LINE
  8
0
 10
-49.1481
 20
0.399689
 11
-49.1288
 21
0.394272
  0
LINE
  8
0
 10
-49.1288
 20
0.394272
 11
-49.1095
 21
0.387802
  0
LINE
  8
0
 10
-49.1095
 20
0.387802
 11
-49.0906
 21
0.380417
  0
LINE
  8
0
 10
-49.0906
 20
0.380417
 11
-49.0722
 21
0.372192
  0
LINE
  8
0
 10
-49.0722
 20
0.372192
 11
-49.0544
 21
0.363159
  0
LINE
  8
0
 10
-49.0544
 20
0.363159
 11
-49.0366
 21
0.352966
  0
LINE
  8
0
 10
-49.0366
 20
0.352966
 11
-49.0196
 21
0.342148
  0
LINE
  8
0
 10
-49.0196
 20
0.342148
 11
-49.0033
 21
0.330597
  0
LINE
  8
0
 10
-49.0033
 20
0.330597
 11
-48.9876
 21
0.318283
  0
LINE
  8
0
 10
-48.9876
 20
0.318283
 11
-48.9719
 21
0.304642
  0
LINE
  8
0
 10
-48.9719
 20
0.304642
 11
-48.9576
 21
0.290939
  0
LINE
  8
0
 10
-48.9576
 20
0.290939
 11
-48.9438
 21
0.276337
  0
LINE
  8
0
 10
-48.9438
 20
0.276337
 11
-48.9306
 21
0.261047
  0
LINE
  8
0
 10
-48.9306
 20
0.261047
 11
-48.9181
 21
0.244888
  0
LINE
  8
0
 10
-48.9181
 20
0.244888
 11
-48.9066
 21
0.22847
  0
LINE
  8
0
 10
-48.9066
 20
0.22847
 11
-48.8959
 21
0.211487
  0
LINE
  8
0
 10
-48.8959
 20
0.211487
 11
-48.8859
 21
0.193878
  0
LINE
  8
0
 10
-48.8859
 20
0.193878
 11
-48.8768
 21
0.175735
  0
LINE
  8
0
 10
-48.8768
 20
0.175735
 11
-48.8687
 21
0.157318
  0
LINE
  8
0
 10
-48.8687
 20
0.157318
 11
-48.8615
 21
0.138596
  0
LINE
  8
0
 10
-48.8615
 20
0.138596
 11
-48.8551
 21
0.119202
  0
LINE
  8
0
 10
-48.8551
 20
0.119202
 11
-48.8498
 21
0.0999603
  0
LINE
  8
0
 10
-48.8498
 20
0.0999603
 11
-48.8454
 21
0.080307
  0
LINE
  8
0
 10
-48.8454
 20
0.080307
 11
-48.8419
 21
0.0601044
  0
LINE
  8
0
 10
-48.8419
 20
0.0601044
 11
-48.8395
 21
0.0403748
  0
LINE
  8
0
 10
-48.8395
 20
0.0403748
 11
-48.838
 21
0.0203247
  0
LINE
  8
0
 10
-48.838
 20
0.0203247
 11
-48.8375
 21
0
  0
LINE
  8
0
 10
-48.8375
 20
0
 11
-48.838
 21
-0.0203247
  0
LINE
  8
0
 10
-48.838
 20
-0.0203247
 11
-48.8395
 21
-0.0403748
  0
LINE
  8
0
 10
-48.8395
 20
-0.0403748
 11
-48.8419
 21
-0.0601044
  0
LINE
  8
0
 10
-48.8419
 20
-0.0601044
 11
-48.8454
 21
-0.080307
  0
LINE
  8
0
 10
-48.8454
 20
-0.080307
 11
-48.8498
 21
-0.0999603
  0
LINE
  8
0
 10
-48.8498
 20
-0.0999603
 11
-48.8551
 21
-0.119202
  0
LINE
  8
0
 10
-48.8551
 20
-0.119202
 11
-48.8615
 21
-0.138596
  0
LINE
  8
0
 10
-48.8615
 20
-0.138596
 11
-48.8687
 21
-0.157318
  0
LINE
  8
0
 10
-48.8687
 20
-0.157318
 11
-48.8768
 21
-0.175735
  0
LINE
  8
0
 10
-48.8768
 20
-0.175735
 11
-48.8859
 21
-0.193878
  0
LINE
  8
0
 10
-48.8859
 20
-0.193878
 11
-48.8959
 21
-0.211487
  0
LINE
  8
0
 10
-48.8959
 20
-0.211487
 11
-48.9066
 21
-0.228546
  0
LINE
  8
0
 10
-48.9066
 20
-0.228546
 11
-48.9181
 21
-0.244888
  0
LINE
  8
0
 10
-48.9181
 20
-0.244888
 11
-48.9306
 21
-0.261047
  0
LINE
  8
0
 10
-48.9306
 20
-0.261047
 11
-48.9438
 21
-0.276337
  0
LINE
  8
0
 10
-48.9438
 20
-0.276337
 11
-48.9576
 21
-0.290939
  0
LINE
  8
0
 10
-48.9576
 20
-0.290939
 11
-48.9719
 21
-0.304642
  0
LINE
  8
0
 10
-48.9719
 20
-0.304642
 11
-48.9876
 21
-0.318283
  0
LINE
  8
0
 10
-48.9876
 20
-0.318283
 11
-49.0033
 21
-0.330597
  0
LINE
  8
0
 10
-49.0033
 20
-0.330597
 11
-49.0196
 21
-0.342148
  0
LINE
  8
0
 10
-49.0196
 20
-0.342148
 11
-49.0366
 21
-0.352966
  0
LINE
  8
0
 10
-49.0366
 20
-0.352966
 11
-49.0544
 21
-0.363159
  0
LINE
  8
0
 10
-49.0544
 20
-0.363159
 11
-49.0722
 21
-0.372192
  0
LINE
  8
0
 10
-49.0722
 20
-0.372192
 11
-49.0906
 21
-0.380417
  0
LINE
  8
0
 10
-49.0906
 20
-0.380417
 11
-49.1096
 21
-0.387833
  0
LINE
  8
0
 10
-49.1096
 20
-0.387833
 11
-49.1288
 21
-0.394272
  0
LINE
  8
0
 10
-49.1288
 20
-0.394272
 11
-49.1481
 21
-0.399689
  0
LINE
  8
0
 10
-49.1481
 20
-0.399689
 11
-49.1675
 21
-0.404129
  0
LINE
  8
0
 10
-49.1675
 20
-0.404129
 11
-49.1876
 21
-0.407715
  0
LINE
  8
0
 10
-49.1876
 20
-0.407715
 11
-49.2076
 21
-0.410278
  0
LINE
  8
0
 10
-49.2076
 20
-0.410278
 11
-49.2278
 21
-0.411865
  0
LINE
  8
0
 10
-49.2278
 20
-0.411865
 11
-49.3379
 21
-0.4151
  0
LINE
  8
0
 10
-49.3379
 20
-0.4151
 11
-49.2548
 21
-2.85541
  0
LINE
  8
0
 10
-49.2548
 20
-2.85541
 11
-49.0624
 21
-5.20345
  0
LINE
  8
0
 10
-49.0624
 20
-5.20345
 11
-48.758
 21
-7.53961
  0
LINE
  8
0
 10
-48.758
 20
-7.53961
 11
-48.3425
 21
-9.85857
  0
LINE
  8
0
 10
-48.3425
 20
-9.85857
 11
-47.8168
 21
-12.1551
  0
LINE
  8
0
 10
-47.8168
 20
-12.1551
 11
-47.182
 21
-14.4238
  0
LINE
  8
0
 10
-47.182
 20
-14.4238
 11
-46.4397
 21
-16.6597
  0
LINE
  8
0
 10
-46.4397
 20
-16.6597
 11
-45.5915
 21
-18.8576
  0
LINE
  8
0
 10
-45.5915
 20
-18.8576
 11
-44.6393
 21
-21.0125
  0
LINE
  8
0
 10
-44.6393
 20
-21.0125
 11
-43.5853
 21
-23.1195
  0
LINE
  8
0
 10
-43.5853
 20
-23.1195
 11
-42.4319
 21
-25.1738
  0
LINE
  8
0
 10
-42.4319
 20
-25.1738
 11
-41.1819
 21
-27.1707
  0
LINE
  8
0
 10
-41.1819
 20
-27.1707
 11
-39.8379
 21
-29.1056
  0
LINE
  8
0
 10
-39.8379
 20
-29.1056
 11
-38.403
 21
-30.9742
  0
LINE
  8
0
 10
-38.403
 20
-30.9742
 11
-36.8205
 21
-32.8431
  0
LINE
  8
0
 10
-36.8205
 20
-32.8431
 11
-29.6932
 21
-25.7158
  0
LINE
  8
0
 10
-29.6932
 20
-25.7158
 11
-25.7158
 21
-29.6932
  0
LINE
  8
0
 10
-25.7158
 20
-29.6932
 11
-32.8431
 21
-36.8205
  0
LINE
  8
0
 10
-32.8431
 20
-36.8205
 11
-30.9742
 21
-38.403
  0
LINE
  8
0
 10
-30.9742
 20
-38.403
 11
-29.1056
 21
-39.8379
  0
LINE
  8
0
 10
-29.1056
 20
-39.8379
 11
-27.1707
 21
-41.1819
  0
LINE
  8
0
 10
-27.1707
 20
-41.1819
 11
-25.1738
 21
-42.4319
  0
LINE
  8
0
 10
-25.1738
 20
-42.4319
 11
-23.1195
 21
-43.5853
  0
LINE
  8
0
 10
-23.1195
 20
-43.5853
 11
-21.0125
 21
-44.6393
  0
LINE
  8
0
 10
-21.0125
 20
-44.6393
 11
-18.8576
 21
-45.5915
  0
LINE
  8
0
 10
-18.8576
 20
-45.5915
 11
-16.6597
 21
-46.4397
  0
LINE
  8
0
 10
-16.6597
 20
-46.4397
 11
-14.4238
 21
-47.182
  0
LINE
  8
0
 10
-14.4238
 20
-47.182
 11
-12.1551
 21
-47.8168
  0
LINE
  8
0
 10
-12.1551
 20
-47.8168
 11
-9.85857
 21
-48.3425
  0
LINE
  8
0
 10
-9.85857
 20
-48.3425
 11
-7.53961
 21
-48.758
  0
LINE
  8
0
 10
-7.53961
 20
-48.758
 11
-5.20345
 21
-49.0624
  0
LINE
  8
0
 10
-5.20345
 20
-49.0624
 11
-2.85541
 21
-49.2548
  0
LINE
  8
0
 10
-2.85541
 20
-49.2548
 11
-0.415161
 21
-49.3379
  0
LINE
  8
0
 10
-0.415161
 20
-49.3379
 11
-0.411835
 21
-49.2272
  0
LINE
  8
0
 10
-0.411835
 20
-49.2272
 11
-0.410248
 21
-49.2072
  0
LINE
  8
0
 10
-0.410248
 20
-49.2072
 11
-0.407562
 21
-49.1866
  0
LINE
  8
0
 10
-0.407562
 20
-49.1866
 11
-0.403931
 21
-49.1665
  0
LINE
  8
0
 10
-0.403931
 20
-49.1665
 11
-0.399231
 21
-49.1463
  0
LINE
  8
0
 10
-0.399231
 20
-49.1463
 11
-0.393646
 21
-49.1268
  0
LINE
  8
0
 10
-0.393646
 20
-49.1268
 11
-0.38707
 21
-49.1075
  0
LINE
  8
0
 10
-0.38707
 20
-49.1075
 11
-0.379471
 21
-49.0884
  0
LINE
  8
0
 10
-0.379471
 20
-49.0884
 11
-0.370895
 21
-49.0695
  0
LINE
  8
0
 10
-0.370895
 20
-49.0695
 11
-0.361572
 21
-49.0515
  0
LINE
  8
0
 10
-0.361572
 20
-49.0515
 11
-0.351273
 21
-49.0338
  0
LINE
  8
0
 10
-0.351273
 20
-49.0338
 11
-0.340012
 21
-49.0165
  0
LINE
  8
0
 10
-0.340012
 20
-49.0165
 11
-0.328156
 21
-49.0001
  0
LINE
  8
0
 10
-0.328156
 20
-49.0001
 11
-0.315094
 21
-48.9838
  0
LINE
  8
0
 10
-0.315094
 20
-48.9838
 11
-0.30162
 21
-48.9686
  0
LINE
  8
0
 10
-0.30162
 20
-48.9686
 11
-0.28743
 21
-48.9542
  0
LINE
  8
0
 10
-0.28743
 20
-48.9542
 11
-0.272034
 21
-48.94
  0
LINE
  8
0
 10
-0.272034
 20
-48.94
 11
-0.2565
 21
-48.927
  0
LINE
  8
0
 10
-0.2565
 20
-48.927
 11
-0.23996
 21
-48.9145
  0
LINE
  8
0
 10
-0.23996
 20
-48.9145
 11
-0.223343
 21
-48.9032
  0
LINE
  8
0
 10
-0.223343
 20
-48.9032
 11
-0.205383
 21
-48.8923
  0
LINE
  8
0
 10
-0.205383
 20
-48.8923
 11
-0.187897
 21
-48.8828
  0
LINE
  8
0
 10
-0.187897
 20
-48.8828
 11
-0.169022
 21
-48.8737
  0
LINE
  8
0
 10
-0.169022
 20
-48.8737
 11
-0.150116
 21
-48.8658
  0
LINE
  8
0
 10
-0.150116
 20
-48.8658
 11
-0.131073
 21
-48.8589
  0
LINE
  8
0
 10
-0.131073
 20
-48.8589
 11
-0.111359
 21
-48.8528
  0
LINE
  8
0
 10
-0.111359
 20
-48.8528
 11
-0.0913239
 21
-48.8478
  0
LINE
  8
0
 10
-0.0913239
 20
-48.8478
 11
-0.0715485
 21
-48.8438
  0
LINE
  8
0
 10
-0.0715485
 20
-48.8438
 11
-0.0509644
 21
-48.8407
  0
LINE
  8
0
 10
-0.0509644
 20
-48.8407
 11
-0.0307159
 21
-48.8387
  0
LINE
  8
0
 10
-0.0307159
 20
-48.8387
 11
-0.0102234
 21
-48.8376
  0
LINE
  8
0
 10
-0.0102234
 20
-48.8376
 11
0.0102234
 21
-48.8376
  0
LINE
  8
0
 10
0.0102234
 20
-48.8376
 11
0.0307159
 21
-48.8387
  0
LINE
  8
0
 10
0.0307159
 20
-48.8387
 11
0.0509644
 21
-48.8407
  0
LINE
  8
0
 10
0.0509644
 20
-48.8407
 11
0.0715485
 21
-48.8438
  0
LINE
  8
0
 10
0.0715485
 20
-48.8438
 11
0.0913239
 21
-48.8478
  0
LINE
  8
0
 10
0.0913239
 20
-48.8478
 11
0.111359
 21
-48.8528
  0
LINE
  8
0
 10
0.111359
 20
-48.8528
 11
0.131073
 21
-48.8589
  0
LINE
  8
0
 10
0.131073
 20
-48.8589
 11
0.150116
 21
-48.8658
  0
LINE
  8
0
 10
0.150116
 20
-48.8658
 11
0.169022
 21
-48.8737
  0
LINE
  8
0
 10
0.169022
 20
-48.8737
 11
0.187897
 21
-48.8828
  0
LINE
  8
0
 10
0.187897
 20
-48.8828
 11
0.205383
 21
-48.8923
  0
LINE
  8
0
 10
0.205383
 20
-48.8923
 11
0.223343
 21
-48.9032
  0
LINE
  8
0
 10
0.223343
 20
-48.9032
 11
0.23996
 21
-48.9145
  0
LINE
  8
0
 10
0.23996
 20
-48.9145
 11
0.2565
 21
-48.927
  0
LINE
  8
0
 10
0.2565
 20
-48.927
 11
0.272034
 21
-48.94
  0
LINE
  8
0
 10
0.272034
 20
-48.94
 11
0.28743
 21
-48.9542
  0
LINE
  8
0
 10
0.28743
 20
-48.9542
 11
0.30162
 21
-48.9686
  0
LINE
  8
0
 10
0.30162
 20
-48.9686
 11
0.315094
 21
-48.9838
  0
LINE
  8
0
 10
0.315094
 20
-48.9838
 11
0.328156
 21
-49.0001
  0
LINE
  8
0
 10
0.328156
 20
-49.0001
 11
0.340012
 21
-49.0165
  0
LINE
  8
0
 10
0.340012
 20
-49.0165
 11
0.351273
 21
-49.0338
  0
LINE
  8
0
 10
0.351273
 20
-49.0338
 11
0.361572
 21
-49.0515
  0
LINE
  8
0
 10
0.361572
 20
-49.0515
 11
0.370895
 21
-49.0695
  0
LINE
  8
0
 10
0.370895
 20
-49.0695
 11
0.379471
 21
-49.0884
  0
LINE
  8
0
 10
0.379471
 20
-49.0884
 11
0.38707
 21
-49.1075
  0
LINE
  8
0
 10
0.38707
 20
-49.1075
 11
0.393646
 21
-49.1268
  0
LINE
  8
0
 10
0.393646
 20
-49.1268
 11
0.399231
 21
-49.1463
  0
LINE
  8
0
 10
0.399231
 20
-49.1463
 11
0.403931
 21
-49.1665
  0
LINE
  8
0
 10
0.403931
 20
-49.1665
 11
0.407562
 21
-49.1866
  0
LINE
  8
0
 10
0.407562
 20
-49.1866
 11
0.410248
 21
-49.2072
  0
LINE
  8
0
 10
0.410248
 20
-49.2072
 11
0.411835
 21
-49.2272
  0
LINE
  8
0
 10
0.411835
 20
-49.2272
 11
0.415161
 21
-49.3379
  0
LINE
  8
0
 10
0.415161
 20
-49.3379
 11
2.85541
 21
-49.2548
  0
LINE
  8
0
 10
-0.12117
 20
34.339
 11
-0.363251
 21
34.3511
  0
LINE
  8
0
 10
-0.363251
 20
34.3511
 11
-0.604736
 21
34.3753
  0
LINE
  8
0
 10
-0.604736
 20
34.3753
 11
-0.844193
 21
34.4114
  0
LINE
  8
0
 10
-0.844193
 20
34.4114
 11
-1.08209
 21
34.4595
  0
LINE
  8
0
 10
-1.08209
 20
34.4595
 11
-1.31685
 21
34.5192
  0
LINE
  8
0
 10
-1.31685
 20
34.5192
 11
-1.54861
 21
34.5907
  0
LINE
  8
0
 10
-1.54861
 20
34.5907
 11
-1.77661
 21
34.6737
  0
LINE
  8
0
 10
-1.77661
 20
34.6737
 11
-1.99992
 21
34.7678
  0
LINE
  8
0
 10
-1.99992
 20
34.7678
 11
-2.21826
 21
34.873
  0
LINE
  8
0
 10
-2.21826
 20
34.873
 11
-2.43118
 21
34.9889
  0
LINE
  8
0
 10
-2.43118
 20
34.9889
 11
-2.63811
 21
35.1154
  0
LINE
  8
0
 10
-2.63811
 20
35.1154
 11
-2.83849
 21
35.252
  0
LINE
  8
0
 10
-2.83849
 20
35.252
 11
-3.03159
 21
35.3983
  0
LINE
  8
0
 10
-3.03159
 20
35.3983
 11
-3.21745
 21
35.5542
  0
LINE
  8
0
 10
-3.21745
 20
35.5542
 11
-3.39516
 21
35.7191
  0
LINE
  8
0
 10
-3.39516
 20
35.7191
 11
-3.56444
 21
35.8927
  0
LINE
  8
0
 10
-3.56444
 20
35.8927
 11
-3.72496
 21
36.0746
  0
LINE
  8
0
 10
-3.72496
 20
36.0746
 11
-3.87599
 21
36.2639
  0
LINE
  8
0
 10
-3.87599
 20
36.2639
 11
-4.01755
 21
36.4608
  0
LINE
  8
0
 10
-4.01755
 20
36.4608
 11
-4.14911
 21
36.6646
  0
LINE
  8
0
 10
-4.14911
 20
36.6646
 11
-4.27028
 21
36.8744
  0
LINE
  8
0
 10
-4.27028
 20
36.8744
 11
-4.38097
 21
37.0903
  0
LINE
  8
0
 10
-4.38097
 20
37.0903
 11
-4.48062
 21
37.3112
  0
LINE
  8
0
 10
-4.48062
 20
37.3112
 11
-4.56921
 21
37.5369
  0
LINE
  8
0
 10
-4.56921
 20
37.5369
 11
-4.64645
 21
37.7668
  0
LINE
  8
0
 10
-4.64645
 20
37.7668
 11
-4.71207
 21
38
  0
LINE
  8
0
 10
-4.71207
 20
38
 11
-4.7661
 21
38.2367
  0
LINE
  8
0
 10
-4.7661
 20
38.2367
 11
-4.80814
 21
38.4752
  0
LINE
  8
0
 10
-4.80814
 20
38.4752
 11
-4.83832
 21
38.716
  0
LINE
  8
0
 10
-4.83832
 20
38.716
 11
-4.8564
 21
38.9574
  0
LINE
  8
0
 10
-4.8564
 20
38.9574
 11
-4.86246
 21
39.2
  0
LINE
  8
0
 10
-4.86246
 20
39.2
 11
-4.8564
 21
39.4426
  0
LINE
  8
0
 10
-4.8564
 20
39.4426
 11
-4.83832
 21
39.684
  0
LINE
  8
0
 10
-4.83832
 20
39.684
 11
-4.80814
 21
39.9248
  0
LINE
  8
0
 10
-4.80814
 20
39.9248
 11
-4.7661
 21
40.1633
  0
LINE
  8
0
 10
-4.7661
 20
40.1633
 11
-4.71207
 21
40.4
  0
LINE
  8
0
 10
-4.71207
 20
40.4
 11
-4.64645
 21
40.6332
  0
LINE
  8
0
 10
-4.64645
 20
40.6332
 11
-4.56921
 21
40.8631
  0
LINE
  8
0
 10
-4.56921
 20
40.8631
 11
-4.48062
 21
41.0888
  0
LINE
  8
0
 10
-4.48062
 20
41.0888
 11
-4.38097
 21
41.3097
  0
LINE
  8
0
 10
-4.38097
 20
41.3097
 11
-4.27028
 21
41.5256
  0
LINE
  8
0
 10
-4.27028
 20
41.5256
 11
-4.14911
 21
41.7354
  0
LINE
  8
0
 10
-4.14911
 20
41.7354
 11
-4.01755
 21
41.9391
  0
LINE
  8
0
 10
-4.01755
 20
41.9391
 11
-3.87599
 21
42.136
  0
LINE
  8
0
 10
-3.87599
 20
42.136
 11
-3.72498
 21
42.3254
  0
LINE
  8
0
 10
-3.72498
 20
42.3254
 11
-3.56441
 21
42.5073
  0
LINE
  8
0
 10
-3.56441
 20
42.5073
 11
-3.39516
 21
42.6809
  0
LINE
  8
0
 10
-3.39516
 20
42.6809
 11
-3.21745
 21
42.8457
  0
LINE
  8
0
 10
-3.21745
 20
42.8457
 11
-3.03159
 21
43.0017
  0
LINE
  8
0
 10
-3.03159
 20
43.0017
 11
-2.83849
 21
43.148
  0
LINE
  8
0
 10
-2.83849
 20
43.148
 11
-2.63811
 21
43.2846
  0
LINE
  8
0
 10
-2.63811
 20
43.2846
 11
-2.43132
 21
43.411
  0
LINE
  8
0
 10
-2.43132
 20
43.411
 11
-2.21837
 21
43.5269
  0
LINE
  8
0
 10
-2.21837
 20
43.5269
 11
-1.99966
 21
43.6322
  0
LINE
  8
0
 10
-1.99966
 20
43.6322
 11
-1.77661
 21
43.7263
  0
LINE
  8
0
 10
-1.77661
 20
43.7263
 11
-1.54861
 21
43.8092
  0
LINE
  8
0
 10
-1.54861
 20
43.8092
 11
-1.31683
 21
43.8808
  0
LINE
  8
0
 10
-1.31683
 20
43.8808
 11
-1.08209
 21
43.9405
  0
LINE
  8
0
 10
-1.08209
 20
43.9405
 11
-0.844147
 21
43.9886
  0
LINE
  8
0
 10
-0.844147
 20
43.9886
 11
-0.604782
 21
44.0247
  0
LINE
  8
0
 10
-0.604782
 20
44.0247
 11
-0.363251
 21
44.0489
  0
LINE
  8
0
 10
-0.363251
 20
44.0489
 11
-0.12117
 21
44.061
  0
LINE
  8
0
 10
-0.12117
 20
44.061
 11
0.12117
 21
44.061
  0
LINE
  8
0
 10
0.12117
 20
44.061
 11
0.363251
 21
44.0489
  0
LINE
  8
0
 10
0.363251
 20
44.0489
 11
0.604782
 21
44.0247
  0
LINE
  8
0
 10
0.604782
 20
44.0247
 11
0.844147
 21
43.9886
  0
LINE
  8
0
 10
0.844147
 20
43.9886
 11
1.08209
 21
43.9405
  0
LINE
  8
0
 10
1.08209
 20
43.9405
 11
1.31683
 21
43.8808
  0
LINE
  8
0
 10
1.31683
 20
43.8808
 11
1.54861
 21
43.8092
  0
LINE
  8
0
 10
1.54861
 20
43.8092
 11
1.77661
 21
43.7263
  0
LINE
  8
0
 10
1.77661
 20
43.7263
 11
1.99966
 21
43.6322
  0
LINE
  8
0
 10
1.99966
 20
43.6322
 11
2.21837
 21
43.5269
  0
LINE
  8
0
 10
2.21837
 20
43.5269
 11
2.43132
 21
43.411
  0
LINE
  8
0
 10
2.43132
 20
43.411
 11
2.63811
 21
43.2846
  0
LINE
  8
0
 10
2.63811
 20
43.2846
 11
2.83849
 21
43.148
  0
LINE
  8
0
 10
2.83849
 20
43.148
 11
3.03159
 21
43.0017
  0
LINE
  8
0
 10
3.03159
 20
43.0017
 11
3.21745
 21
42.8457
  0
LINE
  8
0
 10
3.21745
 20
42.8457
 11
3.39516
 21
42.6809
  0
LINE
  8
0
 10
3.39516
 20
42.6809
 11
3.56441
 21
42.5073
  0
LINE
  8
0
 10
3.56441
 20
42.5073
 11
3.72498
 21
42.3254
  0
LINE
  8
0
 10
3.72498
 20
42.3254
 11
3.87599
 21
42.136
  0
LINE
  8
0
 10
3.87599
 20
42.136
 11
4.01755
 21
41.9391
  0
LINE
  8
0
 10
4.01755
 20
41.9391
 11
4.14911
 21
41.7354
  0
LINE
  8
0
 10
4.14911
 20
41.7354
 11
4.27028
 21
41.5256
  0
LINE
  8
0
 10
4.27028
 20
41.5256
 11
4.38097
 21
41.3097
  0
LINE
  8
0
 10
4.38097
 20
41.3097
 11
4.48062
 21
41.0888
  0
LINE
  8
0
 10
4.48062
 20
41.0888
 11
4.56921
 21
40.8631
  0
LINE
  8
0
 10
4.56921
 20
40.8631
 11
4.64645
 21
40.6332
  0
LINE
  8
0
 10
4.64645
 20
40.6332
 11
4.71207
 21
40.4
  0
LINE
  8
0
 10
4.71207
 20
40.4
 11
4.7661
 21
40.1633
  0
LINE
  8
0
 10
4.7661
 20
40.1633
 11
4.80814
 21
39.9248
  0
LINE
  8
0
 10
4.80814
 20
39.9248
 11
4.83832
 21
39.684
  0
LINE
  8
0
 10
4.83832
 20
39.684
 11
4.8564
 21
39.4426
  0
LINE
  8
0
 10
4.8564
 20
39.4426
 11
4.86246
 21
39.2
  0
LINE
  8
0
 10
4.86246
 20
39.2
 11
4.8564
 21
38.9574
  0
LINE
  8
0
 10
4.8564
 20
38.9574
 11
4.83832
 21
38.716
  0
LINE
  8
0
 10
4.83832
 20
38.716
 11
4.80814
 21
38.4752
  0
LINE
  8
0
 10
4.80814
 20
38.4752
 11
4.7661
 21
38.2367
  0
LINE
  8
0
 10
4.7661
 20
38.2367
 11
4.71207
 21
38
  0
LINE
  8
0
 10
4.71207
 20
38
 11
4.64645
 21
37.7668
  0
LINE
  8
0
 10
4.64645
 20
37.7668
 11
4.56921
 21
37.5369
  0
LINE
  8
0
 10
4.56921
 20
37.5369
 11
4.48062
 21
37.3112
  0
LINE
  8
0
 10
4.48062
 20
37.3112
 11
4.38097
 21
37.0903
  0
LINE
  8
0
 10
4.38097
 20
37.0903
 11
4.27028
 21
36.8744
  0
LINE
  8
0
 10
4.27028
 20
36.8744
 11
4.14911
 21
36.6646
  0
LINE
  8
0
 10
4.14911
 20
36.6646
 11
4.01755
 21
36.4608
  0
LINE
  8
0
 10
4.01755
 20
36.4608
 11
3.87599
 21
36.2639
  0
LINE
  8
0
 10
3.87599
 20
36.2639
 11
3.72496
 21
36.0746
  0
LINE
  8
0
 10
3.72496
 20
36.0746
 11
3.56444
 21
35.8927
  0
LINE
  8
0
 10
3.56444
 20
35.8927
 11
3.39516
 21
35.7191
  0
LINE
  8
0
 10
3.39516
 20
35.7191
 11
3.21745
 21
35.5542
  0
LINE
  8
0
 10
3.21745
 20
35.5542
 11
3.03159
 21
35.3983
  0
LINE
  8
0
 10
3.03159
 20
35.3983
 11
2.83849
 21
35.252
  0
LINE
  8
0
 10
2.83849
 20
35.252
 11
2.63811
 21
35.1154
  0
LINE
  8
0
 10
2.63811
 20
35.1154
 11
2.43118
 21
34.9889
  0
LINE
  8
0
 10
2.43118
 20
34.9889
 11
2.21826
 21
34.873
  0
LINE
  8
0
 10
2.21826
 20
34.873
 11
1.99992
 21
34.7678
  0
LINE
  8
0
 10
1.99992
 20
34.7678
 11
1.77661
 21
34.6737
  0
LINE
  8
0
 10
1.77661
 20
34.6737
 11
1.54861
 21
34.5907
  0
LINE
  8
0
 10
1.54861
 20
34.5907
 11
1.31685
 21
34.5192
  0
LINE
  8
0
 10
1.31685
 20
34.5192
 11
1.08209
 21
34.4595
  0
LINE
  8
0
 10
1.08209
 20
34.4595
 11
0.844193
 21
34.4114
  0
LINE
  8
0
 10
0.844193
 20
34.4114
 11
0.604736
 21
34.3753
  0
LINE
  8
0
 10
0.604736
 20
34.3753
 11
0.363251
 21
34.3511
  0
LINE
  8
0
 10
0.363251
 20
34.3511
 11
0.12117
 21
34.339
  0
LINE
  8
0
 10
0.12117
 20
34.339
 11
-0.12117
 21
34.339
  0
LINE
  8
0
 10
-1.91144
 20
-28.9995
 11
-3.34673
 21
-28.8691
  0
LINE
  8
0
 10
-3.34673
 20
-28.8691
 11
-4.77374
 21
-28.6677
  0
LINE
  8
0
 10
-4.77374
 20
-28.6677
 11
-6.1888
 21
-28.3959
  0
LINE
  8
0
 10
-6.1888
 20
-28.3959
 11
-7.58904
 21
-28.0541
  0
LINE
  8
0
 10
-7.58904
 20
-28.0541
 11
-8.97049
 21
-27.6434
  0
LINE
  8
0
 10
-8.97049
 20
-27.6434
 11
-10.3299
 21
-27.1647
  0
LINE
  8
0
 10
-10.3299
 20
-27.1647
 11
-11.6637
 21
-26.6192
  0
LINE
  8
0
 10
-11.6637
 20
-26.6192
 11
-12.9692
 21
-26.0082
  0
LINE
  8
0
 10
-12.9692
 20
-26.0082
 11
-14.2426
 21
-25.3333
  0
LINE
  8
0
 10
-14.2426
 20
-25.3333
 11
-15.4807
 21
-24.5963
  0
LINE
  8
0
 10
-15.4807
 20
-24.5963
 11
-16.6811
 21
-23.7985
  0
LINE
  8
0
 10
-16.6811
 20
-23.7985
 11
-17.8406
 21
-22.9421
  0
LINE
  8
0
 10
-17.8406
 20
-22.9421
 11
-18.9557
 21
-22.0297
  0
LINE
  8
0
 10
-18.9557
 20
-22.0297
 11
-20.0246
 21
-21.0628
  0
LINE
  8
0
 10
-20.0246
 20
-21.0628
 11
-21.0442
 21
-20.0442
  0
LINE
  8
0
 10
-21.0442
 20
-20.0442
 11
-22.012
 21
-18.9763
  0
LINE
  8
0
 10
-22.012
 20
-18.9763
 11
-22.9255
 21
-17.8619
  0
LINE
  8
0
 10
-22.9255
 20
-17.8619
 11
-23.783
 21
-16.7032
  0
LINE
  8
0
 10
-23.783
 20
-16.7032
 11
-24.5816
 21
-15.5039
  0
LINE
  8
0
 10
-24.5816
 20
-15.5039
 11
-25.3202
 21
-14.2659
  0
LINE
  8
0
 10
-25.3202
 20
-14.2659
 11
-25.9962
 21
-12.9933
  0
LINE
  8
0
 10
-25.9962
 20
-12.9933
 11
-26.6083
 21
-11.6887
  0
LINE
  8
0
 10
-26.6083
 20
-11.6887
 11
-27.1551
 21
-10.3551
  0
LINE
  8
0
 10
-27.1551
 20
-10.3551
 11
-27.635
 21
-8.99619
  0
LINE
  8
0
 10
-27.635
 20
-8.99619
 11
-28.047
 21
-7.61537
  0
LINE
  8
0
 10
-28.047
 20
-7.61537
 11
-28.3901
 21
-6.21519
  0
LINE
  8
0
 10
-28.3901
 20
-6.21519
 11
-28.6633
 21
-4.80043
  0
LINE
  8
0
 10
-28.6633
 20
-4.80043
 11
-28.866
 21
-3.37352
  0
LINE
  8
0
 10
-28.866
 20
-3.37352
 11
-28.9978
 21
-1.9384
  0
LINE
  8
0
 10
-28.9978
 20
-1.9384
 11
-29.0618
 21
-0.413803
  0
LINE
  8
0
 10
-29.0618
 20
-0.413803
 11
-29.1669
 21
-0.412109
  0
LINE
  8
0
 10
-29.1669
 20
-0.412109
 11
-29.187
 21
-0.410797
  0
LINE
  8
0
 10
-29.187
 20
-0.410797
 11
-29.2076
 21
-0.408417
  0
LINE
  8
0
 10
-29.2076
 20
-0.408417
 11
-29.2273
 21
-0.405167
  0
LINE
  8
0
 10
-29.2273
 20
-0.405167
 11
-29.2475
 21
-0.400787
  0
LINE
  8
0
 10
-29.2475
 20
-0.400787
 11
-29.2668
 21
-0.395569
  0
LINE
  8
0
 10
-29.2668
 20
-0.395569
 11
-29.2863
 21
-0.389282
  0
LINE
  8
0
 10
-29.2863
 20
-0.389282
 11
-29.3054
 21
-0.382065
  0
LINE
  8
0
 10
-29.3054
 20
-0.382065
 11
-29.3241
 21
-0.373901
  0
LINE
  8
0
 10
-29.3241
 20
-0.373901
 11
-29.3423
 21
-0.364929
  0
LINE
  8
0
 10
-29.3423
 20
-0.364929
 11
-29.3601
 21
-0.354965
  0
LINE
  8
0
 10
-29.3601
 20
-0.354965
 11
-29.3773
 21
-0.344208
  0
LINE
  8
0
 10
-29.3773
 20
-0.344208
 11
-29.3941
 21
-0.332489
  0
LINE
  8
0
 10
-29.3941
 20
-0.332489
 11
-29.4102
 21
-0.320053
  0
LINE
  8
0
 10
-29.4102
 20
-0.320053
 11
-29.4256
 21
-0.3069
  0
LINE
  8
0
 10
-29.4256
 20
-0.3069
 11
-29.4404
 21
-0.292938
  0
LINE
  8
0
 10
-29.4404
 20
-0.292938
 11
-29.4545
 21
-0.278259
  0
LINE
  8
0
 10
-29.4545
 20
-0.278259
 11
-29.4679
 21
-0.262802
  0
LINE
  8
0
 10
-29.4679
 20
-0.262802
 11
-29.4803
 21
-0.247025
  0
LINE
  8
0
 10
-29.4803
 20
-0.247025
 11
-29.4924
 21
-0.230026
  0
LINE
  8
0
 10
-29.4924
 20
-0.230026
 11
-29.503
 21
-0.213318
  0
LINE
  8
0
 10
-29.503
 20
-0.213318
 11
-29.5134
 21
-0.195145
  0
LINE
  8
0
 10
-29.5134
 20
-0.195145
 11
-29.5223
 21
-0.177521
  0
LINE
  8
0
 10
-29.5223
 20
-0.177521
 11
-29.5308
 21
-0.158585
  0
LINE
  8
0
 10
-29.5308
 20
-0.158585
 11
-29.5381
 21
-0.139648
  0
LINE
  8
0
 10
-29.5381
 20
-0.139648
 11
-29.5445
 21
-0.120392
  0
LINE
  8
0
 10
-29.5445
 20
-0.120392
 11
-29.5499
 21
-0.100845
  0
LINE
  8
0
 10
-29.5499
 20
-0.100845
 11
-29.5545
 21
-0.08078
  0
LINE
  8
0
 10
-29.5545
 20
-0.08078
 11
-29.5579
 21
-0.0609131
  0
LINE
  8
0
 10
-29.5579
 20
-0.0609131
 11
-29.5604
 21
-0.0406799
  0
LINE
  8
0
 10
-29.5604
 20
-0.0406799
 11
-29.562
 21
-0.0203247
  0
LINE
  8
0
 10
-29.562
 20
-0.0203247
 11
-29.5625
 21
0
  0
LINE
  8
0
 10
-29.5625
 20
0
 11
-29.562
 21
0.0203247
  0
LINE
  8
0
 10
-29.562
 20
0.0203247
 11
-29.5604
 21
0.0406799
  0
LINE
  8
0
 10
-29.5604
 20
0.0406799
 11
-29.5579
 21
0.0609131
  0
LINE
  8
0
 10
-29.5579
 20
0.0609131
 11
-29.5545
 21
0.08078
  0
LINE
  8
0
 10
-29.5545
 20
0.08078
 11
-29.5499
 21
0.100845
  0
LINE
  8
0
 10
-29.5499
 20
0.100845
 11
-29.5445
 21
0.120392
  0
LINE
  8
0
 10
-29.5445
 20
0.120392
 11
-29.5381
 21
0.139648
  0
LINE
  8
0
 10
-29.5381
 20
0.139648
 11
-29.5308
 21
0.158585
  0
LINE
  8
0
 10
-29.5308
 20
0.158585
 11
-29.5223
 21
0.177521
  0
LINE
  8
0
 10
-29.5223
 20
0.177521
 11
-29.5134
 21
0.195145
  0
LINE
  8
0
 10
-29.5134
 20
0.195145
 11
-29.503
 21
0.213272
  0
LINE
  8
0
 10
-29.503
 20
0.213272
 11
-29.4924
 21
0.230026
  0
LINE
  8
0
 10
-29.4924
 20
0.230026
 11
-29.4803
 21
0.247025
  0
LINE
  8
0
 10
-29.4803
 20
0.247025
 11
-29.4679
 21
0.262802
  0
LINE
  8
0
 10
-29.4679
 20
0.262802
 11
-29.4545
 21
0.278259
  0
LINE
  8
0
 10
-29.4545
 20
0.278259
 11
-29.4404
 21
0.292938
  0
LINE
  8
0
 10
-29.4404
 20
0.292938
 11
-29.4256
 21
0.3069
  0
LINE
  8
0
 10
-29.4256
 20
0.3069
 11
-29.4102
 21
0.320053
  0
LINE
  8
0
 10
-29.4102
 20
0.320053
 11
-29.3941
 21
0.332489
  0
LINE
  8
0
 10
-29.3941
 20
0.332489
 11
-29.3773
 21
0.344208
  0
LINE
  8
0
 10
-29.3773
 20
0.344208
 11
-29.3601
 21
0.354965
  0
LINE
  8
0
 10
-29.3601
 20
0.354965
 11
-29.3423
 21
0.364929
  0
LINE
  8
0
 10
-29.3423
 20
0.364929
 11
-29.3241
 21
0.373901
  0
LINE
  8
0
 10
-29.3241
 20
0.373901
 11
-29.3054
 21
0.382065
  0
LINE
  8
0
 10
-29.3054
 20
0.382065
 11
-29.2863
 21
0.389282
  0
LINE
  8
0
 10
-29.2863
 20
0.389282
 11
-29.2668
 21
0.395569
  0
LINE
  8
0
 10
-29.2668
 20
0.395569
 11
-29.2475
 21
0.400787
  0
LINE
  8
0
 10
-29.2475
 20
0.400787
 11
-29.2273
 21
0.405167
  0
LINE
  8
0
 10
-29.2273
 20
0.405167
 11
-29.2076
 21
0.408417
  0
LINE
  8
0
 10
-29.2076
 20
0.408417
 11
-29.187
 21
0.410797
  0
LINE
  8
0
 10
-29.187
 20
0.410797
 11
-29.1669
 21
0.412109
  0
LINE
  8
0
 10
-29.1669
 20
0.412109
 11
-29.0618
 21
0.413803
  0
LINE
  8
0
 10
-29.0618
 20
0.413803
 11
-28.9978
 21
1.9384
  0
LINE
  8
0
 10
-28.9978
 20
1.9384
 11
-28.866
 21
3.37352
  0
LINE
  8
0
 10
-28.866
 20
3.37352
 11
-28.6633
 21
4.80043
  0
LINE
  8
0
 10
-28.6633
 20
4.80043
 11
-28.3901
 21
6.21519
  0
LINE
  8
0
 10
-28.3901
 20
6.21519
 11
-28.047
 21
7.61537
  0
LINE
  8
0
 10
-28.047
 20
7.61537
 11
-27.635
 21
8.99619
  0
LINE
  8
0
 10
-27.635
 20
8.99619
 11
-27.1551
 21
10.3551
  0
LINE
  8
0
 10
-27.1551
 20
10.3551
 11
-26.6083
 21
11.6887
  0
LINE
  8
0
 10
-26.6083
 20
11.6887
 11
-25.9962
 21
12.9933
  0
LINE
  8
0
 10
-25.9962
 20
12.9933
 11
-25.3202
 21
14.2659
  0
LINE
  8
0
 10
-25.3202
 20
14.2659
 11
-24.5816
 21
15.5039
  0
LINE
  8
0
 10
-24.5816
 20
15.5039
 11
-23.783
 21
16.7032
  0
LINE
  8
0
 10
-23.783
 20
16.7032
 11
-22.9255
 21
17.8619
  0
LINE
  8
0
 10
-22.9255
 20
17.8619
 11
-22.012
 21
18.9763
  0
LINE
  8
0
 10
-22.012
 20
18.9763
 11
-21.0442
 21
20.0442
  0
LINE
  8
0
 10
-21.0442
 20
20.0442
 11
-20.0246
 21
21.0628
  0
LINE
  8
0
 10
-20.0246
 20
21.0628
 11
-18.9557
 21
22.0297
  0
LINE
  8
0
 10
-18.9557
 20
22.0297
 11
-17.8406
 21
22.9421
  0
LINE
  8
0
 10
-17.8406
 20
22.9421
 11
-16.6811
 21
23.7985
  0
LINE
  8
0
 10
-16.6811
 20
23.7985
 11
-15.4807
 21
24.5963
  0
LINE
  8
0
 10
-15.4807
 20
24.5963
 11
-14.2426
 21
25.3333
  0
LINE
  8
0
 10
-14.2426
 20
25.3333
 11
-12.9692
 21
26.0082
  0
LINE
  8
0
 10
-12.9692
 20
26.0082
 11
-11.6637
 21
26.6192
  0
LINE
  8
0
 10
-11.6637
 20
26.6192
 11
-10.3299
 21
27.1647
  0
LINE
  8
0
 10
-10.3299
 20
27.1647
 11
-8.97049
 21
27.6434
  0
LINE
  8
0
 10
-8.97049
 20
27.6434
 11
-7.58904
 21
28.0541
  0
LINE
  8
0
 10
-7.58904
 20
28.0541
 11
-6.1888
 21
28.3959
  0
LINE
  8
0
 10
-6.1888
 20
28.3959
 11
-4.77374
 21
28.6677
  0
LINE
  8
0
 10
-4.77374
 20
28.6677
 11
-3.34673
 21
28.8691
  0
LINE
  8
0
 10
-3.34673
 20
28.8691
 11
-1.91144
 21
28.9995
  0
LINE
  8
0
 10
-1.91144
 20
28.9995
 11
-0.471207
 21
29.0587
  0
LINE
  8
0
 10
-0.471207
 20
29.0587
 11
0.969589
 21
29.0463
  0
LINE
  8
0
 10
0.969589
 20
29.0463
 11
2.40858
 21
28.9625
  0
LINE
  8
0
 10
2.40858
 20
28.9625
 11
3.84113
 21
28.8075
  0
LINE
  8
0
 10
3.84113
 20
28.8075
 11
5.26486
 21
28.5816
  0
LINE
  8
0
 10
5.26486
 20
28.5816
 11
6.67502
 21
28.2855
  0
LINE
  8
0
 10
6.67502
 20
28.2855
 11
8.06915
 21
27.9198
  0
LINE
  8
0
 10
8.06915
 20
27.9198
 11
9.44347
 21
27.4854
  0
LINE
  8
0
 10
9.44347
 20
27.4854
 11
10.7941
 21
26.9836
  0
LINE
  8
0
 10
10.7941
 20
26.9836
 11
12.1187
 21
26.4152
  0
LINE
  8
0
 10
12.1187
 20
26.4152
 11
13.4133
 21
25.782
  0
LINE
  8
0
 10
13.4133
 20
25.782
 11
14.675
 21
25.0853
  0
LINE
  8
0
 10
14.675
 20
25.0853
 11
15.9003
 21
24.3271
  0
LINE
  8
0
 10
15.9003
 20
24.3271
 11
17.0869
 21
23.5089
  0
LINE
  8
0
 10
17.0869
 20
23.5089
 11
18.2313
 21
22.6328
  0
LINE
  8
0
 10
18.2313
 20
22.6328
 11
19.3309
 21
21.7012
  0
LINE
  8
0
 10
19.3309
 20
21.7012
 11
20.3828
 21
20.7164
  0
LINE
  8
0
 10
20.3828
 20
20.7164
 11
21.3849
 21
19.6803
  0
LINE
  8
0
 10
21.3849
 20
19.6803
 11
22.3343
 21
18.5959
  0
LINE
  8
0
 10
22.3343
 20
18.5959
 11
23.2286
 21
17.466
  0
LINE
  8
0
 10
23.2286
 20
17.466
 11
24.0659
 21
16.293
  0
LINE
  8
0
 10
24.0659
 20
16.293
 11
24.8441
 21
15.0797
  0
LINE
  8
0
 10
24.8441
 20
15.0797
 11
25.5609
 21
13.8299
  0
LINE
  8
0
 10
25.5609
 20
13.8299
 11
26.2153
 21
12.5453
  0
LINE
  8
0
 10
26.2153
 20
12.5453
 11
26.8049
 21
11.2306
  0
LINE
  8
0
 10
26.8049
 20
11.2306
 11
27.3286
 21
9.88799
  0
LINE
  8
0
 10
27.3286
 20
9.88799
 11
27.7853
 21
8.5208
  0
LINE
  8
0
 10
27.7853
 20
8.5208
 11
28.1735
 21
7.13306
  0
LINE
  8
0
 10
28.1735
 20
7.13306
 11
28.4925
 21
5.72755
  0
LINE
  8
0
 10
28.4925
 20
5.72755
 11
28.7414
 21
4.30803
  0
LINE
  8
0
 10
28.7414
 20
4.30803
 11
28.9196
 21
2.87819
  0
LINE
  8
0
 10
28.9196
 20
2.87819
 11
29.0267
 21
1.4407
  0
LINE
  8
0
 10
29.0267
 20
1.4407
 11
29.0625
 21
0
  0
LINE
  8
0
 10
29.0625
 20
0
 11
29.0267
 21
-1.4407
  0
LINE
  8
0
 10
29.0267
 20
-1.4407
 11
28.9196
 21
-2.87819
  0
LINE
  8
0
 10
28.9196
 20
-2.87819
 11
28.7414
 21
-4.30803
  0
LINE
  8
0
 10
28.7414
 20
-4.30803
 11
28.4925
 21
-5.72755
  0
LINE
  8
0
 10
28.4925
 20
-5.72755
 11
28.1735
 21
-7.13306
  0
LINE
  8
0
 10
28.1735
 20
-7.13306
 11
27.7853
 21
-8.5208
  0
LINE
  8
0
 10
27.7853
 20
-8.5208
 11
27.3286
 21
-9.88799
  0
LINE
  8
0
 10
27.3286
 20
-9.88799
 11
26.8049
 21
-11.2306
  0
LINE
  8
0
 10
26.8049
 20
-11.2306
 11
26.2153
 21
-12.5453
  0
LINE
  8
0
 10
26.2153
 20
-12.5453
 11
25.5609
 21
-13.8299
  0
LINE
  8
0
 10
25.5609
 20
-13.8299
 11
24.8441
 21
-15.0797
  0
LINE
  8
0
 10
24.8441
 20
-15.0797
 11
24.0659
 21
-16.293
  0
LINE
  8
0
 10
24.0659
 20
-16.293
 11
23.2286
 21
-17.466
  0
LINE
  8
0
 10
23.2286
 20
-17.466
 11
22.3343
 21
-18.5959
  0
LINE
  8
0
 10
22.3343
 20
-18.5959
 11
21.3849
 21
-19.6803
  0
LINE
  8
0
 10
21.3849
 20
-19.6803
 11
20.3828
 21
-20.7164
  0
LINE
  8
0
 10
20.3828
 20
-20.7164
 11
19.3309
 21
-21.7012
  0
LINE
  8
0
 10
19.3309
 20
-21.7012
 11
18.2313
 21
-22.6328
  0
LINE
  8
0
 10
18.2313
 20
-22.6328
 11
17.0869
 21
-23.5089
  0
LINE
  8
0
 10
17.0869
 20
-23.5089
 11
15.9003
 21
-24.3271
  0
LINE
  8
0
 10
15.9003
 20
-24.3271
 11
14.675
 21
-25.0853
  0
LINE
  8
0
 10
14.675
 20
-25.0853
 11
13.4133
 21
-25.782
  0
LINE
  8
0
 10
13.4133
 20
-25.782
 11
12.1187
 21
-26.4152
  0
LINE
  8
0
 10
12.1187
 20
-26.4152
 11
10.7941
 21
-26.9836
  0
LINE
  8
0
 10
10.7941
 20
-26.9836
 11
9.44347
 21
-27.4854
  0
LINE
  8
0
 10
9.44347
 20
-27.4854
 11
8.06915
 21
-27.9198
  0
LINE
  8
0
 10
8.06915
 20
-27.9198
 11
6.67502
 21
-28.2855
  0
LINE
  8
0
 10
6.67502
 20
-28.2855
 11
5.26486
 21
-28.5816
  0
LINE
  8
0
 10
5.26486
 20
-28.5816
 11
3.84113
 21
-28.8075
  0
LINE
  8
0
 10
3.84113
 20
-28.8075
 11
2.40858
 21
-28.9625
  0
LINE
  8
0
 10
2.40858
 20
-28.9625
 11
0.969589
 21
-29.0463
  0
LINE
  8
0
 10
0.969589
 20
-29.0463
 11
-0.471207
 21
-29.0587
  0
LINE
  8
0
 10
-0.471207
 20
-29.0587
 11
-1.91144
 21
-28.9995
  0
LINE
  8
0
 10
39.0788
 20
-4.86096
 11
38.8367
 21
-4.84888
  0
LINE
  8
0
 10
38.8367
 20
-4.84888
 11
38.5952
 21
-4.82471
  0
LINE
  8
0
 10
38.5952
 20
-4.82471
 11
38.3558
 21
-4.78862
  0
LINE
  8
0
 10
38.3558
 20
-4.78862
 11
38.1179
 21
-4.74052
  0
LINE
  8
0
 10
38.1179
 20
-4.74052
 11
37.8831
 21
-4.68076
  0
LINE
  8
0
 10
37.8831
 20
-4.68076
 11
37.6514
 21
-4.60925
  0
LINE
  8
0
 10
37.6514
 20
-4.60925
 11
37.4234
 21
-4.52628
  0
LINE
  8
0
 10
37.4234
 20
-4.52628
 11
37.2003
 21
-4.43225
  0
LINE
  8
0
 10
37.2003
 20
-4.43225
 11
36.9815
 21
-4.32687
  0
LINE
  8
0
 10
36.9815
 20
-4.32687
 11
36.7688
 21
-4.21104
  0
LINE
  8
0
 10
36.7688
 20
-4.21104
 11
36.5619
 21
-4.08461
  0
LINE
  8
0
 10
36.5619
 20
-4.08461
 11
36.3615
 21
-3.948
  0
LINE
  8
0
 10
36.3615
 20
-3.948
 11
36.1684
 21
-3.80171
  0
LINE
  8
0
 10
36.1684
 20
-3.80171
 11
35.9825
 21
-3.64575
  0
LINE
  8
0
 10
35.9825
 20
-3.64575
 11
35.8048
 21
-3.48087
  0
LINE
  8
0
 10
35.8048
 20
-3.48087
 11
35.6356
 21
-3.30734
  0
LINE
  8
0
 10
35.6356
 20
-3.30734
 11
35.4751
 21
-3.12555
  0
LINE
  8
0
 10
35.4751
 20
-3.12555
 11
35.3239
 21
-2.93588
  0
LINE
  8
0
 10
35.3239
 20
-2.93588
 11
35.1824
 21
-2.73914
  0
LINE
  8
0
 10
35.1824
 20
-2.73914
 11
35.0509
 21
-2.53545
  0
LINE
  8
0
 10
35.0509
 20
-2.53545
 11
34.9297
 21
-2.32558
  0
LINE
  8
0
 10
34.9297
 20
-2.32558
 11
34.8191
 21
-2.1098
  0
LINE
  8
0
 10
34.8191
 20
-2.1098
 11
34.7193
 21
-1.88867
  0
LINE
  8
0
 10
34.7193
 20
-1.88867
 11
34.6308
 21
-1.66309
  0
LINE
  8
0
 10
34.6308
 20
-1.66309
 11
34.5535
 21
-1.43318
  0
LINE
  8
0
 10
34.5535
 20
-1.43318
 11
34.4879
 21
-1.19997
  0
LINE
  8
0
 10
34.4879
 20
-1.19997
 11
34.4339
 21
-0.963303
  0
LINE
  8
0
 10
34.4339
 20
-0.963303
 11
34.3918
 21
-0.724808
  0
LINE
  8
0
 10
34.3918
 20
-0.724808
 11
34.3617
 21
-0.484009
  0
LINE
  8
0
 10
34.3617
 20
-0.484009
 11
34.3436
 21
-0.242584
  0
LINE
  8
0
 10
34.3436
 20
-0.242584
 11
34.3375
 21
0
  0
LINE
  8
0
 10
34.3375
 20
0
 11
34.3436
 21
0.242584
  0
LINE
  8
0
 10
34.3436
 20
0.242584
 11
34.3617
 21
0.483994
  0
LINE
  8
0
 10
34.3617
 20
0.483994
 11
34.3918
 21
0.724808
  0
LINE
  8
0
 10
34.3918
 20
0.724808
 11
34.4339
 21
0.963303
  0
LINE
  8
0
 10
34.4339
 20
0.963303
 11
34.4879
 21
1.19997
  0
LINE
  8
0
 10
34.4879
 20
1.19997
 11
34.5535
 21
1.43318
  0
LINE
  8
0
 10
34.5535
 20
1.43318
 11
34.6308
 21
1.66309
  0
LINE
  8
0
 10
34.6308
 20
1.66309
 11
34.7193
 21
1.88867
  0
LINE
  8
0
 10
34.7193
 20
1.88867
 11
34.8191
 21
2.1098
  0
LINE
  8
0
 10
34.8191
 20
2.1098
 11
34.9297
 21
2.32558
  0
LINE
  8
0
 10
34.9297
 20
2.32558
 11
35.0509
 21
2.53545
  0
LINE
  8
0
 10
35.0509
 20
2.53545
 11
35.1824
 21
2.73914
  0
LINE
  8
0
 10
35.1824
 20
2.73914
 11
35.3239
 21
2.93588
  0
LINE
  8
0
 10
35.3239
 20
2.93588
 11
35.4751
 21
3.12555
  0
LINE
  8
0
 10
35.4751
 20
3.12555
 11
35.6356
 21
3.30734
  0
LINE
  8
0
 10
35.6356
 20
3.30734
 11
35.8048
 21
3.48087
  0
LINE
  8
0
 10
35.8048
 20
3.48087
 11
35.9825
 21
3.64575
  0
LINE
  8
0
 10
35.9825
 20
3.64575
 11
36.1684
 21
3.80171
  0
LINE
  8
0
 10
36.1684
 20
3.80171
 11
36.3615
 21
3.948
  0
LINE
  8
0
 10
36.3615
 20
3.948
 11
36.5619
 21
4.08461
  0
LINE
  8
0
 10
36.5619
 20
4.08461
 11
36.7688
 21
4.21104
  0
LINE
  8
0
 10
36.7688
 20
4.21104
 11
36.9815
 21
4.32687
  0
LINE
  8
0
 10
36.9815
 20
4.32687
 11
37.2003
 21
4.43225
  0
LINE
  8
0
 10
37.2003
 20
4.43225
 11
37.4234
 21
4.52628
  0
LINE
  8
0
 10
37.4234
 20
4.52628
 11
37.6514
 21
4.60925
  0
LINE
  8
0
 10
37.6514
 20
4.60925
 11
37.8831
 21
4.68076
  0
LINE
  8
0
 10
37.8831
 20
4.68076
 11
38.1179
 21
4.74052
  0
LINE
  8
0
 10
38.1179
 20
4.74052
 11
38.3558
 21
4.78862
  0
LINE
  8
0
 10
38.3558
 20
4.78862
 11
38.5952
 21
4.82471
  0
LINE
  8
0
 10
38.5952
 20
4.82471
 11
38.8367
 21
4.84888
  0
LINE
  8
0
 10
38.8367
 20
4.84888
 11
39.0788
 21
4.86096
  0
LINE
  8
0
 10
39.0788
 20
4.86096
 11
39.3212
 21
4.86096
  0
LINE
  8
0
 10
39.3212
 20
4.86096
 11
39.5633
 21
4.84888
  0
LINE
  8
0
 10
39.5633
 20
4.84888
 11
39.8047
 21
4.82471
  0
LINE
  8
0
 10
39.8047
 20
4.82471
 11
40.0442
 21
4.78862
  0
LINE
  8
0
 10
40.0442
 20
4.78862
 11
40.2821
 21
4.74052
  0
LINE
  8
0
 10
40.2821
 20
4.74052
 11
40.5168
 21
4.68076
  0
LINE
  8
0
 10
40.5168
 20
4.68076
 11
40.7486
 21
4.60925
  0
LINE
  8
0
 10
40.7486
 20
4.60925
 11
40.9766
 21
4.52628
  0
LINE
  8
0
 10
40.9766
 20
4.52628
 11
41.1997
 21
4.43225
  0
LINE
  8
0
 10
41.1997
 20
4.43225
 11
41.4184
 21
4.32693
  0
LINE
  8
0
 10
41.4184
 20
4.32693
 11
41.6313
 21
4.21097
  0
LINE
  8
0
 10
41.6313
 20
4.21097
 11
41.8381
 21
4.08461
  0
LINE
  8
0
 10
41.8381
 20
4.08461
 11
42.0385
 21
3.948
  0
LINE
  8
0
 10
42.0385
 20
3.948
 11
42.2316
 21
3.80171
  0
LINE
  8
0
 10
42.2316
 20
3.80171
 11
42.4174
 21
3.64575
  0
LINE
  8
0
 10
42.4174
 20
3.64575
 11
42.5952
 21
3.48087
  0
LINE
  8
0
 10
42.5952
 20
3.48087
 11
42.7644
 21
3.30734
  0
LINE
  8
0
 10
42.7644
 20
3.30734
 11
42.925
 21
3.1254
  0
LINE
  8
0
 10
42.925
 20
3.1254
 11
43.076
 21
2.93605
  0
LINE
  8
0
 10
43.076
 20
2.93605
 11
43.2175
 21
2.73914
  0
LINE
  8
0
 10
43.2175
 20
2.73914
 11
43.3491
 21
2.53543
  0
LINE
  8
0
 10
43.3491
 20
2.53543
 11
43.4703
 21
2.32558
  0
LINE
  8
0
 10
43.4703
 20
2.32558
 11
43.5809
 21
2.1098
  0
LINE
  8
0
 10
43.5809
 20
2.1098
 11
43.6807
 21
1.88867
  0
LINE
  8
0
 10
43.6807
 20
1.88867
 11
43.7692
 21
1.66309
  0
LINE
  8
0
 10
43.7692
 20
1.66309
 11
43.8465
 21
1.43318
  0
LINE
  8
0
 10
43.8465
 20
1.43318
 11
43.9121
 21
1.19997
  0
LINE
  8
0
 10
43.9121
 20
1.19997
 11
43.9661
 21
0.963303
  0
LINE
  8
0
 10
43.9661
 20
0.963303
 11
44.0081
 21
0.724808
  0
LINE
  8
0
 10
44.0081
 20
0.724808
 11
44.0383
 21
0.483994
  0
LINE
  8
0
 10
44.0383
 20
0.483994
 11
44.0564
 21
0.242584
  0
LINE
  8
0
 10
44.0564
 20
0.242584
 11
44.0625
 21
0
  0
LINE
  8
0
 10
44.0625
 20
0
 11
44.0564
 21
-0.242584
  0
LINE
  8
0
 10
44.0564
 20
-0.242584
 11
44.0383
 21
-0.484009
  0
LINE
  8
0
 10
44.0383
 20
-0.484009
 11
44.0081
 21
-0.724808
  0
LINE
  8
0
 10
44.0081
 20
-0.724808
 11
43.9661
 21
-0.963303
  0
LINE
  8
0
 10
43.9661
 20
-0.963303
 11
43.9121
 21
-1.19997
  0
LINE
  8
0
 10
43.9121
 20
-1.19997
 11
43.8465
 21
-1.43318
  0
LINE
  8
0
 10
43.8465
 20
-1.43318
 11
43.7692
 21
-1.66309
  0
LINE
  8
0
 10
43.7692
 20
-1.66309
 11
43.6807
 21
-1.88867
  0
LINE
  8
0
 10
43.6807
 20
-1.88867
 11
43.5809
 21
-2.1098
  0
LINE
  8
0
 10
43.5809
 20
-2.1098
 11
43.4703
 21
-2.32558
  0
LINE
  8
0
 10
43.4703
 20
-2.32558
 11
43.3491
 21
-2.53543
  0
LINE
  8
0
 10
43.3491
 20
-2.53543
 11
43.2175
 21
-2.73914
  0
LINE
  8
0
 10
43.2175
 20
-2.73914
 11
43.076
 21
-2.93605
  0
LINE
  8
0
 10
43.076
 20
-2.93605
 11
42.925
 21
-3.1254
  0
LINE
  8
0
 10
42.925
 20
-3.1254
 11
42.7644
 21
-3.30734
  0
LINE
  8
0
 10
42.7644
 20
-3.30734
 11
42.5952
 21
-3.48087
  0
LINE
  8
0
 10
42.5952
 20
-3.48087
 11
42.4174
 21
-3.64575
  0
LINE
  8
0
 10
42.4174
 20
-3.64575
 11
42.2316
 21
-3.80171
  0
LINE
  8
0
 10
42.2316
 20
-3.80171
 11
42.0385
 21
-3.948
  0
LINE
  8
0
 10
42.0385
 20
-3.948
 11
41.8381
 21
-4.08461
  0
LINE
  8
0
 10
41.8381
 20
-4.08461
 11
41.6313
 21
-4.21097
  0
LINE
  8
0
 10
41.6313
 20
-4.21097
 11
41.4184
 21
-4.32693
  0
LINE
  8
0
 10
41.4184
 20
-4.32693
 11
41.1997
 21
-4.43225
  0
LINE
  8
0
 10
41.1997
 20
-4.43225
 11
40.9766
 21
-4.52628
  0
LINE
  8
0
 10
40.9766
 20
-4.52628
 11
40.7486
 21
-4.60925
  0
LINE
  8
0
 10
40.7486
 20
-4.60925
 11
40.5168
 21
-4.68076
  0
LINE
  8
0
 10
40.5168
 20
-4.68076
 11
40.2821
 21
-4.74052
  0
LINE
  8
0
 10
40.2821
 20
-4.74052
 11
40.0442
 21
-4.78862
  0
LINE
  8
0
 10
40.0442
 20
-4.78862
 11
39.8047
 21
-4.82471
  0
LINE
  8
0
 10
39.8047
 20
-4.82471
 11
39.5633
 21
-4.84888
  0
LINE
  8
0
 10
39.5633
 20
-4.84888
 11
39.3212
 21
-4.86096
  0
LINE
  8
0
 10
39.3212
 20
-4.86096
 11
39.0788
 21
-4.86096
  0
LINE
  8
0
 10
-39.3212
 20
-4.86096
 11
-39.5633
 21
-4.84888
  0
LINE
  8
0
 10
-39.5633
 20
-4.84888
 11
-39.8047
 21
-4.82471
  0
LINE
  8
0
 10
-39.8047
 20
-4.82471
 11
-40.0442
 21
-4.78862
  0
LINE
  8
0
 10
-40.0442
 20
-4.78862
 11
-40.2821
 21
-4.74052
  0
LINE
  8
0
 10
-40.2821
 20
-4.74052
 11
-40.5168
 21
-4.68076
  0
LINE
  8
0
 10
-40.5168
 20
-4.68076
 11
-40.7486
 21
-4.60925
  0
LINE
  8
0
 10
-40.7486
 20
-4.60925
 11
-40.9766
 21
-4.52628
  0
LINE
  8
0
 10
-40.9766
 20
-4.52628
 11
-41.1997
 21
-4.43225
  0
LINE
  8
0
 10
-41.1997
 20
-4.43225
 11
-41.4184
 21
-4.32693
  0
LINE
  8
0
 10
-41.4184
 20
-4.32693
 11
-41.6313
 21
-4.21097
  0
LINE
  8
0
 10
-41.6313
 20
-4.21097
 11
-41.8381
 21
-4.08461
  0
LINE
  8
0
 10
-41.8381
 20
-4.08461
 11
-42.0385
 21
-3.948
  0
LINE
  8
0
 10
-42.0385
 20
-3.948
 11
-42.2316
 21
-3.80171
  0
LINE
  8
0
 10
-42.2316
 20
-3.80171
 11
-42.4174
 21
-3.64575
  0
LINE
  8
0
 10
-42.4174
 20
-3.64575
 11
-42.5952
 21
-3.48087
  0
LINE
  8
0
 10
-42.5952
 20
-3.48087
 11
-42.7644
 21
-3.30734
  0
LINE
  8
0
 10
-42.7644
 20
-3.30734
 11
-42.925
 21
-3.1254
  0
LINE
  8
0
 10
-42.925
 20
-3.1254
 11
-43.076
 21
-2.93605
  0
LINE
  8
0
 10
-43.076
 20
-2.93605
 11
-43.2175
 21
-2.73914
  0
LINE
  8
0
 10
-43.2175
 20
-2.73914
 11
-43.3491
 21
-2.53543
  0
LINE
  8
0
 10
-43.3491
 20
-2.53543
 11
-43.4703
 21
-2.32558
  0
LINE
  8
0
 10
-43.4703
 20
-2.32558
 11
-43.5809
 21
-2.1098
  0
LINE
  8
0
 10
-43.5809
 20
-2.1098
 11
-43.6807
 21
-1.88867
  0
LINE
  8
0
 10
-43.6807
 20
-1.88867
 11
-43.7692
 21
-1.66309
  0
LINE
  8
0
 10
-43.7692
 20
-1.66309
 11
-43.8465
 21
-1.43318
  0
LINE
  8
0
 10
-43.8465
 20
-1.43318
 11
-43.9121
 21
-1.19997
  0
LINE
  8
0
 10
-43.9121
 20
-1.19997
 11
-43.9661
 21
-0.963303
  0
LINE
  8
0
 10
-43.9661
 20
-0.963303
 11
-44.0081
 21
-0.724808
  0
LINE
  8
0
 10
-44.0081
 20
-0.724808
 11
-44.0383
 21
-0.484009
  0
LINE
  8
0
 10
-44.0383
 20
-0.484009
 11
-44.0564
 21
-0.242584
  0
LINE
  8
0
 10
-44.0564
 20
-0.242584
 11
-44.0625
 21
0
  0
LINE
  8
0
 10
-44.0625
 20
0
 11
-44.0564
 21
0.242584
  0
LINE
  8
0
 10
-44.0564
 20
0.242584
 11
-44.0383
 21
0.483994
  0
LINE
  8
0
 10
-44.0383
 20
0.483994
 11
-44.0081
 21
0.724808
  0
LINE
  8
0
 10
-44.0081
 20
0.724808
 11
-43.9661
 21
0.963303
  0
LINE
  8
0
 10
-43.9661
 20
0.963303
 11
-43.9121
 21
1.19997
  0
LINE
  8
0
 10
-43.9121
 20
1.19997
 11
-43.8465
 21
1.43318
  0
LINE
  8
0
 10
-43.8465
 20
1.43318
 11
-43.7692
 21
1.66309
  0
LINE
  8
0
 10
-43.7692
 20
1.66309
 11
-43.6807
 21
1.88867
  0
LINE
  8
0
 10
-43.6807
 20
1.88867
 11
-43.5809
 21
2.1098
  0
LINE
  8
0
 10
-43.5809
 20
2.1098
 11
-43.4703
 21
2.32558
  0
LINE
  8
0
 10
-43.4703
 20
2.32558
 11
-43.3491
 21
2.53543
  0
LINE
  8
0
 10
-43.3491
 20
2.53543
 11
-43.2175
 21
2.73914
  0
LINE
  8
0
 10
-43.2175
 20
2.73914
 11
-43.076
 21
2.93605
  0
LINE
  8
0
 10
-43.076
 20
2.93605
 11
-42.925
 21
3.1254
  0
LINE
  8
0
 10
-42.925
 20
3.1254
 11
-42.7644
 21
3.30734
  0
LINE
  8
0
 10
-42.7644
 20
3.30734
 11
-42.5952
 21
3.48087
  0
LINE
  8
0
 10
-42.5952
 20
3.48087
 11
-42.4174
 21
3.64575
  0
LINE
  8
0
 10
-42.4174
 20
3.64575
 11
-42.2316
 21
3.80171
  0
LINE
  8
0
 10
-42.2316
 20
3.80171
 11
-42.0385
 21
3.948
  0
LINE
  8
0
 10
-42.0385
 20
3.948
 11
-41.8381
 21
4.08461
  0
LINE
  8
0
 10
-41.8381
 20
4.08461
 11
-41.6313
 21
4.21097
  0
LINE
  8
0
 10
-41.6313
 20
4.21097
 11
-41.4184
 21
4.32693
  0
LINE
  8
0
 10
-41.4184
 20
4.32693
 11
-41.1997
 21
4.43225
  0
LINE
  8
0
 10
-41.1997
 20
4.43225
 11
-40.9766
 21
4.52628
  0
LINE
  8
0
 10
-40.9766
 20
4.52628
 11
-40.7486
 21
4.60925
  0
LINE
  8
0
 10
-40.7486
 20
4.60925
 11
-40.5168
 21
4.68076
  0
LINE
  8
0
 10
-40.5168
 20
4.68076
 11
-40.2821
 21
4.74052
  0
LINE
  8
0
 10
-40.2821
 20
4.74052
 11
-40.0442
 21
4.78862
  0
LINE
  8
0
 10
-40.0442
 20
4.78862
 11
-39.8047
 21
4.82471
  0
LINE
  8
0
 10
-39.8047
 20
4.82471
 11
-39.5633
 21
4.84888
  0
LINE
  8
0
 10
-39.5633
 20
4.84888
 11
-39.3212
 21
4.86096
  0
LINE
  8
0
 10
-39.3212
 20
4.86096
 11
-39.0788
 21
4.86096
  0
LINE
  8
0
 10
-39.0788
 20
4.86096
 11
-38.8367
 21
4.84888
  0
LINE
  8
0
 10
-38.8367
 20
4.84888
 11
-38.5952
 21
4.82471
  0
LINE
  8
0
 10
-38.5952
 20
4.82471
 11
-38.3558
 21
4.78862
  0
LINE
  8
0
 10
-38.3558
 20
4.78862
 11
-38.1179
 21
4.74052
  0
LINE
  8
0
 10
-38.1179
 20
4.74052
 11
-37.8831
 21
4.68076
  0
LINE
  8
0
 10
-37.8831
 20
4.68076
 11
-37.6514
 21
4.60925
  0
LINE
  8
0
 10
-37.6514
 20
4.60925
 11
-37.4234
 21
4.52628
  0
LINE
  8
0
 10
-37.4234
 20
4.52628
 11
-37.2003
 21
4.43225
  0
LINE
  8
0
 10
-37.2003
 20
4.43225
 11
-36.9815
 21
4.32687
  0
LINE
  8
0
 10
-36.9815
 20
4.32687
 11
-36.7688
 21
4.21104
  0
LINE
  8
0
 10
-36.7688
 20
4.21104
 11
-36.5619
 21
4.08461
  0
LINE
  8
0
 10
-36.5619
 20
4.08461
 11
-36.3615
 21
3.948
  0
LINE
  8
0
 10
-36.3615
 20
3.948
 11
-36.1684
 21
3.80171
  0
LINE
  8
0
 10
-36.1684
 20
3.80171
 11
-35.9825
 21
3.64575
  0
LINE
  8
0
 10
-35.9825
 20
3.64575
 11
-35.8048
 21
3.48087
  0
LINE
  8
0
 10
-35.8048
 20
3.48087
 11
-35.6356
 21
3.30734
  0
LINE
  8
0
 10
-35.6356
 20
3.30734
 11
-35.4751
 21
3.12555
  0
LINE
  8
0
 10
-35.4751
 20
3.12555
 11
-35.3239
 21
2.93588
  0
LINE
  8
0
 10
-35.3239
 20
2.93588
 11
-35.1824
 21
2.73914
  0
LINE
  8
0
 10
-35.1824
 20
2.73914
 11
-35.0509
 21
2.53545
  0
LINE
  8
0
 10
-35.0509
 20
2.53545
 11
-34.9297
 21
2.32558
  0
LINE
  8
0
 10
-34.9297
 20
2.32558
 11
-34.8191
 21
2.1098
  0
LINE
  8
0
 10
-34.8191
 20
2.1098
 11
-34.7193
 21
1.88867
  0
LINE
  8
0
 10
-34.7193
 20
1.88867
 11
-34.6308
 21
1.66309
  0
LINE
  8
0
 10
-34.6308
 20
1.66309
 11
-34.5535
 21
1.43318
  0
LINE
  8
0
 10
-34.5535
 20
1.43318
 11
-34.4879
 21
1.19997
  0
LINE
  8
0
 10
-34.4879
 20
1.19997
 11
-34.4339
 21
0.963303
  0
LINE
  8
0
 10
-34.4339
 20
0.963303
 11
-34.3918
 21
0.724808
  0
LINE
  8
0
 10
-34.3918
 20
0.724808
 11
-34.3617
 21
0.483994
  0
LINE
  8
0
 10
-34.3617
 20
0.483994
 11
-34.3436
 21
0.242584
  0
LINE
  8
0
 10
-34.3436
 20
0.242584
 11
-34.3375
 21
0
  0
LINE
  8
0
 10
-34.3375
 20
0
 11
-34.3436
 21
-0.242584
  0
LINE
  8
0
 10
-34.3436
 20
-0.242584
 11
-34.3617
 21
-0.484009
  0
LINE
  8
0
 10
-34.3617
 20
-0.484009
 11
-34.3918
 21
-0.724808
  0
LINE
  8
0
 10
-34.3918
 20
-0.724808
 11
-34.4339
 21
-0.963303
  0
LINE
  8
0
 10
-34.4339
 20
-0.963303
 11
-34.4879
 21
-1.19997
  0
LINE
  8
0
 10
-34.4879
 20
-1.19997
 11
-34.5535
 21
-1.43318
  0
LINE
  8
0
 10
-34.5535
 20
-1.43318
 11
-34.6308
 21
-1.66309
  0
LINE
  8
0
 10
-34.6308
 20
-1.66309
 11
-34.7193
 21
-1.88867
  0
LINE
  8
0
 10
-34.7193
 20
-1.88867
 11
-34.8191
 21
-2.1098
  0
LINE
  8
0
 10
-34.8191
 20
-2.1098
 11
-34.9297
 21
-2.32558
  0
LINE
  8
0
 10
-34.9297
 20
-2.32558
 11
-35.0509
 21
-2.53545
  0
LINE
  8
0
 10
-35.0509
 20
-2.53545
 11
-35.1824
 21
-2.73914
  0
LINE
  8
0
 10
-35.1824
 20
-2.73914
 11
-35.3239
 21
-2.93588
  0
LINE
  8
0
 10
-35.3239
 20
-2.93588
 11
-35.4751
 21
-3.12555
  0
LINE
  8
0
 10
-35.4751
 20
-3.12555
 11
-35.6356
 21
-3.30734
  0
LINE
  8
0
 10
-35.6356
 20
-3.30734
 11
-35.8048
 21
-3.48087
  0
LINE
  8
0
 10
-35.8048
 20
-3.48087
 11
-35.9825
 21
-3.64575
  0
LINE
  8
0
 10
-35.9825
 20
-3.64575
 11
-36.1684
 21
-3.80171
  0
LINE
  8
0
 10
-36.1684
 20
-3.80171
 11
-36.3615
 21
-3.948
  0
LINE
  8
0
 10
-36.3615
 20
-3.948
 11
-36.5619
 21
-4.08461
  0
LINE
  8
0
 10
-36.5619
 20
-4.08461
 11
-36.7688
 21
-4.21104
  0
LINE
  8
0
 10
-36.7688
 20
-4.21104
 11
-36.9815
 21
-4.32687
  0
LINE
  8
0
 10
-36.9815
 20
-4.32687
 11
-37.2003
 21
-4.43225
  0
LINE
  8
0
 10
-37.2003
 20
-4.43225
 11
-37.4234
 21
-4.52628
  0
LINE
  8
0
 10
-37.4234
 20
-4.52628
 11
-37.6514
 21
-4.60925
  0
LINE
  8
0
 10
-37.6514
 20
-4.60925
 11
-37.8831
 21
-4.68076
  0
LINE
  8
0
 10
-37.8831
 20
-4.68076
 11
-38.1179
 21
-4.74052
  0
LINE
  8
0
 10
-38.1179
 20
-4.74052
 11
-38.3558
 21
-4.78862
  0
LINE
  8
0
 10
-38.3558
 20
-4.78862
 11
-38.5952
 21
-4.82471
  0
LINE
  8
0
 10
-38.5952
 20
-4.82471
 11
-38.8367
 21
-4.84888
  0
LINE
  8
0
 10
-38.8367
 20
-4.84888
 11
-39.0788
 21
-4.86096
  0
LINE
  8
0
 10
-39.0788
 20
-4.86096
 11
-39.3212
 21
-4.86096
  0
LINE
  8
0
 10
-0.12117
 20
-44.061
 11
-0.363251
 21
-44.0489
  0
LINE
  8
0
 10
-0.363251
 20
-44.0489
 11
-0.604782
 21
-44.0247
  0
LINE
  8
0
 10
-0.604782
 20
-44.0247
 11
-0.844147
 21
-43.9886
  0
LINE
  8
0
 10
-0.844147
 20
-43.9886
 11
-1.08209
 21
-43.9405
  0
LINE
  8
0
 10
-1.08209
 20
-43.9405
 11
-1.31683
 21
-43.8808
  0
LINE
  8
0
 10
-1.31683
 20
-43.8808
 11
-1.54861
 21
-43.8092
  0
LINE
  8
0
 10
-1.54861
 20
-43.8092
 11
-1.77661
 21
-43.7263
  0
LINE
  8
0
 10
-1.77661
 20
-43.7263
 11
-1.99966
 21
-43.6322
  0
LINE
  8
0
 10
-1.99966
 20
-43.6322
 11
-2.21837
 21
-43.5269
  0
LINE
  8
0
 10
-2.21837
 20
-43.5269
 11
-2.43132
 21
-43.411
  0
LINE
  8
0
 10
-2.43132
 20
-43.411
 11
-2.63811
 21
-43.2846
  0
LINE
  8
0
 10
-2.63811
 20
-43.2846
 11
-2.83849
 21
-43.148
  0
LINE
  8
0
 10
-2.83849
 20
-43.148
 11
-3.03159
 21
-43.0017
  0
LINE
  8
0
 10
-3.03159
 20
-43.0017
 11
-3.21745
 21
-42.8457
  0
LINE
  8
0
 10
-3.21745
 20
-42.8457
 11
-3.39516
 21
-42.6809
  0
LINE
  8
0
 10
-3.39516
 20
-42.6809
 11
-3.56441
 21
-42.5073
  0
LINE
  8
0
 10
-3.56441
 20
-42.5073
 11
-3.72498
 21
-42.3254
  0
LINE
  8
0
 10
-3.72498
 20
-42.3254
 11
-3.87599
 21
-42.136
  0
LINE
  8
0
 10
-3.87599
 20
-42.136
 11
-4.01755
 21
-41.9391
  0
LINE
  8
0
 10
-4.01755
 20
-41.9391
 11
-4.14911
 21
-41.7354
  0
LINE
  8
0
 10
-4.14911
 20
-41.7354
 11
-4.27028
 21
-41.5256
  0
LINE
  8
0
 10
-4.27028
 20
-41.5256
 11
-4.38097
 21
-41.3097
  0
LINE
  8
0
 10
-4.38097
 20
-41.3097
 11
-4.48062
 21
-41.0888
  0
LINE
  8
0
 10
-4.48062
 20
-41.0888
 11
-4.56921
 21
-40.8631
  0
LINE
  8
0
 10
-4.56921
 20
-40.8631
 11
-4.64645
 21
-40.6332
  0
LINE
  8
0
 10
-4.64645
 20
-40.6332
 11
-4.71207
 21
-40.4
  0
LINE
  8
0
 10
-4.71207
 20
-40.4
 11
-4.7661
 21
-40.1633
  0
LINE
  8
0
 10
-4.7661
 20
-40.1633
 11
-4.80814
 21
-39.9248
  0
LINE
  8
0
 10
-4.80814
 20
-39.9248
 11
-4.83832
 21
-39.684
  0
LINE
  8
0
 10
-4.83832
 20
-39.684
 11
-4.8564
 21
-39.4426
  0
LINE
  8
0
 10
-4.8564
 20
-39.4426
 11
-4.86246
 21
-39.2
  0
LINE
  8
0
 10
-4.86246
 20
-39.2
 11
-4.8564
 21
-38.9574
  0
LINE
  8
0
 10
-4.8564
 20
-38.9574
 11
-4.83832
 21
-38.716
  0
LINE
  8
0
 10
-4.83832
 20
-38.716
 11
-4.80814
 21
-38.4752
  0
LINE
  8
0
 10
-4.80814
 20
-38.4752
 11
-4.7661
 21
-38.2367
  0
LINE
  8
0
 10
-4.7661
 20
-38.2367
 11
-4.71207
 21
-38
  0
LINE
  8
0
 10
-4.71207
 20
-38
 11
-4.64645
 21
-37.7668
  0
LINE
  8
0
 10
-4.64645
 20
-37.7668
 11
-4.56921
 21
-37.5369
  0
LINE
  8
0
 10
-4.56921
 20
-37.5369
 11
-4.48062
 21
-37.3112
  0
LINE
  8
0
 10
-4.48062
 20
-37.3112
 11
-4.38097
 21
-37.0903
  0
LINE
  8
0
 10
-4.38097
 20
-37.0903
 11
-4.27028
 21
-36.8744
  0
LINE
  8
0
 10
-4.27028
 20
-36.8744
 11
-4.14911
 21
-36.6646
  0
LINE
  8
0
 10
-4.14911
 20
-36.6646
 11
-4.01755
 21
-36.4608
  0
LINE
  8
0
 10
-4.01755
 20
-36.4608
 11
-3.87599
 21
-36.2639
  0
LINE
  8
0
 10
-3.87599
 20
-36.2639
 11
-3.72496
 21
-36.0746
  0
LINE
  8
0
 10
-3.72496
 20
-36.0746
 11
-3.56444
 21
-35.8927
  0
LINE
  8
0
 10
-3.56444
 20
-35.8927
 11
-3.39516
 21
-35.7191
  0
LINE
  8
0
 10
-3.39516
 20
-35.7191
 11
-3.21745
 21
-35.5542
  0
LINE
  8
0
 10
-3.21745
 20
-35.5542
 11
-3.03159
 21
-35.3983
  0
LINE
  8
0
 10
-3.03159
 20
-35.3983
 11
-2.83849
 21
-35.252
  0
LINE
  8
0
 10
-2.83849
 20
-35.252
 11
-2.63811
 21
-35.1154
  0
LINE
  8
0
 10
-2.63811
 20
-35.1154
 11
-2.43118
 21
-34.9889
  0
LINE
  8
0
 10
-2.43118
 20
-34.9889
 11
-2.21826
 21
-34.873
  0
LINE
  8
0
 10
-2.21826
 20
-34.873
 11
-1.99992
 21
-34.7678
  0
LINE
  8
0
 10
-1.99992
 20
-34.7678
 11
-1.77661
 21
-34.6737
  0
LINE
  8
0
 10
-1.77661
 20
-34.6737
 11
-1.54861
 21
-34.5907
  0
LINE
  8
0
 10
-1.54861
 20
-34.5907
 11
-1.31685
 21
-34.5192
  0
LINE
  8
0
 10
-1.31685
 20
-34.5192
 11
-1.08209
 21
-34.4595
  0
LINE
  8
0
 10
-1.08209
 20
-34.4595
 11
-0.844193
 21
-34.4114
  0
LINE
  8
0
 10
-0.844193
 20
-34.4114
 11
-0.604736
 21
-34.3753
  0
LINE
  8
0
 10
-0.604736
 20
-34.3753
 11
-0.363251
 21
-34.3511
  0
LINE
  8
0
 10
-0.363251
 20
-34.3511
 11
-0.12117
 21
-34.339
  0
LINE
  8
0
 10
-0.12117
 20
-34.339
 11
0.12117
 21
-34.339
  0
LINE
  8
0
 10
0.12117
 20
-34.339
 11
0.363251
 21
-34.3511
  0
LINE
  8
0
 10
0.363251
 20
-34.3511
 11
0.604736
 21
-34.3753
  0
LINE
  8
0
 10
0.604736
 20
-34.3753
 11
0.844193
 21
-34.4114
  0
LINE
  8
0
 10
0.844193
 20
-34.4114
 11
1.08209
 21
-34.4595
  0
LINE
  8
0
 10
1.08209
 20
-34.4595
 11
1.31685
 21
-34.5192
  0
LINE
  8
0
 10
1.31685
 20
-34.5192
 11
1.54861
 21
-34.5907
  0
LINE
  8
0
 10
1.54861
 20
-34.5907
 11
1.77661
 21
-34.6737
  0
LINE
  8
0
 10
1.77661
 20
-34.6737
 11
1.99992
 21
-34.7678
  0
LINE
  8
0
 10
1.99992
 20
-34.7678
 11
2.21826
 21
-34.873
  0
LINE
  8
0
 10
2.21826
 20
-34.873
 11
2.43118
 21
-34.9889
  0
LINE
  8
0
 10
2.43118
 20
-34.9889
 11
2.63811
 21
-35.1154
  0
LINE
  8
0
 10
2.63811
 20
-35.1154
 11
2.83849
 21
-35.252
  0
LINE
  8
0
 10
2.83849
 20
-35.252
 11
3.03159
 21
-35.3983
  0
LINE
  8
0
 10
3.03159
 20
-35.3983
 11
3.21745
 21
-35.5542
  0
LINE
  8
0
 10
3.21745
 20
-35.5542
 11
3.39516
 21
-35.7191
  0
LINE
  8
0
 10
3.39516
 20
-35.7191
 11
3.56444
 21
-35.8927
  0
LINE
  8
0
 10
3.56444
 20
-35.8927
 11
3.72496
 21
-36.0746
  0
LINE
  8
0
 10
3.72496
 20
-36.0746
 11
3.87599
 21
-36.2639
  0
LINE
  8
0
 10
3.87599
 20
-36.2639
 11
4.01755
 21
-36.4608
  0
LINE
  8
0
 10
4.01755
 20
-36.4608
 11
4.14911
 21
-36.6646
  0
LINE
  8
0
 10
4.14911
 20
-36.6646
 11
4.27028
 21
-36.8744
  0
LINE
  8
0
 10
4.27028
 20
-36.8744
 11
4.38097
 21
-37.0903
  0
LINE
  8
0
 10
4.38097
 20
-37.0903
 11
4.48062
 21
-37.3112
  0
LINE
  8
0
 10
4.48062
 20
-37.3112
 11
4.56921
 21
-37.5369
  0
LINE
  8
0
 10
4.56921
 20
-37.5369
 11
4.64645
 21
-37.7668
  0
LINE
  8
0
 10
4.64645
 20
-37.7668
 11
4.71207
 21
-38
  0
LINE
  8
0
 10
4.71207
 20
-38
 11
4.7661
 21
-38.2367
  0
LINE
  8
0
 10
4.7661
 20
-38.2367
 11
4.80814
 21
-38.4752
  0
LINE
  8
0
 10
4.80814
 20
-38.4752
 11
4.83832
 21
-38.716
  0
LINE
  8
0
 10
4.83832
 20
-38.716
 11
4.8564
 21
-38.9574
  0
LINE
  8
0
 10
4.8564
 20
-38.9574
 11
4.86246
 21
-39.2
  0
LINE
  8
0
 10
4.86246
 20
-39.2
 11
4.8564
 21
-39.4426
  0
LINE
  8
0
 10
4.8564
 20
-39.4426
 11
4.83832
 21
-39.684
  0
LINE
  8
0
 10
4.83832
 20
-39.684
 11
4.80814
 21
-39.9248
  0
LINE
  8
0
 10
4.80814
 20
-39.9248
 11
4.7661
 21
-40.1633
  0
LINE
  8
0
 10
4.7661
 20
-40.1633
 11
4.71207
 21
-40.4
  0
LINE
  8
0
 10
4.71207
 20
-40.4
 11
4.64645
 21
-40.6332
  0
LINE
  8
0
 10
4.64645
 20
-40.6332
 11
4.56921
 21
-40.8631
  0
LINE
  8
0
 10
4.56921
 20
-40.8631
 11
4.48062
 21
-41.0888
  0
LINE
  8
0
 10
4.48062
 20
-41.0888
 11
4.38097
 21
-41.3097
  0
LINE
  8
0
 10
4.38097
 20
-41.3097
 11
4.27028
 21
-41.5256
  0
LINE
  8
0
 10
4.27028
 20
-41.5256
 11
4.14911
 21
-41.7354
  0
LINE
  8
0
 10
4.14911
 20
-41.7354
 11
4.01755
 21
-41.9391
  0
LINE
  8
0
 10
4.01755
 20
-41.9391
 11
3.87599
 21
-42.136
  0
LINE
  8
0
 10
3.87599
 20
-42.136
 11
3.72498
 21
-42.3254
  0
LINE
  8
0
 10
3.72498
 20
-42.3254
 11
3.56441
 21
-42.5073
  0
LINE
  8
0
 10
3.56441
 20
-42.5073
 11
3.39516
 21
-42.6809
  0
LINE
  8
0
 10
3.39516
 20
-42.6809
 11
3.21745
 21
-42.8457
  0
LINE
  8
0
 10
3.21745
 20
-42.8457
 11
3.03159
 21
-43.0017
  0
LINE
  8
0
 10
3.03159
 20
-43.0017
 11
2.83849
 21
-43.148
  0
LINE
  8
0
 10
2.83849
 20
-43.148
 11
2.63811
 21
-43.2846
  0
LINE
  8
0
 10
2.63811
 20
-43.2846
 11
2.43132
 21
-43.411
  0
LINE
  8
0
 10
2.43132
 20
-43.411
 11
2.21837
 21
-43.5269
  0
LINE
  8
0
 10
2.21837
 20
-43.5269
 11
1.99966
 21
-43.6322
  0
LINE
  8
0
 10
1.99966
 20
-43.6322
 11
1.77661
 21
-43.7263
  0
LINE
  8
0
 10
1.77661
 20
-43.7263
 11
1.54861
 21
-43.8092
  0
LINE
  8
0
 10
1.54861
 20
-43.8092
 11
1.31683
 21
-43.8808
  0
LINE
  8
0
 10
1.31683
 20
-43.8808
 11
1.08209
 21
-43.9405
  0
LINE
  8
0
 10
1.08209
 20
-43.9405
 11
0.844147
 21
-43.9886
  0
LINE
  8
0
 10
0.844147
 20
-43.9886
 11
0.604782
 21
-44.0247
  0
LINE
  8
0
 10
0.604782
 20
-44.0247
 11
0.363251
 21
-44.0489
  0
LINE
  8
0
 10
0.363251
 20
-44.0489
 11
0.12117
 21
-44.061
  0
LINE
  8
0
 10
0.12117
 20
-44.061
 11
-0.12117
 21
-44.061
  0
ENDSEC
  0
SECTION
  2
OBJECTS
  0
DICTIONARY
  0
ENDSEC
  0
EOF
