  0
SECTION
  2
BLOCKS
  0
ENDSEC
  0
SECTION
  2
ENTITIES
  0
LINE
  8
0
 10
25.4875
 20
-10.1375
 11
36.9125
 21
-10.1375
  0
LINE
  8
0
 10
36.9125
 20
-10.1375
 11
36.9125
 21
-20.1875
  0
LINE
  8
0
 10
36.9125
 20
-20.1875
 11
293.288
 21
-20.1875
  0
LINE
  8
0
 10
293.288
 20
-20.1875
 11
293.288
 21
-10.1375
  0
LINE
  8
0
 10
293.288
 20
-10.1375
 11
304.887
 21
-10.1375
  0
LINE
  8
0
 10
304.887
 20
-10.1375
 11
304.887
 21
0.0128479
  0
LINE
  8
0
 10
304.887
 20
0.0128479
 11
266.765
 21
127.087
  0
LINE
  8
0
 10
266.765
 20
127.087
 11
114.261
 21
127.087
  0
LINE
  8
0
 10
114.261
 20
127.087
 11
-0.0874939
 21
0.0335693
  0
LINE
  8
0
 10
-0.0874939
 20
0.0335693
 11
-0.0874939
 21
-20.1875
  0
LINE
  8
0
 10
-0.0874939
 20
-20.1875
 11
25.4875
 21
-20.1875
  0
LINE
  8
0
 10
25.4875
 20
-20.1875
 11
25.4875
 21
-10.1375
  0
ENDSEC
  0
SECTION
  2
OBJECTS
  0
DICTIONARY
  0
ENDSEC
  0
EOF
